<?xml version="1.0" ?><!DOCTYPE svg  PUBLIC '-//W3C//DTD SVG 1.1//EN'  'http://www.w3.org/Graphics/SVG/1.1/DTD/svg11.dtd'><svg style="enable-background:new 0 0 35.999 36.005;" version="1.1" viewBox="0 0 35.999 36.005" xml:space="preserve" xmlns="http://www.w3.org/2000/svg" xmlns:xlink="http://www.w3.org/1999/xlink"><g id="Delete"><g id="Layer_6"><defs><rect height="36.005" id="SVGID_1_" width="35.999"/></defs><clipPath id="SVGID_2_"><use style="overflow:visible;" xlink:href="#SVGID_1_"/></clipPath><g id="ClipView_2" style="clip-path:url(#SVGID_2_);"><g><path d="M1.501,1.431v32.244H33.75V1.431H1.501z" marker-end="none" marker-start="none" style="fill:none;"/><g id="ClipView_3"><defs><rect height="32.244" id="SVGID_3_" width="32.249" x="1.501" y="1.431"/></defs><clipPath id="SVGID_4_"><use style="overflow:visible;" xlink:href="#SVGID_3_"/></clipPath><g style="clip-path:url(#SVGID_4_);"><g id="Group_13"><path d="M28.468,31.226l-10.206-9.445L9.813,30.91         c-0.289,0.312-0.78,0.322-1.081,0.021l-3.485-3.487c-0.301-0.301-0.291-0.792,0.021-1.081l8.972-8.305L5.268,9.752         c-0.312-0.289-0.322-0.78-0.021-1.081l3.485-3.486c0.301-0.301,0.792-0.291,1.081,0.021l8.449,9.13l10.206-9.447         c0.296-0.273,0.755-0.265,1.04,0.02l1.76,1.76c0.285,0.285,0.293,0.744,0.02,1.04l-9.579,10.349l9.579,10.348         c0.273,0.296,0.265,0.755-0.02,1.04l-1.76,1.76C29.223,31.491,28.764,31.499,28.468,31.226z" marker-end="none" marker-start="none" style="fill:#990E0D;"/><linearGradient gradientTransform="matrix(6.123234e-017 -1 1 6.123234e-017 121.259 468.12)" gradientUnits="userSpaceOnUse" id="SVGID_5_" x1="438.709" x2="463.042" y1="-103.001" y2="-103.001"><stop offset="0" style="stop-color:#DF1413"/><stop offset="1" style="stop-color:#EA6459"/></linearGradient><path d="M28.978,30.675l-10.756-9.954L9.263,30.4         l-3.485-3.487l9.567-8.855L5.778,9.201l3.485-3.486l8.959,9.68l10.756-9.956l1.76,1.76L20.687,18.058l10.051,10.857         L28.978,30.675z" marker-end="none" marker-start="none" style="fill:url(#SVGID_5_);"/></g></g></g></g></g></g></g><g id="Layer_1"/></svg>