<svg xmlns="http://www.w3.org/2000/svg" viewbox="0 0 64 64"><svg xmlns="http://www.w3.org/2000/svg" viewBox="0 0 64 64"><style>.gotchi-primary{fill:#FF2A7A;}.gotchi-secondary{fill:#FFC3DF;}.gotchi-cheek{fill:#F696C6;}.gotchi-eyeColor{fill:#5D24BF;}.gotchi-primary-mouth{fill:#FF2A7A;}.gotchi-sleeves-up{display:none;}.gotchi-handsUp{display:none;}.gotchi-handsDownOpen{display:block;}.gotchi-handsDownClosed{display:none;}
.gotchi-bg {
    display:none;
  }




svg {
  
  animation-duration:0.5s;
  animation-iteration-count: infinite;
  animation-timing-function: linear;
  animation-timing-function: steps(1);
}

.gotchi-shadow {
  
   
   animation-duration:0.5s;
   animation-iteration-count: infinite;
   animation-timing-function: linear;
   animation-timing-function: steps(2);
}

.gotchi-wearable {
  
  animation-duration:0.5s;
  animation-iteration-count: infinite;
  animation-timing-function: linear;
  animation-timing-function: steps(1);
}



.gotchi-handsDownClosed, .gotchi-handsUp, .gotchi-handsDownOpen, .gotchi-handsDownClosed, .gotchi-body, .gotchi-eyeColor, .gotchi-collateral, .gotchi-cheek, .gotchi-primary-mouth, .gotchi-wearable, .gotchi-sleeves   {
   
   animation-duration:0.5s;
   animation-iteration-count: infinite;
   animation-timing-function: linear;
   animation-timing-function: steps(2);
}

.wearable-hand {
  
  animation-duration:0.5s;
  animation-iteration-count: infinite;
  animation-timing-function: linear;
  animation-timing-function: steps(2);
}

@keyframes downHands {
  from {
    transform: translate(0px, -4px);
  }
 to {
    transform: translate(0px, -3px);
  }
}


@keyframes up {
  from {
    transform: translate(0px, 0);
  }
 to {
    transform: translate(0px, -1px);
  }
}


@keyframes down {
 from {
   transform: translate(0px, 0);
    }
 to {
      transform: translate(0px, 1px);
    }
}
</style><g class="gotchi-bg"><defs fill="#fff"><pattern id="a" patternUnits="userSpaceOnUse" width="4" height="4"><path d="M0 0h1v1H0zm2 2h1v1H2z"></path></pattern><pattern id="b" patternUnits="userSpaceOnUse" x="0" y="0" width="2" height="2"><path d="M0 0h1v1H0z"></path></pattern><pattern id="c" patternUnits="userSpaceOnUse" x="-2" y="0" width="8" height="1"><path d="M0 0h1v1H0zm2 0h1v1H2zm2 0h1v1H4z"></path></pattern><pattern id="d" patternUnits="userSpaceOnUse" x="0" y="0" width="4" height="4"><path d="M0 0h1v1H0zm0 2h1v1H0zm1 0V1h1v1zm1 0h1v1H2zm0-1h1V0H2zm1 2h1v1H3z"></path></pattern><pattern id="e" patternUnits="userSpaceOnUse" width="64" height="32"><path d="M4 4h1v1H4zm7 0h1v1h-1zm7 0h1v1h-1zm7 0h1v1h-1zm7 0h1v1h-1zm7 0h1v1h-1zm7 0h1v1h-1zm7 0h1v1h-1zm7 0h1v1h-1z"></path><path fill="url(#a)" d="M0 8h64v7H0z"></path><path fill="url(#b)" d="M0 16h64v1H0z"></path><path fill="url(#c)" d="M0 18h64v1H0z"></path><path fill="url(#b)" d="M22 18h15v1H22zM0 20h64v3H0z"></path><path fill="url(#d)" d="M0 24h64v8H0z"></path></pattern><mask id="f"><path fill="url(#e)" d="M0 0h64v32H0z"></path></mask></defs><path fill="#fff" d="M0 0h64v32H0z"></path><path fill="#dea8ff" class="gotchi-secondary" mask="url(#f)" d="M0 0h64v32H0z"></path><path fill="#dea8ff" class="gotchi-secondary" d="M0 32h64v32H0z"></path><path mask="url(#f)" fill="#fff" transform="matrix(1 0 0 -1 0 64)" d="M0 0h64v32H0z"></path></g><g class="gotchi-body"><g class="gotchi-primary"><path d="M21 12h2v-2h-4v2h1z"></path><path d="M19 14v-2h-2v2h1zm6-4h2V8h-4v2h1z"></path><path d="M29 8h8V6H27v2h1zm16 6h2v-2h-2v1z"></path><path d="M48 14h-1v39h-2v2h4V14zm-11-4h4V8h-4v1z"></path><path d="M41 12h4v-2h-4v1zM17 53V14h-2v41h4v-2h-1z"></path><path d="M24 51h-5v2h5v-1z"></path><path d="M27 53h-3v2h5v-2h-1zm18-2h-5v2h5v-1z"></path><path d="M35 51h-6v2h6v-1z"></path><path d="M38 53h-3v2h5v-2h-1z"></path></g><g class="gotchi-secondary"><path d="M18 43v6h2v-1h2v1h2v2h-5v2h-2V14h2v1h-1v26z"></path><path d="M27 51h-3v2h5v-2h-1zm11 0h-3v2h5v-2h-1z"></path><path d="M35 49h-2v-1h-2v1h-2v2h6v-1zM25 11h2v-1h-4v1h1zm-4 2h2v-1h-4v1h1zm24 31v5h-1v-1h-2v1h-2v2h5v2h2V14h-2v29z"></path><path d="M37 8H27v1h5v1h5V9zm8 4h-4v2h4v-1z"></path><path d="M41 10h-4v2h4v-1z"></path></g><path d="M44 14h-3v-2h-4v-2h-5V9h-5v2h-4v2h-4v2h-1v34h2v-1h2v1h2v2h5v-2h2v-1h2v1h2v2h5v-2h2v-1h2v1h1V14z" fill="#fff"></path></g><path class="gotchi-cheek" d="M21 32v2h2v-2h-1zm21 0h-1v2h2v-2z"></path><g><g class="gotchi-primary-mouth">
<path d="M33 34h-4v2h6v-2h-1z">
</path></g></g><g class="gotchi-shadow"><path opacity=".25" d="M25 58H19v1h1v1h24V59h1V58h-1z" fill="#000"></path></g><g class="gotchi-eyeColor"><path d="M35,20h1v1h-1V20z" fill="#fff"></path><path d="M37 22v-1h-1v2h2v-1zm0" fill="#ffdeec"></path><path d="M37 24h1v1h-1z"></path><g fill="#ff3085"><path d="M36 20v-1h-1v-1h-1v3h1v-1z"></path><path d="M36 20h1v1h-1z"></path><path d="M37 21h1v1h-1z"></path><path d="M40 24v-1h-1v-1h-1v1h-2v3h1v2h3v-1h1v-3h-1zm-3 0h1v1h-1v-1z"></path><path d="M35 21h1v2h-1z"></path></g><path d="M22,20h1v1h-1V20z" fill="#fff"></path><path d="M24 22v-1h-1v2h2v-1zm0" fill="#ffdeec"></path><path d="M24 24h1v1h-1z"></path><g fill="#ff3085"><path d="M23 20v-1h-1v-1h-1v3h1v-1z"></path><path d="M23 20h1v1h-1z"></path><path d="M24 21h1v1h-1z"></path><path d="M27 24v-1h-1v-1h-1v1h-2v3h1v2h3v-1h1v-3h-1zm-3 0h1v1h-1v-1z"></path><path d="M22 21h1v2h-1z"></path></g></g><g class="gotchi-collateral"><path d="M30 9V8h-1v1h-1v2h1v1h2V9z" fill="#ffc2db"></path><path d="M28 7V6h-1v2h2V7z" fill="#ffdeec"></path><path d="M26 5h1v1h-1z" fill="#fff"></path><path d="M33 13v-2h-1v1h-1v1h-2v1h1v1h4v-2z" fill="#ff88b8"></path><g fill="#ff3085"><path d="M27 5V4h-1V3h-1v3h1V5z"></path><path d="M27 5h1v1h-1z"></path><path d="M28 6h1v1h-1z"></path><path d="M29 7h1v1h-1z"></path><path d="M30 8h1v1h-1zm-2 1h1V8h-2v3h1z"></path><path d="M31 13v-1h-2v-1h-1v3h1v-1z"></path><path d="M31 12h1v-1h1v-1h-1V9h-1z"></path><path d="M34 12v-1h-1v2h1v2h1v-3z"></path><path d="M30 15v-1h-1v2h5v-1zm-4-9h1v2h-1z"></path></g></g><g class="gotchi-wearable wearable-body"><svg x="15" y="41"><path d="M0 0v14h4v-2h5v2h5v-2h6v2h5v-2h5v2h4V0z"></path><path d="M17,1h1v1h-1V1z" fill="#878787"></path><path d="M10 1v1h6V1h-6zm9 0v1h5V1h-5zM1 1v1h8V1H1zm24 0v1h8V1h-8z" fill="#282828"></path><g fill="#0a0a0a"><path d="M4,3v3H3v1H1v5h3v-2h5v2h5v-2h2V3H4z"></path><path d="M3 3H1v3h2V3zm15 0h-1v4h1V3zm13 0v3h2V3h-2z"></path><path d="M30,3H19v4h-1v1h-1v2h3v2h5v-2h5v2h3V7h-2V6h-1V3z"></path></g><g fill="#d2d2d2"><path d="M33 7h1v1h-1V7zm-6-2h-1v2h1V5z"></path><path d="M26 3h-1v2h1V3zm-1-2h1v1h-1V1zm3 7v1h5V8h-5z"></path><path d="M27,7h1v1h-1V7z"></path></g></svg></g><g class="gotchi-handsDownClosed"><g class="gotchi-primary"><path d="M19 42h1v1h-1zm1-6h1v1h-1z"></path><path d="M21 37h1v1h-1zm5 3v4h1v-4zm-5 3h-1v1h2v-1z"></path><path d="M24 44h-2v1h4v-1h-1zm1-5h-1v1h2v-1z"></path><path d="M23 38h-1v1h2v-1z"></path></g><g class="gotchi-secondary"><path d="M19 43h1v1h-1zm5 2h-2v1h4v-1h-1z"></path><path d="M27 41v3h1v-3zm-6 3h-1v1h2v-1z"></path><path d="M26 44h1v1h-1zm-7-3h-1v2h1v-1z"></path></g><g class="gotchi-primary"><path d="M44 42h1v1h-1zm-1-6h1v1h-1z"></path><path d="M42 37h1v1h-1z"></path><path d="M42 39v-1h-2v1h1zm0 4v1h2v-1h-1z"></path><path d="M40 44h-2v1h4v-1h-1z"></path><path d="M38 42v-2h-1v4h1v-1z"></path><path d="M40 40v-1h-2v1h1z"></path></g><g class="gotchi-secondary"><path d="M42 44v1h2v-1h-1zm-5-2v-1h-1v3h1v-1z"></path><path d="M40 45h-2v1h4v-1h-1z"></path><path d="M37 44h1v1h-1zm7-1h1v1h-1z"></path></g></g><g class="gotchi-handsDownOpen"><g class="gotchi-primary"><path d="M14 40h1v1h-1v-1zm-1-6h1v1h-1v-1z"></path><path d="M14 33h1v1h-1v-1zm-2 2h1v1h-1v-1zm-5 3h1v4H7v-4zm5 3h2v1h-2v-1z"></path><path d="M8 42h4v1H8v-1zm0-5h2v1H8v-1z"></path><path d="M10,36h2v1h-2V36z"></path></g><g class="gotchi-secondary"><path d="M14,39h1v1h-1V39z"></path><path d="M12,40h2v1h-2V40z"></path><path d="M8,41h4v1H8V41z"></path></g><path d="M8,38v3h4v-1h2v-1h1v-5h-1v1h-1v1h-1v1h-2v1H8z" fill="#fff"></path><g class="gotchi-primary"><path d="M49 40h1v1h-1v-1zm1-6h1v1h-1v-1z"></path><path d="M49 33h1v1h-1v-1zm2 2h1v1h-1v-1zm5 3h1v4h-1v-4zm-6 3h2v1h-2v-1z"></path><path d="M52 42h4v1h-4v-1zm2-5h2v1h-2v-1z"></path><path d="M52,36h2v1h-2V36z"></path></g><g class="gotchi-secondary"><path d="M49,39h1v1h-1V39z"></path><path d="M50,40h2v1h-2V40z"></path><path d="M52,41h4v1h-4V41z"></path></g><path d="M54,38v-1h-2v-1h-1v-1h-1v-1h-1v5h1v1h2v1h4v-3H54z" fill="#fff"></path></g><g class="gotchi-handsUp"><g class="gotchi-secondary"><path d="M50,38h1v1h-1V38z"></path><path d="M49 39h1v1h-1v-1zm2-2h1v1h-1v-1z"></path><path d="M52,36h2v1h-2V36z"></path><path d="M54,35h2v1h-2V35z"></path></g><path d="M52,32v1h-2v1h-1v5h1v-1h1v-1h1v-1h2v-1h2v-3H52z" fill="#fff"></path><g class="gotchi-primary"><path d="M49,33h1v1h-1V33z"></path><path d="M50 32h2v1h-2v-1zm0 7h1v1h-1v-1z"></path><path d="M49 40h1v1h-1v-1zm2-2h1v1h-1v-1z"></path><path d="M52 37h2v1h-2v-1zm0-6h4v1h-4v-1z"></path><path d="M56,32h1v4h-1V32z"></path><path d="M54,36h2v1h-2V36z"></path></g><g class="gotchi-secondary"><path d="M13,38h1v1h-1V38z"></path><path d="M14 39h1v1h-1v-1zm-2-2h1v1h-1v-1z"></path><path d="M10,36h2v1h-2V36z"></path><path d="M8,35h2v1H8V35z"></path></g><path d="M8,32v3h2v1h2v1h1v1h1v1h1v-5h-1v-1h-2v-1H8z" fill="#fff"></path><g class="gotchi-primary"><path d="M14,33h1v1h-1V33z"></path><path d="M12 32h2v1h-2v-1zm1 7h1v1h-1v-1z"></path><path d="M14 40h1v1h-1v-1zm-2-2h1v1h-1v-1z"></path><path d="M10 37h2v1h-2v-1zm-2-6h4v1H8v-1z"></path><path d="M7,32h1v4H7V32z"></path><path d="M8,36h2v1H8V36z"></path></g></g><g class="gotchi-wearable wearable-eyes"><svg x="15" y="22"><path d="M2.1 7.9v-2h-2V2.1h2v-2h29.8v2h2v3.8h-2v2z"></path><path d="M31.8.2v2h2v3.5h-2v2.1H2.2v-2h-2V2.2h2v-2h29.6M32 0H2v2H0v4h2v2h30V6h2V2h-2V0z" fill="#c8c8c8"></path><path d="M2 2h30v4H2z"></path><path d="M26,2v4h2V2H26z" fill="#c260ff"></path><g fill="#c8c8c8"><path d="M2,0h30v2H2V0z"></path><path d="M0 2h2v4H0V2zm32 0h2v4h-2V2z"></path><path d="M2,6h30v2H2V6z"></path></g></svg></g><g class="gotchi-wearable wearable-head"><svg x="13" y="2"><path d="M38,18v-6h-2V8h-2V6h-2V4h-2V2h-2V0H10v2H8v2H6v2H4v2H2v4H0v6H38z"></path><path d="M23,8V7h-1V6h-1V5h-4v1h-1v1h-1v1h-1v4h1v1h1v1h1v1h4v-1h1v-1h1v-1h1V8H23z" fill="#ff6e00"></path><g fill="#fff"><path d="M18.5 9.5v-1h2v-1h-1v-1h-1v1h-2v1h1v3h-1v1h2v1h1v-1h1v-1h-2v-1h2v-1h-2z"></path><path d="M20.5 10.5h1v1h-1v-1zm0-2h1v1h-1v-1z"></path></g></svg></g><g class="gotchi-wearable wearable-hand wearable-hand-left"><svg x="7" y="19"><path d="M4 18v-1H3v-1H0v8h1v1h1v1h1v1h2v-9H4zm0 6H3v-1H2v-1H1v-4h1v1h1v1h1v4z" fill="#ffd400"></path><path d="M2,17h1v1H2V17z" fill="#494949"></path><g fill="#fc0000"><path d="M1,23h1v1H1V23z"></path><path d="M2,24h1v1H2V24z"></path><path d="M3,25h1v1H3V25z"></path></g><g fill="#494949"><path d="M3,18h1v1H3V18z"></path><path d="M4,2V1H3V0H1v1H0v1h1v1H0v1h1v1H0v1h1v1H0v1h1v1H0v1h1v1H0v1h1v1H0v1h1v1H0v1h3v1h1v1h1V2H4z"></path></g></svg></g><g class="gotchi-wearable wearable-hand wearable-hand-right"><svg x="6" y="23"><g transform="scale(-1, 1) translate(-52, 0)"><path d="M6 7V6H5V0H2v6H1v1H0v14h1v1h5v-1h1V7z"></path><path d="M1,11h2v7H1V11z" fill="#decd87"></path><path d="M3,3h1v2H3V3z" fill="#782121"></path><path d="M3 1h1v1H3zm2 6V6H2v1H1v3h3v9H1v2h5V7z" fill="green"></path><path d="M1 7h1v3H1V7zm0 12h1v2H1v-2z" fill="#0a0"></path></g></svg></g></svg></svg>