<svg xmlns="http://www.w3.org/2000/svg" viewBox="0 0 64 64"><style>.gotchi-primary{fill:#FF7D00;}.gotchi-secondary{fill:#F9D792;}.gotchi-cheek{fill:#F4AF24;}.gotchi-eyeColor{fill:#0064FF;}.gotchi-sleeves-up{display:none;}.gotchi-handsUp{display:none;}.gotchi-handsDownOpen{display:block;}.gotchi-handsDownClosed{display:none;}
.gotchi-bg {
    display:none;
  }




svg {
  
  animation-duration:0.5s;
  animation-iteration-count: infinite;
  animation-timing-function: linear;
  animation-timing-function: steps(2);
}

.gotchi-shadow {
  
   
   animation-duration:0.5s;
   animation-iteration-count: infinite;
   animation-timing-function: linear;
   animation-timing-function: steps(2);
}

.gotchi-wearable {
  
  animation-duration:0.5s;
  animation-iteration-count: infinite;
  animation-timing-function: linear;
  animation-timing-function: steps(2);
}



.gotchi-handsDownClosed, .gotchi-handsUp, .gotchi-handsDownOpen, .gotchi-handsDownClosed, .gotchi-body, .gotchi-eyeColor, .gotchi-collateral, .gotchi-cheek, .gotchi-primary-mouth, .gotchi-wearable   {
   
   animation-duration:0.5s;
   animation-iteration-count: infinite;
   animation-timing-function: linear;
   animation-timing-function: steps(2);
}

.wearable-hand {
  
  animation-duration:0.5s;
  animation-iteration-count: infinite;
  animation-timing-function: linear;
  animation-timing-function: steps(2);
}

@keyframes downHands {
  from {
    transform: translate(0px, -4px);
  }
 to {
    transform: translate(0px, -3px);
  }
}


@keyframes up {
  from {
    transform: translate(0px, 0);
  }
 to {
    transform: translate(0px, -1px);
  }
}


@keyframes down {
 from {
   transform: translate(0px, 0);
    }
 to {
      transform: translate(0px, 1px);
    }
}
</style><g class="gotchi-bg"><defs fill="#fff"><pattern id="a" patternUnits="userSpaceOnUse" width="4" height="4"><path d="M0 0h1v1H0zm2 2h1v1H2z"/></pattern><pattern id="b" patternUnits="userSpaceOnUse" x="0" y="0" width="2" height="2"><path d="M0 0h1v1H0z"/></pattern><pattern id="c" patternUnits="userSpaceOnUse" x="-2" y="0" width="8" height="1"><path d="M0 0h1v1H0zm2 0h1v1H2zm2 0h1v1H4z"/></pattern><pattern id="d" patternUnits="userSpaceOnUse" x="0" y="0" width="4" height="4"><path d="M0 0h1v1H0zm0 2h1v1H0zm1 0V1h1v1zm1 0h1v1H2zm0-1h1V0H2zm1 2h1v1H3z"/></pattern><pattern id="e" patternUnits="userSpaceOnUse" width="64" height="32"><path d="M4 4h1v1H4zm7 0h1v1h-1zm7 0h1v1h-1zm7 0h1v1h-1zm7 0h1v1h-1zm7 0h1v1h-1zm7 0h1v1h-1zm7 0h1v1h-1zm7 0h1v1h-1z"/><path fill="url(#a)" d="M0 8h64v7H0z"/><path fill="url(#b)" d="M0 16h64v1H0z"/><path fill="url(#c)" d="M0 18h64v1H0z"/><path fill="url(#b)" d="M22 18h15v1H22zM0 20h64v3H0z"/><path fill="url(#d)" d="M0 24h64v8H0z"/></pattern><mask id="f"><path fill="url(#e)" d="M0 0h64v32H0z"/></mask></defs><path fill="#fff" d="M0 0h64v32H0z"/><path fill="#dea8ff" class="gotchi-secondary" mask="url(#f)" d="M0 0h64v32H0z"/><path fill="#dea8ff" class="gotchi-secondary" d="M0 32h64v32H0z"/><path mask="url(#f)" fill="#fff" transform="matrix(1 0 0 -1 0 64)" d="M0 0h64v32H0z"/></g><g class="gotchi-body"><g class="gotchi-primary"><path d="M21 12h2v-2h-4v2h1z"/><path d="M19 14v-2h-2v2h1zm6-4h2V8h-4v2h1z"/><path d="M29 8h8V6H27v2h1zm16 6h2v-2h-2v1z"/><path d="M48 14h-1v39h-2v2h4V14zm-11-4h4V8h-4v1z"/><path d="M41 12h4v-2h-4v1zM17 53V14h-2v41h4v-2h-1z"/><path d="M24 51h-5v2h5v-1z"/><path d="M27 53h-3v2h5v-2h-1zm18-2h-5v2h5v-1z"/><path d="M35 51h-6v2h6v-1z"/><path d="M38 53h-3v2h5v-2h-1z"/></g><g class="gotchi-secondary"><path d="M18 43v6h2v-1h2v1h2v2h-5v2h-2V14h2v1h-1v26z"/><path d="M27 51h-3v2h5v-2h-1zm11 0h-3v2h5v-2h-1z"/><path d="M35 49h-2v-1h-2v1h-2v2h6v-1zM25 11h2v-1h-4v1h1zm-4 2h2v-1h-4v1h1zm24 31v5h-1v-1h-2v1h-2v2h5v2h2V14h-2v29z"/><path d="M37 8H27v1h5v1h5V9zm8 4h-4v2h4v-1z"/><path d="M41 10h-4v2h4v-1z"/></g><path d="M44 14h-3v-2h-4v-2h-5V9h-5v2h-4v2h-4v2h-1v34h2v-1h2v1h2v2h5v-2h2v-1h2v1h2v2h5v-2h2v-1h2v1h1V14z" fill="#fff"/></g><path class="gotchi-cheek" d="M21 32v2h2v-2h-1zm21 0h-1v2h2v-2z"/><g class="gotchi-primary-mouth"><path d="M29 32h-2v2h2v-1z"/><path d="M33 34h-4v2h6v-2h-1z"/><path d="M36 32h-1v2h2v-2z"/></g><g class="gotchi-shadow"><path opacity=".25" d="M25 58H19v1h1v1h24V59h1V58h-1z" fill="#000"/></g><g class="gotchi-eyeColor"><path d="M29 22H28V23H27H26H25H24H23V22H24H25H26H27H28V21H27H26H25H24H23H22V22V23H21V24H22V25H21V26H22V27V28H23H24H25H26H27H28V27H27H26H25H24H23V26H24H25H26H27H28V27H29V26H30V25H29V24H30V23H29V22ZM28 25H27H26H25H24H23V24H24H25H26H27H28V25Z" /><path d="M43 24V23H42V22H41V23H40H39H38H37H36V22H37H38H39H40H41V21H40H39H38H37H36H35V22V23H34V24H35V25H34V26H35V27V28H36H37H38H39H40H41V27H40H39H38H37H36V26H37H38H39H40H41V27H42V26H43V25H42V24H43ZM41 25H40H39H38H37H36V24H37H38H39H40H41V25Z" /></g><g class="gotchi-collateral" fill="#ff7d00"><path d="M37 16v-1h-1v-1h-1v1h-6v-2h5v-1h-6v3h-1v1h1v1h-1v1h1v3h6v-1h-5v-2h6v1h1v-1h1v-1h-1v-1h1zm-2 1h-6v-1h6v1z"/><path d="M34 19h1v1h-1zm0-6h1v1h-1z"/></g><g class="gotchi-handsDownClosed"><g class="gotchi-primary"><path d="M19 42h1v1h-1zm1-6h1v1h-1z"/><path d="M21 37h1v1h-1zm5 3v4h1v-4zm-5 3h-1v1h2v-1z"/><path d="M24 44h-2v1h4v-1h-1zm1-5h-1v1h2v-1z"/><path d="M23 38h-1v1h2v-1z"/></g><g class="gotchi-secondary"><path d="M19 43h1v1h-1zm5 2h-2v1h4v-1h-1z"/><path d="M27 41v3h1v-3zm-6 3h-1v1h2v-1z"/><path d="M26 44h1v1h-1zm-7-3h-1v2h1v-1z"/></g><g class="gotchi-primary"><path d="M44 42h1v1h-1zm-1-6h1v1h-1z"/><path d="M42 37h1v1h-1z"/><path d="M42 39v-1h-2v1h1zm0 4v1h2v-1h-1z"/><path d="M40 44h-2v1h4v-1h-1z"/><path d="M38 42v-2h-1v4h1v-1z"/><path d="M40 40v-1h-2v1h1z"/></g><g class="gotchi-secondary"><path d="M42 44v1h2v-1h-1zm-5-2v-1h-1v3h1v-1z"/><path d="M40 45h-2v1h4v-1h-1z"/><path d="M37 44h1v1h-1zm7-1h1v1h-1z"/></g></g><g class="gotchi-handsDownOpen"><g class="gotchi-primary"><path d="M14 40h1v1h-1v-1zm-1-6h1v1h-1v-1z"/><path d="M14 33h1v1h-1v-1zm-2 2h1v1h-1v-1zm-5 3h1v4H7v-4zm5 3h2v1h-2v-1z"/><path d="M8 42h4v1H8v-1zm0-5h2v1H8v-1z"/><path d="M10,36h2v1h-2V36z"/></g><g class="gotchi-secondary"><path d="M14,39h1v1h-1V39z"/><path d="M12,40h2v1h-2V40z"/><path d="M8,41h4v1H8V41z"/></g><path d="M8,38v3h4v-1h2v-1h1v-5h-1v1h-1v1h-1v1h-2v1H8z" fill="#fff" /><g class="gotchi-primary"><path d="M49 40h1v1h-1v-1zm1-6h1v1h-1v-1z"/><path d="M49 33h1v1h-1v-1zm2 2h1v1h-1v-1zm5 3h1v4h-1v-4zm-6 3h2v1h-2v-1z"/><path d="M52 42h4v1h-4v-1zm2-5h2v1h-2v-1z"/><path d="M52,36h2v1h-2V36z"/></g><g class="gotchi-secondary"><path d="M49,39h1v1h-1V39z"/><path d="M50,40h2v1h-2V40z"/><path d="M52,41h4v1h-4V41z"/></g><path d="M54,38v-1h-2v-1h-1v-1h-1v-1h-1v5h1v1h2v1h4v-3H54z" fill="#fff" /></g><g class="gotchi-handsUp"><g class="gotchi-secondary"><path d="M50,38h1v1h-1V38z"/><path d="M49 39h1v1h-1v-1zm2-2h1v1h-1v-1z"/><path d="M52,36h2v1h-2V36z"/><path d="M54,35h2v1h-2V35z"/></g><path d="M52,32v1h-2v1h-1v5h1v-1h1v-1h1v-1h2v-1h2v-3H52z" fill="#fff"/><g class="gotchi-primary"><path d="M49,33h1v1h-1V33z"/><path d="M50 32h2v1h-2v-1zm0 7h1v1h-1v-1z"/><path d="M49 40h1v1h-1v-1zm2-2h1v1h-1v-1z"/><path d="M52 37h2v1h-2v-1zm0-6h4v1h-4v-1z"/><path d="M56,32h1v4h-1V32z"/><path d="M54,36h2v1h-2V36z"/></g><g class="gotchi-secondary"><path d="M13,38h1v1h-1V38z"/><path d="M14 39h1v1h-1v-1zm-2-2h1v1h-1v-1z"/><path d="M10,36h2v1h-2V36z"/><path d="M8,35h2v1H8V35z"/></g><path d="M8,32v3h2v1h2v1h1v1h1v1h1v-5h-1v-1h-2v-1H8z" fill="#fff"/><g class="gotchi-primary"><path d="M14,33h1v1h-1V33z"/><path d="M12 32h2v1h-2v-1zm1 7h1v1h-1v-1z"/><path d="M14 40h1v1h-1v-1zm-2-2h1v1h-1v-1z"/><path d="M10 37h2v1h-2v-1zm-2-6h4v1H8v-1z"/><path d="M7,32h1v4H7V32z"/><path d="M8,36h2v1H8V36z"/></g></g><g class="gotchi-wearable wearable-body"><svg x="11" y="33"><g><path d="M37 2v1h-2v1h-2v1h-2v1h-2v1h-2v1h-2v1h-8V8h-2V7h-2V6h-2V5H9V4H7V3H5V2H4v22h4v-2h5v2h5v-2h6v2h5v-2h5v2h4V2z" fill="#0050aa"/><path d="M24 20h5v1h-5zm0-2h5v1h-5zm0-2h5v1h-5zm-11 4h5v1h-5zm0-2h5v1h-5zm0-2h5v1h-5z" fill="#fff"/><path d="M17 10V9h-2V8h-2V7h-2V6H9V5H7V4H5V3H4v7h1v13h2v-1h1v-1h5v-6h5v6h1V10zm20-7v1h-2v1h-2v1h-2v1h-2v1h-2v1h-2v1h-5v11h4v-6h5v6h5v1h1v1h2V10h1V3h-1z" fill="#00beff"/><g fill="#00a0e6"><path d="M18 17h1v1h-1v-1zm0-2h1v1h-1v-1zm0-4h1v1h-1v-1zm0 2h1v1h-1v-1zm0 6h1v1h-1v-1zm-6-2h1v1h-1v-1zm11-1h1v1h-1v-1z"/><path d="M22 17h1v1h-1v-1zM9 16h1v1H9v-1z"/><path d="M8 17h1v1H8v-1zm-3-1h1v1H5v-1z"/><path d="M6,15h1v1H6V15z"/><path d="M7,14h1v1H7V14z"/><path d="M8,13h1v1H8V13z"/><path d="M9,12h1v1H9V12z"/><path d="M10,11h1v1h-1V11z"/><path d="M11,10h1v1h-1V10z"/><path d="M12,9h1v1h-1V9z"/><path d="M13 8h1v1h-1V8zm-3 1h1v1h-1V9z"/><path d="M11 8h1v1h-1V8zM8 9h1v1H8V9z"/><path d="M9 8h1v1H9V8zM6 9h1v1H6V9z"/><path d="M7 8h1v1H7V8zM4 9h1v1H4V9z"/><path d="M5,8h1v1H5V8z"/><path d="M4,7h1v1H4V7z"/><path d="M5 6h1v1H5V6zm0 4h1v1H5v-1z"/><path d="M6,11h1v1H6V11z"/><path d="M7 10h1v1H7v-1zm-2 4h1v1H5v-1zm0-2h1v1H5v-1z"/><path d="M6,13h1v1H6V13z"/><path d="M7,12h1v1H7V12z"/><path d="M8,11h1v1H8V11z"/><path d="M9 10h1v1H9v-1zm5-1h1v1h-1V9zm2 0h1v1h-1V9zm10 0h1v1h-1V9z"/><path d="M27,8h1v1h-1V8z"/><path d="M28,9h1v1h-1V9z"/><path d="M29,8h1v1h-1V8z"/><path d="M30,9h1v1h-1V9z"/><path d="M31,8h1v1h-1V8z"/><path d="M32,9h1v1h-1V9z"/><path d="M33,8h1v1h-1V8z"/><path d="M34,9h1v1h-1V9z"/><path d="M35 8h1v1h-1V8zM12 7h1v1h-1V7zm-2 0h1v1h-1V7zM8 7h1v1H8V7z"/><path d="M9 6h1v1H9V6zM6 7h1v1H6V7z"/><path d="M7 6h1v1H7V6zm23 1h1v1h-1V7z"/><path d="M31,6h1v1h-1V6z"/><path d="M32,7h1v1h-1V7z"/><path d="M33,6h1v1h-1V6z"/><path d="M34,7h1v1h-1V7z"/><path d="M35,6h1v1h-1V6z"/><path d="M34 5h1v1h-1V5zm2 4h1v1h-1V9z"/><path d="M37,8h1v1h-1V8z"/><path d="M36,7h1v1h-1V7z"/><path d="M37,6h1v1h-1V6z"/><path d="M36,5h1v1h-1V5z"/><path d="M37 4h1v1h-1V4zm-2 0h1v1h-1V4zM4 5h1v1H4V5z"/><path d="M5,4h1v1H5V4z"/><path d="M4 3h1v1H4V3zm2 2h1v1H6V5zm2 0h1v1H8V5zM6 17h1v1H6v-1z"/><path d="M7,16h1v1H7V16z"/><path d="M8,15h1v1H8V15z"/><path d="M9,14h1v1H9V14z"/><path d="M10,15h1v1h-1V15z"/><path d="M11,14h1v1h-1V14z"/><path d="M12,13h1v1h-1V13z"/><path d="M13 12h1v1h-1v-1zm-3 1h1v1h-1v-1z"/><path d="M11 12h1v1h-1v-1zm3 1h1v1h-1v-1z"/><path d="M15,12h1v1h-1V12z"/><path d="M16,11h1v1h-1V11z"/><path d="M17 10h1v1h-1v-1zm-3 1h1v1h-1v-1z"/><path d="M15 10h1v1h-1v-1zm-3 1h1v1h-1v-1z"/><path d="M13 10h1v1h-1v-1zm9 1h1v1h-1v-1z"/><path d="M23,10h1v1h-1V10z"/><path d="M24,11h1v1h-1V11z"/><path d="M25,10h1v1h-1V10z"/><path d="M26,11h1v1h-1V11z"/><path d="M27,10h1v1h-1V10z"/><path d="M28,11h1v1h-1V11z"/><path d="M29 10h1v1h-1v-1zm-3 3h1v1h-1v-1z"/><path d="M27 12h1v1h-1v-1zm3 3h1v1h-1v-1z"/><path d="M31 14h1v1h-1v-1zm3 3h1v1h-1v-1z"/><path d="M35,16h1v1h-1V16z"/><path d="M36 17h1v1h-1v-1zm-2-2h1v1h-1v-1z"/><path d="M35 14h1v1h-1v-1zm-3-1h1v1h-1v-1z"/><path d="M33 12h1v1h-1v-1zm-3-1h1v1h-1v-1z"/><path d="M31,10h1v1h-1V10z"/><path d="M32,11h1v1h-1V11z"/><path d="M33,10h1v1h-1V10z"/><path d="M34,11h1v1h-1V11z"/><path d="M35,10h1v1h-1V10z"/><path d="M36 11h1v1h-1v-1zm-2 2h1v1h-1v-1z"/><path d="M35,12h1v1h-1V12z"/><path d="M36 13h1v1h-1v-1zm0 2h1v1h-1v-1zm-4 0h1v1h-1v-1z"/><path d="M33 14h1v1h-1v-1zm-5-1h1v1h-1v-1z"/><path d="M29,12h1v1h-1V12z"/><path d="M30,13h1v1h-1V13z"/><path d="M31 12h1v1h-1v-1zm-20 4h1v1h-1v-1zm4-2h1v1h-1v-1zm-2 0h1v1h-1v-1z"/><path d="M10 17h1v1h-1v-1zm7-5h1v1h-1v-1z"/><path d="M16 13h1v1h-1v-1zm-4 2h1v1h-1v-1zm21 1h1v1h-1v-1z"/><path d="M32,17h1v1h-1V17z"/><path d="M31 16h1v1h-1v-1zm-6-4h1v1h-1v-1zm-2 0h1v1h-1v-1zm6 2h1v1h-1v-1z"/><path d="M30 17h1v1h-1v-1zm-6-4h1v1h-1v-1zm-2 0h1v1h-1v-1zm5 1h1v1h-1v-1z"/><path d="M17 14h1v1h-1v-1zm8 0h1v1h-1v-1zm-2 0h1v1h-1v-1zm6 2h1v1h-1v-1zm-17 3h1v1h-1v-1zm11-1h1v1h-1v-1z"/><path d="M22 19h1v1h-1v-1zM9 18h1v1H9v-1z"/><path d="M8 19h1v1H8v-1zm-3-1h1v1H5v-1z"/><path d="M6,19h1v1H6V19z"/><path d="M7 18h1v1H7v-1zm27 1h1v1h-1v-1z"/><path d="M35,18h1v1h-1V18z"/><path d="M36,19h1v1h-1V19z"/><path d="M35,20h1v1h-1V20z"/><path d="M36 21h1v1h-1v-1zm-5-1h1v1h-1v-1zm-2 0h1v1h-1v-1zm4 0h1v1h-1v-1z"/><path d="M35 22h1v1h-1v-1zm-15-7h1v1h-1v-1zm0 2h1v1h-1v-1zm0-6h1v1h-1v-1zm0 2h1v1h-1v-1zm0 6h1v1h-1v-1z"/><path d="M21 10h1v1h-1v-1zm0 10h1v1h-1v-1zm2 0h1v1h-1v-1zM5 22h1v1H5v-1zm6-4h1v1h-1v-1z"/><path d="M10 19h1v1h-1v-1zm23-1h1v1h-1v-1z"/><path d="M32,19h1v1h-1V19z"/><path d="M31,18h1v1h-1V18z"/><path d="M30 19h1v1h-1v-1zM9 20h1v1H9v-1zm2 0h1v1h-1v-1zm-6 0h1v1H5v-1z"/><path d="M6,21h1v1H6V21z"/><path d="M7 20h1v1H7v-1zm22-2h1v1h-1v-1zm-7-3h1v1h-1v-1zm12 6h1v1h-1v-1z"/></g><path d="M21 12h1v1h-1zm0 2h1v1h-1zm0 2h1v1h-1zm0 2h1v1h-1z" fill="#0050aa"/><g class="gotchi-sleeves gotchi-sleeves-left gotchi-sleeves-up"><path d="M41 0v1h-2v1h-1v8h1V9h1V8h1V7h1V0z" fill="#0050aa"/><path d="M39 2v1h-1v6h1V8h1V7h1V2z" fill="#00beff"/><g fill="#00a0e6"><path d="M40,3h1v1h-1V3z"/><path d="M39 2h1v1h-1V2zm0 4h1v1h-1V6z"/><path d="M38 7h1v1h-1V7zm0-2h1v1h-1V5z"/><path d="M39,4h1v1h-1V4z"/><path d="M40 5h1v1h-1V5zm-2-2h1v1h-1V3z"/></g></g><g class="gotchi-sleeves gotchi-sleeves-left gotchi-sleeves-down"><path d="M41 5V4h-1V3h-1V2h-1v8h1v1h2v1h1V5z" fill="#0050aa"/><path d="M40 5V4h-1V3h-1v6h1v1h2V5z" fill="#00beff"/><g fill="#00a0e6"><path d="M40 9h1v1h-1V9zm-1-5h1v1h-1V4zm0 2h1v1h-1V6z"/><path d="M40 5h1v1h-1V5zm-2 0h1v1h-1V5zm0 2h1v1h-1V7z"/><path d="M39,8h1v1h-1V8z"/><path d="M40 7h1v1h-1V7zm-2-4h1v1h-1V3z"/></g></g><g class="gotchi-sleeves gotchi-sleeves-right gotchi-sleeves-up"><path d="M3 2V1H1V0H0v7h1v1h1v1h1v1h1V2z" fill="#0050aa"/><path d="M3 3V2H1v5h1v1h1v1h1V3z" fill="#00beff"/><g fill="#00a0e6"><path d="M1 2h1v1H1V2zm1 5h1v1H2V7zm0-2h1v1H2V5z"/><path d="M1 6h1v1H1V6zm2 0h1v1H3V6zm0-2h1v1H3V4z"/><path d="M2,3h1v1H2V3z"/><path d="M1 4h1v1H1V4zm2 4h1v1H3V8z"/></g></g><g class="gotchi-sleeves gotchi-sleeves-right gotchi-sleeves-down"><path d="M3 2v1H2v1H1v1H0v7h1v-1h2v-1h1V2z" fill="#0050aa"/><path d="M3 3v1H2v1H1v5h2V9h1V3z" fill="#00beff"/><g fill="#00a0e6"><path d="M1,8h1v1H1V8z"/><path d="M2 9h1v1H2V9zm0-4h1v1H2V5z"/><path d="M3 4h1v1H3V4zm0 2h1v1H3V6z"/><path d="M2,7h1v1H2V7z"/><path d="M1 6h1v1H1V6zm2 2h1v1H3V8z"/></g></g></g></svg></g><g class="gotchi-wearable wearable-eyes"><svg x="15" y="22"><path d="M2.1 7.9v-2h-2V2.1h2v-2h29.8v2h2v3.8h-2v2z"/><path d="M31.8.2v2h2v3.5h-2v2.1H2.2v-2h-2V2.2h2v-2h29.6M32 0H2v2H0v4h2v2h30V6h2V2h-2V0z" fill="#c8c8c8"/><path d="M2 2h30v4H2z"/><path d="M26,2v4h2V2H26z" fill="#c260ff"/><g fill="#c8c8c8"><path d="M2,0h30v2H2V0z"/><path d="M0 2h2v4H0V2zm32 0h2v4h-2V2z"/><path d="M2,6h30v2H2V6z"/></g></svg></g><g class="gotchi-wearable wearable-head"><svg x="15" y="14"><path d="M0 0h34v6H0z" fill="#fd0"/><path d="M0,0h34v4H0V0z" fill="#00af00"/><path d="M0,0h34v2H0V0z" fill="#00f"/></svg></g><g class="gotchi-wearable wearable-hand wearable-hand-left"><svg x="4" y="37"><g fill="#ff64ff"><path d="M3 0h3v1H3z"/><path d="M2 1h1v1H2z"/><path d="M8 7V2H7v4H2V2H1v5H0v6h1v1h7v-1h1V7z"/><path d="M6 1h1v1H6z"/></g><g fill="#ffb9ff"><path d="M7 8h1v1H7V8zm0 2h1v1H7v-1z"/><path d="M7 12h1v1H7v-1zM6 7h1v1H6V7z"/><path d="M6 9h1v1H6V9zm0 2h1v1H6v-1z"/><path d="M5 8h1v1H5V8zm0 2h1v1H5v-1z"/><path d="M5 12h1v1H5v-1zM4 7h1v1H4V7z"/><path d="M4 9h1v1H4V9zm0 2h1v1H4v-1z"/><path d="M3 8h1v1H3V8zm0 2h1v1H3v-1z"/><path d="M3 12h1v1H3v-1zM2 7h1v1H2V7z"/><path d="M2 9h1v1H2V9zm0 2h1v1H2v-1z"/><path d="M1 8h1v1H1V8zm0 2h1v1H1v-1zm0 2h1v1H1v-1z"/></g></svg></g><g class="gotchi-wearable wearable-hand wearable-hand-right"><svg x="4" y="34"><g transform="scale(-1, 1) translate(-56, 0)"><path d="M0,10h6V0H0V10z"/><path d="M1,1v8h4V1H1z" fill="#b4ecff"/><path d="M1,2v7h4V2H1z" fill="#fff"/></g></svg></g></svg>