<svg xmlns="http://www.w3.org/2000/svg" viewbox="0 0 64 64"><svg xmlns="http://www.w3.org/2000/svg" viewBox="0 0 64 64"><style>.gotchi-primary{fill:#0000B9;}.gotchi-secondary{fill:#D4DEF8;}.gotchi-cheek{fill:#F696C6;}.gotchi-eyeColor{fill:#5D24BF;}.gotchi-primary-mouth{fill:#0000B9;}.gotchi-sleeves-up{display:none;}.gotchi-handsUp{display:none;}.gotchi-handsDownOpen{display:block;}.gotchi-handsDownClosed{display:none;}
.gotchi-bg {
    display:none;
  }




svg {
  
  animation-duration:0.5s;
  animation-iteration-count: infinite;
  animation-timing-function: linear;
  animation-timing-function: steps(1);
}

.gotchi-shadow {
  
   
   animation-duration:0.5s;
   animation-iteration-count: infinite;
   animation-timing-function: linear;
   animation-timing-function: steps(2);
}

.gotchi-wearable {
  
  animation-duration:0.5s;
  animation-iteration-count: infinite;
  animation-timing-function: linear;
  animation-timing-function: steps(1);
}



.gotchi-handsDownClosed, .gotchi-handsUp, .gotchi-handsDownOpen, .gotchi-handsDownClosed, .gotchi-body, .gotchi-eyeColor, .gotchi-collateral, .gotchi-cheek, .gotchi-primary-mouth, .gotchi-wearable, .gotchi-sleeves   {
   
   animation-duration:0.5s;
   animation-iteration-count: infinite;
   animation-timing-function: linear;
   animation-timing-function: steps(2);
}

.wearable-hand {
  
  animation-duration:0.5s;
  animation-iteration-count: infinite;
  animation-timing-function: linear;
  animation-timing-function: steps(2);
}

@keyframes downHands {
  from {
    transform: translate(0px, -4px);
  }
 to {
    transform: translate(0px, -3px);
  }
}


@keyframes up {
  from {
    transform: translate(0px, 0);
  }
 to {
    transform: translate(0px, -1px);
  }
}


@keyframes down {
 from {
   transform: translate(0px, 0);
    }
 to {
      transform: translate(0px, 1px);
    }
}
</style><g class="gotchi-bg"><defs fill="#fff"><pattern id="a" patternUnits="userSpaceOnUse" width="4" height="4"><path d="M0 0h1v1H0zm2 2h1v1H2z"></path></pattern><pattern id="b" patternUnits="userSpaceOnUse" x="0" y="0" width="2" height="2"><path d="M0 0h1v1H0z"></path></pattern><pattern id="c" patternUnits="userSpaceOnUse" x="-2" y="0" width="8" height="1"><path d="M0 0h1v1H0zm2 0h1v1H2zm2 0h1v1H4z"></path></pattern><pattern id="d" patternUnits="userSpaceOnUse" x="0" y="0" width="4" height="4"><path d="M0 0h1v1H0zm0 2h1v1H0zm1 0V1h1v1zm1 0h1v1H2zm0-1h1V0H2zm1 2h1v1H3z"></path></pattern><pattern id="e" patternUnits="userSpaceOnUse" width="64" height="32"><path d="M4 4h1v1H4zm7 0h1v1h-1zm7 0h1v1h-1zm7 0h1v1h-1zm7 0h1v1h-1zm7 0h1v1h-1zm7 0h1v1h-1zm7 0h1v1h-1zm7 0h1v1h-1z"></path><path fill="url(#a)" d="M0 8h64v7H0z"></path><path fill="url(#b)" d="M0 16h64v1H0z"></path><path fill="url(#c)" d="M0 18h64v1H0z"></path><path fill="url(#b)" d="M22 18h15v1H22zM0 20h64v3H0z"></path><path fill="url(#d)" d="M0 24h64v8H0z"></path></pattern><mask id="f"><path fill="url(#e)" d="M0 0h64v32H0z"></path></mask></defs><path fill="#fff" d="M0 0h64v32H0z"></path><path fill="#dea8ff" class="gotchi-secondary" mask="url(#f)" d="M0 0h64v32H0z"></path><path fill="#dea8ff" class="gotchi-secondary" d="M0 32h64v32H0z"></path><path mask="url(#f)" fill="#fff" transform="matrix(1 0 0 -1 0 64)" d="M0 0h64v32H0z"></path></g><g class="gotchi-body"><g class="gotchi-primary"><path d="M21 12h2v-2h-4v2h1z"></path><path d="M19 14v-2h-2v2h1zm6-4h2V8h-4v2h1z"></path><path d="M29 8h8V6H27v2h1zm16 6h2v-2h-2v1z"></path><path d="M48 14h-1v39h-2v2h4V14zm-11-4h4V8h-4v1z"></path><path d="M41 12h4v-2h-4v1zM17 53V14h-2v41h4v-2h-1z"></path><path d="M24 51h-5v2h5v-1z"></path><path d="M27 53h-3v2h5v-2h-1zm18-2h-5v2h5v-1z"></path><path d="M35 51h-6v2h6v-1z"></path><path d="M38 53h-3v2h5v-2h-1z"></path></g><g class="gotchi-secondary"><path d="M18 43v6h2v-1h2v1h2v2h-5v2h-2V14h2v1h-1v26z"></path><path d="M27 51h-3v2h5v-2h-1zm11 0h-3v2h5v-2h-1z"></path><path d="M35 49h-2v-1h-2v1h-2v2h6v-1zM25 11h2v-1h-4v1h1zm-4 2h2v-1h-4v1h1zm24 31v5h-1v-1h-2v1h-2v2h5v2h2V14h-2v29z"></path><path d="M37 8H27v1h5v1h5V9zm8 4h-4v2h4v-1z"></path><path d="M41 10h-4v2h4v-1z"></path></g><path d="M44 14h-3v-2h-4v-2h-5V9h-5v2h-4v2h-4v2h-1v34h2v-1h2v1h2v2h5v-2h2v-1h2v1h2v2h5v-2h2v-1h2v1h1V14z" fill="#fff"></path></g><path class="gotchi-cheek" d="M21 32v2h2v-2h-1zm21 0h-1v2h2v-2z"></path><g><g class="gotchi-primary-mouth">
<path d="M33 34h-4v2h6v-2h-1z">
</path></g></g><g class="gotchi-shadow"><path opacity=".25" d="M25 58H19v1h1v1h24V59h1V58h-1z" fill="#000"></path></g><g class="gotchi-eyeColor"><path d="M39 23v1h-1v-1h1v-1h-2v1h-1v2h1v1h2v-1h1v-2h-1z"></path><g class="gotchi-primary"><path d="M34 25h-1v1h1v-1zm7 0v1h1v-2h-1v1zm-4-2v-1h-2v1h2z"></path><path d="M44 21h-7v1h5v2h1v-1h1v-1h1v-1h-1zm-9 5h-1v1h2v-1h-1z"></path><path d="M38 27h-2v1h4v-1h-2zm-3-3v-1h-1v2h1v-1z"></path><path d="M41 26h-1v1h1v-1z"></path></g><path d="M27 22h-2v1h1v1h-1v-1h-1v2h1v1h2v-1h1v-2h-1v-1z"></path><g class="gotchi-primary"><path d="M31 25h-1v1h1v-1zm-8-1h-1v2h1v-2z"></path><path d="M22 22h5v-1h-8v1h1v1h1v1h1v-2z"></path><path d="M28 23h1v-1h-2v1h1zm0 3v1h2v-1h-2z"></path><path d="M26 27h-2v1h4v-1h-2zm3-2h1v-2h-1v2z"></path><path d="M24 26h-1v1h1v-1z"></path></g></g><g class="gotchi-collateral"><path d="M34 13v-1h-4v1h-1v1h-1v1h-1v4h1v1h1v1h1v1h4v-1h1v-1h1v-1h1v-4h-1v-1h-1v-1h-1zm-2 1h1v1h1v1h1v2h-1v1h-1v1h-2v-1h-1v-1h-1v-2h1v-1h1v-1h1z" fill="#0000b9"></path></g><g class="gotchi-wearable wearable-body"><svg x="12" y="32"><path d="M35 1v1h-2v1h-2v1h-2v1h-4v1h-3v1h-4V6h-3V5h-4V4H9V3H7V2H5V1H3v22h4v-2h5v2h5v-2h6v2h5v-2h5v2h4V1z" fill="#c8c8c8"></path><g fill="#fff"><path d="M17 13h-1v-1h-1v-1h-1v-1h-2V9h-1V8H9V7H7V6H6V5H5V3H4v17h15v-5h-1v-1h-1v-1zm-9-2h3v2H8v-2zm-1 8v-5h5v5H7zm16-6v-1h1v-1h1v-1h1V9h2V8h1V7h2V6h2V5h1V3h-1v1h-2v1h-2v1h-4v1h-2v2h-1v1h-1v4h1v-1h1z"></path><path d="M18 9h-1V7h-2V6h-4V5H9V4H7V3H6v2h1v1h2v1h2v1h1v1h2v1h1v1h1v1h1v1h1v1h1v-4h-1V9zm17-4h-1v1h-1v1h-2v1h-2v1h-1v1h-2v1h-1v1h-1v1h-1v1h-1v1h-2v1h1v1h-1v1h1v1h-1v1h16V3h-1v2zm-3 5v1h-3v-1h3zm-5 9v-6h1v-1h5v1h1v6h-7z"></path></g><path d="M32,12h1v1h-1V12z" fill="#698bd9"></path><path d="M32,13h1v1h-1V13z" fill="#e2e5f3"></path><path d="M30,13h1v1h-1V13z" fill="#45322f"></path><path d="M31,13h1v1h-1V13z" fill="#d9c6b2"></path><path d="M28,12h1v1h-1V12z" fill="#76946f"></path><path d="M29,12h1v1h-1V12z" fill="#cad4e4"></path><path d="M18 7v1h1v6h2V8h1V7h-4zm12 9h1v1h-1v-1z"></path><g fill="#ddd9d6"><path d="M30,14h1v2h-1V14z"></path><path d="M31,16v1h-1v-1h-1v2h3v-2H31z"></path></g><path d="M33,13h1v1h-1V13z" fill="#556592"></path><path d="M30,12h1v1h-1V12z" fill="#5666bc"></path><path d="M29,13h1v1h-1V13z" fill="#f6d435"></path><path d="M28,13h1v1h-1V13z" fill="#e6bf8f"></path><path d="M31,12h1v1h-1V12z" fill="#c23e3f"></path><path d="M27,13h1v1h-1V13z" fill="#f75457"></path><path d="M7 15v1h5v-1H7zm19-8h1v1h-1V7zM13 7h1v1h-1V7zm7 11h1v1h-1v-1zm0-2h1v1h-1v-1z" fill="orange"></path></svg></g><g class="gotchi-handsDownClosed"><g class="gotchi-primary"><path d="M19 42h1v1h-1zm1-6h1v1h-1z"></path><path d="M21 37h1v1h-1zm5 3v4h1v-4zm-5 3h-1v1h2v-1z"></path><path d="M24 44h-2v1h4v-1h-1zm1-5h-1v1h2v-1z"></path><path d="M23 38h-1v1h2v-1z"></path></g><g class="gotchi-secondary"><path d="M19 43h1v1h-1zm5 2h-2v1h4v-1h-1z"></path><path d="M27 41v3h1v-3zm-6 3h-1v1h2v-1z"></path><path d="M26 44h1v1h-1zm-7-3h-1v2h1v-1z"></path></g><g class="gotchi-primary"><path d="M44 42h1v1h-1zm-1-6h1v1h-1z"></path><path d="M42 37h1v1h-1z"></path><path d="M42 39v-1h-2v1h1zm0 4v1h2v-1h-1z"></path><path d="M40 44h-2v1h4v-1h-1z"></path><path d="M38 42v-2h-1v4h1v-1z"></path><path d="M40 40v-1h-2v1h1z"></path></g><g class="gotchi-secondary"><path d="M42 44v1h2v-1h-1zm-5-2v-1h-1v3h1v-1z"></path><path d="M40 45h-2v1h4v-1h-1z"></path><path d="M37 44h1v1h-1zm7-1h1v1h-1z"></path></g></g><g class="gotchi-handsDownOpen"><g class="gotchi-primary"><path d="M14 40h1v1h-1v-1zm-1-6h1v1h-1v-1z"></path><path d="M14 33h1v1h-1v-1zm-2 2h1v1h-1v-1zm-5 3h1v4H7v-4zm5 3h2v1h-2v-1z"></path><path d="M8 42h4v1H8v-1zm0-5h2v1H8v-1z"></path><path d="M10,36h2v1h-2V36z"></path></g><g class="gotchi-secondary"><path d="M14,39h1v1h-1V39z"></path><path d="M12,40h2v1h-2V40z"></path><path d="M8,41h4v1H8V41z"></path></g><path d="M8,38v3h4v-1h2v-1h1v-5h-1v1h-1v1h-1v1h-2v1H8z" fill="#fff"></path><g class="gotchi-primary"><path d="M49 40h1v1h-1v-1zm1-6h1v1h-1v-1z"></path><path d="M49 33h1v1h-1v-1zm2 2h1v1h-1v-1zm5 3h1v4h-1v-4zm-6 3h2v1h-2v-1z"></path><path d="M52 42h4v1h-4v-1zm2-5h2v1h-2v-1z"></path><path d="M52,36h2v1h-2V36z"></path></g><g class="gotchi-secondary"><path d="M49,39h1v1h-1V39z"></path><path d="M50,40h2v1h-2V40z"></path><path d="M52,41h4v1h-4V41z"></path></g><path d="M54,38v-1h-2v-1h-1v-1h-1v-1h-1v5h1v1h2v1h4v-3H54z" fill="#fff"></path></g><g class="gotchi-handsUp"><g class="gotchi-secondary"><path d="M50,38h1v1h-1V38z"></path><path d="M49 39h1v1h-1v-1zm2-2h1v1h-1v-1z"></path><path d="M52,36h2v1h-2V36z"></path><path d="M54,35h2v1h-2V35z"></path></g><path d="M52,32v1h-2v1h-1v5h1v-1h1v-1h1v-1h2v-1h2v-3H52z" fill="#fff"></path><g class="gotchi-primary"><path d="M49,33h1v1h-1V33z"></path><path d="M50 32h2v1h-2v-1zm0 7h1v1h-1v-1z"></path><path d="M49 40h1v1h-1v-1zm2-2h1v1h-1v-1z"></path><path d="M52 37h2v1h-2v-1zm0-6h4v1h-4v-1z"></path><path d="M56,32h1v4h-1V32z"></path><path d="M54,36h2v1h-2V36z"></path></g><g class="gotchi-secondary"><path d="M13,38h1v1h-1V38z"></path><path d="M14 39h1v1h-1v-1zm-2-2h1v1h-1v-1z"></path><path d="M10,36h2v1h-2V36z"></path><path d="M8,35h2v1H8V35z"></path></g><path d="M8,32v3h2v1h2v1h1v1h1v1h1v-5h-1v-1h-2v-1H8z" fill="#fff"></path><g class="gotchi-primary"><path d="M14,33h1v1h-1V33z"></path><path d="M12 32h2v1h-2v-1zm1 7h1v1h-1v-1z"></path><path d="M14 40h1v1h-1v-1zm-2-2h1v1h-1v-1z"></path><path d="M10 37h2v1h-2v-1zm-2-6h4v1H8v-1z"></path><path d="M7,32h1v4H7V32z"></path><path d="M8,36h2v1H8V36z"></path></g></g><g class="gotchi-wearable wearable-face"><svg x="15" y="19"><g fill="#7d0064"><path d="M36 6h2v2h-2z"></path><path d="M38 4V0h-2v2h-2v2h-4V3h-2V2h-2V1h-4v1h-2v1h-2v1h-2V3h-2V2h-2V1H8v1H6v1H4v1H0v6h4v1h2v1h2v1h4v-1h2v-1h2v-1h2v1h2v1h2v1h4v-1h2v-1h2v-1h4V6h2V4z"></path></g><path d="M30 5V4h-2V3h-2V2h-4v1h-2v1h-2v1h-2V4h-2V3h-2V2H8v1H6v1H4v1H0v4h4v1h2v1h2v1h4v-1h2v-1h2V9h2v1h2v1h2v1h4v-1h2v-1h2V9h4V5h-4z" fill="#a73796"></path><g fill="#7d0064"><path d="M26,2v1h2V2H26z"></path><path d="M28 3v1h2V3h-2zm-6-2v1h4V1h-4z"></path><path d="M20 2v1h2V2h-2zm-8 0v1h2V2h-2z"></path><path d="M8,1v1h4V1H8z"></path><path d="M6,2v1h2V2H6z"></path><path d="M4,3v1h2V3H4z"></path><path d="M0 4v1h4V4H0zm16 0v1h2V4h-2z"></path><path d="M14 3v1h2V3h-2zm4 0v1h2V3h-2zM8 12v1h4v-1H8z"></path><path d="M6,11v1h2v-1H6z"></path><path d="M4,10v1h2v-1H4z"></path><path d="M0 9v1h4V9H0zm12 2v1h2v-1h-2zm8 0v1h2v-1h-2z"></path><path d="M22,12v1h4v-1H22z"></path><path d="M26,11v1h2v-1H26z"></path><path d="M28,10v1h2v-1H28z"></path><path d="M30 9v1h4V9h-4zm-16 1v1h2v-1h-2z"></path><path d="M16,9v1h2V9H16z"></path><path d="M18 10v1h2v-1h-2zm18-2h2V6h-2v2z"></path><path d="M36,0v2h-2v2h-4v1h4v1h2V4h2V0H36z"></path></g><path d="M26 6V5h-1V4h-2v1h-1v1h-1v2h1v1h1v1h2V9h1V8h1V6z" fill="#fff"></path><path d="M23 6h2v2h-2z" fill="#7d0064"></path><path d="M12 5h-1V4H9v1H8v1H7v2h1v1h1v1h2V9h1V8h1V6h-1z" fill="#fff"></path><path d="M9 6h2v2H9z" fill="#7d0064"></path></svg></g><g class="gotchi-wearable wearable-eyes"><svg x="15" y="19"><path d="M31 5V3h-1V2h-1V1h-1V0h-6v1h-1v1h-1v1h-1v2h-4V3h-1V2h-1V1h-1V0H6v1H5v1H4v1H3v2H0v2h3v2h1v1h1v1h1v1h6v-1h1v-1h1V9h1V7h4v2h1v1h1v1h1v1h6v-1h1v-1h1V9h1V7h3V5z" fill="red"></path><path d="M13 2h-1V1H6v1H5v1H4v6h1v1h1v1h6v-1h1V9h1V3h-1V2zm16 0h-1V1h-6v1h-1v1h-1v6h1v1h1v1h6v-1h1V9h1V3h-1V2z"></path><path d="M8,2v1H7v1H6v2h3V2H8z" fill="#7d7d7d"></path><path d="M9,6v4h1V9h1V8h1V6H9z" fill="#282828"></path><g fill="#464646"><path d="M6,6v2h1v1h1v1h1V6H6z"></path><path d="M11,4V3h-1V2H9v4h3V4H11z"></path></g><g fill="#646464"><path d="M26.5 4.6h1v1h-1v-1zm0 2h1v1h-1v-1z"></path><path d="M24.5 5.6v-1h2v-1h-1v-1h-1v1h-2v1h1v3h-1v1h2v1h1v-1h1v-1h-2v-1h2v-1h-2z"></path></g></svg></g><g class="gotchi-wearable wearable-head"><svg x="27" y="0"><path d="M6,6h4v13H6V6z" fill="#0f0"></path><path d="M5,3h3v18H5V3z" fill="#ff0"></path><path d="M5,3h2v18H5V3z" fill="#ffc800"></path><path d="M0,19h4V6H0V19z" fill="#0ff"></path><path d="M0,19h1V6H0V19z" fill="#007dff"></path><path d="M4,0h2v22H4V0z" fill="#f0f"></path><path d="M2,3h3v18H2V3z" fill="#7d00ff"></path><path d="M8,6h1v13H8V6z" fill="#009600"></path><path d="M4,0h1v22H4V0z" fill="#7d0064"></path><path d="M2,3h1v18H2V3z" fill="#32007d"></path></svg></g>"&gt;<svg x="12" y="32"><g><g class="gotchi-sleeves gotchi-sleeves-left gotchi-sleeves-up"><path d="M38 0v1h-1v8h1V8h1V7h1V0z" fill="#c8c8c8"></path><path d="M37,7h1v1h-1V7z" fill="orange"></path><path d="M37,7h2V1h-1v1h-1V7z" fill="#fff"></path></g><g class="gotchi-sleeves gotchi-sleeves-left gotchi-sleeves-down"><path d="M39 3V2h-1V1h1V0h-2v9h1v1h2V3z" fill="#c8c8c8"></path><path d="M37,2h1v1h-1V2z" fill="orange"></path><path d="M37,8h1v1h1V3h-2V8z" fill="#fff"></path></g><g class="gotchi-sleeves gotchi-sleeves-right gotchi-sleeves-up"><path d="M2 0v1h1v8H2V8H1V7H0V0z" fill="#c8c8c8"></path><path d="M3,8H2V7h1V8z" fill="orange"></path><path d="M3,2H2V1H1v6h2V2z" fill="#fff"></path></g><g class="gotchi-sleeves gotchi-sleeves-right gotchi-sleeves-down"><path d="M1 0v1h1v1H1v1H0v7h2V9h1V0z" fill="#c8c8c8"></path><path d="M2,2h1v1H2V2z" fill="orange"></path><path d="M3,3H1v6h1V8h1V3z" fill="#fff"></path></g></g></svg><g class="gotchi-wearable wearable-hand wearable-hand-left"><svg x="0" y="33"><path d="M12 2V1h-1V0H2v1H1v1H0v2h1v1h1v1h1v1h1v1h1v1h1v1h1V9h1V8h1V7h1V6h1V5h1V4h1V2z"></path><path d="M2 4v1h1v1h1v1h1v1h1v1h1V8h1V7h1V6h1V5h1V4z" fill="#46a7c0"></path><g fill="#0ff"><path d="M9 2H8V1H5v1H4v1H3v2h1v1h1v1h1v1h1V7h1V6h1V5h1V3H9zm2 0h1v1h-1z"></path><path d="M10 1h1v1h-1zM2 1h1v1H2z"></path><path d="M1 2h1v1H1z"></path></g><g fill="#fff"><path d="M11 3h1v1h-1V3zM1 3h1v1H1V3zm8-2h1v1H9V1zM8 3V2H7V1H6v1H5v1H3v1h7V3H8z"></path><path d="M10 2h1v1h-1V2zM2 2h1v1H2V2z"></path><path d="M3,1h1v1H3V1z"></path></g></svg></g><g class="gotchi-wearable wearable-hand wearable-hand-right"><svg x="3" y="31"><g transform="scale(-1, 1) translate(-58, 0)"><path d="M6 4V0H5v4H1v2H0v2h1v7h6V4z"></path><path d="M2,6v1h4V6H2z" fill="#5a5a5a"></path><path d="M2,7v1h4V7H2z" fill="#464646"></path><path d="M2,5v1h4V5H2z" fill="#6e6e6e"></path><path d="M2 8h4v6H2z" fill="#323232"></path><g fill="#1e1e1e"><path d="M5 9h1v1H5V9zm0 2h1v1H5v-1z"></path><path d="M4 8h1v1H4V8zm0 2h1v1H4v-1zM2 8h1v1H2V8zm0 2h1v1H2v-1zm2 2h1v1H4v-1zm-2 0h1v1H2v-1z"></path><path d="M5 13h1v1H5v-1zM3 9h1v1H3V9zm0 2h1v1H3v-1zm0 2h1v1H3v-1z"></path></g></g></svg></g></svg></svg>