<svg xmlns="http://www.w3.org/2000/svg" viewbox="0 0 64 64"><svg xmlns="http://www.w3.org/2000/svg" viewBox="0 0 64 64"><style>.gotchi-primary{fill:#64438E;}.gotchi-secondary{fill:#EDD3FD;}.gotchi-cheek{fill:#F696C6;}.gotchi-eyeColor{fill:#EA8C27;}.gotchi-primary-mouth{fill:#64438E;}.gotchi-sleeves-up{display:none;}.gotchi-handsUp{display:none;}.gotchi-handsDownOpen{display:block;}.gotchi-handsDownClosed{display:none;}
.gotchi-bg {
    display:none;
  }




svg {
  
  animation-duration:0.5s;
  animation-iteration-count: infinite;
  animation-timing-function: linear;
  animation-timing-function: steps(1);
}

.gotchi-shadow {
  
   
   animation-duration:0.5s;
   animation-iteration-count: infinite;
   animation-timing-function: linear;
   animation-timing-function: steps(2);
}

.gotchi-wearable {
  
  animation-duration:0.5s;
  animation-iteration-count: infinite;
  animation-timing-function: linear;
  animation-timing-function: steps(1);
}



.gotchi-handsDownClosed, .gotchi-handsUp, .gotchi-handsDownOpen, .gotchi-handsDownClosed, .gotchi-body, .gotchi-eyeColor, .gotchi-collateral, .gotchi-cheek, .gotchi-primary-mouth, .gotchi-wearable, .gotchi-sleeves   {
   
   animation-duration:0.5s;
   animation-iteration-count: infinite;
   animation-timing-function: linear;
   animation-timing-function: steps(2);
}

.wearable-hand {
  
  animation-duration:0.5s;
  animation-iteration-count: infinite;
  animation-timing-function: linear;
  animation-timing-function: steps(2);
}

@keyframes downHands {
  from {
    transform: translate(0px, -4px);
  }
 to {
    transform: translate(0px, -3px);
  }
}


@keyframes up {
  from {
    transform: translate(0px, 0);
  }
 to {
    transform: translate(0px, -1px);
  }
}


@keyframes down {
 from {
   transform: translate(0px, 0);
    }
 to {
      transform: translate(0px, 1px);
    }
}
</style><g class="gotchi-bg"><defs fill="#fff"><pattern id="a" patternUnits="userSpaceOnUse" width="4" height="4"><path d="M0 0h1v1H0zm2 2h1v1H2z"></path></pattern><pattern id="b" patternUnits="userSpaceOnUse" x="0" y="0" width="2" height="2"><path d="M0 0h1v1H0z"></path></pattern><pattern id="c" patternUnits="userSpaceOnUse" x="-2" y="0" width="8" height="1"><path d="M0 0h1v1H0zm2 0h1v1H2zm2 0h1v1H4z"></path></pattern><pattern id="d" patternUnits="userSpaceOnUse" x="0" y="0" width="4" height="4"><path d="M0 0h1v1H0zm0 2h1v1H0zm1 0V1h1v1zm1 0h1v1H2zm0-1h1V0H2zm1 2h1v1H3z"></path></pattern><pattern id="e" patternUnits="userSpaceOnUse" width="64" height="32"><path d="M4 4h1v1H4zm7 0h1v1h-1zm7 0h1v1h-1zm7 0h1v1h-1zm7 0h1v1h-1zm7 0h1v1h-1zm7 0h1v1h-1zm7 0h1v1h-1zm7 0h1v1h-1z"></path><path fill="url(#a)" d="M0 8h64v7H0z"></path><path fill="url(#b)" d="M0 16h64v1H0z"></path><path fill="url(#c)" d="M0 18h64v1H0z"></path><path fill="url(#b)" d="M22 18h15v1H22zM0 20h64v3H0z"></path><path fill="url(#d)" d="M0 24h64v8H0z"></path></pattern><mask id="f"><path fill="url(#e)" d="M0 0h64v32H0z"></path></mask></defs><path fill="#fff" d="M0 0h64v32H0z"></path><path fill="#dea8ff" class="gotchi-secondary" mask="url(#f)" d="M0 0h64v32H0z"></path><path fill="#dea8ff" class="gotchi-secondary" d="M0 32h64v32H0z"></path><path mask="url(#f)" fill="#fff" transform="matrix(1 0 0 -1 0 64)" d="M0 0h64v32H0z"></path></g><g class="gotchi-body"><g class="gotchi-primary"><path d="M21 12h2v-2h-4v2h1z"></path><path d="M19 14v-2h-2v2h1zm6-4h2V8h-4v2h1z"></path><path d="M29 8h8V6H27v2h1zm16 6h2v-2h-2v1z"></path><path d="M48 14h-1v39h-2v2h4V14zm-11-4h4V8h-4v1z"></path><path d="M41 12h4v-2h-4v1zM17 53V14h-2v41h4v-2h-1z"></path><path d="M24 51h-5v2h5v-1z"></path><path d="M27 53h-3v2h5v-2h-1zm18-2h-5v2h5v-1z"></path><path d="M35 51h-6v2h6v-1z"></path><path d="M38 53h-3v2h5v-2h-1z"></path></g><g class="gotchi-secondary"><path d="M18 43v6h2v-1h2v1h2v2h-5v2h-2V14h2v1h-1v26z"></path><path d="M27 51h-3v2h5v-2h-1zm11 0h-3v2h5v-2h-1z"></path><path d="M35 49h-2v-1h-2v1h-2v2h6v-1zM25 11h2v-1h-4v1h1zm-4 2h2v-1h-4v1h1zm24 31v5h-1v-1h-2v1h-2v2h5v2h2V14h-2v29z"></path><path d="M37 8H27v1h5v1h5V9zm8 4h-4v2h4v-1z"></path><path d="M41 10h-4v2h4v-1z"></path></g><path d="M44 14h-3v-2h-4v-2h-5V9h-5v2h-4v2h-4v2h-1v34h2v-1h2v1h2v2h5v-2h2v-1h2v1h2v2h5v-2h2v-1h2v1h1V14z" fill="#fff"></path></g><path class="gotchi-cheek" d="M21 32v2h2v-2h-1zm21 0h-1v2h2v-2z"></path><g><g class="gotchi-primary-mouth">
<path d="M33 34h-4v2h6v-2h-1z">
</path></g></g><g class="gotchi-shadow"><path opacity=".25" d="M25 58H19v1h1v1h24V59h1V58h-1z" fill="#000"></path></g><g class="gotchi-eyeColor"><path d="M27 23H26H25H24H23H22H21V24V25H22H23H24H25H26H27H28H29V24V23H28H27Z" class="gotchi-primary"></path><path d="M42 23H41H40H39H38H37H36H35V24V25H36H37H38H39H40H41H42H43V24V23H42Z" class="gotchi-primary"></path><rect x="24" y="23" width="2" height="2"></rect> <rect x="38" y="23" width="2" height="2"></rect></g><g class="gotchi-collateral"><g fill="#64438e"><path d="M29 17v-2h-1v4h1v-1z"></path><path d="M29 14h1v1h-1zm0 5h1v1h-1z"></path><path d="M30 20h1v1h-1z"></path><path d="M31 21v1h2v-1h-1zm-1-8h1v1h-1zm4 6h1v1h-1zm0-5h1v1h-1z"></path><path d="M33 13v-1h-2v1h1zm0 7h1v1h-1z"></path><path d="M33 13h1v1h-1zm2 2v4h1v-4z"></path></g><path d="M34 17h-2v4h1v-1h1v-1h1v-2z" fill="#c260ff"></path><g fill="#dea8ff"><path d="M30 17h-1v2h1v1h1v1h1v-4h-1z"></path><path d="M34 15v-1h-1v-1h-1v4h3v-2z"></path></g><path d="M31 17h1v-4h-1v1h-1v1h-1v2h1z" fill="#edd3fd"></path></g><g class="gotchi-wearable wearable-body"><svg x="15" y="41"><path d="M0 0v14h4v-2h5v2h5v-2h6v2h5v-2h5v2h4V0z"></path><g fill="#4e4066"><path d="M30 3H19v4h-1v1h-1v2h3v2h5v-2h5v2h3V7h-2V6h-1zM4 3v3H3v1H1v5h3v-2h5v2h5v-2h2V3z"></path><path d="M1 3h2v3H1zm16 0h1v4h-1zm14 0h2v3h-2z"></path></g><g fill="#edeff2"><path d="M17 6h1v1h-1zm-6 4V7H8V6H7V5H6V4H5v1H4v1h1v1H4v1h3v2h1V9h2v1zM2 9H1v3h2v-2H2zm12 0h-1v2h-2v1h3v-2h2V8h-2zm5-3h1v1h-1zm11 4h2v2h-2zM12 5h2v1h-2zm20 0h1v1h-1z"></path><path d="M18 8h-1v2h2V7h-1zm11-2h2v1h-2zm-6-1h-1v1h2V4h3V3h-4zm3 1h-1v1h-3v1h2v2h2V7h1V5h-1z"></path></g><g fill="#a8aaae"><path d="M2 7H1v2h1v1h1V8H2zm13-3h-2v1h1v1h-2V5h-1V4H9v1H8v2h3v1h2V7h1v1h2V6h-1zM1 5h2v1H1zm7 4h2v1H8zm21-3h1V5h-1V4h1V3h-2v2h-1v2h2zm-3 3h4v1h-4zm0-4h-1V4h-1v2h-2V5h1V3h-3v1h-1v1h2v3h1V7h3V6h1zM4 3h1v1H4z"></path><path d="M26 7h1v1h-1zm-3 3v1h1V8h-2v2zm-4-2h1v2h-1zm12-1v1h-1v1h2V8h1V7zm-11 4h2v1h-2z"></path></g><path d="M16 2V1h-6v1h6zm8 0V1h-5v1h5zM9 2V1H1v1h8zm24 0V1h-8v1h8z" fill="#edeff2"></path><path d="M17,1h1v1h-1V1z" fill="#a8aaae"></path></svg></g><g class="gotchi-handsDownClosed"><g class="gotchi-primary"><path d="M19 42h1v1h-1zm1-6h1v1h-1z"></path><path d="M21 37h1v1h-1zm5 3v4h1v-4zm-5 3h-1v1h2v-1z"></path><path d="M24 44h-2v1h4v-1h-1zm1-5h-1v1h2v-1z"></path><path d="M23 38h-1v1h2v-1z"></path></g><g class="gotchi-secondary"><path d="M19 43h1v1h-1zm5 2h-2v1h4v-1h-1z"></path><path d="M27 41v3h1v-3zm-6 3h-1v1h2v-1z"></path><path d="M26 44h1v1h-1zm-7-3h-1v2h1v-1z"></path></g><g class="gotchi-primary"><path d="M44 42h1v1h-1zm-1-6h1v1h-1z"></path><path d="M42 37h1v1h-1z"></path><path d="M42 39v-1h-2v1h1zm0 4v1h2v-1h-1z"></path><path d="M40 44h-2v1h4v-1h-1z"></path><path d="M38 42v-2h-1v4h1v-1z"></path><path d="M40 40v-1h-2v1h1z"></path></g><g class="gotchi-secondary"><path d="M42 44v1h2v-1h-1zm-5-2v-1h-1v3h1v-1z"></path><path d="M40 45h-2v1h4v-1h-1z"></path><path d="M37 44h1v1h-1zm7-1h1v1h-1z"></path></g></g><g class="gotchi-handsDownOpen"><g class="gotchi-primary"><path d="M14 40h1v1h-1v-1zm-1-6h1v1h-1v-1z"></path><path d="M14 33h1v1h-1v-1zm-2 2h1v1h-1v-1zm-5 3h1v4H7v-4zm5 3h2v1h-2v-1z"></path><path d="M8 42h4v1H8v-1zm0-5h2v1H8v-1z"></path><path d="M10,36h2v1h-2V36z"></path></g><g class="gotchi-secondary"><path d="M14,39h1v1h-1V39z"></path><path d="M12,40h2v1h-2V40z"></path><path d="M8,41h4v1H8V41z"></path></g><path d="M8,38v3h4v-1h2v-1h1v-5h-1v1h-1v1h-1v1h-2v1H8z" fill="#fff"></path><g class="gotchi-primary"><path d="M49 40h1v1h-1v-1zm1-6h1v1h-1v-1z"></path><path d="M49 33h1v1h-1v-1zm2 2h1v1h-1v-1zm5 3h1v4h-1v-4zm-6 3h2v1h-2v-1z"></path><path d="M52 42h4v1h-4v-1zm2-5h2v1h-2v-1z"></path><path d="M52,36h2v1h-2V36z"></path></g><g class="gotchi-secondary"><path d="M49,39h1v1h-1V39z"></path><path d="M50,40h2v1h-2V40z"></path><path d="M52,41h4v1h-4V41z"></path></g><path d="M54,38v-1h-2v-1h-1v-1h-1v-1h-1v5h1v1h2v1h4v-3H54z" fill="#fff"></path></g><g class="gotchi-handsUp"><g class="gotchi-secondary"><path d="M50,38h1v1h-1V38z"></path><path d="M49 39h1v1h-1v-1zm2-2h1v1h-1v-1z"></path><path d="M52,36h2v1h-2V36z"></path><path d="M54,35h2v1h-2V35z"></path></g><path d="M52,32v1h-2v1h-1v5h1v-1h1v-1h1v-1h2v-1h2v-3H52z" fill="#fff"></path><g class="gotchi-primary"><path d="M49,33h1v1h-1V33z"></path><path d="M50 32h2v1h-2v-1zm0 7h1v1h-1v-1z"></path><path d="M49 40h1v1h-1v-1zm2-2h1v1h-1v-1z"></path><path d="M52 37h2v1h-2v-1zm0-6h4v1h-4v-1z"></path><path d="M56,32h1v4h-1V32z"></path><path d="M54,36h2v1h-2V36z"></path></g><g class="gotchi-secondary"><path d="M13,38h1v1h-1V38z"></path><path d="M14 39h1v1h-1v-1zm-2-2h1v1h-1v-1z"></path><path d="M10,36h2v1h-2V36z"></path><path d="M8,35h2v1H8V35z"></path></g><path d="M8,32v3h2v1h2v1h1v1h1v1h1v-5h-1v-1h-2v-1H8z" fill="#fff"></path><g class="gotchi-primary"><path d="M14,33h1v1h-1V33z"></path><path d="M12 32h2v1h-2v-1zm1 7h1v1h-1v-1z"></path><path d="M14 40h1v1h-1v-1zm-2-2h1v1h-1v-1z"></path><path d="M10 37h2v1h-2v-1zm-2-6h4v1H8v-1z"></path><path d="M7,32h1v4H7V32z"></path><path d="M8,36h2v1H8V36z"></path></g></g><g class="gotchi-wearable wearable-face"><svg x="19" y="32"><path d="M25 1V0h-3v1h2v2h-2V2h-2V1h-2V0h-4v1h-2V0H8v1H6v1H4v1H2V1h2V0H1v1H0v3h1v1h1v1h2v1h4V6h2V5h2V4h2v1h2v1h2v1h4V6h2V5h1V4h1V1z"></path><g fill="#303030"><path d="M19 3h1v1h-1zm-2-2h-1v1h2V1z"></path><path d="M18 2h1v1h-1zM6 3h1v1H6zm2-2v1h2V1H9z"></path><path d="M7 2h1v1H7z"></path></g></svg></g><g class="gotchi-wearable wearable-head"><svg x="26" y="4"><path d="M11 1V0H9v1H7V0H5v1H3V0H1v1H0v1h1v2h1v1h1v1h6V5h1V4h1V2h1V1z"></path><path d="M10 1H9v1H7V1H5v1H3V1H1v1h1v2h2v2h4V4h2V2h1V1z" fill="#ffc03c"></path><path d="M1 1v1h2V1H2zm4 0v1h2V1H6zm5 0H9v1h2V1z" fill="#ffe600"></path><path d="M7 4H4v2h4V4z" fill="#ff9600"></path></svg></g><g class="gotchi-wearable wearable-hand wearable-hand-left"><svg x="7" y="24"><path d="M3,31h1V7h2V6H4V0H3v6H1v1h2V31z"></path><path d="M1 0H0v6h1V0zm5 0v6h1V0H6z"></path></svg></g><g class="gotchi-wearable wearable-hand wearable-hand-right"><svg x="2" y="34"><g transform="scale(-1, 1) translate(-60, 0)"><path d="M8 0h1v1H8zM4 5h1v1H4z"></path><path d="M0 1v3h3v1h1V4h1v1h1v2h2V6h1V4H8V3h1V2H8V1z"></path><path d="M7,4V3H6v2h1v1h1V4H7z" fill="#969696"></path><path d="M1,2h6v1H1V2z" fill="#cdcdcd"></path></g></svg></g></svg></svg>