<svg xmlns="http://www.w3.org/2000/svg" viewBox="0 0 64 64"><style>.gotchi-primary{fill:#FF2A7A;}.gotchi-secondary{fill:#FFC3DF;}.gotchi-cheek{fill:#F696C6;}.gotchi-eyeColor{fill:#FF00FF;}.gotchi-sleeves-up{display:none;}.gotchi-handsUp{display:none;}.gotchi-handsDownOpen{display:block;}.gotchi-handsDownClosed{display:none;}
.gotchi-bg {
    display:none;
  }




svg {
  
  animation-duration:0.5s;
  animation-iteration-count: infinite;
  animation-timing-function: linear;
  animation-timing-function: steps(1);
}

.gotchi-shadow {
  
   
   animation-duration:0.5s;
   animation-iteration-count: infinite;
   animation-timing-function: linear;
   animation-timing-function: steps(2);
}

.gotchi-wearable {
  
  animation-duration:0.5s;
  animation-iteration-count: infinite;
  animation-timing-function: linear;
  animation-timing-function: steps(1);
}



.gotchi-handsDownClosed, .gotchi-handsUp, .gotchi-handsDownOpen, .gotchi-handsDownClosed, .gotchi-body, .gotchi-eyeColor, .gotchi-collateral, .gotchi-cheek, .gotchi-primary-mouth, .gotchi-wearable   {
   
   animation-duration:0.5s;
   animation-iteration-count: infinite;
   animation-timing-function: linear;
   animation-timing-function: steps(2);
}

.wearable-hand {
  
  animation-duration:0.5s;
  animation-iteration-count: infinite;
  animation-timing-function: linear;
  animation-timing-function: steps(2);
}

@keyframes downHands {
  from {
    transform: translate(0px, -4px);
  }
 to {
    transform: translate(0px, -3px);
  }
}


@keyframes up {
  from {
    transform: translate(0px, 0);
  }
 to {
    transform: translate(0px, -1px);
  }
}


@keyframes down {
 from {
   transform: translate(0px, 0);
    }
 to {
      transform: translate(0px, 1px);
    }
}
</style><g class="gotchi-bg"><defs fill="#fff"><pattern id="a" patternUnits="userSpaceOnUse" width="4" height="4"><path d="M0 0h1v1H0zm2 2h1v1H2z"/></pattern><pattern id="b" patternUnits="userSpaceOnUse" x="0" y="0" width="2" height="2"><path d="M0 0h1v1H0z"/></pattern><pattern id="c" patternUnits="userSpaceOnUse" x="-2" y="0" width="8" height="1"><path d="M0 0h1v1H0zm2 0h1v1H2zm2 0h1v1H4z"/></pattern><pattern id="d" patternUnits="userSpaceOnUse" x="0" y="0" width="4" height="4"><path d="M0 0h1v1H0zm0 2h1v1H0zm1 0V1h1v1zm1 0h1v1H2zm0-1h1V0H2zm1 2h1v1H3z"/></pattern><pattern id="e" patternUnits="userSpaceOnUse" width="64" height="32"><path d="M4 4h1v1H4zm7 0h1v1h-1zm7 0h1v1h-1zm7 0h1v1h-1zm7 0h1v1h-1zm7 0h1v1h-1zm7 0h1v1h-1zm7 0h1v1h-1zm7 0h1v1h-1z"/><path fill="url(#a)" d="M0 8h64v7H0z"/><path fill="url(#b)" d="M0 16h64v1H0z"/><path fill="url(#c)" d="M0 18h64v1H0z"/><path fill="url(#b)" d="M22 18h15v1H22zM0 20h64v3H0z"/><path fill="url(#d)" d="M0 24h64v8H0z"/></pattern><mask id="f"><path fill="url(#e)" d="M0 0h64v32H0z"/></mask></defs><path fill="#fff" d="M0 0h64v32H0z"/><path fill="#dea8ff" class="gotchi-secondary" mask="url(#f)" d="M0 0h64v32H0z"/><path fill="#dea8ff" class="gotchi-secondary" d="M0 32h64v32H0z"/><path mask="url(#f)" fill="#fff" transform="matrix(1 0 0 -1 0 64)" d="M0 0h64v32H0z"/></g><g class="gotchi-body"><g class="gotchi-primary"><path d="M21 12h2v-2h-4v2h1z"/><path d="M19 14v-2h-2v2h1zm6-4h2V8h-4v2h1z"/><path d="M29 8h8V6H27v2h1zm16 6h2v-2h-2v1z"/><path d="M48 14h-1v39h-2v2h4V14zm-11-4h4V8h-4v1z"/><path d="M41 12h4v-2h-4v1zM17 53V14h-2v41h4v-2h-1z"/><path d="M24 51h-5v2h5v-1z"/><path d="M27 53h-3v2h5v-2h-1zm18-2h-5v2h5v-1z"/><path d="M35 51h-6v2h6v-1z"/><path d="M38 53h-3v2h5v-2h-1z"/></g><g class="gotchi-secondary"><path d="M18 43v6h2v-1h2v1h2v2h-5v2h-2V14h2v1h-1v26z"/><path d="M27 51h-3v2h5v-2h-1zm11 0h-3v2h5v-2h-1z"/><path d="M35 49h-2v-1h-2v1h-2v2h6v-1zM25 11h2v-1h-4v1h1zm-4 2h2v-1h-4v1h1zm24 31v5h-1v-1h-2v1h-2v2h5v2h2V14h-2v29z"/><path d="M37 8H27v1h5v1h5V9zm8 4h-4v2h4v-1z"/><path d="M41 10h-4v2h4v-1z"/></g><path d="M44 14h-3v-2h-4v-2h-5V9h-5v2h-4v2h-4v2h-1v34h2v-1h2v1h2v2h5v-2h2v-1h2v1h2v2h5v-2h2v-1h2v1h1V14z" fill="#fff"/></g><path class="gotchi-cheek" d="M21 32v2h2v-2h-1zm21 0h-1v2h2v-2z"/><g class="gotchi-primary-mouth"><path d="M29 32h-2v2h2v-1z"/><path d="M33 34h-4v2h6v-2h-1z"/><path d="M36 32h-1v2h2v-2z"/></g><g class="gotchi-shadow"><path opacity=".25" d="M25 58H19v1h1v1h24V59h1V58h-1z" fill="#000"/></g><g class="gotchi-eyeColor"><path d="M35,20h1v1h-1V20z" fill="#fff"/><path d="M37 22v-1h-1v2h2v-1zm0 2h1v1h-1z" fill="#ffdeec"/><g fill="#ff3085"><path d="M36 20v-1h-1v-1h-1v3h1v-1z"/><path d="M36 20h1v1h-1z"/><path d="M37 21h1v1h-1z"/><path d="M40 24v-1h-1v-1h-1v1h-2v3h1v2h3v-1h1v-3h-1zm-3 0h1v1h-1v-1z"/><path d="M35 21h1v2h-1z"/></g><path d="M22,20h1v1h-1V20z" fill="#fff"/><path d="M24 22v-1h-1v2h2v-1zm0 2h1v1h-1z" fill="#ffdeec"/><g fill="#ff3085"><path d="M23 20v-1h-1v-1h-1v3h1v-1z"/><path d="M23 20h1v1h-1z"/><path d="M24 21h1v1h-1z"/><path d="M27 24v-1h-1v-1h-1v1h-2v3h1v2h3v-1h1v-3h-1zm-3 0h1v1h-1v-1z"/><path d="M22 21h1v2h-1z"/></g></g><g class="gotchi-collateral"><path d="M30 9V8h-1v1h-1v2h1v1h2V9z" fill="#ffc2db"/><path d="M28 7V6h-1v2h2V7z" fill="#ffdeec"/><path d="M26 5h1v1h-1z" fill="#fff"/><path d="M33 13v-2h-1v1h-1v1h-2v1h1v1h4v-2z" fill="#ff88b8"/><g fill="#ff3085"><path d="M27 5V4h-1V3h-1v3h1V5z"/><path d="M27 5h1v1h-1z"/><path d="M28 6h1v1h-1z"/><path d="M29 7h1v1h-1z"/><path d="M30 8h1v1h-1zm-2 1h1V8h-2v3h1z"/><path d="M31 13v-1h-2v-1h-1v3h1v-1z"/><path d="M31 12h1v-1h1v-1h-1V9h-1z"/><path d="M34 12v-1h-1v2h1v2h1v-3z"/><path d="M30 15v-1h-1v2h5v-1zm-4-9h1v2h-1z"/></g></g><g class="gotchi-handsDownClosed"><g class="gotchi-primary"><path d="M19 42h1v1h-1zm1-6h1v1h-1z"/><path d="M21 37h1v1h-1zm5 3v4h1v-4zm-5 3h-1v1h2v-1z"/><path d="M24 44h-2v1h4v-1h-1zm1-5h-1v1h2v-1z"/><path d="M23 38h-1v1h2v-1z"/></g><g class="gotchi-secondary"><path d="M19 43h1v1h-1zm5 2h-2v1h4v-1h-1z"/><path d="M27 41v3h1v-3zm-6 3h-1v1h2v-1z"/><path d="M26 44h1v1h-1zm-7-3h-1v2h1v-1z"/></g><g class="gotchi-primary"><path d="M44 42h1v1h-1zm-1-6h1v1h-1z"/><path d="M42 37h1v1h-1z"/><path d="M42 39v-1h-2v1h1zm0 4v1h2v-1h-1z"/><path d="M40 44h-2v1h4v-1h-1z"/><path d="M38 42v-2h-1v4h1v-1z"/><path d="M40 40v-1h-2v1h1z"/></g><g class="gotchi-secondary"><path d="M42 44v1h2v-1h-1zm-5-2v-1h-1v3h1v-1z"/><path d="M40 45h-2v1h4v-1h-1z"/><path d="M37 44h1v1h-1zm7-1h1v1h-1z"/></g></g><g class="gotchi-handsDownOpen"><g class="gotchi-primary"><path d="M14 40h1v1h-1v-1zm-1-6h1v1h-1v-1z"/><path d="M14 33h1v1h-1v-1zm-2 2h1v1h-1v-1zm-5 3h1v4H7v-4zm5 3h2v1h-2v-1z"/><path d="M8 42h4v1H8v-1zm0-5h2v1H8v-1z"/><path d="M10,36h2v1h-2V36z"/></g><g class="gotchi-secondary"><path d="M14,39h1v1h-1V39z"/><path d="M12,40h2v1h-2V40z"/><path d="M8,41h4v1H8V41z"/></g><path d="M8,38v3h4v-1h2v-1h1v-5h-1v1h-1v1h-1v1h-2v1H8z" fill="#fff" /><g class="gotchi-primary"><path d="M49 40h1v1h-1v-1zm1-6h1v1h-1v-1z"/><path d="M49 33h1v1h-1v-1zm2 2h1v1h-1v-1zm5 3h1v4h-1v-4zm-6 3h2v1h-2v-1z"/><path d="M52 42h4v1h-4v-1zm2-5h2v1h-2v-1z"/><path d="M52,36h2v1h-2V36z"/></g><g class="gotchi-secondary"><path d="M49,39h1v1h-1V39z"/><path d="M50,40h2v1h-2V40z"/><path d="M52,41h4v1h-4V41z"/></g><path d="M54,38v-1h-2v-1h-1v-1h-1v-1h-1v5h1v1h2v1h4v-3H54z" fill="#fff" /></g><g class="gotchi-handsUp"><g class="gotchi-secondary"><path d="M50,38h1v1h-1V38z"/><path d="M49 39h1v1h-1v-1zm2-2h1v1h-1v-1z"/><path d="M52,36h2v1h-2V36z"/><path d="M54,35h2v1h-2V35z"/></g><path d="M52,32v1h-2v1h-1v5h1v-1h1v-1h1v-1h2v-1h2v-3H52z" fill="#fff"/><g class="gotchi-primary"><path d="M49,33h1v1h-1V33z"/><path d="M50 32h2v1h-2v-1zm0 7h1v1h-1v-1z"/><path d="M49 40h1v1h-1v-1zm2-2h1v1h-1v-1z"/><path d="M52 37h2v1h-2v-1zm0-6h4v1h-4v-1z"/><path d="M56,32h1v4h-1V32z"/><path d="M54,36h2v1h-2V36z"/></g><g class="gotchi-secondary"><path d="M13,38h1v1h-1V38z"/><path d="M14 39h1v1h-1v-1zm-2-2h1v1h-1v-1z"/><path d="M10,36h2v1h-2V36z"/><path d="M8,35h2v1H8V35z"/></g><path d="M8,32v3h2v1h2v1h1v1h1v1h1v-5h-1v-1h-2v-1H8z" fill="#fff"/><g class="gotchi-primary"><path d="M14,33h1v1h-1V33z"/><path d="M12 32h2v1h-2v-1zm1 7h1v1h-1v-1z"/><path d="M14 40h1v1h-1v-1zm-2-2h1v1h-1v-1z"/><path d="M10 37h2v1h-2v-1zm-2-6h4v1H8v-1z"/><path d="M7,32h1v4H7V32z"/><path d="M8,36h2v1H8V36z"/></g></g><g class="gotchi-wearable wearable-body"><svg x="10" y="33"><g><path d="M36 2v1h-1v1h-1v1h-1v1h-1v1h-1v1h-2v1H15V8h-2V7h-1V6h-1V5h-1V4H9V3H8V2H4v18h1v4h34v-4h1V2z"/><path d="M25 23V11h4v-1h2V9h1V8h1V7h1V6h1V5h1V4h1V3h1V2h-2v1h-1v1h-1v1h-1v1h-1v1h-1v1h-2v1H15V8h-2V7h-1V6h-1V5h-1V4H9V3H8V2H6v1h1v1h1v1h1v1h1v1h1v1h1v1h1v1h2v1h4v12H5v1h17v-1h-1v-1h1v-1h-1v-1h1v-1h-1v-1h1v-1h-1v-1h1v-1h-1v-1h1v-1h-1v-1h1v-1h-1v-1h1v1h1v1h-1v1h1v1h-1v1h1v1h-1v1h1v1h-1v1h1v1h-1v1h1v1h-1v1h1v1h16v-1z" fill="#0ff"/><g fill="#f0f"><path d="M5 23h14v1H5v-1zm20 0h14v1H25v-1zM7 2h1v1H7V2zm2 2h1v1H9V4z"/><path d="M8 3h1v1H8V3zm2 2h1v1h-1V5z"/><path d="M11 6h1v1h-1V6zm2 2h2v1h-2V8zm23-6h1v1h-1V2z"/><path d="M35,3h1v1h-1V3z"/><path d="M34 4h1v1h-1V4zm-2 2h1v1h-1V6z"/><path d="M33 5h1v1h-1V5zm-4 3h2v1h-2V8z"/><path d="M12 7h1v1h-1V7zm19 0h1v1h-1V7zm-2 3V9H15v1h5v14h1V10h2v14h1V10h5z"/></g><g class="gotchi-sleeves gotchi-sleeves-left gotchi-sleeves-up"><path d="M42 0v1h-2v13h1V8h1V7h2V0z"/><path d="M42,0h1v7h-1V0z" fill="#f0f"/><path d="M43,0h1v7h-1V0z" fill="#0ff"/></g><g class="gotchi-sleeves gotchi-sleeves-left gotchi-sleeves-down"><path d="M41 3v1h1v1h2v7h-2v-1h-1v5h-1V3z"/><path d="M43 12h-1V5h1v7z" fill="#f0f"/><path d="M44 12h-1V5h1v7z" fill="#0ff"/></g><g class="gotchi-sleeves gotchi-sleeves-right gotchi-sleeves-up"><path d="M2 0v1h2v13H3V8H2V7H0V0z"/><path d="M2 7H1V0h1v7z" fill="#f0f"/><path d="M1 7H0V0h1v7z" fill="#0ff"/></g><g class="gotchi-sleeves gotchi-sleeves-right gotchi-sleeves-down"><path d="M3 3v1H2v1H0v7h2v-1h1v5h1V3z"/><path d="M1,5h1v7H1V5z" fill="#f0f"/><path d="M0,5h1v7H0V5z" fill="#0ff"/></g></g></svg></g><g class="gotchi-wearable wearable-head"><svg x="11" y="0"><path d="M42 14v-4h-2V8h-2V6h-2V4h-2V2h-4V0H18v2h-4v2h-2v2h-2v2H8v2H6v4H4v4H2v2H0v2h42v-2h-2v-2h-2v-4h-2v-2h-2v-2h4v2h2v2z" fill="#501e80"/><path d="M36 16v-2h-4v-2h-2v-2h2V8h4V6h-2V4h-4V2H18v2h-4v2h-2v2h-2v2H8v4H6v2zM4 18h34v2H4z" fill="#fa34f3"/><path d="M22 18v2h2v-2h-2zm-12 0v2h2v-2h-2zm4 0v2h2v-2h-2zm16 0v2h2v-2h-2zm-4 0v2h2v-2h-2zM6 18v2h2v-2H6zm28 0v2h2v-2h-2zm-16 0v2h2v-2h-2zm12-6v4h2v-4h-2zM10 8v8h2V8h-2zm20-4v6h2V4h-2zM14 4v12h2V4h-2zm8-2v14h2V2h-2zm4 0v14h2V2h-2zm-8 0v14h2V2h-2zM6 14v2h2v-2H6zm28 0v2h2v-2h-2zm0-8v2h2V6h-2z" fill="#faaff3"/><path d="M20 16h1v1h-1z" fill="#d700c1"/><path d="M20 17h1v1h-1z" fill="#ffc8ff"/><path d="M21 16h1v1h-1z" fill="#fff"/><path d="M21 17h1v1h-1z" fill="#870075"/><path d="M22 16h1v1h-1z" fill="#ff96ff"/><path d="M22 17h1v1h-1z" fill="#f0f"/><path d="M26 7V6h-2V5h-5v1h-2v1h-1v2h1v2h1v1h1v1h1v1h1v1h1v-1h1v-1h1v-1h1v-1h1V9h1V7z" fill="#870075"/><path d="M24 7V6h-5v1h-2v2h1v2h1v1h1v1h1v1h1v-1h1v-1h1v-1h1V9h1V7z" fill="#f0f"/><path d="M22,12h1v1h-1V12z" fill="#9a298b"/><g fill="#ff62ff"><path d="M20 12h1v1h-1v-1zm5-5h1v1h-1V7zm-5 0v1h3V7h-3zm-2 2h1v2h-1V9z"/><path d="M19 11h1v1h-1v-1zm-2-3h1v1h-1V8z"/></g><g fill="#d700c1"><path d="M24 11h1V9h-1v2z"/><path d="M23 11h1v1h-1v-1zm2-3h1v1h-1V8zm-2-1h1v1h-1V7zm-4 0h1v1h-1V7zm2 2h-2v2h1v1h1V9h1V8h-1v1z"/><path d="M18,8h1v1h-1V8z"/></g><path d="M20 6h3v1h-3V6zm1 6h1V9h-1v3zm-4-5h2v1h-2V7zm5 1h1v1h-1V8zm-3 0h2v1h-2V8z" fill="#ffc8ff"/><g fill="#fff"><path d="M21 6h1v1h-1V6zm0 3h1v1h-1V9z"/><path d="M20 8h1v1h-1V8zm-2-1h1v1h-1V7z"/></g><g fill="#ff96ff"><path d="M23,6h1v1h-1V6z"/><path d="M24 7h1v1h-1V7zm-5-1h1v1h-1V6zm3 6h-1v2h1v-2z"/></g><path d="M23,8v1h-1v3h1v-1h1V9h1V8H23z" fill="#f0f"/></svg></g></svg>