<svg xmlns="http://www.w3.org/2000/svg" viewbox="0 0 64 64"><svg xmlns="http://www.w3.org/2000/svg" viewBox="0 0 64 64"><style>.gotchi-primary{fill:#0074F9;}.gotchi-secondary{fill:#C8E1FD;}.gotchi-cheek{fill:#F696C6;}.gotchi-eyeColor{fill:#0074F9;}.gotchi-primary-mouth{fill:#0074F9;}.gotchi-sleeves-up{display:none;}.gotchi-handsUp{display:none;}.gotchi-handsDownOpen{display:block;}.gotchi-handsDownClosed{display:none;}
.gotchi-bg {
    display:none;
  }




svg {
  
  animation-duration:0.5s;
  animation-iteration-count: infinite;
  animation-timing-function: linear;
  animation-timing-function: steps(1);
}

.gotchi-shadow {
  
   
   animation-duration:0.5s;
   animation-iteration-count: infinite;
   animation-timing-function: linear;
   animation-timing-function: steps(2);
}

.gotchi-wearable {
  
  animation-duration:0.5s;
  animation-iteration-count: infinite;
  animation-timing-function: linear;
  animation-timing-function: steps(1);
}



.gotchi-handsDownClosed, .gotchi-handsUp, .gotchi-handsDownOpen, .gotchi-handsDownClosed, .gotchi-body, .gotchi-eyeColor, .gotchi-collateral, .gotchi-cheek, .gotchi-primary-mouth, .gotchi-wearable, .gotchi-sleeves   {
   
   animation-duration:0.5s;
   animation-iteration-count: infinite;
   animation-timing-function: linear;
   animation-timing-function: steps(2);
}

.wearable-hand {
  
  animation-duration:0.5s;
  animation-iteration-count: infinite;
  animation-timing-function: linear;
  animation-timing-function: steps(2);
}

@keyframes downHands {
  from {
    transform: translate(0px, -4px);
  }
 to {
    transform: translate(0px, -3px);
  }
}


@keyframes up {
  from {
    transform: translate(0px, 0);
  }
 to {
    transform: translate(0px, -1px);
  }
}


@keyframes down {
 from {
   transform: translate(0px, 0);
    }
 to {
      transform: translate(0px, 1px);
    }
}
</style><g class="gotchi-bg"><defs fill="#fff"><pattern id="a" patternUnits="userSpaceOnUse" width="4" height="4"><path d="M0 0h1v1H0zm2 2h1v1H2z"></path></pattern><pattern id="b" patternUnits="userSpaceOnUse" x="0" y="0" width="2" height="2"><path d="M0 0h1v1H0z"></path></pattern><pattern id="c" patternUnits="userSpaceOnUse" x="-2" y="0" width="8" height="1"><path d="M0 0h1v1H0zm2 0h1v1H2zm2 0h1v1H4z"></path></pattern><pattern id="d" patternUnits="userSpaceOnUse" x="0" y="0" width="4" height="4"><path d="M0 0h1v1H0zm0 2h1v1H0zm1 0V1h1v1zm1 0h1v1H2zm0-1h1V0H2zm1 2h1v1H3z"></path></pattern><pattern id="e" patternUnits="userSpaceOnUse" width="64" height="32"><path d="M4 4h1v1H4zm7 0h1v1h-1zm7 0h1v1h-1zm7 0h1v1h-1zm7 0h1v1h-1zm7 0h1v1h-1zm7 0h1v1h-1zm7 0h1v1h-1zm7 0h1v1h-1z"></path><path fill="url(#a)" d="M0 8h64v7H0z"></path><path fill="url(#b)" d="M0 16h64v1H0z"></path><path fill="url(#c)" d="M0 18h64v1H0z"></path><path fill="url(#b)" d="M22 18h15v1H22zM0 20h64v3H0z"></path><path fill="url(#d)" d="M0 24h64v8H0z"></path></pattern><mask id="f"><path fill="url(#e)" d="M0 0h64v32H0z"></path></mask></defs><path fill="#fff" d="M0 0h64v32H0z"></path><path fill="#dea8ff" class="gotchi-secondary" mask="url(#f)" d="M0 0h64v32H0z"></path><path fill="#dea8ff" class="gotchi-secondary" d="M0 32h64v32H0z"></path><path mask="url(#f)" fill="#fff" transform="matrix(1 0 0 -1 0 64)" d="M0 0h64v32H0z"></path></g><g class="gotchi-body"><g class="gotchi-primary"><path d="M21 12h2v-2h-4v2h1z"></path><path d="M19 14v-2h-2v2h1zm6-4h2V8h-4v2h1z"></path><path d="M29 8h8V6H27v2h1zm16 6h2v-2h-2v1z"></path><path d="M48 14h-1v39h-2v2h4V14zm-11-4h4V8h-4v1z"></path><path d="M41 12h4v-2h-4v1zM17 53V14h-2v41h4v-2h-1z"></path><path d="M24 51h-5v2h5v-1z"></path><path d="M27 53h-3v2h5v-2h-1zm18-2h-5v2h5v-1z"></path><path d="M35 51h-6v2h6v-1z"></path><path d="M38 53h-3v2h5v-2h-1z"></path></g><g class="gotchi-secondary"><path d="M18 43v6h2v-1h2v1h2v2h-5v2h-2V14h2v1h-1v26z"></path><path d="M27 51h-3v2h5v-2h-1zm11 0h-3v2h5v-2h-1z"></path><path d="M35 49h-2v-1h-2v1h-2v2h6v-1zM25 11h2v-1h-4v1h1zm-4 2h2v-1h-4v1h1zm24 31v5h-1v-1h-2v1h-2v2h5v2h2V14h-2v29z"></path><path d="M37 8H27v1h5v1h5V9zm8 4h-4v2h4v-1z"></path><path d="M41 10h-4v2h4v-1z"></path></g><path d="M44 14h-3v-2h-4v-2h-5V9h-5v2h-4v2h-4v2h-1v34h2v-1h2v1h2v2h5v-2h2v-1h2v1h2v2h5v-2h2v-1h2v1h1V14z" fill="#fff"></path></g><path class="gotchi-cheek" d="M21 32v2h2v-2h-1zm21 0h-1v2h2v-2z"></path><g><g class="gotchi-primary-mouth">
<path d="M33 34h-4v2h6v-2h-1z">
</path></g></g><g class="gotchi-shadow"><path opacity=".25" d="M25 58H19v1h1v1h24V59h1V58h-1z" fill="#000"></path></g><g class="gotchi-eyeColor"><g><path d="M40 23v2h1v-2h-1z"></path><path d="M39 24v-1h-2v2h1v1h2v-1h-1v-1zm-13 0v1h1v-2h-1v1z"></path><path d="M25 24v-1h-2v2h1v1h2v-1h-1v-1z"></path></g><g class="gotchi-primary"><path d="M35 23h-1v1h1v-1zm0 2h-1v1h1v-1zm9-2h-1v1h1v-1z"></path><path d="M45 24h-1v1h1v-1zm-8-1h6v-1h-8v1h2z"></path><path d="M34 24h-1v1h1v-1zm10 1h-1v1h1v-1z"></path><path d="M41 26h-6v1h8v-1h-2zm-20-3h-1v1h1v-1zm0 2h-1v1h1v-1zm9-2h-1v1h1v-1z"></path><path d="M31 24h-1v1h1v-1zm-8-1h6v-1h-8v1h2z"></path><path d="M20 24h-1v1h1v-1zm10 1h-1v1h1v-1z"></path><path d="M27 26h-6v1h8v-1h-2z"></path></g></g><g class="gotchi-collateral" fill="#0074f9"><path d="M30 16h1v1h-1zm4 1h1v1h-1z"></path><path d="M33 16h1v1h-1zm1 2h1v1h-1z"></path><path d="M34 19h1v1h-1z"></path><path d="M34 20h1v1h-1zm-2 1h1v1h-1z"></path><path d="M33 21h1v1h-1zm-2 0h1v1h-1z"></path><path d="M30 21h1v1h-1z"></path><path d="M29 20h1v1h-1z"></path><path d="M30 19h1v1h-1z"></path><path d="M30 18h1v1h-1z"></path><path d="M29 18h1v1h-1zm4-7h1v1h-1zm-2 0h1v1h-1z"></path><path d="M30 11h1v1h-1zm2 0h1v1h-1zm-3 4h1v1h-1zm0-2h1v1h-1z"></path><path d="M29 12h1v1h-1zm0 2h1v1h-1zm5-2h1v1h-1zm-1 2h1v1h-1z"></path><path d="M34 14h1v1h-1z"></path><path d="M33 13h1v1h-1zm-1.5 2h1v1h-1z"></path><path d="M31.5 14h1v1h-1z"></path><path d="M31.5 13h1v1h-1zm0 3h1v1h-1zm0 2h1v1h-1z"></path><path d="M31.5 19h1v1h-1zm0-2h1v1h-1z"></path></g><g class="gotchi-wearable wearable-body"><svg x="12" y="32"><path d="M35 1v1h-2v1h-2v1h-2v1h-2v1h-2v1H15V6h-2V5h-2V4H9V3H7V2H5V1H3v22h4v-2h5v2h5v-2h6v2h5v-2h5v2h4V1z" fill="#092c1b"></path><path d="M31 9h1v1h-1V9zm-2 0h1v1h-1V9z" fill="#fff"></path><path d="M28,14h1v1h-1V14z" fill="#e15667"></path><path d="M27,14h1v1h-1V14z" fill="#fed11f"></path><path d="M30,14h1v1h-1V14z" fill="#4b6329"></path><path d="M32,14h1v1h-1V14z" fill="#f55549"></path><path d="M32,12h1v1h-1V12z" fill="#698bd9"></path><path d="M32,13h1v1h-1V13z" fill="#e2e5f3"></path><path d="M30,13h1v1h-1V13z" fill="#45322f"></path><path d="M29,14h1v1h-1V14z" fill="#474981"></path><path d="M31,14h1v1h-1V14z" fill="#756638"></path><path d="M18,7v1h1v2h2V8h1V7H18z" fill="#222423"></path><path d="M31,13h1v1h-1V13z" fill="#d9c6b2"></path><g fill="#c2cbc7"><path d="M22,6v2h-1v2h1V9h1V7h2V6H22z"></path><path d="M25 5v1h2V5h-2zM13 5v1h2V5h-2z"></path><path d="M18,6h-3v1h2v2h1v1h1V8h-1V6z"></path></g><path d="M28,12h1v1h-1V12z" fill="#76946f"></path><path d="M29,12h1v1h-1V12z" fill="#cad4e4"></path><path d="M30,16h1v1h-1V16z" fill="#fafefd"></path><path d="M33,13h1v1h-1V13z" fill="#556592"></path><path d="M33,14h1v1h-1V14z" fill="#4770bb"></path><g fill="#6f4017"><path d="M9,7h1v1H9V7z"></path><path d="M10 8v1h1v3h1V8h-2zm-1 5h1v1H9v-1zm23-4h1v1h-1V9zm-2 0h1v1h-1V9zm-2 0h1v1h-1V9zM8 9h1V8H7v4h1V9z"></path><path d="M10 12h1v1h-1v-1zm-2 0h1v1H8v-1z"></path></g><path d="M30,12h1v1h-1V12z" fill="#5666bc"></path><path d="M29,13h1v1h-1V13z" fill="#f6d435"></path><path d="M28,13h1v1h-1V13z" fill="#e6bf8f"></path><path d="M7 15v1h5v-1H7zm6-8h1v1h-1V7zm18 5h1v1h-1v-1z" fill="#c23e3f"></path><path d="M27,13h1v1h-1V13z" fill="#f75457"></path><g fill="#f8af4e"><path d="M10 8H9v1H8v3h1v1h1v-1h1V9h-1V8zm18 2v1h5v-1h-5zm5-1V8h-5v1h5z"></path><path d="M27 9h1v1h-1V9zm-1-2h1v1h-1V7zm-6 11h1v1h-1v-1zm0-2h1v1h-1v-1zm13-7h1v1h-1V9z"></path></g><g fill="#ddd9d6"><path d="M30,15h1v1h-1V15z"></path><path d="M31 17h-1v-1h-1v2h3v-2h-1v1z"></path></g><g fill="#283d2e"><path d="M17,13h-1v-1h-1v-1h-1v-1h-2v2h-1v1h-1v1h2v5H7v-5h2v-1H8v-1H7V8h2V7H7V6H5V3H4v17h15v-5h-1v-1h-1V13z"></path><path d="M18 9h-1V7h-2V6h-2V5h-2V4H9V3H7V2H5v1h1v2h1v1h2v1h1v1h2v1h2v1h1v1h1v1h1v1h1v1h1v-4h-1V9zm-5-1V7h1v1h-1z"></path><path d="M4 1h1v1H4V1zm29 1v1h-2v1h-2v1h-2v1h-2v1h-2v2h-1v1h-2v5h1v-1h1v-1h1v-1h1v-1h1v-1h2V9h1V8h1V7h2V6h2V5h1V3h1V2h-2zm-7 6V7h1v1h-1z"></path><path d="M35 1h1v1h-1V1zm0 5h-2v1h-2v1h2v1h1v1h-1v1h-5v-1h-1v1h-2v1h-1v1h-1v1h-1v1h-1v2h-1v1h1v1h-1v1h16V3h-1v3zm-8 13v-6h1v-1h5v1h1v6h-7z"></path></g></svg></g><g class="gotchi-handsDownClosed"><g class="gotchi-primary"><path d="M19 42h1v1h-1zm1-6h1v1h-1z"></path><path d="M21 37h1v1h-1zm5 3v4h1v-4zm-5 3h-1v1h2v-1z"></path><path d="M24 44h-2v1h4v-1h-1zm1-5h-1v1h2v-1z"></path><path d="M23 38h-1v1h2v-1z"></path></g><g class="gotchi-secondary"><path d="M19 43h1v1h-1zm5 2h-2v1h4v-1h-1z"></path><path d="M27 41v3h1v-3zm-6 3h-1v1h2v-1z"></path><path d="M26 44h1v1h-1zm-7-3h-1v2h1v-1z"></path></g><g class="gotchi-primary"><path d="M44 42h1v1h-1zm-1-6h1v1h-1z"></path><path d="M42 37h1v1h-1z"></path><path d="M42 39v-1h-2v1h1zm0 4v1h2v-1h-1z"></path><path d="M40 44h-2v1h4v-1h-1z"></path><path d="M38 42v-2h-1v4h1v-1z"></path><path d="M40 40v-1h-2v1h1z"></path></g><g class="gotchi-secondary"><path d="M42 44v1h2v-1h-1zm-5-2v-1h-1v3h1v-1z"></path><path d="M40 45h-2v1h4v-1h-1z"></path><path d="M37 44h1v1h-1zm7-1h1v1h-1z"></path></g></g><g class="gotchi-handsDownOpen"><g class="gotchi-primary"><path d="M14 40h1v1h-1v-1zm-1-6h1v1h-1v-1z"></path><path d="M14 33h1v1h-1v-1zm-2 2h1v1h-1v-1zm-5 3h1v4H7v-4zm5 3h2v1h-2v-1z"></path><path d="M8 42h4v1H8v-1zm0-5h2v1H8v-1z"></path><path d="M10,36h2v1h-2V36z"></path></g><g class="gotchi-secondary"><path d="M14,39h1v1h-1V39z"></path><path d="M12,40h2v1h-2V40z"></path><path d="M8,41h4v1H8V41z"></path></g><path d="M8,38v3h4v-1h2v-1h1v-5h-1v1h-1v1h-1v1h-2v1H8z" fill="#fff"></path><g class="gotchi-primary"><path d="M49 40h1v1h-1v-1zm1-6h1v1h-1v-1z"></path><path d="M49 33h1v1h-1v-1zm2 2h1v1h-1v-1zm5 3h1v4h-1v-4zm-6 3h2v1h-2v-1z"></path><path d="M52 42h4v1h-4v-1zm2-5h2v1h-2v-1z"></path><path d="M52,36h2v1h-2V36z"></path></g><g class="gotchi-secondary"><path d="M49,39h1v1h-1V39z"></path><path d="M50,40h2v1h-2V40z"></path><path d="M52,41h4v1h-4V41z"></path></g><path d="M54,38v-1h-2v-1h-1v-1h-1v-1h-1v5h1v1h2v1h4v-3H54z" fill="#fff"></path></g><g class="gotchi-handsUp"><g class="gotchi-secondary"><path d="M50,38h1v1h-1V38z"></path><path d="M49 39h1v1h-1v-1zm2-2h1v1h-1v-1z"></path><path d="M52,36h2v1h-2V36z"></path><path d="M54,35h2v1h-2V35z"></path></g><path d="M52,32v1h-2v1h-1v5h1v-1h1v-1h1v-1h2v-1h2v-3H52z" fill="#fff"></path><g class="gotchi-primary"><path d="M49,33h1v1h-1V33z"></path><path d="M50 32h2v1h-2v-1zm0 7h1v1h-1v-1z"></path><path d="M49 40h1v1h-1v-1zm2-2h1v1h-1v-1z"></path><path d="M52 37h2v1h-2v-1zm0-6h4v1h-4v-1z"></path><path d="M56,32h1v4h-1V32z"></path><path d="M54,36h2v1h-2V36z"></path></g><g class="gotchi-secondary"><path d="M13,38h1v1h-1V38z"></path><path d="M14 39h1v1h-1v-1zm-2-2h1v1h-1v-1z"></path><path d="M10,36h2v1h-2V36z"></path><path d="M8,35h2v1H8V35z"></path></g><path d="M8,32v3h2v1h2v1h1v1h1v1h1v-5h-1v-1h-2v-1H8z" fill="#fff"></path><g class="gotchi-primary"><path d="M14,33h1v1h-1V33z"></path><path d="M12 32h2v1h-2v-1zm1 7h1v1h-1v-1z"></path><path d="M14 40h1v1h-1v-1zm-2-2h1v1h-1v-1z"></path><path d="M10 37h2v1h-2v-1zm-2-6h4v1H8v-1z"></path><path d="M7,32h1v4H7V32z"></path><path d="M8,36h2v1H8V36z"></path></g></g><g class="gotchi-wearable wearable-face"><svg x="9" y="18"><path d="M5 2H4V0H0v6h2v4h2v2h2V2z" fill="#64438e"></path><path d="M5 4H4V2H2v4h2v4h2V4z" fill="#b464ed"></path><g fill="#edd3fd"><path d="M4 4H2v2h2V5z"></path><path d="M5 6H4v4h2V6z"></path></g><path d="M41 2h1V0h4v6h-2v4h-2v2h-2V2z" fill="#64438e"></path><path d="M41 4h1V2h2v4h-2v4h-2V4z" fill="#b464ed"></path><g fill="#edd3fd"><path d="M42 4h2v2h-2V5z"></path><path d="M41 6h1v4h-2V6z"></path></g></svg></g><g class="gotchi-wearable wearable-eyes"><svg x="15" y="22"><path d="M12 2h1v2h-1V2zm15 0h1v2h-1V2z" fill="#fff"></path><path d="M0,0v2h3v4h1v1h1v1h1v1h7V8h1V7h1V6h1V2h2v4h1v1h1v1h1v1h7V8h1V7h1V6h1V2h3V0H0z"></path><path d="M27 2h1v2h-1zM12 2h1v2h-1z" fill="#fff"></path></svg></g><g class="gotchi-wearable wearable-head"><svg x="15" y="6"><path d="M12 0v2H8v2H4v2H2v2H0v8h3v-1h1v-1h1v-1h1v-1h1v-1h1v-1h1V9h1v1h1v1h1v1h1v1h1v1h1v1h1v1h20v-2h-1v-1h-1V8h-2V6h-2V4h-4V2h-4V0H12z"></path></svg></g><g class="gotchi-wearable wearable-hand wearable-hand-left"><svg x="5" y="25"><path d="M0 5v8h1v1h1v4H1v1h3v-1H3v-4h1v-1h1V5z" fill="#0000b9"></path><path d="M1,6v7h3V6H1z" fill="#fff"></path><path d="M1 8v5h3V8H1zm1-5h1v1H2V3zm1-2h1v1H3V1zM1 0h1v1H1V0z" fill="#ffffbe"></path></svg></g><g class="gotchi-wearable wearable-hand wearable-hand-right"><svg x="4" y="31"><g transform="scale(-1, 1) translate(-56, 0)"><g fill="#bebebc"><path d="M5,0h1v1H4V0H5z"></path><path d="M1,3h2V1h1v2h4v1H7v8H6v1H2v-1H1V4H0V3H1z"></path></g><g fill="#0f0"><path d="M3 4h1v1H3v1H2V4h1zm1 4v2H3v1H2V8h2z"></path><path d="M4 6h1V5h1v3H4V6zm1 4h1v2H4v-1h1v-1z"></path></g><g fill="#fff"><path d="M4 6v2H3V6h1zm-1 5h1v1H3v-1z"></path><path d="M4 5h1v1H4V5zm0 5h1v1H4v-1z"></path><path d="M5 4h1v1H5V4zm0 4h1v2H5V8z"></path></g><g fill="#0af"><path d="M3 6v2H2V6h1zm-1 5h1v1H2v-1z"></path><path d="M3 5h1v1H3V5zm0 5h1v1H3v-1z"></path><path d="M4 4h1v1H4V4zm0 4h1v2H4V8z"></path></g></g></svg></g><g class="gotchi-wearable wearable-pet"><svg x="42" y="43"><path d="M19 2V1h-1V0h-5v1h-1v1H8V1H7V0H2v1H1v1H0v2h1v1h1v1H1v3h1v1h1v1H2v1H1v2h1v1H1v2h4v1h3v-1h1v-1h2v1h1v1h3v-1h4v-2h-1v-1h1v-2h-1v-1h-1v-1h1V9h1V6h-1V5h1V4h1V2z"></path><path d="M18 3h-1v1h-3V3h-2v1h1v1h5V4h1V3zM6 3v1H3V3H1v1h1v1h5V4h1V3H7z" fill="#fff"></path><g fill="#9b00dc"><path d="M17 1h-4v1h5V1zm-7 4h2V4h-1V3H9v1H8v1h1zM4 2h3V1H2v1h1zm5 11v2h2v-2h-1z"></path><path d="M16 12v-2H4v2H2v2h2v1H2v1h3v-3h1v3H5v1h3v-4h1v-1h2v1h1v4h3v-1h-1v-3h1v3h3v-1h-2v-1h2v-2h-1z"></path></g><path d="M17 6H2v3h16V6h-1zm0 2H3V7h14v1z" fill="#faaff3"></path></svg></g></svg></svg>