<svg xmlns="http://www.w3.org/2000/svg" viewBox="0 0 64 64"><style>.gotchi-primary{fill:#26A17B;}.gotchi-secondary{fill:#AEDCCE;}.gotchi-cheek{fill:#F696C6;}.gotchi-eyeColor{fill:#36818E;}.gotchi-primary-mouth{fill:#26A17B;}.gotchi-sleeves-up{display:none;}.gotchi-handsUp{display:none;}.gotchi-handsDownOpen{display:block;}.gotchi-handsDownClosed{display:none;}
.gotchi-bg {
    display:none;
  }




svg {
  
  animation-duration:0.5s;
  animation-iteration-count: infinite;
  animation-timing-function: linear;
  animation-timing-function: steps(1);
}

.gotchi-shadow {
  
   
   animation-duration:0.5s;
   animation-iteration-count: infinite;
   animation-timing-function: linear;
   animation-timing-function: steps(2);
}

.gotchi-wearable {
  
  animation-duration:0.5s;
  animation-iteration-count: infinite;
  animation-timing-function: linear;
  animation-timing-function: steps(1);
}



.gotchi-handsDownClosed, .gotchi-handsUp, .gotchi-handsDownOpen, .gotchi-handsDownClosed, .gotchi-body, .gotchi-eyeColor, .gotchi-collateral, .gotchi-cheek, .gotchi-primary-mouth, .gotchi-wearable, .gotchi-sleeves   {
   
   animation-duration:0.5s;
   animation-iteration-count: infinite;
   animation-timing-function: linear;
   animation-timing-function: steps(2);
}

.wearable-hand {
  
  animation-duration:0.5s;
  animation-iteration-count: infinite;
  animation-timing-function: linear;
  animation-timing-function: steps(2);
}

@keyframes downHands {
  from {
    transform: translate(0px, -4px);
  }
 to {
    transform: translate(0px, -3px);
  }
}


@keyframes up {
  from {
    transform: translate(0px, 0);
  }
 to {
    transform: translate(0px, -1px);
  }
}


@keyframes down {
 from {
   transform: translate(0px, 0);
    }
 to {
      transform: translate(0px, 1px);
    }
}
</style><g class="gotchi-bg"><defs fill="#fff"><pattern id="a" patternUnits="userSpaceOnUse" width="4" height="4"><path d="M0 0h1v1H0zm2 2h1v1H2z"/></pattern><pattern id="b" patternUnits="userSpaceOnUse" x="0" y="0" width="2" height="2"><path d="M0 0h1v1H0z"/></pattern><pattern id="c" patternUnits="userSpaceOnUse" x="-2" y="0" width="8" height="1"><path d="M0 0h1v1H0zm2 0h1v1H2zm2 0h1v1H4z"/></pattern><pattern id="d" patternUnits="userSpaceOnUse" x="0" y="0" width="4" height="4"><path d="M0 0h1v1H0zm0 2h1v1H0zm1 0V1h1v1zm1 0h1v1H2zm0-1h1V0H2zm1 2h1v1H3z"/></pattern><pattern id="e" patternUnits="userSpaceOnUse" width="64" height="32"><path d="M4 4h1v1H4zm7 0h1v1h-1zm7 0h1v1h-1zm7 0h1v1h-1zm7 0h1v1h-1zm7 0h1v1h-1zm7 0h1v1h-1zm7 0h1v1h-1zm7 0h1v1h-1z"/><path fill="url(#a)" d="M0 8h64v7H0z"/><path fill="url(#b)" d="M0 16h64v1H0z"/><path fill="url(#c)" d="M0 18h64v1H0z"/><path fill="url(#b)" d="M22 18h15v1H22zM0 20h64v3H0z"/><path fill="url(#d)" d="M0 24h64v8H0z"/></pattern><mask id="f"><path fill="url(#e)" d="M0 0h64v32H0z"/></mask></defs><path fill="#fff" d="M0 0h64v32H0z"/><path fill="#dea8ff" class="gotchi-secondary" mask="url(#f)" d="M0 0h64v32H0z"/><path fill="#dea8ff" class="gotchi-secondary" d="M0 32h64v32H0z"/><path mask="url(#f)" fill="#fff" transform="matrix(1 0 0 -1 0 64)" d="M0 0h64v32H0z"/></g><g class="gotchi-body"><g class="gotchi-primary"><path d="M21 12h2v-2h-4v2h1z"/><path d="M19 14v-2h-2v2h1zm6-4h2V8h-4v2h1z"/><path d="M29 8h8V6H27v2h1zm16 6h2v-2h-2v1z"/><path d="M48 14h-1v39h-2v2h4V14zm-11-4h4V8h-4v1z"/><path d="M41 12h4v-2h-4v1zM17 53V14h-2v41h4v-2h-1z"/><path d="M24 51h-5v2h5v-1z"/><path d="M27 53h-3v2h5v-2h-1zm18-2h-5v2h5v-1z"/><path d="M35 51h-6v2h6v-1z"/><path d="M38 53h-3v2h5v-2h-1z"/></g><g class="gotchi-secondary"><path d="M18 43v6h2v-1h2v1h2v2h-5v2h-2V14h2v1h-1v26z"/><path d="M27 51h-3v2h5v-2h-1zm11 0h-3v2h5v-2h-1z"/><path d="M35 49h-2v-1h-2v1h-2v2h6v-1zM25 11h2v-1h-4v1h1zm-4 2h2v-1h-4v1h1zm24 31v5h-1v-1h-2v1h-2v2h5v2h2V14h-2v29z"/><path d="M37 8H27v1h5v1h5V9zm8 4h-4v2h4v-1z"/><path d="M41 10h-4v2h4v-1z"/></g><path d="M44 14h-3v-2h-4v-2h-5V9h-5v2h-4v2h-4v2h-1v34h2v-1h2v1h2v2h5v-2h2v-1h2v1h2v2h5v-2h2v-1h2v1h1V14z" fill="#fff"/></g><path class="gotchi-cheek" d="M21 32v2h2v-2h-1zm21 0h-1v2h2v-2z"/><g class="gotchi-primary-mouth"><path d="M29 32h-2v2h2v-1z"/><path d="M33 34h-4v2h6v-2h-1z"/><path d="M36 32h-1v2h2v-2z"/></g><g class="gotchi-shadow"><path opacity=".25" d="M25 58H19v1h1v1h24V59h1V58h-1z" fill="#000"/></g><g class="gotchi-eyeColor"><g><path d="M40 23v2h1v-2h-1z" /><path d="M39 24v-1h-2v2h1v1h2v-1h-1v-1zm-13 0v1h1v-2h-1v1z" /><path d="M25 24v-1h-2v2h1v1h2v-1h-1v-1z" /></g><g class="gotchi-primary"><path d="M35 23h-1v1h1v-1zm0 2h-1v1h1v-1zm9-2h-1v1h1v-1z" /><path d="M45 24h-1v1h1v-1zm-8-1h6v-1h-8v1h2z" /><path d="M34 24h-1v1h1v-1zm10 1h-1v1h1v-1z" /><path d="M41 26h-6v1h8v-1h-2zm-20-3h-1v1h1v-1zm0 2h-1v1h1v-1zm9-2h-1v1h1v-1z" /><path d="M31 24h-1v1h1v-1zm-8-1h6v-1h-8v1h2z" /><path d="M20 24h-1v1h1v-1zm10 1h-1v1h1v-1z" /><path d="M27 26h-6v1h8v-1h-2z" /></g></g><g class="gotchi-collateral" fill="#26a17b"><path d="M31 19h2v3h-2zm0-2v1h2v-1h3v-1h-3v-1h2v-2h-6v2h2v1h-3v1z"/><path d="M27 17h1v1h-1z"/><path d="M28 18h3v1h-3zm8-1h1v1h-1z"/><path d="M33 18h3v1h-3z"/></g><g class="gotchi-wearable wearable-body"><svg x="2" y="19"><path d="M59 19v-3h-1v-2h-1v-2h-1v-2h-1V8h-1V6h-1V4h-1V2h-1V1h-1V0h-1v1h-1v2h-1v27h1v1h1v-1h1v-3h1v-1h1v-1h3v1h1v1h1v3h1v1h1v-1h1V19zM12 2V1h-1V0h-1v1H9v1H8v2H7v2H6v2H5v2H4v2H3v2H2v2H1v3H0v11h1v1h1v-1h1v-3h1v-1h1v-1h3v1h1v1h1v3h1v1h1v-1h1V3h-1z" fill="#002de4"/><g fill="#1973ff"><path d="M58 19v11h1V19zm-2-1v-1h-1v-2h-1v-2h-1v-2h-1V9h-1V7h-1v9h1v9h1v-1h3v1h1v1h1v-7h-1z"/><path d="M58 17h-1v2h1v-1z"/><path d="M56 17h1v-2h-1v1z"/><path d="M55 15h1v-2h-1v1z"/><path d="M54 13h1v-2h-1v1z"/><path d="M53 11h1V9h-1v1z"/><path d="M52 9h1V7h-1v1z"/><path d="M49 14V5h1v1h1v1h1V5h-1V3h-1V1h-1v2h-1v2h-1v2h1v8h-1v9h1v-8h1v-1zm-2 13h1v1h-1z"/><path d="M48 30h1v-2h-1v1zm1-13v8h-1v2h2V16h-1zM1 20v10h1V19H1zm9-6V7H9v2H8v2H7v2H6v2H5v2H4v2H3v7h1v-1h1v-1h3v1h1v-9h1v-1z"/><path d="M3 17H2v2h1v-1z"/><path d="M4 16v-1H3v2h1z"/><path d="M5 14v-1H4v2h1z"/><path d="M6 12v-1H5v2h1z"/><path d="M7 10V9H6v2h1z"/><path d="M8 8V7H7v2h1z"/><path d="M12 4V3h-1V1h-1v2H9v2H8v2h1V6h1V5h1v11h1v8h1v-9h-1V7h1V5h-1zm0 23h1v1h-1z"/><path d="M11 29v1h1v-2h-1zm-1-12v10h2v-2h-1v-9h-1z"/></g><g fill="#9dc3ff"><path d="M58 19v7h1v-7zm-7-2v7h1v-1h3v1h1v-5h-1v-2h-1v-2h-1v-2h-1v-2h-1V8h-1v8h1z"/><path d="M58 17h-1v2h1v-1z"/><path d="M57 15h-1v2h1v-1z"/><path d="M56 13h-1v2h1v-1z"/><path d="M55 11h-1v2h1v-1z"/><path d="M54 9h-1v2h1v-1z"/><path d="M53 7h-1v2h1V8z"/><path d="M52 5h-1V3h-1V2h-1v3h1v1h1v1h1V6zm-3 13v7h-1v2h1v-1h1V16h-1v1z"/><path d="M48 6v10h1V5h-1zM1 20v6h1v-7H1z"/><path d="M10 14V8H9v3H8v2H7v2H6v2H5v2H4v5h1v-1h3v1h1v-8h1v-1zm-8 4v1h1v-2H2z"/><path d="M3 16v1h1v-2H3z"/><path d="M4 14v1h1v-2H4z"/><path d="M5 12v1h1v-2H5z"/><path d="M6 10v1h1V9H6z"/><path d="M7 8v1h1V7H7z"/><path d="M11 3V2h-1v1H9v2H8v2h1V6h1V5h1V4zm-1 14v9h1v1h1v-2h-1v-9h-1z"/><path d="M11 6v10h1V5h-1z"/></g><path d="M49 1h1v1h-1zm-1 28h1v1h-1zm10-1v2h1v-2zM10 1h1v1h-1zm1 28h1v1h-1zM1 29v1h1v-2H1z" fill="#fff"/></svg></g><g class="gotchi-handsDownClosed"><g class="gotchi-primary"><path d="M19 42h1v1h-1zm1-6h1v1h-1z"/><path d="M21 37h1v1h-1zm5 3v4h1v-4zm-5 3h-1v1h2v-1z"/><path d="M24 44h-2v1h4v-1h-1zm1-5h-1v1h2v-1z"/><path d="M23 38h-1v1h2v-1z"/></g><g class="gotchi-secondary"><path d="M19 43h1v1h-1zm5 2h-2v1h4v-1h-1z"/><path d="M27 41v3h1v-3zm-6 3h-1v1h2v-1z"/><path d="M26 44h1v1h-1zm-7-3h-1v2h1v-1z"/></g><g class="gotchi-primary"><path d="M44 42h1v1h-1zm-1-6h1v1h-1z"/><path d="M42 37h1v1h-1z"/><path d="M42 39v-1h-2v1h1zm0 4v1h2v-1h-1z"/><path d="M40 44h-2v1h4v-1h-1z"/><path d="M38 42v-2h-1v4h1v-1z"/><path d="M40 40v-1h-2v1h1z"/></g><g class="gotchi-secondary"><path d="M42 44v1h2v-1h-1zm-5-2v-1h-1v3h1v-1z"/><path d="M40 45h-2v1h4v-1h-1z"/><path d="M37 44h1v1h-1zm7-1h1v1h-1z"/></g></g><g class="gotchi-handsDownOpen"><g class="gotchi-primary"><path d="M14 40h1v1h-1v-1zm-1-6h1v1h-1v-1z"/><path d="M14 33h1v1h-1v-1zm-2 2h1v1h-1v-1zm-5 3h1v4H7v-4zm5 3h2v1h-2v-1z"/><path d="M8 42h4v1H8v-1zm0-5h2v1H8v-1z"/><path d="M10,36h2v1h-2V36z"/></g><g class="gotchi-secondary"><path d="M14,39h1v1h-1V39z"/><path d="M12,40h2v1h-2V40z"/><path d="M8,41h4v1H8V41z"/></g><path d="M8,38v3h4v-1h2v-1h1v-5h-1v1h-1v1h-1v1h-2v1H8z" fill="#fff" /><g class="gotchi-primary"><path d="M49 40h1v1h-1v-1zm1-6h1v1h-1v-1z"/><path d="M49 33h1v1h-1v-1zm2 2h1v1h-1v-1zm5 3h1v4h-1v-4zm-6 3h2v1h-2v-1z"/><path d="M52 42h4v1h-4v-1zm2-5h2v1h-2v-1z"/><path d="M52,36h2v1h-2V36z"/></g><g class="gotchi-secondary"><path d="M49,39h1v1h-1V39z"/><path d="M50,40h2v1h-2V40z"/><path d="M52,41h4v1h-4V41z"/></g><path d="M54,38v-1h-2v-1h-1v-1h-1v-1h-1v5h1v1h2v1h4v-3H54z" fill="#fff" /></g><g class="gotchi-handsUp"><g class="gotchi-secondary"><path d="M50,38h1v1h-1V38z"/><path d="M49 39h1v1h-1v-1zm2-2h1v1h-1v-1z"/><path d="M52,36h2v1h-2V36z"/><path d="M54,35h2v1h-2V35z"/></g><path d="M52,32v1h-2v1h-1v5h1v-1h1v-1h1v-1h2v-1h2v-3H52z" fill="#fff"/><g class="gotchi-primary"><path d="M49,33h1v1h-1V33z"/><path d="M50 32h2v1h-2v-1zm0 7h1v1h-1v-1z"/><path d="M49 40h1v1h-1v-1zm2-2h1v1h-1v-1z"/><path d="M52 37h2v1h-2v-1zm0-6h4v1h-4v-1z"/><path d="M56,32h1v4h-1V32z"/><path d="M54,36h2v1h-2V36z"/></g><g class="gotchi-secondary"><path d="M13,38h1v1h-1V38z"/><path d="M14 39h1v1h-1v-1zm-2-2h1v1h-1v-1z"/><path d="M10,36h2v1h-2V36z"/><path d="M8,35h2v1H8V35z"/></g><path d="M8,32v3h2v1h2v1h1v1h1v1h1v-5h-1v-1h-2v-1H8z" fill="#fff"/><g class="gotchi-primary"><path d="M14,33h1v1h-1V33z"/><path d="M12 32h2v1h-2v-1zm1 7h1v1h-1v-1z"/><path d="M14 40h1v1h-1v-1zm-2-2h1v1h-1v-1z"/><path d="M10 37h2v1h-2v-1zm-2-6h4v1H8v-1z"/><path d="M7,32h1v4H7V32z"/><path d="M8,36h2v1H8V36z"/></g></g><g class="gotchi-wearable wearable-face"><svg x="29" y="37"><path d="M0,0v1h1v1h1v1h2V2h1V1h1V0H0z"/><defs /></svg></g><g class="gotchi-wearable wearable-eyes"><svg x="15" y="22"><path d="M0,0v2h3v2h1v2h1v1h1v1h7V7h1V6h1V4h1V2h2v2h1v2h1v1h1v1h7V7h1V6h1V4h1V2h3V0H0z"/><path d="M29 1v2h-1V2h-1V1zM14 1v2h-1V2h-1V1z" fill="#fff"/></svg></g><g class="gotchi-wearable wearable-head"><svg x="19" y="4"><path d="M25 0v1h-1v2h-1v1h-1v2h-1v1h-1v2h-1v4h2v1h4V8h1V0z" fill="#002de4"/><path d="M24 3v1h-1v3h2V3zm-2 5V7h-1v2h-1v3h2v1h2V8h-1z" fill="#1973ff"/><path d="M24 3v1h-1v3h1V5h1V3zm-2 4h-1v2h-1v3h1v-1h1V9h1V8h-1z" fill="#9dc3ff"/><path d="M1 0v1h1v2h1v1h1v2h1v1h1v2h1v4H5v1H1V8H0V0z" fill="#002de4"/><path d="M2 3v1h1v3H1V3zm2 5V7h1v2h1v3H4v1H2V8h1z" fill="#1973ff"/><path d="M2 3v1h1v3H2V5H1V3zm2 4h1v2h1v3H5v-1H4V9H3V8h1z" fill="#9dc3ff"/></svg></g><g class="gotchi-wearable wearable-hand wearable-hand-left"><svg x="3" y="31"><path d="M9 5V3H8V2H7V1H6V0H4v1H3v1H2v1H1v2H0v4h1v1h1v1h1v1h4v-1h1v-1h1V9h1V5z" fill="red"/><path d="M8 6V4H7V3H6V2H5V1H4v2H3v1H2v2H1v3h1v1h1v1h4v-1h1V9h1V6z" fill="#ff6f00"/><path d="M7 6V4H6V3H5v1H4v1H3V4H2v6h1v1h4V9h1V6z" fill="#fa0"/><g fill="#ff0"><path d="M6 6V5H4v1H3v2H2v2h1v1h3V9h1V7H6z"/><path d="M7 6h1v1H7zM6 4h1v1H6zM2 5h1v1H2z"/></g></svg></g><g class="gotchi-wearable wearable-hand wearable-hand-right"><svg x="6" y="23"><g transform="scale(-1, 1) translate(-52, 0)"><path d="M6 7V6H5V0H2v6H1v1H0v14h1v1h5v-1h1V7z"/><path d="M1,11h2v7H1V11z" fill="#decd87"/><path d="M3,3h1v2H3V3z" fill="#782121"/><path d="M3 1h1v1H3zm2 6V6H2v1H1v3h3v9H1v2h5V7z" fill="green"/><path d="M1 7h1v3H1V7zm0 12h1v2H1v-2z" fill="#0a0"/></g></svg></g><g class="gotchi-wearable wearable-pet"><svg x="42" y="43"><path d="M19 2V1h-1V0h-5v1h-1v1H8V1H7V0H2v1H1v1H0v2h1v1h1v1H1v3h1v1h1v1H2v1H1v2h1v1H1v2h4v1h3v-1h1v-1h2v1h1v1h3v-1h4v-2h-1v-1h1v-2h-1v-1h-1v-1h1V9h1V6h-1V5h1V4h1V2z"/><path d="M18 3h-1v1h-3V3h-2v1h1v1h5V4h1V3zM6 3v1H3V3H1v1h1v1h5V4h1V3H7z" fill="#fff"/><g fill="#9b00dc"><path d="M17 1h-4v1h5V1zm-7 4h2V4h-1V3H9v1H8v1h1zM4 2h3V1H2v1h1zm5 11v2h2v-2h-1z"/><path d="M16 12v-2H4v2H2v2h2v1H2v1h3v-3h1v3H5v1h3v-4h1v-1h2v1h1v4h3v-1h-1v-3h1v3h3v-1h-2v-1h2v-2h-1z"/></g><path d="M17 6H2v3h16V6h-1zm0 2H3V7h14v1z" fill="#faaff3"/></svg></g></svg>