<svg xmlns="http://www.w3.org/2000/svg" viewBox="0 0 64 64"><style>.gotchi-primary{fill:#0074F9;}.gotchi-secondary{fill:#C8E1FD;}.gotchi-cheek{fill:#F696C6;}.gotchi-eyeColor{fill:#36818E;}.gotchi-primary-mouth{fill:#0074F9;}.gotchi-sleeves-up{display:none;}.gotchi-handsUp{display:none;}.gotchi-handsDownOpen{display:block;}.gotchi-handsDownClosed{display:none;}
.gotchi-bg {
    display:none;
  }




svg {
  
  animation-duration:0.5s;
  animation-iteration-count: infinite;
  animation-timing-function: linear;
  animation-timing-function: steps(1);
}

.gotchi-shadow {
  
   
   animation-duration:0.5s;
   animation-iteration-count: infinite;
   animation-timing-function: linear;
   animation-timing-function: steps(2);
}

.gotchi-wearable {
  
  animation-duration:0.5s;
  animation-iteration-count: infinite;
  animation-timing-function: linear;
  animation-timing-function: steps(1);
}



.gotchi-handsDownClosed, .gotchi-handsUp, .gotchi-handsDownOpen, .gotchi-handsDownClosed, .gotchi-body, .gotchi-eyeColor, .gotchi-collateral, .gotchi-cheek, .gotchi-primary-mouth, .gotchi-wearable, .gotchi-sleeves   {
   
   animation-duration:0.5s;
   animation-iteration-count: infinite;
   animation-timing-function: linear;
   animation-timing-function: steps(2);
}

.wearable-hand {
  
  animation-duration:0.5s;
  animation-iteration-count: infinite;
  animation-timing-function: linear;
  animation-timing-function: steps(2);
}

@keyframes downHands {
  from {
    transform: translate(0px, -4px);
  }
 to {
    transform: translate(0px, -3px);
  }
}


@keyframes up {
  from {
    transform: translate(0px, 0);
  }
 to {
    transform: translate(0px, -1px);
  }
}


@keyframes down {
 from {
   transform: translate(0px, 0);
    }
 to {
      transform: translate(0px, 1px);
    }
}
</style><g class="gotchi-bg"><defs fill="#fff"><pattern id="a" patternUnits="userSpaceOnUse" width="4" height="4"><path d="M0 0h1v1H0zm2 2h1v1H2z"/></pattern><pattern id="b" patternUnits="userSpaceOnUse" x="0" y="0" width="2" height="2"><path d="M0 0h1v1H0z"/></pattern><pattern id="c" patternUnits="userSpaceOnUse" x="-2" y="0" width="8" height="1"><path d="M0 0h1v1H0zm2 0h1v1H2zm2 0h1v1H4z"/></pattern><pattern id="d" patternUnits="userSpaceOnUse" x="0" y="0" width="4" height="4"><path d="M0 0h1v1H0zm0 2h1v1H0zm1 0V1h1v1zm1 0h1v1H2zm0-1h1V0H2zm1 2h1v1H3z"/></pattern><pattern id="e" patternUnits="userSpaceOnUse" width="64" height="32"><path d="M4 4h1v1H4zm7 0h1v1h-1zm7 0h1v1h-1zm7 0h1v1h-1zm7 0h1v1h-1zm7 0h1v1h-1zm7 0h1v1h-1zm7 0h1v1h-1zm7 0h1v1h-1z"/><path fill="url(#a)" d="M0 8h64v7H0z"/><path fill="url(#b)" d="M0 16h64v1H0z"/><path fill="url(#c)" d="M0 18h64v1H0z"/><path fill="url(#b)" d="M22 18h15v1H22zM0 20h64v3H0z"/><path fill="url(#d)" d="M0 24h64v8H0z"/></pattern><mask id="f"><path fill="url(#e)" d="M0 0h64v32H0z"/></mask></defs><path fill="#fff" d="M0 0h64v32H0z"/><path fill="#dea8ff" class="gotchi-secondary" mask="url(#f)" d="M0 0h64v32H0z"/><path fill="#dea8ff" class="gotchi-secondary" d="M0 32h64v32H0z"/><path mask="url(#f)" fill="#fff" transform="matrix(1 0 0 -1 0 64)" d="M0 0h64v32H0z"/></g><g class="gotchi-body"><g class="gotchi-primary"><path d="M21 12h2v-2h-4v2h1z"/><path d="M19 14v-2h-2v2h1zm6-4h2V8h-4v2h1z"/><path d="M29 8h8V6H27v2h1zm16 6h2v-2h-2v1z"/><path d="M48 14h-1v39h-2v2h4V14zm-11-4h4V8h-4v1z"/><path d="M41 12h4v-2h-4v1zM17 53V14h-2v41h4v-2h-1z"/><path d="M24 51h-5v2h5v-1z"/><path d="M27 53h-3v2h5v-2h-1zm18-2h-5v2h5v-1z"/><path d="M35 51h-6v2h6v-1z"/><path d="M38 53h-3v2h5v-2h-1z"/></g><g class="gotchi-secondary"><path d="M18 43v6h2v-1h2v1h2v2h-5v2h-2V14h2v1h-1v26z"/><path d="M27 51h-3v2h5v-2h-1zm11 0h-3v2h5v-2h-1z"/><path d="M35 49h-2v-1h-2v1h-2v2h6v-1zM25 11h2v-1h-4v1h1zm-4 2h2v-1h-4v1h1zm24 31v5h-1v-1h-2v1h-2v2h5v2h2V14h-2v29z"/><path d="M37 8H27v1h5v1h5V9zm8 4h-4v2h4v-1z"/><path d="M41 10h-4v2h4v-1z"/></g><path d="M44 14h-3v-2h-4v-2h-5V9h-5v2h-4v2h-4v2h-1v34h2v-1h2v1h2v2h5v-2h2v-1h2v1h2v2h5v-2h2v-1h2v1h1V14z" fill="#fff"/></g><path class="gotchi-cheek" d="M21 32v2h2v-2h-1zm21 0h-1v2h2v-2z"/><g class="gotchi-primary-mouth"><path d="M29 32h-2v2h2v-1z"/><path d="M33 34h-4v2h6v-2h-1z"/><path d="M36 32h-1v2h2v-2z"/></g><g class="gotchi-shadow"><path opacity=".25" d="M25 58H19v1h1v1h24V59h1V58h-1z" fill="#000"/></g><g class="gotchi-eyeColor"><rect x="21" y="23" width="8" height="2" class="gotchi-primary" /><rect x="35" y="23" width="8" height="2" class="gotchi-primary" /><rect x="38" y="25" width="2" height="2" /><rect x="24" y="25" width="2" height="2" /></g><g class="gotchi-collateral" fill="#0074f9"><path d="M30 16h1v1h-1zm4 1h1v1h-1z"/><path d="M33 16h1v1h-1zm1 2h1v1h-1z"/><path d="M34 19h1v1h-1z"/><path d="M34 20h1v1h-1zm-2 1h1v1h-1z"/><path d="M33 21h1v1h-1zm-2 0h1v1h-1z"/><path d="M30 21h1v1h-1z"/><path d="M29 20h1v1h-1z"/><path d="M30 19h1v1h-1z"/><path d="M30 18h1v1h-1z"/><path d="M29 18h1v1h-1zm4-7h1v1h-1zm-2 0h1v1h-1z"/><path d="M30 11h1v1h-1zm2 0h1v1h-1zm-3 4h1v1h-1zm0-2h1v1h-1z"/><path d="M29 12h1v1h-1zm0 2h1v1h-1zm5-2h1v1h-1zm-1 2h1v1h-1z"/><path d="M34 14h1v1h-1z"/><path d="M33 13h1v1h-1zm-1.5 2h1v1h-1z"/><path d="M31.5 14h1v1h-1z"/><path d="M31.5 13h1v1h-1zm0 3h1v1h-1zm0 2h1v1h-1z"/><path d="M31.5 19h1v1h-1zm0-2h1v1h-1z"/></g><g class="gotchi-wearable wearable-body"><svg x="15" y="34"><g fill="#ffc03c"><path d="M19 9V8h-1V7h-2v1h-1v1h-2v1h2v1h1v1h2v-1h1v-1h2V9h-1zM4 4h1v1H4z"/><path d="M3 3h1v1H3z"/><path d="M2 2h1v1H2z"/><path d="M1 1h1v1H1z"/><path d="M0 0h1v1H0zm5 5h1v1H5z"/><path d="M7 6H6v1h2V6z"/><path d="M9 7H8v1h2V7zm20-3h1v1h-1z"/><path d="M30 3h1v1h-1z"/><path d="M31 2h1v1h-1z"/><path d="M32 1h1v1h-1z"/><path d="M33 0h1v1h-1zm-5 5h1v1h-1z"/><path d="M26 6v1h2V6h-1z"/><path d="M24 7v1h2V7h-1z"/><path d="M22 8h-1v1h3V8h-1zM12 8h-2v1h3V8z"/></g><path d="M18 9V8h-2v1h-1v1h1v1h2v-1h1V9z" fill="#ffeabe"/><path d="M17 9h-1v1h2V9z" fill="#64438e"/></svg></g><g class="gotchi-handsDownClosed"><g class="gotchi-primary"><path d="M19 42h1v1h-1zm1-6h1v1h-1z"/><path d="M21 37h1v1h-1zm5 3v4h1v-4zm-5 3h-1v1h2v-1z"/><path d="M24 44h-2v1h4v-1h-1zm1-5h-1v1h2v-1z"/><path d="M23 38h-1v1h2v-1z"/></g><g class="gotchi-secondary"><path d="M19 43h1v1h-1zm5 2h-2v1h4v-1h-1z"/><path d="M27 41v3h1v-3zm-6 3h-1v1h2v-1z"/><path d="M26 44h1v1h-1zm-7-3h-1v2h1v-1z"/></g><g class="gotchi-primary"><path d="M44 42h1v1h-1zm-1-6h1v1h-1z"/><path d="M42 37h1v1h-1z"/><path d="M42 39v-1h-2v1h1zm0 4v1h2v-1h-1z"/><path d="M40 44h-2v1h4v-1h-1z"/><path d="M38 42v-2h-1v4h1v-1z"/><path d="M40 40v-1h-2v1h1z"/></g><g class="gotchi-secondary"><path d="M42 44v1h2v-1h-1zm-5-2v-1h-1v3h1v-1z"/><path d="M40 45h-2v1h4v-1h-1z"/><path d="M37 44h1v1h-1zm7-1h1v1h-1z"/></g></g><g class="gotchi-handsDownOpen"><g class="gotchi-primary"><path d="M14 40h1v1h-1v-1zm-1-6h1v1h-1v-1z"/><path d="M14 33h1v1h-1v-1zm-2 2h1v1h-1v-1zm-5 3h1v4H7v-4zm5 3h2v1h-2v-1z"/><path d="M8 42h4v1H8v-1zm0-5h2v1H8v-1z"/><path d="M10,36h2v1h-2V36z"/></g><g class="gotchi-secondary"><path d="M14,39h1v1h-1V39z"/><path d="M12,40h2v1h-2V40z"/><path d="M8,41h4v1H8V41z"/></g><path d="M8,38v3h4v-1h2v-1h1v-5h-1v1h-1v1h-1v1h-2v1H8z" fill="#fff" /><g class="gotchi-primary"><path d="M49 40h1v1h-1v-1zm1-6h1v1h-1v-1z"/><path d="M49 33h1v1h-1v-1zm2 2h1v1h-1v-1zm5 3h1v4h-1v-4zm-6 3h2v1h-2v-1z"/><path d="M52 42h4v1h-4v-1zm2-5h2v1h-2v-1z"/><path d="M52,36h2v1h-2V36z"/></g><g class="gotchi-secondary"><path d="M49,39h1v1h-1V39z"/><path d="M50,40h2v1h-2V40z"/><path d="M52,41h4v1h-4V41z"/></g><path d="M54,38v-1h-2v-1h-1v-1h-1v-1h-1v5h1v1h2v1h4v-3H54z" fill="#fff" /></g><g class="gotchi-handsUp"><g class="gotchi-secondary"><path d="M50,38h1v1h-1V38z"/><path d="M49 39h1v1h-1v-1zm2-2h1v1h-1v-1z"/><path d="M52,36h2v1h-2V36z"/><path d="M54,35h2v1h-2V35z"/></g><path d="M52,32v1h-2v1h-1v5h1v-1h1v-1h1v-1h2v-1h2v-3H52z" fill="#fff"/><g class="gotchi-primary"><path d="M49,33h1v1h-1V33z"/><path d="M50 32h2v1h-2v-1zm0 7h1v1h-1v-1z"/><path d="M49 40h1v1h-1v-1zm2-2h1v1h-1v-1z"/><path d="M52 37h2v1h-2v-1zm0-6h4v1h-4v-1z"/><path d="M56,32h1v4h-1V32z"/><path d="M54,36h2v1h-2V36z"/></g><g class="gotchi-secondary"><path d="M13,38h1v1h-1V38z"/><path d="M14 39h1v1h-1v-1zm-2-2h1v1h-1v-1z"/><path d="M10,36h2v1h-2V36z"/><path d="M8,35h2v1H8V35z"/></g><path d="M8,32v3h2v1h2v1h1v1h1v1h1v-5h-1v-1h-2v-1H8z" fill="#fff"/><g class="gotchi-primary"><path d="M14,33h1v1h-1V33z"/><path d="M12 32h2v1h-2v-1zm1 7h1v1h-1v-1z"/><path d="M14 40h1v1h-1v-1zm-2-2h1v1h-1v-1z"/><path d="M10 37h2v1h-2v-1zm-2-6h4v1H8v-1z"/><path d="M7,32h1v4H7V32z"/><path d="M8,36h2v1H8V36z"/></g></g><g class="gotchi-wearable wearable-face"><svg x="29" y="37"><path d="M0,0v1h1v1h1v1h2V2h1V1h1V0H0z"/><defs /></svg></g><g class="gotchi-wearable wearable-eyes"><svg x="15" y="19"><g fill="#42433d"><path d="M5 9h1v1H5V9zm0-7h1v1H5V2z"/><path d="M6 10h1v1H6v-1zm8-1h1v1h-1V9z"/><path d="M6 1h1v1H6V1zm7 9h1v1h-1v-1z"/><path d="M4 3v2H0v2h4v2h1V3H4zm3 8h6v1H7v-1zm14 0h6v1h-6v-1zm-7-9h1v1h-1V2z"/><path d="M13,1h1v1h-1V1z"/><path d="M7 0h6v1H7V0zm14 0h6v1h-6V0zm-2 9h1v1h-1V9z"/><path d="M20 10h1v1h-1v-1zm7 0h1v1h-1v-1zm3-5V3h-1v6h1V7h4V5h-4z"/><path d="M28 9h1v1h-1V9zm-8-8h1v1h-1V1z"/><path d="M28 2h1v1h-1V2zm-9 0h1v1h-1V2z"/><path d="M18 3v2h-2V3h-1v6h1V7h2v2h1V3h-1zm9-2h1v1h-1V1z"/></g><g opacity=".9"><linearGradient id="A" gradientUnits="userSpaceOnUse" x1="17" y1="11" x2="17" y2="1"><stop offset="0" stop-color="#ee34b8"/><stop offset=".085" stop-color="#ef3dbb"/><stop offset=".225" stop-color="#f155c4"/><stop offset=".4" stop-color="#f47dd2"/><stop offset=".606" stop-color="#f9b4e5"/><stop offset=".834" stop-color="#fffafd"/><stop offset=".85" stop-color="#fff"/></linearGradient><path d="M14 2h-1V1H7v1H6v1H5v6h1v1h1v1h6v-1h1V9h1V3h-1V2zm14 0h-1V1h-6v1h-1v1h-1v6h1v1h1v1h6v-1h1V9h1V3h-1V2z" fill="url(#A)"/></g></svg></g><g class="gotchi-wearable wearable-head"><svg x="15" y="6"><path d="M33 8h-1V6h-2V4h-4V2h-4V0H12v2H8v2H4v2H2v2H0v37h2V19h1v-1h2v-1h2v-1h2v-1h2v-1h1v-1h1v-1h1v1h1v1h2v1h2v1h2v1h2v1h2v1h2v1h2v1h2v1h1v23h2V8z" fill="#9300d7"/><g fill="#ac27ff"><path d="M12 10h-1V8h-1V7H9V5H8v1H4v2H2v10h1v-1h2v-1h2v-1h2v-1h3v-2h1v-1h-1z"/><path d="M31 8h-1V6h-4V4h-4V2H12v2H9v1h1v2h1v1h1v2h1v1h1v1h1v1h2v1h2v1h2v1h2v1h2v1h2v1h2v1h2v1h1V8z"/></g><g fill="#c260ff"><path d="M11 5h-1v2h1V6zM8 5h1v1H8z"/><path d="M11 4h1v1h-1zM9 4h1v1H9zm5 0V3h-1v2h1zm1 1h1V3h-1v1zm3 0h1v1h-1z"/><path d="M17 5h1V3h-1v1zm2 0h2V4h-1V3h-1v1z"/><path d="M22 6h1V5h-2v1zm3-1h1v1h-1z"/><path d="M25 5V4h-2v1h1zm-4-2h1v1h-1zm-8 4h1v1h-1zm-2 0h1v1h-1z"/><path d="M12 7h1V5h-1v1zM8 8h1V7H7v1z"/><path d="M7 7V6H5v1h1z"/><path d="M4 7h1v1H4zm11 0h1v1h-1z"/><path d="M15 6V5h-1v2h1zm3 2h1V7h-2v1z"/><path d="M16 7h1V5h-1v1zm4 0h1V6h-2v1z"/><path d="M21 7v1h2V7h-1z"/><path d="M23 6v1h2V6h-1z"/><path d="M26 8h1V7h-2v1zm3-1h1v1h-1z"/><path d="M29 7V6h-2v1h1zM13 8h-1v2h1V9zM9 8h1v1H9z"/><path d="M7 9v1h2V9H8z"/><path d="M7 9V8H5v1h1z"/><path d="M5 10V9H3v1h1zm10-2h-1v2h1V9zm1 0h1v1h-1z"/><path d="M18 9h-1v1h2V9z"/><path d="M19 8v1h2V8h-1z"/><path d="M22 10h1V9h-2v1z"/><path d="M24 9h1V8h-2v1z"/><path d="M25 9v1h2V9h-1z"/><path d="M27 8v1h2V8h-1zm-16 3h1v1h-1z"/><path d="M10 11h1v-1H9v1z"/><path d="M7 11v1h2v-1H8z"/><path d="M7 11v-1H5v1h1z"/><path d="M5 12v-1H3v1h1zm8-2h1v1h-1zm3 0h-1v1h2v-1z"/><path d="M14 11h1v1h-1zm4 0h-1v1h2v-1z"/><path d="M20 10h-1v1h2v-1z"/><path d="M22 11h-1v1h2v-1z"/><path d="M23 10v1h2v-1h-1z"/><path d="M25 11v1h2v-1h-1z"/><path d="M27 10v1h2v-1h-1z"/><path d="M29 11v1h2v-1h-1zm1-2h-1v1h2V9z"/><path d="M31 8h1v1h-1zm0 2h1v1h-1zM2 8h1v1H2zm0 2h1v1H2zm29 2h1v1h-1zm0 2h1v1h-1z"/><path d="M29 13v1h2v-1h-1z"/><path d="M27 12v1h2v-1h-1z"/><path d="M25 13v1h2v-1h-1z"/><path d="M24 12h-1v1h2v-1z"/><path d="M22 13h-1v1h2v-1zm7 2v1h2v-1h-1z"/><path d="M26 15h-1v1h2v-1zm5 1h1v1h-1zm0 2h1v1h-1zm0 2h1v1h-1z"/><path d="M29 19v1h2v-1h-1zm0-2v1h2v-1h-1z"/><path d="M27 16v1h2v-1h-1zm0-2v1h2v-1h-1zm-3 0h-1v1h2v-1zm-4-2h-1v1h2v-1zm8 6h-1v1h2v-1z"/><path d="M26 17h-1v1h2v-1z"/><path d="M24 16h-1v1h2v-1z"/><path d="M22 15h-1v1h2v-1z"/><path d="M20 14h-1v1h2v-1z"/><path d="M18 13h-1v1h2v-1z"/><path d="M16 12h-1v1h2v-1zm-5 1h1v1h-1z"/><path d="M9 12v1h2v-1h-1z"/><path d="M7 13v1h2v-1H8zm-2 1v-1H3v1h1z"/><path d="M5 12v1h2v-1H6zm0 2v1h2v-1H6zm-3 0h1v1H2z"/><path d="M3 15v1h2v-1H4z"/><path d="M2 16h1v1H2zm0-4h1v1H2zM12 2h1v1h-1zm2 0h1v1h-1zm2 0h1v1h-1zm2 0h1v1h-1zm2 0h1v1h-1z"/></g></svg></g><g class="gotchi-wearable wearable-hand wearable-hand-left"><svg x="0" y="29"><path d="M18 10V9h-2V8h-1V7h-1V5h-1V4h-1V3h-1V2h-1V1H8V0H4v1H2v1H1v1H0v3h1v3h1v1h1v1h1v1h1v1h2v1h4v-1h1v-1h1v2h1v1h3v-2h2v-3z"/><path d="M16 10V9h-2V7h-1V5h-1V4h-1V3h-1V2H8V1H4v1H2v1H1v3h2v1h2v1h1v1h2v1h2v1h3v1h1v2h2v-2h-1v-1h-1v-1h1v1h1v1h2v-2z" fill="#f27322"/><g fill="#fff"><path d="M8 3h1V2H6v1h1v1h1zM2 5h1V4h1V3H1v3h1z"/><path d="M4 7h1V6h1V5h1V4H5v1H4zm6 4H8v-1H6V9H5V8H3V7H2v2h1v1h1v1h1v1h2v1h4v-1h-1zm0-5h1V5h1V4H9v1h1zm3 1V6h-1v2h-1v3h1V9h1V8h1V7z"/><path d="M9 7h1V6H9V5H8v1H7v3h1v1h1z"/></g></svg></g><g class="gotchi-wearable wearable-hand wearable-hand-right"><svg x="7" y="25"><g transform="scale(-1, 1) translate(-50, 0)"><path d="M5 0v1H4v1H3v2H2v2H1v3H0v4h3v5h3V0z"/><path d="M4 2v2H3v2H2v3H1v3h4V2z" fill="#999"/><g fill="#ccc"><path d="M4 2v2h1V2H4zM2 9h1V6H2v3z"/><path d="M3 6h1V4H3v2zm-2 6h1V9H1v3z"/></g><path d="M4,12v5h1v-5H4z" fill="#8c6238"/></g></svg></g><g class="gotchi-wearable wearable-pet"><svg x="42" y="38"><path d="M19 6V5h-1V4h-3V2h1V1h-1V0h-2v1h-2V0H9v1H7V0H5v1H4v1h1v2H2v1H1v1H0v2h1v1h1v1H1v4h1v1h1v1H2v1H1v2h1v1H1v2h4v1h3v-1h1v-1h2v1h1v1h3v-1h4v-2h-1v-1h1v-2h-1v-1h-1v-1h1v-1h1v-4h-1V9h1V8h1V6h-1z"/><path d="M18 7h-1v1h-3V7h-2v1h1v1h5V8h1V7h-1zM6 7v1H3V7H1v1h1v1h5V8h1V7H6z" fill="#fff"/><g fill="#faaff3"><path d="M17 5h-4v1h5V5h-1zm-7 4h2V8h-1V7H9v1H8v1h2zM4 6h3V5H2v1h2zm5 12v2h2v-2H9z"/><path d="M16 17v-2H4v2H2v2h2v1H2v1h3v-3h1v3H5v1h3v-4h1v-1h2v1h1v4h3v-1h-1v-3h1v3h3v-1h-2v-1h2v-2h-2z"/></g><path d="M17 10H2v4h16v-4h-1zm0 2v1H3v-2h14v1z" fill="#ef1e26"/><path d="M13 1v1h-2V1H9v1H7V1H5v1h1v2h2v2h4V4h2V2h1V1z" fill="#ffc03c"/><path d="M5 1v1h2V1H5zm4 0v1h2V1H9zm5 0h-1v1h2V1h-1z" fill="#ffe600"/><path d="M11,4H8v2h4V4H11z" fill="#ff9600"/><path d="M13,2H6v2h8V2H13z" fill="#ffc03c"/><defs /></svg></g></svg>