<svg xmlns="http://www.w3.org/2000/svg" viewBox="0 0 64 64"><style>.gotchi-primary{fill:#2664BA;}.gotchi-secondary{fill:#D4E0F1;}.gotchi-cheek{fill:#F696C6;}.gotchi-eyeColor{fill:#0064FF;}.gotchi-sleeves-up{display:none;}.gotchi-handsUp{display:none;}.gotchi-handsDownOpen{display:block;}.gotchi-handsDownClosed{display:none;}
.gotchi-bg {
    display:none;
  }




svg {
  
  animation-duration:0.5s;
  animation-iteration-count: infinite;
  animation-timing-function: linear;
  animation-timing-function: steps(2);
}

.gotchi-shadow {
  
   
   animation-duration:0.5s;
   animation-iteration-count: infinite;
   animation-timing-function: linear;
   animation-timing-function: steps(2);
}

.gotchi-wearable {
  
  animation-duration:0.5s;
  animation-iteration-count: infinite;
  animation-timing-function: linear;
  animation-timing-function: steps(2);
}



.gotchi-handsDownClosed, .gotchi-handsUp, .gotchi-handsDownOpen, .gotchi-handsDownClosed, .gotchi-body, .gotchi-eyeColor, .gotchi-collateral, .gotchi-cheek, .gotchi-primary-mouth, .gotchi-wearable   {
   
   animation-duration:0.5s;
   animation-iteration-count: infinite;
   animation-timing-function: linear;
   animation-timing-function: steps(2);
}

.wearable-hand {
  
  animation-duration:0.5s;
  animation-iteration-count: infinite;
  animation-timing-function: linear;
  animation-timing-function: steps(2);
}

@keyframes downHands {
  from {
    transform: translate(0px, -4px);
  }
 to {
    transform: translate(0px, -3px);
  }
}


@keyframes up {
  from {
    transform: translate(0px, 0);
  }
 to {
    transform: translate(0px, -1px);
  }
}


@keyframes down {
 from {
   transform: translate(0px, 0);
    }
 to {
      transform: translate(0px, 1px);
    }
}
</style><g class="gotchi-bg"><defs fill="#fff"><pattern id="a" patternUnits="userSpaceOnUse" width="4" height="4"><path d="M0 0h1v1H0zm2 2h1v1H2z"/></pattern><pattern id="b" patternUnits="userSpaceOnUse" x="0" y="0" width="2" height="2"><path d="M0 0h1v1H0z"/></pattern><pattern id="c" patternUnits="userSpaceOnUse" x="-2" y="0" width="8" height="1"><path d="M0 0h1v1H0zm2 0h1v1H2zm2 0h1v1H4z"/></pattern><pattern id="d" patternUnits="userSpaceOnUse" x="0" y="0" width="4" height="4"><path d="M0 0h1v1H0zm0 2h1v1H0zm1 0V1h1v1zm1 0h1v1H2zm0-1h1V0H2zm1 2h1v1H3z"/></pattern><pattern id="e" patternUnits="userSpaceOnUse" width="64" height="32"><path d="M4 4h1v1H4zm7 0h1v1h-1zm7 0h1v1h-1zm7 0h1v1h-1zm7 0h1v1h-1zm7 0h1v1h-1zm7 0h1v1h-1zm7 0h1v1h-1zm7 0h1v1h-1z"/><path fill="url(#a)" d="M0 8h64v7H0z"/><path fill="url(#b)" d="M0 16h64v1H0z"/><path fill="url(#c)" d="M0 18h64v1H0z"/><path fill="url(#b)" d="M22 18h15v1H22zM0 20h64v3H0z"/><path fill="url(#d)" d="M0 24h64v8H0z"/></pattern><mask id="f"><path fill="url(#e)" d="M0 0h64v32H0z"/></mask></defs><path fill="#fff" d="M0 0h64v32H0z"/><path fill="#dea8ff" class="gotchi-secondary" mask="url(#f)" d="M0 0h64v32H0z"/><path fill="#dea8ff" class="gotchi-secondary" d="M0 32h64v32H0z"/><path mask="url(#f)" fill="#fff" transform="matrix(1 0 0 -1 0 64)" d="M0 0h64v32H0z"/></g><g class="gotchi-body"><g class="gotchi-primary"><path d="M21 12h2v-2h-4v2h1z"/><path d="M19 14v-2h-2v2h1zm6-4h2V8h-4v2h1z"/><path d="M29 8h8V6H27v2h1zm16 6h2v-2h-2v1z"/><path d="M48 14h-1v39h-2v2h4V14zm-11-4h4V8h-4v1z"/><path d="M41 12h4v-2h-4v1zM17 53V14h-2v41h4v-2h-1z"/><path d="M24 51h-5v2h5v-1z"/><path d="M27 53h-3v2h5v-2h-1zm18-2h-5v2h5v-1z"/><path d="M35 51h-6v2h6v-1z"/><path d="M38 53h-3v2h5v-2h-1z"/></g><g class="gotchi-secondary"><path d="M18 43v6h2v-1h2v1h2v2h-5v2h-2V14h2v1h-1v26z"/><path d="M27 51h-3v2h5v-2h-1zm11 0h-3v2h5v-2h-1z"/><path d="M35 49h-2v-1h-2v1h-2v2h6v-1zM25 11h2v-1h-4v1h1zm-4 2h2v-1h-4v1h1zm24 31v5h-1v-1h-2v1h-2v2h5v2h2V14h-2v29z"/><path d="M37 8H27v1h5v1h5V9zm8 4h-4v2h4v-1z"/><path d="M41 10h-4v2h4v-1z"/></g><path d="M44 14h-3v-2h-4v-2h-5V9h-5v2h-4v2h-4v2h-1v34h2v-1h2v1h2v2h5v-2h2v-1h2v1h2v2h5v-2h2v-1h2v1h1V14z" fill="#fff"/></g><path class="gotchi-cheek" d="M21 32v2h2v-2h-1zm21 0h-1v2h2v-2z"/><g class="gotchi-primary-mouth"><path d="M29 32h-2v2h2v-1z"/><path d="M33 34h-4v2h6v-2h-1z"/><path d="M36 32h-1v2h2v-2z"/></g><g class="gotchi-shadow"><path opacity=".25" d="M25 58H19v1h1v1h24V59h1V58h-1z" fill="#000"/></g><g class="gotchi-eyeColor"><path d="M41 25h-3v-1h3v-1h-1.5v-1h-1v1H37v3h3v1h-3v1h1.5v1h1v-1H41zm0 4h1v1h-1z"/><path d="M42 28h1v1h-1z"/><path d="M43 23h1v5h-1zm-2-2h1v1h-1z"/><path d="M42 22h1v1h-1zm-6 7h1v1h-1zm-2-6h1v5h-1z"/><path d="M35 28h1v1h-1zm1-7h1v1h-1z"/><path d="M35 22h1v1h-1zm-8 3h-3v-1h3v-1h-1.5v-1h-1v1H23v3h3v1h-3v1h1.5v1h1v-1H27zm0 4h1v1h-1z"/><path d="M28 28h1v1h-1z"/><path d="M29 23h1v5h-1zm-2-2h1v1h-1z"/><path d="M28 22h1v1h-1zm-6 7h1v1h-1zm-2-6h1v5h-1z"/><path d="M21 28h1v1h-1zm1-7h1v1h-1z"/><path d="M21 22h1v1h-1z"/></g><g class="gotchi-collateral" fill="#2664ba"><path d="M30 15v2h3v1h-3v1h1.5v1h1v-1H34v-3h-3v-1h3v-1h-1.5v-1h-1v1H30zm4 5h1v1h-1z"/><path d="M35 19h1v1h-1z"/><path d="M36 16v3h1v-5h-1v1zm-2-4h1v1h-1z"/><path d="M35 13h1v1h-1zm-7 5v-4h-1v5h1zm1 2h1v1h-1z"/><path d="M28 19h1v1h-1zm1-7h1v1h-1z"/><path d="M28 13h1v1h-1z"/></g><g class="gotchi-handsDownClosed"><g class="gotchi-primary"><path d="M19 42h1v1h-1zm1-6h1v1h-1z"/><path d="M21 37h1v1h-1zm5 3v4h1v-4zm-5 3h-1v1h2v-1z"/><path d="M24 44h-2v1h4v-1h-1zm1-5h-1v1h2v-1z"/><path d="M23 38h-1v1h2v-1z"/></g><g class="gotchi-secondary"><path d="M19 43h1v1h-1zm5 2h-2v1h4v-1h-1z"/><path d="M27 41v3h1v-3zm-6 3h-1v1h2v-1z"/><path d="M26 44h1v1h-1zm-7-3h-1v2h1v-1z"/></g><g class="gotchi-primary"><path d="M44 42h1v1h-1zm-1-6h1v1h-1z"/><path d="M42 37h1v1h-1z"/><path d="M42 39v-1h-2v1h1zm0 4v1h2v-1h-1z"/><path d="M40 44h-2v1h4v-1h-1z"/><path d="M38 42v-2h-1v4h1v-1z"/><path d="M40 40v-1h-2v1h1z"/></g><g class="gotchi-secondary"><path d="M42 44v1h2v-1h-1zm-5-2v-1h-1v3h1v-1z"/><path d="M40 45h-2v1h4v-1h-1z"/><path d="M37 44h1v1h-1zm7-1h1v1h-1z"/></g></g><g class="gotchi-handsDownOpen"><g class="gotchi-primary"><path d="M14 40h1v1h-1v-1zm-1-6h1v1h-1v-1z"/><path d="M14 33h1v1h-1v-1zm-2 2h1v1h-1v-1zm-5 3h1v4H7v-4zm5 3h2v1h-2v-1z"/><path d="M8 42h4v1H8v-1zm0-5h2v1H8v-1z"/><path d="M10,36h2v1h-2V36z"/></g><g class="gotchi-secondary"><path d="M14,39h1v1h-1V39z"/><path d="M12,40h2v1h-2V40z"/><path d="M8,41h4v1H8V41z"/></g><path d="M8,38v3h4v-1h2v-1h1v-5h-1v1h-1v1h-1v1h-2v1H8z" fill="#fff" /><g class="gotchi-primary"><path d="M49 40h1v1h-1v-1zm1-6h1v1h-1v-1z"/><path d="M49 33h1v1h-1v-1zm2 2h1v1h-1v-1zm5 3h1v4h-1v-4zm-6 3h2v1h-2v-1z"/><path d="M52 42h4v1h-4v-1zm2-5h2v1h-2v-1z"/><path d="M52,36h2v1h-2V36z"/></g><g class="gotchi-secondary"><path d="M49,39h1v1h-1V39z"/><path d="M50,40h2v1h-2V40z"/><path d="M52,41h4v1h-4V41z"/></g><path d="M54,38v-1h-2v-1h-1v-1h-1v-1h-1v5h1v1h2v1h4v-3H54z" fill="#fff" /></g><g class="gotchi-handsUp"><g class="gotchi-secondary"><path d="M50,38h1v1h-1V38z"/><path d="M49 39h1v1h-1v-1zm2-2h1v1h-1v-1z"/><path d="M52,36h2v1h-2V36z"/><path d="M54,35h2v1h-2V35z"/></g><path d="M52,32v1h-2v1h-1v5h1v-1h1v-1h1v-1h2v-1h2v-3H52z" fill="#fff"/><g class="gotchi-primary"><path d="M49,33h1v1h-1V33z"/><path d="M50 32h2v1h-2v-1zm0 7h1v1h-1v-1z"/><path d="M49 40h1v1h-1v-1zm2-2h1v1h-1v-1z"/><path d="M52 37h2v1h-2v-1zm0-6h4v1h-4v-1z"/><path d="M56,32h1v4h-1V32z"/><path d="M54,36h2v1h-2V36z"/></g><g class="gotchi-secondary"><path d="M13,38h1v1h-1V38z"/><path d="M14 39h1v1h-1v-1zm-2-2h1v1h-1v-1z"/><path d="M10,36h2v1h-2V36z"/><path d="M8,35h2v1H8V35z"/></g><path d="M8,32v3h2v1h2v1h1v1h1v1h1v-5h-1v-1h-2v-1H8z" fill="#fff"/><g class="gotchi-primary"><path d="M14,33h1v1h-1V33z"/><path d="M12 32h2v1h-2v-1zm1 7h1v1h-1v-1z"/><path d="M14 40h1v1h-1v-1zm-2-2h1v1h-1v-1z"/><path d="M10 37h2v1h-2v-1zm-2-6h4v1H8v-1z"/><path d="M7,32h1v4H7V32z"/><path d="M8,36h2v1H8V36z"/></g></g><g class="gotchi-wearable wearable-body"><svg x="15" y="41"><path d="M0 0v14h4v-2h5v2h5v-2h6v2h5v-2h5v2h4V0z"/><g fill="#51774e"><path d="M30 3H19v4h-1v1h-1v2h3v2h5v-2h5v2h3V7h-2V6h-1zM4 3v3H3v1H1v5h3v-2h5v2h5v-2h2V3z"/><path d="M1 3h2v3H1zm16 0h1v4h-1zm14 0h2v3h-2z"/></g><g fill="#cab983"><path d="M17 6h1v1h-1zm-6 4V7H8V6H7V5H6V4H5v1H4v1h1v1H4v1h3v2h1V9h2v1zM2 9H1v3h2v-2H2zm12 0h-1v2h-2v1h3v-2h2V8h-2zm5-3h1v1h-1zm11 4h2v2h-2zM12 5h2v1h-2zm20 0h1v1h-1z"/><path d="M18 8h-1v2h2V7h-1zm11-2h2v1h-2zm-6-1h-1v1h2V4h3V3h-4zm3 1h-1v1h-3v1h2v2h2V7h1V5h-1z"/></g><g fill="#66553b"><path d="M2 7H1v2h1v1h1V8H2zm13-3h-2v1h1v1h-2V5h-1V4H9v1H8v2h3v1h2V7h1v1h2V6h-1zM1 5h2v1H1zm7 4h2v1H8zm21-3h1V5h-1V4h1V3h-2v2h-1v2h2zm-3 3h4v1h-4zm0-4h-1V4h-1v2h-2V5h1V3h-3v1h-1v1h2v3h1V7h3V6h1zM4 3h1v1H4z"/><path d="M26 7h1v1h-1zm-3 3v1h1V8h-2v2zm-4-2h1v2h-1zm12-1v1h-1v1h2V8h1V7zm-11 4h2v1h-2zm-4-9V1h-6v1h6zm8 0V1h-5v1h5zM9 2V1H1v1h8zm24 0V1h-8v1h8z"/></g><path d="M17,1h1v1h-1V1z" fill="#cab983"/></svg></g><g class="gotchi-wearable wearable-head"><svg x="15" y="2"><path d="M32 5V3h-2V2h-2V0H6v2H4v1H2v2H0v9h1v1h1v1h1v1h1v1h1v1h3v1h18v-1h3v-1h1v-1h1v-1h1v-1h1v-1h1V5z"/><path d="M1 14h1v1h1v1h1v1h1v1h3v1h18v-1h3v-1h1v-1h1v-1h1v-1h1v-2H1zm31-8V5h-1V4h-1V3h-2V2h-1V1H7v1H6v1H4v1H3v1H2v1H1v5h32V6z" fill="#4e4066"/><g fill="#a8aaae"><path d="M2 5h2v1H2V5zm16 3V6h-2V4h-2v1h1v1h-2V5h-1V4h-1V2H9v1h1v2H9v2h3v1h2V7h1v1h3z"/><path d="M10 10h1V9H9v2h1v-1zM3 9v1h1V8H3V7H2V6H1v2h1v1h1zm25-2h2V6h1V5h-1V3h-1v2h-1v2zm-1-2h-1V4h-1v2h-2V5h1V3h1V1h-2v2h-2v1h-2v1h3v3h1V7h3V6h1V5zm0 4h4v1h-4V9z"/><path d="M32 6v2h-1v1h2V6h-1zm-5 1h1v1h-1V7zm-3 3v1h1V8h-2v2h1zm-4-2h1v2h-1V8zM4 3h2v1H4V3zm23-1h1v1h-1V2zm-7-1h1v2h-1V1zm1 12h-2v-1h-1v1h-2v2h3v-1h1v1h2v-1h3v-2h-4v1zm9-1h2v1h-2v-1zm-7 5h1v2h1v-3h-2v1zm7-2h1v1h-1v-1z"/><path d="M31 14h1v1h-1v-1zM3 12v1h1v1h2v-2H3zm-2 1h1v1H1v-1zm3 3h3v1H4v-1z"/><path d="M6 14h1v1H6v-1zm5 1H9v4h1v-2h1v-2z"/><path d="M12 12h-1v1H9v-1H7v1h1v1h3v1h1v-3zm-1 6h2v1h-2v-1zm2-3h1v2h-1v-2zm19-2h1v1h-1v-1z"/></g><path d="M13 5h2v1h-2V5zM9 6H8V5H7V4H6v1H4v1h2v1H5v1h3v3h1V9h2v1h1V7H9V6zM3 9H2v2h2v-1H3V9zm22-5h3V3h-1V1h-2v2h-1v2h-1v1h2V4zm6 6h2v1h-2v-1zm-6 0h2V7h1V5h-1v1h-1v1h-3v1h2v2zm-5-2h-5v1h-1v2h3v-1h3V8zm10-2h2v1h-2V6zM18 5h1V3h1V1h-5v1h-1v1h4v2zM8 3h1V2h2v1h1V1H8v2zm11 9h2v1h-2v-1zm1 4h-1v-1h-5v2h3v2h5v-1h-2v-2zM9 12h2v1H9v-1zm-1 1H7v-1H6v2h1v3h2v-2h2v-1H8v-1zm18 0h-1v1h-3v3h1v-1h2v3h1v-4h3v-1h-1v-1h2v-1h-4v1zM2 13h2v1H2v-1zm30-1h1v1h-1v-1z" fill="#edeff2"/></svg></g><g class="gotchi-wearable wearable-hand wearable-hand-left"><svg x="4" y="31"><path d="M7 5V4H6V3H2v1H1v1H0v4h1v1h1v1h4v-1h1V9h1V5z" fill="#33691e"/><path d="M6 5V4H2v1H1v4h1v1h4V9h1V5z" fill="#558b2f"/><path d="M6 5V4H2v1H1v1h2v1h1v1h1v1h2V5z" fill="#689f38"/><g fill="#b8d2a2"><path d="M6,5h1v1H6V5z"/><path d="M5,4h1v1H5V4z"/></g><path d="M8 2V1H7V0H3v1H2v1h1v1h2V2h2v1h1v1h1V2z"/><path d="M4,1h1v1H4V1z" fill="#cacaca"/><path d="M3,1h1v1H3V1z" fill="#9e9e9e"/></svg></g><g class="gotchi-wearable wearable-hand wearable-hand-right"><svg x="4" y="31"><g transform="scale(-1, 1) translate(-56, 0)"><path d="M7 5V4H6V3H2v1H1v1H0v4h1v1h1v1h4v-1h1V9h1V5z" fill="#33691e"/><path d="M6 5V4H2v1H1v4h1v1h4V9h1V5z" fill="#558b2f"/><path d="M6 5V4H2v1H1v1h2v1h1v1h1v1h2V5z" fill="#689f38"/><g fill="#b8d2a2"><path d="M6,5h1v1H6V5z"/><path d="M5,4h1v1H5V4z"/></g><path d="M8 2V1H7V0H3v1H2v1h1v1h2V2h2v1h1v1h1V2z"/><path d="M4,1h1v1H4V1z" fill="#cacaca"/><path d="M3,1h1v1H3V1z" fill="#9e9e9e"/></g></svg></g></svg>