<svg xmlns="http://www.w3.org/2000/svg" viewBox="0 0 64 64"><style>.gotchi-primary{fill:#64438E;}.gotchi-secondary{fill:#EDD3FD;}.gotchi-cheek{fill:#F696C6;}.gotchi-eyeColor{fill:#5D24BF;}.gotchi-sleeves-up{display:none;}.gotchi-handsUp{display:none;}.gotchi-handsDownOpen{display:block;}.gotchi-handsDownClosed{display:none;}
.gotchi-bg {
    display:none;
  }




svg {
  animation-name:down;
  animation-duration:0.5s;
  animation-iteration-count: infinite;
  animation-timing-function: linear;
  animation-timing-function: steps(2);
}

.gotchi-shadow {
  animation: up 0.5s infinite linear steps(2);
   animation-name:up;
   animation-duration:0.5s;
   animation-iteration-count: infinite;
   animation-timing-function: linear;
   animation-timing-function: steps(2);
}

.gotchi-wearable {
  animation-name:down;
  animation-duration:0.5s;
  animation-iteration-count: infinite;
  animation-timing-function: linear;
  animation-timing-function: steps(2);
}



.gotchi-handsDownClosed, .gotchi-handsUp, .gotchi-handsDownOpen, .gotchi-handsDownClosed, .gotchi-body, .gotchi-eyeColor, .gotchi-collateral, .gotchi-cheek, .gotchi-primary-mouth, .gotchi-wearable   {
   animation-name:down;
   animation-duration:0.5s;
   animation-iteration-count: infinite;
   animation-timing-function: linear;
   animation-timing-function: steps(2);
}

.wearable-hand {
  animation-name:down !important;
  animation-duration:0.5s;
  animation-iteration-count: infinite;
  animation-timing-function: linear;
  animation-timing-function: steps(2);
}

@keyframes downHands {
  from {
    transform: translate(0px, -4px);
  }
 to {
    transform: translate(0px, -3px);
  }
}


@keyframes up {
  from {
    transform: translate(0px, 0);
  }
 to {
    transform: translate(0px, -1px);
  }
}


@keyframes down {
 from {
   transform: translate(0px, 0);
    }
 to {
      transform: translate(0px, 1px);
    }
}
</style><g class="gotchi-bg"><defs fill="#fff"><pattern id="a" patternUnits="userSpaceOnUse" width="4" height="4"><path d="M0 0h1v1H0zm2 2h1v1H2z"/></pattern><pattern id="b" patternUnits="userSpaceOnUse" x="0" y="0" width="2" height="2"><path d="M0 0h1v1H0z"/></pattern><pattern id="c" patternUnits="userSpaceOnUse" x="-2" y="0" width="8" height="1"><path d="M0 0h1v1H0zm2 0h1v1H2zm2 0h1v1H4z"/></pattern><pattern id="d" patternUnits="userSpaceOnUse" x="0" y="0" width="4" height="4"><path d="M0 0h1v1H0zm0 2h1v1H0zm1 0V1h1v1zm1 0h1v1H2zm0-1h1V0H2zm1 2h1v1H3z"/></pattern><pattern id="e" patternUnits="userSpaceOnUse" width="64" height="32"><path d="M4 4h1v1H4zm7 0h1v1h-1zm7 0h1v1h-1zm7 0h1v1h-1zm7 0h1v1h-1zm7 0h1v1h-1zm7 0h1v1h-1zm7 0h1v1h-1zm7 0h1v1h-1z"/><path fill="url(#a)" d="M0 8h64v7H0z"/><path fill="url(#b)" d="M0 16h64v1H0z"/><path fill="url(#c)" d="M0 18h64v1H0z"/><path fill="url(#b)" d="M22 18h15v1H22zM0 20h64v3H0z"/><path fill="url(#d)" d="M0 24h64v8H0z"/></pattern><mask id="f"><path fill="url(#e)" d="M0 0h64v32H0z"/></mask></defs><path fill="#fff" d="M0 0h64v32H0z"/><path fill="#dea8ff" class="gotchi-secondary" mask="url(#f)" d="M0 0h64v32H0z"/><path fill="#dea8ff" class="gotchi-secondary" d="M0 32h64v32H0z"/><path mask="url(#f)" fill="#fff" transform="matrix(1 0 0 -1 0 64)" d="M0 0h64v32H0z"/></g><g class="gotchi-body"><g class="gotchi-primary"><path d="M21 12h2v-2h-4v2h1z"/><path d="M19 14v-2h-2v2h1zm6-4h2V8h-4v2h1z"/><path d="M29 8h8V6H27v2h1zm16 6h2v-2h-2v1z"/><path d="M48 14h-1v39h-2v2h4V14zm-11-4h4V8h-4v1z"/><path d="M41 12h4v-2h-4v1zM17 53V14h-2v41h4v-2h-1z"/><path d="M24 51h-5v2h5v-1z"/><path d="M27 53h-3v2h5v-2h-1zm18-2h-5v2h5v-1z"/><path d="M35 51h-6v2h6v-1z"/><path d="M38 53h-3v2h5v-2h-1z"/></g><g class="gotchi-secondary"><path d="M18 43v6h2v-1h2v1h2v2h-5v2h-2V14h2v1h-1v26z"/><path d="M27 51h-3v2h5v-2h-1zm11 0h-3v2h5v-2h-1z"/><path d="M35 49h-2v-1h-2v1h-2v2h6v-1zM25 11h2v-1h-4v1h1zm-4 2h2v-1h-4v1h1zm24 31v5h-1v-1h-2v1h-2v2h5v2h2V14h-2v29z"/><path d="M37 8H27v1h5v1h5V9zm8 4h-4v2h4v-1z"/><path d="M41 10h-4v2h4v-1z"/></g><path d="M44 14h-3v-2h-4v-2h-5V9h-5v2h-4v2h-4v2h-1v34h2v-1h2v1h2v2h5v-2h2v-1h2v1h2v2h5v-2h2v-1h2v1h1V14z" fill="#fff"/></g><path class="gotchi-cheek" d="M21 32v2h2v-2h-1zm21 0h-1v2h2v-2z"/><g class="gotchi-primary-mouth"><path d="M29 32h-2v2h2v-1z"/><path d="M33 34h-4v2h6v-2h-1z"/><path d="M36 32h-1v2h2v-2z"/></g><g class="gotchi-shadow"><path opacity=".25" d="M25 58H19v1h1v1h24V59h1V58h-1z" fill="#000"/></g><g class="gotchi-eyeColor"><g class="gotchi-primary"><path d="M24 21h1v1h-1z" /><path d="M23 22h1v1h-1z" /><path d="M22 23h1v1h-1z" /><path d="M21 24h1v1h-1z" /><path d="M22 24h1v1h-1z" /><path d="M23 24h1v1h-1z" /><path d="M24 24h1v1h-1z" /><path d="M24 23h1v1h-1z" /><path d="M24 22h1v1h-1z" /><path d="M23 23h1v1h-1zm15-2h1v1h-1z" /><path d="M37 22h1v1h-1z" /><path d="M36 23h1v1h-1z" /><path d="M35 24h1v1h-1z" /><path d="M36 24h1v1h-1z" /><path d="M37 24h1v1h-1z" /><path d="M38 24h1v1h-1z" /><path d="M38 23h1v1h-1z" /><path d="M38 22h1v1h-1z" /><path d="M37 23h1v1h-1z" /></g><g><path d="M21 26v-1h1v1z" /><path d="M22 27v-1h1v1z" /><path d="M23 28v-1h1v1z" /><path d="M24 29v-1h1v1z" /><path d="M24 28v-1h1v1z" /><path d="M24 27v-1h1v1z" /><path d="M24 26v-1h1v1z" /><path d="M23 26v-1h1v1z" /><path d="M22 26v-1h1v1z" /><path d="M23 27v-1h1v1zm12-1v-1h1v1z" /><path d="M36 27v-1h1v1z" /><path d="M37 28v-1h1v1z" /><path d="M38 29v-1h1v1z" /><path d="M38 28v-1h1v1z" /><path d="M38 27v-1h1v1z" /><path d="M38 26v-1h1v1z" /><path d="M37 26v-1h1v1z" /><path d="M36 26v-1h1v1z" /><path d="M37 27v-1h1v1z" /></g><g class="gotchi-primary"><path d="M26 29h-1v-1h1z" /><path d="M27 28h-1v-1h1z" /><path d="M28 27h-1v-1h1z" /><path d="M29 26h-1v-1h1z" /><path d="M28 26h-1v-1h1z" /><path d="M27 26h-1v-1h1z" /><path d="M26 26h-1v-1h1z" /><path d="M26 27h-1v-1h1z" /><path d="M26 28h-1v-1h1z" /><path d="M27 27h-1v-1h1zm13 2h-1v-1h1z" /><path d="M41 28h-1v-1h1z" /><path d="M42 27h-1v-1h1z" /><path d="M43 26h-1v-1h1z" /><path d="M42 26h-1v-1h1z" /><path d="M41 26h-1v-1h1z" /><path d="M40 26h-1v-1h1z" /><path d="M40 27h-1v-1h1z" /><path d="M40 28h-1v-1h1z" /><path d="M41 27h-1v-1h1z" /></g><g><path d="M29 24v1h-1v-1z" /><path d="M28 23v1h-1v-1z" /><path d="M27 22v1h-1v-1z" /><path d="M26 21v1h-1v-1z" /><path d="M26 22v1h-1v-1z" /><path d="M26 23v1h-1v-1z" /><path d="M26 24v1h-1v-1z" /><path d="M27 24v1h-1v-1z" /><path d="M28 24v1h-1v-1z" /><path d="M27 23v1h-1v-1zm16 1v1h-1v-1z" /><path d="M42 23v1h-1v-1z" /><path d="M41 22v1h-1v-1z" /><path d="M40 21v1h-1v-1z" /><path d="M40 22v1h-1v-1z" /><path d="M40 23v1h-1v-1z" /><path d="M40 24v1h-1v-1z" /><path d="M41 24v1h-1v-1z" /><path d="M42 24v1h-1v-1z" /><path d="M41 23v1h-1v-1z" /></g></g><g class="gotchi-collateral"><g fill="#64438e"><path d="M29 17v-2h-1v4h1v-1z"/><path d="M29 14h1v1h-1zm0 5h1v1h-1z"/><path d="M30 20h1v1h-1z"/><path d="M31 21v1h2v-1h-1zm-1-8h1v1h-1zm4 6h1v1h-1zm0-5h1v1h-1z"/><path d="M33 13v-1h-2v1h1zm0 7h1v1h-1z"/><path d="M33 13h1v1h-1zm2 2v4h1v-4z"/></g><path d="M34 17h-2v4h1v-1h1v-1h1v-2z" fill="#c260ff"/><g fill="#dea8ff"><path d="M30 17h-1v2h1v1h1v1h1v-4h-1z"/><path d="M34 15v-1h-1v-1h-1v4h3v-2z"/></g><path d="M31 17h1v-4h-1v1h-1v1h-1v2h1z" fill="#edd3fd"/></g><g class="gotchi-handsDownClosed"><g class="gotchi-primary"><path d="M19 42h1v1h-1zm1-6h1v1h-1z"/><path d="M21 37h1v1h-1zm5 3v4h1v-4zm-5 3h-1v1h2v-1z"/><path d="M24 44h-2v1h4v-1h-1zm1-5h-1v1h2v-1z"/><path d="M23 38h-1v1h2v-1z"/></g><g class="gotchi-secondary"><path d="M19 43h1v1h-1zm5 2h-2v1h4v-1h-1z"/><path d="M27 41v3h1v-3zm-6 3h-1v1h2v-1z"/><path d="M26 44h1v1h-1zm-7-3h-1v2h1v-1z"/></g><g class="gotchi-primary"><path d="M44 42h1v1h-1zm-1-6h1v1h-1z"/><path d="M42 37h1v1h-1z"/><path d="M42 39v-1h-2v1h1zm0 4v1h2v-1h-1z"/><path d="M40 44h-2v1h4v-1h-1z"/><path d="M38 42v-2h-1v4h1v-1z"/><path d="M40 40v-1h-2v1h1z"/></g><g class="gotchi-secondary"><path d="M42 44v1h2v-1h-1zm-5-2v-1h-1v3h1v-1z"/><path d="M40 45h-2v1h4v-1h-1z"/><path d="M37 44h1v1h-1zm7-1h1v1h-1z"/></g></g><g class="gotchi-handsDownOpen"><g class="gotchi-primary"><path d="M14 40h1v1h-1v-1zm-1-6h1v1h-1v-1z"/><path d="M14 33h1v1h-1v-1zm-2 2h1v1h-1v-1zm-5 3h1v4H7v-4zm5 3h2v1h-2v-1z"/><path d="M8 42h4v1H8v-1zm0-5h2v1H8v-1z"/><path d="M10,36h2v1h-2V36z"/></g><g class="gotchi-secondary"><path d="M14,39h1v1h-1V39z"/><path d="M12,40h2v1h-2V40z"/><path d="M8,41h4v1H8V41z"/></g><path d="M8,38v3h4v-1h2v-1h1v-5h-1v1h-1v1h-1v1h-2v1H8z" fill="#fff" /><g class="gotchi-primary"><path d="M49 40h1v1h-1v-1zm1-6h1v1h-1v-1z"/><path d="M49 33h1v1h-1v-1zm2 2h1v1h-1v-1zm5 3h1v4h-1v-4zm-6 3h2v1h-2v-1z"/><path d="M52 42h4v1h-4v-1zm2-5h2v1h-2v-1z"/><path d="M52,36h2v1h-2V36z"/></g><g class="gotchi-secondary"><path d="M49,39h1v1h-1V39z"/><path d="M50,40h2v1h-2V40z"/><path d="M52,41h4v1h-4V41z"/></g><path d="M54,38v-1h-2v-1h-1v-1h-1v-1h-1v5h1v1h2v1h4v-3H54z" fill="#fff" /></g><g class="gotchi-handsUp"><g class="gotchi-secondary"><path d="M50,38h1v1h-1V38z"/><path d="M49 39h1v1h-1v-1zm2-2h1v1h-1v-1z"/><path d="M52,36h2v1h-2V36z"/><path d="M54,35h2v1h-2V35z"/></g><path d="M52,32v1h-2v1h-1v5h1v-1h1v-1h1v-1h2v-1h2v-3H52z" fill="#fff"/><g class="gotchi-primary"><path d="M49,33h1v1h-1V33z"/><path d="M50 32h2v1h-2v-1zm0 7h1v1h-1v-1z"/><path d="M49 40h1v1h-1v-1zm2-2h1v1h-1v-1z"/><path d="M52 37h2v1h-2v-1zm0-6h4v1h-4v-1z"/><path d="M56,32h1v4h-1V32z"/><path d="M54,36h2v1h-2V36z"/></g><g class="gotchi-secondary"><path d="M13,38h1v1h-1V38z"/><path d="M14 39h1v1h-1v-1zm-2-2h1v1h-1v-1z"/><path d="M10,36h2v1h-2V36z"/><path d="M8,35h2v1H8V35z"/></g><path d="M8,32v3h2v1h2v1h1v1h1v1h1v-5h-1v-1h-2v-1H8z" fill="#fff"/><g class="gotchi-primary"><path d="M14,33h1v1h-1V33z"/><path d="M12 32h2v1h-2v-1zm1 7h1v1h-1v-1z"/><path d="M14 40h1v1h-1v-1zm-2-2h1v1h-1v-1z"/><path d="M10 37h2v1h-2v-1zm-2-6h4v1H8v-1z"/><path d="M7,32h1v4H7V32z"/><path d="M8,36h2v1H8V36z"/></g></g><g class="gotchi-wearable wearable-body"><svg x="9" y="29"><g><path d="M44 21v-5h-1v-3h-2v-1h-1V4h1V2h2V0h-3v2h-2v2h-2v1h-2v1h-2v1h-2v1h-2v1h-3v1h-4V9h-3V8h-2V7h-2V6h-2V5h-2V4H8V2H6V0H3v2h2v2h1v8H5v1H3v3H2v5H0v5h46v-5z" fill="#ffaa4a"/><g fill="#ff8700"><path d="M5 22H4v3h2v-6H5v3z"/><path d="M5 13H4v4H3v4H2v1H1v3h2v-3h1v-3h1v-1h1v-6H5v1zm5 11v1h2v-1h-2zm3 0v1h2v-1h-2zm18 0v1h2v-1h-2zm3 0v1h2v-1h-2zm-14 0v1h2v-1h-2zm4 0v1h2v-1h-2zm17-5h-1v6h2v-3h-1v-3z"/><path d="M44 22v-1h-1v-4h-1v-4h-1v-1h-1v6h1v1h1v3h1v3h2v-3h-1zM7 4h1V2H7v2zM5 2h1V0H5v2zm33 2h1V2h-1v2zm3-4h-1v2h1V0z"/></g><path d="M36 4v1h-2v1h-2v1h-2v1h-2v1h-3v1h-4V9h-3V8h-2V7h-2V6h-2V5h-2V4H6v22h4v-2h5v2h5v-2h6v2h5v-2h5v2h4V4z" fill="#191919"/><path d="M6 5v7h1v12h3v-2h5v2h5v-2h6v2h5v-2h5v2h3V12h1V5h-2v1h-2v1h-2v1h-2v1h-2v1h-2v1h-2v1h-6v-1h-2v-1h-2V9h-2V8h-2V7h-2V6H8V5H6z"/><path d="M21 15h1v1h-1v-1zm0 2h1v1h-1v-1zm3 0h1v1h-1v-1zm0-2h1v1h-1v-1z" fill="#ffaa4a"/><path d="M21 13h1v1h-1v-1zm3 0h1v1h-1v-1z" fill="#ffc88a"/><path d="M21 19h1v1h-1v-1zm3 0h1v1h-1v-1z" fill="#ff8700"/><g class="gotchi-sleeves gotchi-sleeves-left gotchi-sleeves-up"><path d="M41 3v1h-1v8h1v-1h1v-1h1V3z" fill="#191919"/><path d="M40 11h1v-1h1V4h-1v1h-1v6z"/></g><g class="gotchi-sleeves gotchi-sleeves-left gotchi-sleeves-down"><path d="M41 13v-1h-1V4h1v1h1v1h1v7z" fill="#191919"/><path d="M40 11h1v1h1V6h-1V5h-1v6z"/></g><g class="gotchi-sleeves gotchi-sleeves-right gotchi-sleeves-up"><path d="M5 3v1h1v8H5v-1H4v-1H3V3z" fill="#191919"/><path d="M6,5H5V4H4v6h1v1h1V5z"/></g><g class="gotchi-sleeves gotchi-sleeves-right gotchi-sleeves-down"><path d="M5 13v-1h1V4H5v1H4v1H3v7z" fill="#191919"/><path d="M6,5H5v1H4v6h1v-1h1V5z"/></g></g></svg></g><g class="gotchi-wearable wearable-eyes"><svg x="15" y="22"><path d="M2.1 7.9v-2h-2V2.1h2v-2h29.8v2h2v3.8h-2v2z"/><path d="M31.8.2v2h2v3.5h-2v2.1H2.2v-2h-2V2.2h2v-2h29.6M32 0H2v2H0v4h2v2h30V6h2V2h-2V0z" fill="#c8c8c8"/><path d="M2 2h30v4H2z"/><path d="M26,2v4h2V2H26z" fill="#c260ff"/><g fill="#c8c8c8"><path d="M2,0h30v2H2V0z"/><path d="M0 2h2v4H0V2zm32 0h2v4h-2V2z"/><path d="M2,6h30v2H2V6z"/></g></svg></g><g class="gotchi-wearable wearable-head"><svg x="11" y="0"><path d="M42 14v-4h-2V8h-2V6h-2V4h-2V2h-4V0H18v2h-4v2h-2v2h-2v2H8v2H6v4H4v4H2v2H0v2h42v-2h-2v-2h-2v-4h-2v-2h-2v-2h4v2h2v2z" fill="#3a2b77"/><g fill="#b135ff"><path d="M4 18v2h34v-2H4zm32-2v-2h-4v-2h-2v-2h2V8h4V6h-2V4h-4V2H18v2h-4v2h-2v2h-2v2H8v4H6v2h30z"/><path d="M20 15.9h3V18h-3z"/></g><path d="M25 9V8h-1V7h-1V5h-1V4h-1v1h-1v2h-1v1h-1v1h-1v1h1v1h1v1h1v2h1v1h1v-1h1v-2h1v-1h1v-1h1V9z" fill="#47289b"/><path d="M20,11h3v1h-3V11z" fill="#cb5bff"/><path d="M22,8h2v1h-2V8z" fill="#6f16e2"/><g fill="#3a2b77"><path d="M22 10h1v1h-1v-1zm0-5h1v2h-1V5z"/><path d="M23 7h1v1h-1V7zm2 2h1v1h-1V9z"/><path d="M24 8h1v1h-1V8zm0 2h1v1h-1v-1zm-6-2h1v1h-1V8zm0 2h1v1h-1v-1zm2 4h1v-2h-1v2z"/><path d="M19,11h1v1h-1V11z"/></g><path d="M21,9h3v1h-3V9z" fill="#f37aff"/><path d="M22,7h1v2h-1V7z" fill="#5d24bf"/><g fill="#8000ff"><path d="M20 10h2v1h-2v-1zm2-3h1v1h-1V7z"/><path d="M21,11h1v3h-1V11z"/></g><g fill="#b135ff"><path d="M21,9h1v2h-1V9z"/><path d="M22,11h1v1h-1V11z"/><path d="M23,9h1v2h-1V9z"/></g><path d="M20 7v1h-1v2h3V7z" fill="#ffa3ff"/><path d="M20,8h1v2h-1V8z" fill="#ffc9ff"/><path d="M19 9.5h1V11h-1V9.5zm4-.5v1h2V9h-2z" fill="#cb5bff"/><path d="M21 5h1v5h-1z" fill="#fff"/><path d="M18 9h4v1h-4z" fill="#ffc9ff"/><path d="M20 9h1v1h-1z" fill="#fff"/><path d="M20 16h1v1h-1z" fill="#f37aff"/><path d="M20 17h1v1h-1z" fill="#ffc9ff"/><path d="M21 16h1v1h-1z" fill="#fff"/><path d="M21 17h1v1h-1z" fill="#5d24bf"/><path d="M22 16h1v1h-1z" fill="#8000ff"/><path d="M22 17h1v1h-1z" fill="#b135ff"/></svg></g><g class="gotchi-wearable wearable-hand wearable-hand-left"><svg x="6" y="22"><path d="M8 5V4H7V3H6V1H5V0H4v1H3v2H2v1H1v1H0v1h1v1h1v1h1v2h1v23h1V10h1V8h1V7h1V6h1V5z" fill="#47289b"/><path d="M3,7h3v1H3V7z" fill="#cb5bff"/><path d="M5,4h2v1H5V4z" fill="#6f16e2"/><g fill="#3a2b77"><path d="M5 6h1v1H5V6zm0-5h1v2H5V1z"/><path d="M6 3h1v1H6V3zm2 2h1v1H8V5z"/><path d="M7 4h1v1H7V4zm0 2h1v1H7V6zM1 4h1v1H1V4zm0 2h1v1H1V6zm2 4h1V8H3v2z"/><path d="M2,7h1v1H2V7z"/></g><path d="M4,5h3v1H4V5z" fill="#f37aff"/><path d="M5,3h1v2H5V3z" fill="#5d24bf"/><g fill="#8000ff"><path d="M3 6h2v1H3V6zm2-3h1v1H5V3z"/><path d="M4,7h1v3H4V7z"/></g><g fill="#b135ff"><path d="M4,5h1v2H4V5z"/><path d="M5,7h1v1H5V7z"/><path d="M6,5h1v2H6V5z"/></g><path d="M3 3v1H2v2h3V3z" fill="#ffa3ff"/><path d="M3,4h1v2H3V4z" fill="#ffc9ff"/><path d="M2 5.5h1V7H2V5.5zM6 5v1h2V5H6z" fill="#cb5bff"/><path d="M4 1h1v5H4z" fill="#fff"/><path d="M1 5h4v1H1z" fill="#ffc9ff"/><path d="M3 5h1v1H3z" fill="#fff"/></svg></g><g class="gotchi-wearable wearable-hand wearable-hand-right"><svg x="7" y="31"><g transform="scale(-1, 1) translate(-50, 0)"><path d="M5 3V2H4V0H2v2H1v1H0v9h1v1h4v-1h1V3z" fill="#00f"/><path d="M2,0v1h2V0H2z" fill="#0000cb"/><g fill="#fff"><path d="M4 3V2H2v1H1v9h4V3z" enable-background="new"/><path d="M4,3V2H2v1H1v9h4V3H4z" opacity=".5" enable-background="new"/></g><path d="M1,5v7h4V5H1z" opacity=".5" fill="#c3ffff" enable-background="new"/></g></svg></g></svg>