<svg xmlns="http://www.w3.org/2000/svg" viewBox="0 0 64 64"><style>.gotchi-primary{fill:#64438E;}.gotchi-secondary{fill:#EDD3FD;}.gotchi-cheek{fill:#F696C6;}.gotchi-eyeColor{fill:#36818E;}.gotchi-sleeves-up{display:none;}.gotchi-handsUp{display:none;}.gotchi-handsDownOpen{display:block;}.gotchi-handsDownClosed{display:none;}
.gotchi-bg {
    display:none;
  }




svg {
  
  animation-duration:0.5s;
  animation-iteration-count: infinite;
  animation-timing-function: linear;
  animation-timing-function: steps(1);
}

.gotchi-shadow {
  
   
   animation-duration:0.5s;
   animation-iteration-count: infinite;
   animation-timing-function: linear;
   animation-timing-function: steps(2);
}

.gotchi-wearable {
  
  animation-duration:0.5s;
  animation-iteration-count: infinite;
  animation-timing-function: linear;
  animation-timing-function: steps(1);
}



.gotchi-handsDownClosed, .gotchi-handsUp, .gotchi-handsDownOpen, .gotchi-handsDownClosed, .gotchi-body, .gotchi-eyeColor, .gotchi-collateral, .gotchi-cheek, .gotchi-primary-mouth, .gotchi-wearable   {
   
   animation-duration:0.5s;
   animation-iteration-count: infinite;
   animation-timing-function: linear;
   animation-timing-function: steps(2);
}

.wearable-hand {
  
  animation-duration:0.5s;
  animation-iteration-count: infinite;
  animation-timing-function: linear;
  animation-timing-function: steps(2);
}

@keyframes downHands {
  from {
    transform: translate(0px, -4px);
  }
 to {
    transform: translate(0px, -3px);
  }
}


@keyframes up {
  from {
    transform: translate(0px, 0);
  }
 to {
    transform: translate(0px, -1px);
  }
}


@keyframes down {
 from {
   transform: translate(0px, 0);
    }
 to {
      transform: translate(0px, 1px);
    }
}
</style><g class="gotchi-bg"><defs fill="#fff"><pattern id="a" patternUnits="userSpaceOnUse" width="4" height="4"><path d="M0 0h1v1H0zm2 2h1v1H2z"/></pattern><pattern id="b" patternUnits="userSpaceOnUse" x="0" y="0" width="2" height="2"><path d="M0 0h1v1H0z"/></pattern><pattern id="c" patternUnits="userSpaceOnUse" x="-2" y="0" width="8" height="1"><path d="M0 0h1v1H0zm2 0h1v1H2zm2 0h1v1H4z"/></pattern><pattern id="d" patternUnits="userSpaceOnUse" x="0" y="0" width="4" height="4"><path d="M0 0h1v1H0zm0 2h1v1H0zm1 0V1h1v1zm1 0h1v1H2zm0-1h1V0H2zm1 2h1v1H3z"/></pattern><pattern id="e" patternUnits="userSpaceOnUse" width="64" height="32"><path d="M4 4h1v1H4zm7 0h1v1h-1zm7 0h1v1h-1zm7 0h1v1h-1zm7 0h1v1h-1zm7 0h1v1h-1zm7 0h1v1h-1zm7 0h1v1h-1zm7 0h1v1h-1z"/><path fill="url(#a)" d="M0 8h64v7H0z"/><path fill="url(#b)" d="M0 16h64v1H0z"/><path fill="url(#c)" d="M0 18h64v1H0z"/><path fill="url(#b)" d="M22 18h15v1H22zM0 20h64v3H0z"/><path fill="url(#d)" d="M0 24h64v8H0z"/></pattern><mask id="f"><path fill="url(#e)" d="M0 0h64v32H0z"/></mask></defs><path fill="#fff" d="M0 0h64v32H0z"/><path fill="#dea8ff" class="gotchi-secondary" mask="url(#f)" d="M0 0h64v32H0z"/><path fill="#dea8ff" class="gotchi-secondary" d="M0 32h64v32H0z"/><path mask="url(#f)" fill="#fff" transform="matrix(1 0 0 -1 0 64)" d="M0 0h64v32H0z"/></g><g class="gotchi-body"><g class="gotchi-primary"><path d="M21 12h2v-2h-4v2h1z"/><path d="M19 14v-2h-2v2h1zm6-4h2V8h-4v2h1z"/><path d="M29 8h8V6H27v2h1zm16 6h2v-2h-2v1z"/><path d="M48 14h-1v39h-2v2h4V14zm-11-4h4V8h-4v1z"/><path d="M41 12h4v-2h-4v1zM17 53V14h-2v41h4v-2h-1z"/><path d="M24 51h-5v2h5v-1z"/><path d="M27 53h-3v2h5v-2h-1zm18-2h-5v2h5v-1z"/><path d="M35 51h-6v2h6v-1z"/><path d="M38 53h-3v2h5v-2h-1z"/></g><g class="gotchi-secondary"><path d="M18 43v6h2v-1h2v1h2v2h-5v2h-2V14h2v1h-1v26z"/><path d="M27 51h-3v2h5v-2h-1zm11 0h-3v2h5v-2h-1z"/><path d="M35 49h-2v-1h-2v1h-2v2h6v-1zM25 11h2v-1h-4v1h1zm-4 2h2v-1h-4v1h1zm24 31v5h-1v-1h-2v1h-2v2h5v2h2V14h-2v29z"/><path d="M37 8H27v1h5v1h5V9zm8 4h-4v2h4v-1z"/><path d="M41 10h-4v2h4v-1z"/></g><path d="M44 14h-3v-2h-4v-2h-5V9h-5v2h-4v2h-4v2h-1v34h2v-1h2v1h2v2h5v-2h2v-1h2v1h2v2h5v-2h2v-1h2v1h1V14z" fill="#fff"/></g><path class="gotchi-cheek" d="M21 32v2h2v-2h-1zm21 0h-1v2h2v-2z"/><g class="gotchi-primary-mouth"><path d="M29 32h-2v2h2v-1z"/><path d="M33 34h-4v2h6v-2h-1z"/><path d="M36 32h-1v2h2v-2z"/></g><g class="gotchi-shadow"><path opacity=".25" d="M25 58H19v1h1v1h24V59h1V58h-1z" fill="#000"/></g><g class="gotchi-eyeColor"><g><path d="M40 23v2h1v-2h-1z" /><path d="M39 24v-1h-2v2h1v1h2v-1h-1v-1zm-13 0v1h1v-2h-1v1z" /><path d="M25 24v-1h-2v2h1v1h2v-1h-1v-1z" /></g><g class="gotchi-primary"><path d="M35 23h-1v1h1v-1zm0 2h-1v1h1v-1zm9-2h-1v1h1v-1z" /><path d="M45 24h-1v1h1v-1zm-8-1h6v-1h-8v1h2z" /><path d="M34 24h-1v1h1v-1zm10 1h-1v1h1v-1z" /><path d="M41 26h-6v1h8v-1h-2zm-20-3h-1v1h1v-1zm0 2h-1v1h1v-1zm9-2h-1v1h1v-1z" /><path d="M31 24h-1v1h1v-1zm-8-1h6v-1h-8v1h2z" /><path d="M20 24h-1v1h1v-1zm10 1h-1v1h1v-1z" /><path d="M27 26h-6v1h8v-1h-2z" /></g></g><g class="gotchi-collateral"><g fill="#64438e"><path d="M29 17v-2h-1v4h1v-1z"/><path d="M29 14h1v1h-1zm0 5h1v1h-1z"/><path d="M30 20h1v1h-1z"/><path d="M31 21v1h2v-1h-1zm-1-8h1v1h-1zm4 6h1v1h-1zm0-5h1v1h-1z"/><path d="M33 13v-1h-2v1h1zm0 7h1v1h-1z"/><path d="M33 13h1v1h-1zm2 2v4h1v-4z"/></g><path d="M34 17h-2v4h1v-1h1v-1h1v-2z" fill="#c260ff"/><g fill="#dea8ff"><path d="M30 17h-1v2h1v1h1v1h1v-4h-1z"/><path d="M34 15v-1h-1v-1h-1v4h3v-2z"/></g><path d="M31 17h1v-4h-1v1h-1v1h-1v2h1z" fill="#edd3fd"/></g><g class="gotchi-handsDownClosed"><g class="gotchi-primary"><path d="M19 42h1v1h-1zm1-6h1v1h-1z"/><path d="M21 37h1v1h-1zm5 3v4h1v-4zm-5 3h-1v1h2v-1z"/><path d="M24 44h-2v1h4v-1h-1zm1-5h-1v1h2v-1z"/><path d="M23 38h-1v1h2v-1z"/></g><g class="gotchi-secondary"><path d="M19 43h1v1h-1zm5 2h-2v1h4v-1h-1z"/><path d="M27 41v3h1v-3zm-6 3h-1v1h2v-1z"/><path d="M26 44h1v1h-1zm-7-3h-1v2h1v-1z"/></g><g class="gotchi-primary"><path d="M44 42h1v1h-1zm-1-6h1v1h-1z"/><path d="M42 37h1v1h-1z"/><path d="M42 39v-1h-2v1h1zm0 4v1h2v-1h-1z"/><path d="M40 44h-2v1h4v-1h-1z"/><path d="M38 42v-2h-1v4h1v-1z"/><path d="M40 40v-1h-2v1h1z"/></g><g class="gotchi-secondary"><path d="M42 44v1h2v-1h-1zm-5-2v-1h-1v3h1v-1z"/><path d="M40 45h-2v1h4v-1h-1z"/><path d="M37 44h1v1h-1zm7-1h1v1h-1z"/></g></g><g class="gotchi-handsDownOpen"><g class="gotchi-primary"><path d="M14 40h1v1h-1v-1zm-1-6h1v1h-1v-1z"/><path d="M14 33h1v1h-1v-1zm-2 2h1v1h-1v-1zm-5 3h1v4H7v-4zm5 3h2v1h-2v-1z"/><path d="M8 42h4v1H8v-1zm0-5h2v1H8v-1z"/><path d="M10,36h2v1h-2V36z"/></g><g class="gotchi-secondary"><path d="M14,39h1v1h-1V39z"/><path d="M12,40h2v1h-2V40z"/><path d="M8,41h4v1H8V41z"/></g><path d="M8,38v3h4v-1h2v-1h1v-5h-1v1h-1v1h-1v1h-2v1H8z" fill="#fff" /><g class="gotchi-primary"><path d="M49 40h1v1h-1v-1zm1-6h1v1h-1v-1z"/><path d="M49 33h1v1h-1v-1zm2 2h1v1h-1v-1zm5 3h1v4h-1v-4zm-6 3h2v1h-2v-1z"/><path d="M52 42h4v1h-4v-1zm2-5h2v1h-2v-1z"/><path d="M52,36h2v1h-2V36z"/></g><g class="gotchi-secondary"><path d="M49,39h1v1h-1V39z"/><path d="M50,40h2v1h-2V40z"/><path d="M52,41h4v1h-4V41z"/></g><path d="M54,38v-1h-2v-1h-1v-1h-1v-1h-1v5h1v1h2v1h4v-3H54z" fill="#fff" /></g><g class="gotchi-handsUp"><g class="gotchi-secondary"><path d="M50,38h1v1h-1V38z"/><path d="M49 39h1v1h-1v-1zm2-2h1v1h-1v-1z"/><path d="M52,36h2v1h-2V36z"/><path d="M54,35h2v1h-2V35z"/></g><path d="M52,32v1h-2v1h-1v5h1v-1h1v-1h1v-1h2v-1h2v-3H52z" fill="#fff"/><g class="gotchi-primary"><path d="M49,33h1v1h-1V33z"/><path d="M50 32h2v1h-2v-1zm0 7h1v1h-1v-1z"/><path d="M49 40h1v1h-1v-1zm2-2h1v1h-1v-1z"/><path d="M52 37h2v1h-2v-1zm0-6h4v1h-4v-1z"/><path d="M56,32h1v4h-1V32z"/><path d="M54,36h2v1h-2V36z"/></g><g class="gotchi-secondary"><path d="M13,38h1v1h-1V38z"/><path d="M14 39h1v1h-1v-1zm-2-2h1v1h-1v-1z"/><path d="M10,36h2v1h-2V36z"/><path d="M8,35h2v1H8V35z"/></g><path d="M8,32v3h2v1h2v1h1v1h1v1h1v-5h-1v-1h-2v-1H8z" fill="#fff"/><g class="gotchi-primary"><path d="M14,33h1v1h-1V33z"/><path d="M12 32h2v1h-2v-1zm1 7h1v1h-1v-1z"/><path d="M14 40h1v1h-1v-1zm-2-2h1v1h-1v-1z"/><path d="M10 37h2v1h-2v-1zm-2-6h4v1H8v-1z"/><path d="M7,32h1v4H7V32z"/><path d="M8,36h2v1H8V36z"/></g></g><g class="gotchi-wearable wearable-body"><svg x="7" y="29"><g><path d="M41 0v1h-1v1h-1v1h-1v1h-1v1h-1v1h-1v1h-2v1h-1v1h-1v1h-1v1h-1v1h-1v1h-6v-1h-1v-1h-1v-1h-1V9h-1V8h-1V7h-2V6h-1V5h-1V4h-1V3h-1V2h-1V1H9V0H8v26h4v-1h5v1h5v-1h6v1h5v-1h5v1h4V0z" fill="#2a2a2a"/><g fill="#303030"><path d="M18 19h1v1h-1zm0 2h1v1h-1zm0-4h1v1h-1zm-2 1h1v1h-1zm2-3h1v1h-1zm0 8h1v1h-1zm-2-7h1v1h-1zm4 2h1v1h-1zm9 6h1v1h-1zm-9-8h1v1h-1zm9 6h1v1h-1zm-9 2h1v1h-1zm0-4h1v1h-1zm0 2h1v1h-1zm-8 0h1v1h-1zm-2-7h1v1h-1zm19 5h1v1h-1zm-19-3h1v1h-1zm2 3h1v1h-1zm-2-1h1v1h-1zm0 4h1v1h-1zm0-2h1v1h-1zm4 2h1v1h-1zm0-6h1v1h-1zm0 2h1v1h-1zm0-4h1v1h-1zm2 7h1v1h-1zm-4-6h1v1h-1zm2 5h1v1h-1zm-2-3h1v1h-1zm4 2h1v1h-1zm21 2h1v1h-1zm0-2h1v1h-1zm-2 1h1v1h-1zm0-2h1v1h-1zm0-2h1v1h-1zm2 1h1v1h-1zm-2-3h1v1h-1zm2 1h1v1h-1zm2 3h1v1h-1zm0-4h1v1h-1zm-10 3h1v1h-1zm10 5h1v1h-1zm0-2h1v1h-1zm0-4h1v1h-1zm-10-1h1v1h-1zm2 1h1v1h-1zm0-2h1v1h-1zm0 8h1v1h-1zm0-4h1v1h-1zm0 2h1v1h-1zm2 1h1v1h-1zm0-5h1v2h-1zm2 6h1v1h-1zm-2-3h1v1h-1zm-23-9h1v1h-1zm30-8h1v1h-1zM10 13h1v1h-1zm29 0h1v1h-1zm0-2h1v1h-1zm-17 4h1v2h-1v1h1v7h4v-7h1v-1h-1v-2h1v-2h-6zm-10-1h1v1h-1zm23-1h1v1h-1zm-21 0h1v1h-1zm19 1h1v2h-1zm4-2h1v1h-1zm-21 2h1v1h-1zm-4-2h1v1h-1zm25 2h1v1h-1zM9 3h1v1H9z"/><path d="M41 2h1v1h-1zM8 2h1v1H8z"/></g><g fill="#414040"><path d="M24,23h1v1h-1V23z"/><path d="M25,22h1v1h-1V22z"/><path d="M24,21h1v1h-1V21z"/><path d="M25,20h1v1h-1V20z"/><path d="M24,19h1v1h-1V19z"/><path d="M25,18h1v1h-1V18z"/><path d="M24,17h1v1h-1V17z"/><path d="M25,16h1v1h-1V16z"/><path d="M24 15h1v1h-1v-1zm2-1h1v1h-1v-1z"/><path d="M23 14h1v1h-1v-1zm5-2h1v1h-1v-1z"/><path d="M21 12h1v1h-1v-1zm8-1h1v1h-1v-1z"/><path d="M20 11h1v1h-1v-1zm10-1h1v1h-1v-1z"/><path d="M19 10h1v1h-1v-1zm12-1h1v1h-1V9z"/><path d="M18 9h1v1h-1V9zm14-1h1v1h-1V8z"/><path d="M17 8h1v1h-1V8zm16-1h2v1h-2V7z"/><path d="M15 7h2v1h-2V7zm20-1h1v1h-1V6z"/><path d="M14 6h1v1h-1V6zm22-1h1v1h-1V5z"/><path d="M13 5h1v1h-1V5zm24-1h1v1h-1V4z"/><path d="M12 4h1v1h-1V4zm26-1h1v1h-1V3z"/><path d="M11 3h1v1h-1V3zm28-1h1v1h-1V2z"/><path d="M10 2h1v1h-1V2zm30-1h1v1h-1V1z"/><path d="M9 1h1v1H9V1zm32-1h1v1h-1V0z"/><path d="M8,0h1v1H8V0z"/></g><path d="M34,16h1v1h-1V16z" fill="#ecd3fc"/><g fill="#de37e4"><path d="M34,17h1v1h-1V17z"/><path d="M35 16h1v1h-1v-1zm-2 0h1v1h-1v-1z"/><path d="M34 15h1v1h-1v-1zm-10-1h2v1h-2v-1z"/></g><g class="gotchi-sleeves gotchi-sleeves-left gotchi-sleeves-up"><path d="M49 3V2h-4V1h-1V0h-2v12h1v-1h1v-1h1V9h2V8h2V7h1V3z" fill="#2a2a2a"/><path d="M48 5h1v1h-1V5zm-6-3h1v1h-1V2z" fill="#de37e4"/><g fill="#414040"><path d="M47 3v1h1v1h-6V4h4V3h1z"/><path d="M45,2h1v1h-1V2z"/><path d="M44,1h1v1h-1V1z"/><path d="M42,0h2v1h-2V0z"/></g><g fill="#303030"><path d="M46,5h1v1h-1V5z"/><path d="M45 6h1v1h-1V6zm-3-3h1v1h-1V3z"/><path d="M43,2h1v1h-1V2z"/><path d="M42 1h1v1h-1V1zm2 2h1v1h-1V3z"/></g></g><g class="gotchi-sleeves gotchi-sleeves-left gotchi-sleeves-down"><path d="M44 0v1h1v1h1v1h1v1h1v1h-4v1h1v1h2v1h2v1h1v4h-1v1h-4v-1h-2v-1h-1V0z" fill="#2a2a2a"/><g fill="#de37e4"><path d="M47 13h-1v-1h1v1z"/><path d="M48 12h-1v-1h1v1z"/><path d="M49 11h-1v-1h1v1zm-6-8h-1V2h1v1z"/></g><g fill="#303030"><path d="M46 12h-1v-1h1v1z"/><path d="M47 11h-1v-1h1v1z"/><path d="M46 10h-1V9h1v1zm-3-6h-1V3h1v1zm2 0h-1V3h1v1z"/><path d="M44,3h-1V2h1V3z"/><path d="M43,2h-1V1h1V2z"/></g><g fill="#414040"><path d="M46,3v1h-4v1h6V4h-1V3H46z"/><path d="M46,3h-1V2h1V3z"/><path d="M45,2h-1V1h1V2z"/><path d="M44 1h-2V0h2v1z"/></g></g><g class="gotchi-sleeves gotchi-sleeves-right gotchi-sleeves-up"><path d="M1 3V2h4V1h1V0h2v12H7v-1H6v-1H5V9H3V8H1V7H0V3z" fill="#2a2a2a"/><path d="M2 6H1V5h1v1zm6-3H7V2h1v1z" fill="#de37e4"/><g fill="#414040"><path d="M4,3v1h4v1H2V4h1V3H4z"/><path d="M5,3H4V2h1V3z"/><path d="M6,2H5V1h1V2z"/><path d="M8 1H6V0h2v1z"/></g><g fill="#303030"><path d="M4,6H3V5h1V6z"/><path d="M5 7H4V6h1v1zm3-3H7V3h1v1z"/><path d="M7,3H6V2h1V3z"/><path d="M8 2H7V1h1v1zM6 4H5V3h1v1z"/></g></g><g class="gotchi-sleeves gotchi-sleeves-right gotchi-sleeves-down"><path d="M6 0v1H5v1H4v1H3v1H2v1h4v1H5v1H3v1H1v1H0v4h1v1h4v-1h2v-1h1V0z" fill="#2a2a2a"/><g fill="#de37e4"><path d="M3,12h1v1H3V12z"/><path d="M2,11h1v1H2V11z"/><path d="M1 10h1v1H1v-1zm6-8h1v1H7V2z"/></g><g fill="#303030"><path d="M4,11h1v1H4V11z"/><path d="M3,10h1v1H3V10z"/><path d="M4 9h1v1H4V9zm3-6h1v1H7V3zM5 3h1v1H5V3z"/><path d="M6,2h1v1H6V2z"/><path d="M7,1h1v1H7V1z"/></g><g fill="#414040"><path d="M3,3v1H2v1h6V4H4V3H3z"/><path d="M4,2h1v1H4V2z"/><path d="M5,1h1v1H5V1z"/><path d="M6,0h2v1H6V0z"/></g></g></g></svg></g><g class="gotchi-wearable wearable-head"><svg x="8" y="1"><path d="M47 6V4h-1V3h-2V2h-2V1h-2V0h-3v1h1v1h1v1h1v1h1v1h1v4h-1v1h-1v1h-2v-1h-1V9h-1V8h-2V7h-1V6h-3V5h-1V4H19v1h-1v1h-3v1h-1v1h-2v1h-1v1h-1v1H8v-1H7V9H6V5h1V4h1V3h1V2h1V1h1V0H8v1H6v1H4v1H2v1H1v2H0v5h1v1h1v1h1v1h1v1h1v1h1v1h1v11h1v1h1v1h1v1h1v1h1v1h1v1h1v1h4v-1h-1v-1h-1v-1h-1v-1h-1v-1h-1v-1h-1v-1h-1v-1h-1v-5h1v-1h1v-1h4v1h1v1h2v1h1v1h1v2h1v1h1v1h2v-1h1v-1h1v-2h1v-1h1v-1h2v-1h1v-1h4v1h1v1h1v5h-1v1h-1v1h-1v1h-1v1h-1v1h-1v1h-1v1h-1v1h4v-1h1v-1h1v-1h1v-1h1v-1h1v-1h1v-1h1V17h1v-1h1v-1h1v-1h1v-1h1v-1h1v-1h1V6z" fill="#2a2a2a"/><g fill="#303030"><path d="M32 33h1v1h-1v-1zm-17 0h1v1h-1v-1z"/><path d="M33 32h1v1h-1v-1zm-19 0h1v1h-1v-1z"/><path d="M34 31h1v1h-1v-1zm-21 0h1v1h-1v-1z"/><path d="M35 30h1v1h-1v-1zm-23 0h1v1h-1v-1z"/><path d="M36 29h1v1h-1v-1zm-25 0h1v1h-1v-1zm17-17h1v1h-1v-1zm-9 0h1v1h-1v-1z"/><path d="M30 11h1v1h-1v-1zm-3 0h1v1h-1v-1zm-7 0h1v1h-1v-1zm-3 0h1v1h-1v-1z"/><path d="M31 10h1v1h-1v-1zm-3 0h1v1h-1v-1zm-2 0h1v1h-1v-1zm-5 0h1v1h-1v-1z"/><path d="M19 10h1v1h-1v-1zm-3 0h1v1h-1v-1zm16-1h1v1h-1V9zm-2 0h1v1h-1V9z"/><path d="M27 9h1v1h-1V9zm-2 0h1v1h-1V9zm-3 0h1v1h-1V9zm-2 0h1v1h-1V9zm-3 0h1v1h-1V9zm-2 0h1v1h-1V9zm18-1h1v1h-1V8zm-2 0h1v1h-1V8z"/><path d="M28 8h1v1h-1V8zm-2 0h1v1h-1V8zm-5 0h1v1h-1V8zm-2 0h1v1h-1V8zm-3 0h1v1h-1V8zm-2 0h1v1h-1V8zm18-1h1v1h-1V7zm-2 0h1v1h-1V7z"/><path d="M27 7h1v1h-1V7zm-2 0h1v1h-1V7zm-3 0h1v1h-1V7zm-2 0h1v1h-1V7z"/><path d="M17 7h1v1h-1V7zm-2 0h1v1h-1V7zm30-1V4h-1V3h-2V2h-2v1h1v1h1v1h1v1h1v3h-1v1h-1v1h-1v1h-3v-1h-1v-1h-1v1h-1v1h-1v1h-1v1h-1v1h-1v1h-1v1h-1v1h-1v1h-1v1h-1v1h-1v1h-2v-1h-1v-1h-1v-1h-1v-1h-1v-1h-1v-1h-1v-1h-1v-1h-1v-1h-1v-1h-1v-1h-1v-1h-1v1h-1v1H7v-1H6v-1H5V9H4V6h1V4h2V3h1V2H6v1H4v2H3v1H2v3h1v1h1v1h1v1h1v1h1v1h1v1h1v1h1v1h6v1h1v1h1v1h1v1h1v1h1v1h1v1h1v1h2v-1h1v-1h1v-1h1v-1h1v-1h1v-1h1v-1h1v-1h6v-1h1v-1h1v-1h1v-1h1v-1h1v-1h1v-1h1V9h1V6h-1zM28 6h1v1h-1V6zm-2 0h1v1h-1V6zm-5 0h1v1h-1V6z"/><path d="M19 6h1v1h-1V6zm8-1h1v1h-1V5zm-2 0h1v1h-1V5zm-3 0h1v1h-1V5z"/><path d="M20 5h1v1h-1V5zm6-1h1v1h-1V4z"/><path d="M21 4h1v1h-1V4zm18-3h1v1h-1V1zM8 1h1v1H8V1z"/></g><path d="M26 13h-1v-1h-2v1h-1v1h-1v4h1v1h1v1h2v-1h1v-1h1v-4h-1z" fill="#f6aaf9"/><path d="M24,16v4h1v-1h1v-1h1v-2H24z" fill="#de37e4"/><g fill="#e45dea"><path d="M21 16v2h1v1h1v1h1v-4z"/><path d="M26 13h-1v-1h-1v4h3v-2h-1z"/></g><path d="M29 14h1v1h-1v-1zm-11 0h1v1h-1v-1z" fill="#c650ef"/><path d="M31 12h1v1h-1v-1zm-15 0h1v1h-1v-1z" fill="#fb15f4"/><g fill="#c650ef"><path d="M33 10h1v1h-1v-1zm-19 0h1v1h-1v-1z"/><path d="M34 9h1v1h-1V9zM13 9h1v1h-1V9z"/></g><path d="M30 13h1v1h-1v-1zm-15-2h1v1h-1zM5 7h1v1H5zm27 4h1v1h-1zm-15 2h1v1h-1zm25-6h1v1h-1z" fill="#e45dea"/></svg></g><g class="gotchi-wearable wearable-hand wearable-hand-left"><svg x="0" y="18"><path d="M13 7V6h-3V5H8v1H6V4H5V1h1V0H4v1H3v1H2v1H1v1H0v11h1v1h1v1h1v1h1v1h2v-1H5v-3h1v-2h1v4h1v8H7v1H6v2h6v-2h-1v-1h-1v-8h1v-2h1v-2h1v-1h1V7z" fill="#454444"/><path d="M5 7V6H4V3H3v1H2v1H1v9h1v1h1v1h1v-3h1v-1h8V7z" fill="#d0cece"/><path d="M8 7h5v5H8V7zM5 7h2v5H5V7z" fill="#b5b5b5"/><g fill="#393939"><path d="M8 27h1v1H8v-1zm3-1v1h-1v1h2v-2h-1zm-5 0h1v2H6v-2z"/><path d="M11 26v-1H7v1h2v1h1v-1h1zm0-9v-4H7v4h4z"/></g><path d="M8 17h1v8H8v-8zM8 5h2v1H8V5z" fill="#303030"/><path d="M10 26h1v1h-1v-1zm-3 0h1v1H7v-1z" fill="#c66afb"/><path d="M9,15h1v1H9V15z" fill="#ad31eb"/><path d="M8,15h1v1H8V15z" fill="#c462fd"/><path d="M9,14h1v1H9V14z" fill="#c66afb"/><path d="M8,14h1v1H8V14z" fill="#dda8fc"/></svg></g><g class="gotchi-wearable wearable-hand wearable-hand-right"><svg x="6" y="22"><g transform="scale(-1, 1) translate(-52, 0)"><path d="M8 5V4H7V3H6V1H5V0H4v1H3v2H2v1H1v1H0v1h1v1h1v1h1v2h1v23h1V10h1V8h1V7h1V6h1V5z" fill="#47289b"/><path d="M3,7h3v1H3V7z" fill="#cb5bff"/><path d="M5,4h2v1H5V4z" fill="#6f16e2"/><g fill="#3a2b77"><path d="M5 6h1v1H5V6zm0-5h1v2H5V1z"/><path d="M6 3h1v1H6V3zm2 2h1v1H8V5z"/><path d="M7 4h1v1H7V4zm0 2h1v1H7V6zM1 4h1v1H1V4zm0 2h1v1H1V6zm2 4h1V8H3v2z"/><path d="M2,7h1v1H2V7z"/></g><path d="M4,5h3v1H4V5z" fill="#f37aff"/><path d="M5,3h1v2H5V3z" fill="#5d24bf"/><g fill="#8000ff"><path d="M3 6h2v1H3V6zm2-3h1v1H5V3z"/><path d="M4,7h1v3H4V7z"/></g><g fill="#b135ff"><path d="M4,5h1v2H4V5z"/><path d="M5,7h1v1H5V7z"/><path d="M6,5h1v2H6V5z"/></g><path d="M3 3v1H2v2h3V3z" fill="#ffa3ff"/><path d="M3,4h1v2H3V4z" fill="#ffc9ff"/><path d="M2 5.5h1V7H2V5.5zM6 5v1h2V5H6z" fill="#cb5bff"/><path d="M4 1h1v5H4z" fill="#fff"/><path d="M1 5h4v1H1z" fill="#ffc9ff"/><path d="M3 5h1v1H3z" fill="#fff"/></g></svg></g></svg>