<svg xmlns="http://www.w3.org/2000/svg" viewBox="0 0 64 64"><style>.gotchi-primary{fill:#2664BA;}.gotchi-secondary{fill:#D4E0F1;}.gotchi-cheek{fill:#F696C6;}.gotchi-eyeColor{fill:#EA8C27;}.gotchi-primary-mouth{fill:#2664BA;}.gotchi-sleeves-up{display:none;}.gotchi-handsUp{display:none;}.gotchi-handsDownOpen{display:block;}.gotchi-handsDownClosed{display:none;}
.gotchi-bg {
    display:none;
  }




svg {
  
  animation-duration:0.5s;
  animation-iteration-count: infinite;
  animation-timing-function: linear;
  animation-timing-function: steps(1);
}

.gotchi-shadow {
  
   
   animation-duration:0.5s;
   animation-iteration-count: infinite;
   animation-timing-function: linear;
   animation-timing-function: steps(2);
}

.gotchi-wearable {
  
  animation-duration:0.5s;
  animation-iteration-count: infinite;
  animation-timing-function: linear;
  animation-timing-function: steps(1);
}



.gotchi-handsDownClosed, .gotchi-handsUp, .gotchi-handsDownOpen, .gotchi-handsDownClosed, .gotchi-body, .gotchi-eyeColor, .gotchi-collateral, .gotchi-cheek, .gotchi-primary-mouth, .gotchi-wearable, .gotchi-sleeves   {
   
   animation-duration:0.5s;
   animation-iteration-count: infinite;
   animation-timing-function: linear;
   animation-timing-function: steps(2);
}

.wearable-hand {
  
  animation-duration:0.5s;
  animation-iteration-count: infinite;
  animation-timing-function: linear;
  animation-timing-function: steps(2);
}

@keyframes downHands {
  from {
    transform: translate(0px, -4px);
  }
 to {
    transform: translate(0px, -3px);
  }
}


@keyframes up {
  from {
    transform: translate(0px, 0);
  }
 to {
    transform: translate(0px, -1px);
  }
}


@keyframes down {
 from {
   transform: translate(0px, 0);
    }
 to {
      transform: translate(0px, 1px);
    }
}
</style><g class="gotchi-bg"><defs fill="#fff"><pattern id="a" patternUnits="userSpaceOnUse" width="4" height="4"><path d="M0 0h1v1H0zm2 2h1v1H2z"/></pattern><pattern id="b" patternUnits="userSpaceOnUse" x="0" y="0" width="2" height="2"><path d="M0 0h1v1H0z"/></pattern><pattern id="c" patternUnits="userSpaceOnUse" x="-2" y="0" width="8" height="1"><path d="M0 0h1v1H0zm2 0h1v1H2zm2 0h1v1H4z"/></pattern><pattern id="d" patternUnits="userSpaceOnUse" x="0" y="0" width="4" height="4"><path d="M0 0h1v1H0zm0 2h1v1H0zm1 0V1h1v1zm1 0h1v1H2zm0-1h1V0H2zm1 2h1v1H3z"/></pattern><pattern id="e" patternUnits="userSpaceOnUse" width="64" height="32"><path d="M4 4h1v1H4zm7 0h1v1h-1zm7 0h1v1h-1zm7 0h1v1h-1zm7 0h1v1h-1zm7 0h1v1h-1zm7 0h1v1h-1zm7 0h1v1h-1zm7 0h1v1h-1z"/><path fill="url(#a)" d="M0 8h64v7H0z"/><path fill="url(#b)" d="M0 16h64v1H0z"/><path fill="url(#c)" d="M0 18h64v1H0z"/><path fill="url(#b)" d="M22 18h15v1H22zM0 20h64v3H0z"/><path fill="url(#d)" d="M0 24h64v8H0z"/></pattern><mask id="f"><path fill="url(#e)" d="M0 0h64v32H0z"/></mask></defs><path fill="#fff" d="M0 0h64v32H0z"/><path fill="#dea8ff" class="gotchi-secondary" mask="url(#f)" d="M0 0h64v32H0z"/><path fill="#dea8ff" class="gotchi-secondary" d="M0 32h64v32H0z"/><path mask="url(#f)" fill="#fff" transform="matrix(1 0 0 -1 0 64)" d="M0 0h64v32H0z"/></g><g class="gotchi-body"><g class="gotchi-primary"><path d="M21 12h2v-2h-4v2h1z"/><path d="M19 14v-2h-2v2h1zm6-4h2V8h-4v2h1z"/><path d="M29 8h8V6H27v2h1zm16 6h2v-2h-2v1z"/><path d="M48 14h-1v39h-2v2h4V14zm-11-4h4V8h-4v1z"/><path d="M41 12h4v-2h-4v1zM17 53V14h-2v41h4v-2h-1z"/><path d="M24 51h-5v2h5v-1z"/><path d="M27 53h-3v2h5v-2h-1zm18-2h-5v2h5v-1z"/><path d="M35 51h-6v2h6v-1z"/><path d="M38 53h-3v2h5v-2h-1z"/></g><g class="gotchi-secondary"><path d="M18 43v6h2v-1h2v1h2v2h-5v2h-2V14h2v1h-1v26z"/><path d="M27 51h-3v2h5v-2h-1zm11 0h-3v2h5v-2h-1z"/><path d="M35 49h-2v-1h-2v1h-2v2h6v-1zM25 11h2v-1h-4v1h1zm-4 2h2v-1h-4v1h1zm24 31v5h-1v-1h-2v1h-2v2h5v2h2V14h-2v29z"/><path d="M37 8H27v1h5v1h5V9zm8 4h-4v2h4v-1z"/><path d="M41 10h-4v2h4v-1z"/></g><path d="M44 14h-3v-2h-4v-2h-5V9h-5v2h-4v2h-4v2h-1v34h2v-1h2v1h2v2h5v-2h2v-1h2v1h2v2h5v-2h2v-1h2v1h1V14z" fill="#fff"/></g><path class="gotchi-cheek" d="M21 32v2h2v-2h-1zm21 0h-1v2h2v-2z"/><g class="gotchi-primary-mouth"><path d="M29 32h-2v2h2v-1z"/><path d="M33 34h-4v2h6v-2h-1z"/><path d="M36 32h-1v2h2v-2z"/></g><g class="gotchi-shadow"><path opacity=".25" d="M25 58H19v1h1v1h24V59h1V58h-1z" fill="#000"/></g><g class="gotchi-eyeColor"><path d="M27 23H26H25H24H23H22H21V24H22H23H24V25H23H22H21V26H22H23H24H25H26H27H28H29V25H28H27H26V24H27H28H29V23H28H27Z" class="gotchi-primary" /><path d="M41 24H42H43V23H42H41H40H39H38H37H36H35V24H36H37H38V25H37H36H35V26H36H37H38H39H40H41H42H43V25H42H41H40V24H41Z" class="gotchi-primary" /><rect x="24" y="24" width="2" height="1" /><rect x="38" y="24" width="2" height="1" /></g><g class="gotchi-collateral" fill="#2664ba"><path d="M30 15v2h3v1h-3v1h1.5v1h1v-1H34v-3h-3v-1h3v-1h-1.5v-1h-1v1H30zm4 5h1v1h-1z"/><path d="M35 19h1v1h-1z"/><path d="M36 16v3h1v-5h-1v1zm-2-4h1v1h-1z"/><path d="M35 13h1v1h-1zm-7 5v-4h-1v5h1zm1 2h1v1h-1z"/><path d="M28 19h1v1h-1zm1-7h1v1h-1z"/><path d="M28 13h1v1h-1z"/></g><g class="gotchi-wearable wearable-body"><svg x="7" y="31"><path d="M38,2v4h-1v1h-4v1H17V7h-4V6h-1V2H8v22h4v-2h5v2h5v-2h6v2h5v-2h5v2h4V2H38z" fill="#ff0"/><path d="M31,9h5v5h-5V9z" fill="#f60"/><path d="M32 10v1h1v-1h-1zm1 1v1h1v-1h-1zm1 0h1v-1h-1v1zm0 1v1h1v-1h-1zm-1 0h-1v1h1v-1z" fill="#fff"/><path d="M12 20v2h5v-2h-5zm5 2v2h5v-2h-5zm5 0h6v-2h-6v2zm6 0v2h5v-2h-5zm5 0h5v-2h-5v2zM8 23v1h4v-1H8zm30 0v1h4v-1h-4z"/><path d="M8 2v1h3v4h1v1h5V7h-4V6h-1V2H8zm9 6v1h16V8H17zm16 0h5V7h1V3h3V2h-4v4h-1v1h-4v1zM8 9v14h4v-1H9V9H8zm33 0v13h-3v1h4V9h-1z" fill="#d8d800"/><path d="M24 9h2v9h-2z"/><g fill="#252525"><path d="M24,9h1v1h-1V9z"/><path d="M25,10h1v1h-1V10z"/><path d="M24,11h1v1h-1V11z"/><path d="M25,12h1v1h-1V12z"/><path d="M24,13h1v1h-1V13z"/><path d="M25,14h1v1h-1V14z"/><path d="M24,15h1v1h-1V15z"/><path d="M25,16h1v1h-1V16z"/><path d="M24,17h1v1h-1V17z"/></g></svg></g><g class="gotchi-handsDownClosed"><g class="gotchi-primary"><path d="M19 42h1v1h-1zm1-6h1v1h-1z"/><path d="M21 37h1v1h-1zm5 3v4h1v-4zm-5 3h-1v1h2v-1z"/><path d="M24 44h-2v1h4v-1h-1zm1-5h-1v1h2v-1z"/><path d="M23 38h-1v1h2v-1z"/></g><g class="gotchi-secondary"><path d="M19 43h1v1h-1zm5 2h-2v1h4v-1h-1z"/><path d="M27 41v3h1v-3zm-6 3h-1v1h2v-1z"/><path d="M26 44h1v1h-1zm-7-3h-1v2h1v-1z"/></g><g class="gotchi-primary"><path d="M44 42h1v1h-1zm-1-6h1v1h-1z"/><path d="M42 37h1v1h-1z"/><path d="M42 39v-1h-2v1h1zm0 4v1h2v-1h-1z"/><path d="M40 44h-2v1h4v-1h-1z"/><path d="M38 42v-2h-1v4h1v-1z"/><path d="M40 40v-1h-2v1h1z"/></g><g class="gotchi-secondary"><path d="M42 44v1h2v-1h-1zm-5-2v-1h-1v3h1v-1z"/><path d="M40 45h-2v1h4v-1h-1z"/><path d="M37 44h1v1h-1zm7-1h1v1h-1z"/></g></g><g class="gotchi-handsDownOpen"><g class="gotchi-primary"><path d="M14 40h1v1h-1v-1zm-1-6h1v1h-1v-1z"/><path d="M14 33h1v1h-1v-1zm-2 2h1v1h-1v-1zm-5 3h1v4H7v-4zm5 3h2v1h-2v-1z"/><path d="M8 42h4v1H8v-1zm0-5h2v1H8v-1z"/><path d="M10,36h2v1h-2V36z"/></g><g class="gotchi-secondary"><path d="M14,39h1v1h-1V39z"/><path d="M12,40h2v1h-2V40z"/><path d="M8,41h4v1H8V41z"/></g><path d="M8,38v3h4v-1h2v-1h1v-5h-1v1h-1v1h-1v1h-2v1H8z" fill="#fff" /><g class="gotchi-primary"><path d="M49 40h1v1h-1v-1zm1-6h1v1h-1v-1z"/><path d="M49 33h1v1h-1v-1zm2 2h1v1h-1v-1zm5 3h1v4h-1v-4zm-6 3h2v1h-2v-1z"/><path d="M52 42h4v1h-4v-1zm2-5h2v1h-2v-1z"/><path d="M52,36h2v1h-2V36z"/></g><g class="gotchi-secondary"><path d="M49,39h1v1h-1V39z"/><path d="M50,40h2v1h-2V40z"/><path d="M52,41h4v1h-4V41z"/></g><path d="M54,38v-1h-2v-1h-1v-1h-1v-1h-1v5h1v1h2v1h4v-3H54z" fill="#fff" /></g><g class="gotchi-handsUp"><g class="gotchi-secondary"><path d="M50,38h1v1h-1V38z"/><path d="M49 39h1v1h-1v-1zm2-2h1v1h-1v-1z"/><path d="M52,36h2v1h-2V36z"/><path d="M54,35h2v1h-2V35z"/></g><path d="M52,32v1h-2v1h-1v5h1v-1h1v-1h1v-1h2v-1h2v-3H52z" fill="#fff"/><g class="gotchi-primary"><path d="M49,33h1v1h-1V33z"/><path d="M50 32h2v1h-2v-1zm0 7h1v1h-1v-1z"/><path d="M49 40h1v1h-1v-1zm2-2h1v1h-1v-1z"/><path d="M52 37h2v1h-2v-1zm0-6h4v1h-4v-1z"/><path d="M56,32h1v4h-1V32z"/><path d="M54,36h2v1h-2V36z"/></g><g class="gotchi-secondary"><path d="M13,38h1v1h-1V38z"/><path d="M14 39h1v1h-1v-1zm-2-2h1v1h-1v-1z"/><path d="M10,36h2v1h-2V36z"/><path d="M8,35h2v1H8V35z"/></g><path d="M8,32v3h2v1h2v1h1v1h1v1h1v-5h-1v-1h-2v-1H8z" fill="#fff"/><g class="gotchi-primary"><path d="M14,33h1v1h-1V33z"/><path d="M12 32h2v1h-2v-1zm1 7h1v1h-1v-1z"/><path d="M14 40h1v1h-1v-1zm-2-2h1v1h-1v-1z"/><path d="M10 37h2v1h-2v-1zm-2-6h4v1H8v-1z"/><path d="M7,32h1v4H7V32z"/><path d="M8,36h2v1H8V36z"/></g></g><g class="gotchi-wearable wearable-face"><svg x="15" y="19"><g fill="#7d0064"><path d="M36 6h2v2h-2z"/><path d="M38 4V0h-2v2h-2v2h-4V3h-2V2h-2V1h-4v1h-2v1h-2v1h-2V3h-2V2h-2V1H8v1H6v1H4v1H0v6h4v1h2v1h2v1h4v-1h2v-1h2v-1h2v1h2v1h2v1h4v-1h2v-1h2v-1h4V6h2V4z"/></g><path d="M30 5V4h-2V3h-2V2h-4v1h-2v1h-2v1h-2V4h-2V3h-2V2H8v1H6v1H4v1H0v4h4v1h2v1h2v1h4v-1h2v-1h2V9h2v1h2v1h2v1h4v-1h2v-1h2V9h4V5h-4z" fill="#a73796"/><g fill="#7d0064"><path d="M26,2v1h2V2H26z"/><path d="M28 3v1h2V3h-2zm-6-2v1h4V1h-4z"/><path d="M20 2v1h2V2h-2zm-8 0v1h2V2h-2z"/><path d="M8,1v1h4V1H8z"/><path d="M6,2v1h2V2H6z"/><path d="M4,3v1h2V3H4z"/><path d="M0 4v1h4V4H0zm16 0v1h2V4h-2z"/><path d="M14 3v1h2V3h-2zm4 0v1h2V3h-2zM8 12v1h4v-1H8z"/><path d="M6,11v1h2v-1H6z"/><path d="M4,10v1h2v-1H4z"/><path d="M0 9v1h4V9H0zm12 2v1h2v-1h-2zm8 0v1h2v-1h-2z"/><path d="M22,12v1h4v-1H22z"/><path d="M26,11v1h2v-1H26z"/><path d="M28,10v1h2v-1H28z"/><path d="M30 9v1h4V9h-4zm-16 1v1h2v-1h-2z"/><path d="M16,9v1h2V9H16z"/><path d="M18 10v1h2v-1h-2zm18-2h2V6h-2v2z"/><path d="M36,0v2h-2v2h-4v1h4v1h2V4h2V0H36z"/></g><path d="M26 6V5h-1V4h-2v1h-1v1h-1v2h1v1h1v1h2V9h1V8h1V6z" fill="#fff"/><path d="M23 6h2v2h-2z" fill="#7d0064"/><path d="M12 5h-1V4H9v1H8v1H7v2h1v1h1v1h2V9h1V8h1V6h-1z" fill="#fff"/><path d="M9 6h2v2H9z" fill="#7d0064"/></svg></g><g class="gotchi-wearable wearable-eyes"><svg x="15" y="22"><path d="M2.1 7.9v-2h-2V2.1h2v-2h29.8v2h2v3.8h-2v2z"/><path d="M31.8.2v2h2v3.5h-2v2.1H2.2v-2h-2V2.2h2v-2h29.6M32 0H2v2H0v4h2v2h30V6h2V2h-2V0z" fill="#c8c8c8"/><path d="M2 2h30v4H2z"/><path d="M26,2v4h2V2H26z" fill="#c260ff"/><g fill="#c8c8c8"><path d="M2,0h30v2H2V0z"/><path d="M0 2h2v4H0V2zm32 0h2v4h-2V2z"/><path d="M2,6h30v2H2V6z"/></g></svg></g><g class="gotchi-wearable wearable-head"><svg x="5" y="6"><path d="M6 18v-2H4v-4H2V2H0V0h10v2h2v2h2V2h6V0h14v2h6v2h2V2h2V0h10v2h-2v10h-2v4h-2v2z"/><path d="M4 2v2h4v2H4v2h4v2H4v2h4v2H6v2h4V2H4zm40 0v14h4v-2h-2v-2h4v-2h-4V8h4V6h-4V4h4V2h-6zm-8 2h2v6h-2V4zM16 4h2v6h-2V4zm14 2V5h-1V4h-1V3h-2v1h-1v1h-1v1h-1v4h1v1h1v1h1v1h2v-1h1v-1h1v-1h1V6z" fill="#fff"/><path d="M26,4v1h-1v1h-1v2h3V4H26z" fill="#46cdff"/><path d="M27,8v4h1v-1h1v-1h1V8H27z" fill="#0093ff"/><g fill="#00afff"><path d="M24,8v2h1v1h1v1h1V8H24z"/><path d="M29,6V5h-1V4h-1v4h3V6H29z"/></g><path d="M42 13v-2h-6v1h-3v1h-2v1h-1v1h-1v1h-1v1h-2v-1h-1v-1h-1v-1h-1v-1h-2v-1h-3v-1h-6v2h-2v9h2v2h3v1h3v1h4v-1h1v-1h1v1h1v1h1v1h2v-1h1v-1h1v-1h1v1h1v1h4v-1h3v-1h3v-2h2v-9h-2z" fill="#ffcb00"/><path d="M26,17v-1h-1v-1h-1v-1h-1v-1h-2v-1h-3v-1h-6v2h-2v9h2v2h3v1h3v1h4v-1h1v-1h1v1h1v1h1v1h1V17H26z" fill="#ffb300"/><path d="M24 18h-2v-1h-2v-1h-6v4h1v2h1v1h2v1h4v-1h2v-1h1v-3h-1zm10-2v1h-2v1h-2v1h-1v3h1v1h2v1h4v-1h2v-1h1v-1h1v-5z"/><g fill="#fff"><path d="M16 17h2v1h-2z"/><path d="M23 20h-1v1h-4v-1h-1v-1h-1v-1h-1v2h1v2h2v1h4v-1h2v-3h-1zm13-3h2v1h-2z"/><path d="M38 18v1h-1v1h-1v1h-4v-1h-1v-1h-1v3h2v1h4v-1h2v-2h1v-2z"/></g></svg></g>"><svg x="7" y="31"><g><g class="gotchi-sleeves gotchi-sleeves-left gotchi-sleeves-up"><path d="M49 1V0h-4v1h-2v1h-1v8h1V9h1V8h1V7h2V6h2V5h1V1z" fill="#ff0"/><path d="M43 10V9h-1v1h1zm0-1h1V8h-1v1zm1-1h1V7h-1v1zm-1-5V2h-1v1h1zm0-1h1V1h-1v1z" fill="#d8d800"/><path d="M49 1V0h-4v1h-1v5h1v1h2V6h2V5h1V1z"/><path d="M45,1h4v1h-4V1z" fill="#666"/></g><g class="gotchi-sleeves gotchi-sleeves-left gotchi-sleeves-down"><path d="M49 7V6h-2V5h-2V4h-1V3h-1V2h-1v8h1v1h2v1h4v-1h1V7z" fill="#ff0"/><path d="M42 2v1h1V2h-1zm1 2h1V3h-1v1zm1 1h1V4h-1v1zm-2 4v1h1V9h-1zm1 2h1v-1h-1v1z" fill="#d8d800"/><path d="M49 7V6h-2V5h-2v1h-1v5h1v1h4v-1h1V7z"/><path d="M45,10h4v1h-4V10z" fill="#666"/></g><g class="gotchi-sleeves gotchi-sleeves-right gotchi-sleeves-up"><path d="M7 2V1H5V0H1v1H0v4h1v1h2v1h2v1h1v1h1v1h1V2z" fill="#ff0"/><path d="M8 10V9H7v1h1zM7 8H6v1h1V8zM6 7H5v1h1V7zm2-4V2H7v1h1zM7 1H6v1h1V1z" fill="#d8d800"/><path d="M5 1V0H1v1H0v4h1v1h2v1h2V6h1V1z"/><path d="M1 1h4v1H1V1z" fill="#666"/></g><g class="gotchi-sleeves gotchi-sleeves-right gotchi-sleeves-down"><path d="M7 2v1H6v1H5v1H3v1H1v1H0v4h1v1h4v-1h2v-1h1V2z" fill="#ff0"/><path d="M7 2v1h1V2H7zm0 1H6v1h1V3zM6 4H5v1h1V4zm1 5v1h1V9H7zm0 1H6v1h1v-1z" fill="#d8d800"/><path d="M5 6V5H3v1H1v1H0v4h1v1h4v-1h1V6z"/><path d="M1 10h4v1H1v-1z" fill="#666"/></g></g></svg><g class="gotchi-wearable wearable-hand wearable-hand-left"><svg x="0" y="27"><path d="M15 8V6h-1V4h-1V3h-1V2h-1V1h-1V0H6v1H5v1H4v1H3v1H2v2H1v2H0v8h1v2h1v1h1v1h1v1h2v1h4v-1h2v-1h1v-1h1v-1h1v-2h1V8z" fill="#003a87"/><path d="M14 8V6h-1V4h-1V3h-1V2h-1V1H6v1H5v1H4v1H3v2H2v2H1v8h1v2h1v1h1v1h2v1h4v-1h2v-1h1v-1h1v-2h1V8z" fill="#0093ff"/><path d="M12 8V6h-1V4h-1V3H8V2H5v1H4v1H3v2H2v2H1v8h1v2h1v1h1v1h4v-1h2v-1h2v-2h1V8z" fill="#46cdff"/><g fill="#a3e6ff"><path d="M5,2h1v1H5V2z"/><path d="M4,3h1v1H4V3z"/><path d="M3 4h1v2H3V4zM1 8h1v8H1V8z"/><path d="M2,16h1v2H2V16z"/><path d="M3,18h1v1H3V18z"/><path d="M4 19h2v1H4v-1zM2 6h1v2H2V6z"/></g><g fill="#fff"><path d="M3.5 10.5h1v-1h-2v5h2v-1h-1v-3z"/><path d="M4.5 10.5h1v3h-1v-3zm4 2h-1v-2h1v-1h-2v5h1v-1h1v1h1v-4h-1v2zm2-3v5h3v-5h-3zm2 4h-1v-3h1v3z"/></g></svg></g><g class="gotchi-wearable wearable-hand wearable-hand-right"><svg x="3" y="31"><g transform="scale(-1, 1) translate(-58, 0)"><path d="M6 4V0H5v4H1v2H0v2h1v7h6V4z"/><path d="M2,6v1h4V6H2z" fill="#5a5a5a"/><path d="M2,7v1h4V7H2z" fill="#464646"/><path d="M2,5v1h4V5H2z" fill="#6e6e6e"/><path d="M2 8h4v6H2z" fill="#323232"/><g fill="#1e1e1e"><path d="M5 9h1v1H5V9zm0 2h1v1H5v-1z"/><path d="M4 8h1v1H4V8zm0 2h1v1H4v-1zM2 8h1v1H2V8zm0 2h1v1H2v-1zm2 2h1v1H4v-1zm-2 0h1v1H2v-1z"/><path d="M5 13h1v1H5v-1zM3 9h1v1H3V9zm0 2h1v1H3v-1zm0 2h1v1H3v-1z"/></g></g></svg></g></svg>