<svg xmlns="http://www.w3.org/2000/svg" viewBox="0 0 64 64"><style>.gotchi-primary{fill:#0074F9;}.gotchi-secondary{fill:#C8E1FD;}.gotchi-cheek{fill:#F696C6;}.gotchi-eyeColor{fill:#EA8C27;}.gotchi-primary-mouth{fill:#0074F9;}.gotchi-sleeves-up{display:none;}.gotchi-handsUp{display:none;}.gotchi-handsDownOpen{display:block;}.gotchi-handsDownClosed{display:none;}
.gotchi-bg {
    display:none;
  }




svg {
  
  animation-duration:0.5s;
  animation-iteration-count: infinite;
  animation-timing-function: linear;
  animation-timing-function: steps(1);
}

.gotchi-shadow {
  
   
   animation-duration:0.5s;
   animation-iteration-count: infinite;
   animation-timing-function: linear;
   animation-timing-function: steps(2);
}

.gotchi-wearable {
  
  animation-duration:0.5s;
  animation-iteration-count: infinite;
  animation-timing-function: linear;
  animation-timing-function: steps(1);
}



.gotchi-handsDownClosed, .gotchi-handsUp, .gotchi-handsDownOpen, .gotchi-handsDownClosed, .gotchi-body, .gotchi-eyeColor, .gotchi-collateral, .gotchi-cheek, .gotchi-primary-mouth, .gotchi-wearable, .gotchi-sleeves   {
   
   animation-duration:0.5s;
   animation-iteration-count: infinite;
   animation-timing-function: linear;
   animation-timing-function: steps(2);
}

.wearable-hand {
  
  animation-duration:0.5s;
  animation-iteration-count: infinite;
  animation-timing-function: linear;
  animation-timing-function: steps(2);
}

@keyframes downHands {
  from {
    transform: translate(0px, -4px);
  }
 to {
    transform: translate(0px, -3px);
  }
}


@keyframes up {
  from {
    transform: translate(0px, 0);
  }
 to {
    transform: translate(0px, -1px);
  }
}


@keyframes down {
 from {
   transform: translate(0px, 0);
    }
 to {
      transform: translate(0px, 1px);
    }
}
</style><g class="gotchi-bg"><defs fill="#fff"><pattern id="a" patternUnits="userSpaceOnUse" width="4" height="4"><path d="M0 0h1v1H0zm2 2h1v1H2z"/></pattern><pattern id="b" patternUnits="userSpaceOnUse" x="0" y="0" width="2" height="2"><path d="M0 0h1v1H0z"/></pattern><pattern id="c" patternUnits="userSpaceOnUse" x="-2" y="0" width="8" height="1"><path d="M0 0h1v1H0zm2 0h1v1H2zm2 0h1v1H4z"/></pattern><pattern id="d" patternUnits="userSpaceOnUse" x="0" y="0" width="4" height="4"><path d="M0 0h1v1H0zm0 2h1v1H0zm1 0V1h1v1zm1 0h1v1H2zm0-1h1V0H2zm1 2h1v1H3z"/></pattern><pattern id="e" patternUnits="userSpaceOnUse" width="64" height="32"><path d="M4 4h1v1H4zm7 0h1v1h-1zm7 0h1v1h-1zm7 0h1v1h-1zm7 0h1v1h-1zm7 0h1v1h-1zm7 0h1v1h-1zm7 0h1v1h-1zm7 0h1v1h-1z"/><path fill="url(#a)" d="M0 8h64v7H0z"/><path fill="url(#b)" d="M0 16h64v1H0z"/><path fill="url(#c)" d="M0 18h64v1H0z"/><path fill="url(#b)" d="M22 18h15v1H22zM0 20h64v3H0z"/><path fill="url(#d)" d="M0 24h64v8H0z"/></pattern><mask id="f"><path fill="url(#e)" d="M0 0h64v32H0z"/></mask></defs><path fill="#fff" d="M0 0h64v32H0z"/><path fill="#dea8ff" class="gotchi-secondary" mask="url(#f)" d="M0 0h64v32H0z"/><path fill="#dea8ff" class="gotchi-secondary" d="M0 32h64v32H0z"/><path mask="url(#f)" fill="#fff" transform="matrix(1 0 0 -1 0 64)" d="M0 0h64v32H0z"/></g><g class="gotchi-body"><g class="gotchi-primary"><path d="M21 12h2v-2h-4v2h1z"/><path d="M19 14v-2h-2v2h1zm6-4h2V8h-4v2h1z"/><path d="M29 8h8V6H27v2h1zm16 6h2v-2h-2v1z"/><path d="M48 14h-1v39h-2v2h4V14zm-11-4h4V8h-4v1z"/><path d="M41 12h4v-2h-4v1zM17 53V14h-2v41h4v-2h-1z"/><path d="M24 51h-5v2h5v-1z"/><path d="M27 53h-3v2h5v-2h-1zm18-2h-5v2h5v-1z"/><path d="M35 51h-6v2h6v-1z"/><path d="M38 53h-3v2h5v-2h-1z"/></g><g class="gotchi-secondary"><path d="M18 43v6h2v-1h2v1h2v2h-5v2h-2V14h2v1h-1v26z"/><path d="M27 51h-3v2h5v-2h-1zm11 0h-3v2h5v-2h-1z"/><path d="M35 49h-2v-1h-2v1h-2v2h6v-1zM25 11h2v-1h-4v1h1zm-4 2h2v-1h-4v1h1zm24 31v5h-1v-1h-2v1h-2v2h5v2h2V14h-2v29z"/><path d="M37 8H27v1h5v1h5V9zm8 4h-4v2h4v-1z"/><path d="M41 10h-4v2h4v-1z"/></g><path d="M44 14h-3v-2h-4v-2h-5V9h-5v2h-4v2h-4v2h-1v34h2v-1h2v1h2v2h5v-2h2v-1h2v1h2v2h5v-2h2v-1h2v1h1V14z" fill="#fff"/></g><path class="gotchi-cheek" d="M21 32v2h2v-2h-1zm21 0h-1v2h2v-2z"/><g class="gotchi-primary-mouth"><path d="M29 32h-2v2h2v-1z"/><path d="M33 34h-4v2h6v-2h-1z"/><path d="M36 32h-1v2h2v-2z"/></g><g class="gotchi-shadow"><path opacity=".25" d="M25 58H19v1h1v1h24V59h1V58h-1z" fill="#000"/></g><g class="gotchi-eyeColor"><g><path d="M23 25h-1v1h1v-1z" /><path d="M23 24h-1v1h1v-1zm4 2h-1v1h1v-1zm-3 0h-1v1h1v-1z" /><path d="M25 26h-1v1h1v-1zm2-1h-1v1h1v-1zm-3-1h-1v1h1v-1zm3-1h-1v1h1v-1z" /><path d="M28 24h-1v1h1v-1zm-3-1h-1v1h1v-1z" /><path d="M27 24h-1v1h1v-1z" /></g><path d="M27 28h-1v1h1v-1zm0-7h-1v1h1v-1zm-3 0h-1v1h1v-1z" class="gotchi-primary" /><path d="M26 26h-1v1h1v-1zm2-1h-1v1h1v-1zm-4 0h-1v1h1v-1zm0-2h-1v1h1v-1zm2 0h-1v1h1v-1z" /><path d="M24 28h-1v1h1v-1z" class="gotchi-primary" /><g><path d="M42 25h-1v1h1v-1z" /><path d="M42 24h-1v1h1v-1zm-5 1h-1v1h1v-1z" /><path d="M39 26h-1v1h1v-1zm2-1h-1v1h1v-1z" /><path d="M38 26h-1v1h1v-1zm-1-2h-1v1h1v-1z" /><path d="M38 24h-1v1h1v-1zm3-1h-1v1h1v-1z" /></g><path d="M38 28h-1v1h1v-1zm3 0h-1v1h1v-1z" class="gotchi-primary" /><path d="M38 23h1v1h-1" /><path d="M38 21h-1v1h1v-1zm3 0h-1v1h1v-1z" class="gotchi-primary" /><g><path d="M38 25h-1v1h1v-1zm3 1h-1v1h1v-1z" /><path d="M40 26h-1v1h1v-1zm-2-3h-1v1h1v-1zm3 1h-1v1h1v-1z" /><path d="M40 23h-1v1h1v-1z" /></g></g><g class="gotchi-collateral" fill="#0074f9"><path d="M30 16h1v1h-1zm4 1h1v1h-1z"/><path d="M33 16h1v1h-1zm1 2h1v1h-1z"/><path d="M34 19h1v1h-1z"/><path d="M34 20h1v1h-1zm-2 1h1v1h-1z"/><path d="M33 21h1v1h-1zm-2 0h1v1h-1z"/><path d="M30 21h1v1h-1z"/><path d="M29 20h1v1h-1z"/><path d="M30 19h1v1h-1z"/><path d="M30 18h1v1h-1z"/><path d="M29 18h1v1h-1zm4-7h1v1h-1zm-2 0h1v1h-1z"/><path d="M30 11h1v1h-1zm2 0h1v1h-1zm-3 4h1v1h-1zm0-2h1v1h-1z"/><path d="M29 12h1v1h-1zm0 2h1v1h-1zm5-2h1v1h-1zm-1 2h1v1h-1z"/><path d="M34 14h1v1h-1z"/><path d="M33 13h1v1h-1zm-1.5 2h1v1h-1z"/><path d="M31.5 14h1v1h-1z"/><path d="M31.5 13h1v1h-1zm0 3h1v1h-1zm0 2h1v1h-1z"/><path d="M31.5 19h1v1h-1zm0-2h1v1h-1z"/></g><g class="gotchi-wearable wearable-body"><svg x="12" y="32"><style><![CDATA[.a{fill:#369c2e}.b{fill:#5fb935}.c{fill:#368528}.d{fill:#a322d4}.e{fill:#2234cb}.f{fill:#f122ad}.g{fill:#0e982e}.h{fill:#d322e8}.i{fill:#36a72e}.j{fill:#1ce4a3}.k{fill:#6822bc}.l{fill:#8a22b4}.m{fill:#18742e}.n{fill:#28ff3c}]]></style><path d="M35 1v1h-2v1h-2v1h-2v1h-2v1h-1v1h-1v1h-1v1h-1v1h-1v1h-1v1h-2v-1h-1v-1h-1V9h-1V8h-1V7h-1V6h-1V5h-2V4H9V3H7V2H5V1H3v18h34V1z" fill="#c5221c"/><path d="M35 2v1h-2v1h-2v1h-2v1h-2v1h-1v1h-1v1h-1v1h-1v1h-1v1h-2v1h1v1h-1v1h1v1h-1v1h1v1h15V9h1V2h-2zm-8 12v-1h1v1h-1zm6-4h-4V9h4v1zm-15 1h-1v-1h-1V9h-1V8h-1V7h-1V6h-2V5H9V4H7V3H5V2H3v7h1v9h15v-6h-1v-1zM7 10V9h4v1H7zm6 3v1h-1v-1h1z" fill="#f1221c"/><path d="M20,14h1v1h-1V14z" class="n"/><path d="M21 14h1v1h-1v-1zm0-2h1v1h-1v-1z" class="d"/><path d="M31,5h1v1h-1V5z" class="e"/><path d="M31,8h1v1h-1V8z" class="f"/><path d="M30,8h1v1h-1V8z" fill="#8a22a0"/><path d="M30,7h1v1h-1V7z" class="f"/><path d="M29,10h1v1h-1V10z" class="a"/><path d="M29,8h1v1h-1V8z" class="f"/><path d="M32,12h1v1h-1V12z" class="b"/><path d="M32,13h1v1h-1V13z" class="a"/><path d="M20,12h1v1h-1V12z" class="n"/><path d="M23,14h1v1h-1V14z" class="d"/><path d="M31,13h1v1h-1V13z" class="b"/><path d="M23,12h1v1h-1V12z" class="d"/><path d="M26,8h1v1h-1V8z" class="c"/><path d="M22,13h1v1h-1V13z" fill="#f122a4"/><path d="M36,2h1v1h-1V2z" fill="#b782c2"/><path d="M33,3h1v1h-1V3z" class="e"/><path d="M35,11h1v1h-1V11z" fill="#1c62a3"/><path d="M35,14h1v1h-1V14z" class="h"/><g class="i"><path d="M35 7h1v1h-1V7zm0-2h1v1h-1V5z"/><path d="M36,6h1v1h-1V6z"/></g><path d="M31,11h1v1h-1V11z" class="b"/><path d="M25,9h1v1h-1V9z" class="c"/><path d="M30,11h1v1h-1V11z" class="a"/><path d="M27,7h1v1h-1V7z" class="c"/><path d="M34,12h1v1h-1V12z" class="j"/><path d="M33,5h1v1h-1V5z" class="e"/><path d="M34,6h1v1h-1V6z" class="i"/><path d="M34,10h1v1h-1V10z" class="j"/><path d="M30,12h1v1h-1V12z" class="b"/><path d="M24,10h1v1h-1V10z" class="c"/><path d="M31,12h1v1h-1V12z" class="a"/><path d="M20,16h1v1h-1V16z" class="n"/><path d="M21,16h1v1h-1V16z" class="k"/><path d="M26,16h1v1h-1V16z" class="g"/><path d="M32 15h1v1h-1v-1zm-2 0h1v1h-1v-1z" class="l"/><path d="M25,16h1v1h-1V16z" class="m"/><path d="M31,16h1v1h-1V16z" fill="#cec81c"/><path d="M35,15h1v1h-1V15z" fill="#ba911c"/><g class="h"><path d="M35,16h1v1h-1V16z"/><path d="M34,15h1v1h-1V15z"/></g><path d="M21,17h1v1h-1V17z" fill="#84861c"/><path d="M32 17h1v1h-1v-1zm-2 0h1v1h-1v-1z" class="l"/><path d="M25,17h1v1h-1V17z" class="g"/><path d="M22,17h1v1h-1V17z" class="k"/><path d="M26,17h1v1h-1V17z" class="m"/><path d="M27,17h1v1h-1V17z" class="g"/><path d="M18 14h1v1h-1v-1zm0-2h1v1h-1v-1z" class="d"/><path d="M8,5h1v1H8V5z" class="e"/><path d="M8,8h1v1H8V8z" class="f"/><path d="M9,8h1v1H9V8z" fill="#8a22a0"/><path d="M9,7h1v1H9V7z" class="f"/><path d="M10,10h1v1h-1V10z" class="a"/><path d="M10,8h1v1h-1V8z" class="f"/><path d="M7,12h1v1H7V12z" class="b"/><path d="M7,13h1v1H7V13z" class="a"/><path d="M16,14h1v1h-1V14z" class="d"/><path d="M8,13h1v1H8V13z" class="b"/><path d="M16,12h1v1h-1V12z" class="d"/><path d="M13,8h1v1h-1V8z" class="c"/><path d="M17,13h1v1h-1V13z" fill="#f122a4"/><path d="M3,2h1v1H3V2z" fill="#b782c2"/><path d="M6,3h1v1H6V3z" class="e"/><path d="M4,11h1v1H4V11z" fill="#1c62a3"/><path d="M4,14h1v1H4V14z" class="h"/><g class="i"><path d="M4 7h1v1H4V7zm0-2h1v1H4V5z"/><path d="M3,6h1v1H3V6z"/></g><path d="M8,11h1v1H8V11z" class="b"/><path d="M14,9h1v1h-1V9z" class="c"/><path d="M9,11h1v1H9V11z" class="a"/><path d="M12,7h1v1h-1V7z" class="c"/><path d="M5,12h1v1H5V12z" class="j"/><path d="M6,5h1v1H6V5z" class="e"/><path d="M5,6h1v1H5V6z" class="i"/><g fill="#367f2e"><path d="M36,5h1v1h-1V5z"/><path d="M35,6h1v1h-1V6z"/><path d="M34 7h1v1h-1V7zM3 5h1v1H3V5z"/><path d="M4,6h1v1H4V6z"/><path d="M5,7h1v1H5V7z"/></g><path d="M5,10h1v1H5V10z" class="j"/><g fill="#077c22"><path d="M26,9h1v1h-1V9z"/><path d="M25 10h1v1h-1v-1zm0-2h1v1h-1V8z"/><path d="M24 9h1v1h-1V9zM13 9h1v1h-1V9z"/><path d="M14 10h1v1h-1v-1zm0-2h1v1h-1V8z"/><path d="M15,9h1v1h-1V9z"/></g><path d="M9,12h1v1H9V12z" class="b"/><path d="M15,10h1v1h-1V10z" class="c"/><g fill="#e8dc21"><path d="M32 4h1v1h-1V4zm-5 10h1v1h-1v-1zm0-2h1v1h-1v-1z"/><path d="M26 13h1v1h-1v-1zm2 0h1v1h-1v-1zM7 4h1v1H7V4zm5 10h1v1h-1v-1zm0-2h1v1h-1v-1z"/><path d="M13 13h1v1h-1v-1zm-2 0h1v1h-1v-1z"/></g><path d="M8,12h1v1H8V12z" class="a"/><path d="M18,16h1v1h-1V16z" class="k"/><path d="M13,16h1v1h-1V16z" class="g"/><path d="M7 15h1v1H7v-1zm2 0h1v1H9v-1z" class="l"/><path d="M14,16h1v1h-1V16z" class="m"/><path d="M8,16h1v1H8V16z" fill="#cec81c"/><path d="M4,15h1v1H4V15z" fill="#ba911c"/><g class="h"><path d="M4,16h1v1H4V16z"/><path d="M5,15h1v1H5V15z"/></g><path d="M18,17h1v1h-1V17z" fill="#84861c"/><path d="M7 17h1v1H7v-1zm2 0h1v1H9v-1z" class="l"/><path d="M14,17h1v1h-1V17z" class="g"/><path d="M17,17h1v1h-1V17z" class="k"/><path d="M13,17h1v1h-1V17z" class="m"/><path d="M12,17h1v1h-1V17z" class="g"/></svg></g><g class="gotchi-handsDownClosed"><g class="gotchi-primary"><path d="M19 42h1v1h-1zm1-6h1v1h-1z"/><path d="M21 37h1v1h-1zm5 3v4h1v-4zm-5 3h-1v1h2v-1z"/><path d="M24 44h-2v1h4v-1h-1zm1-5h-1v1h2v-1z"/><path d="M23 38h-1v1h2v-1z"/></g><g class="gotchi-secondary"><path d="M19 43h1v1h-1zm5 2h-2v1h4v-1h-1z"/><path d="M27 41v3h1v-3zm-6 3h-1v1h2v-1z"/><path d="M26 44h1v1h-1zm-7-3h-1v2h1v-1z"/></g><g class="gotchi-primary"><path d="M44 42h1v1h-1zm-1-6h1v1h-1z"/><path d="M42 37h1v1h-1z"/><path d="M42 39v-1h-2v1h1zm0 4v1h2v-1h-1z"/><path d="M40 44h-2v1h4v-1h-1z"/><path d="M38 42v-2h-1v4h1v-1z"/><path d="M40 40v-1h-2v1h1z"/></g><g class="gotchi-secondary"><path d="M42 44v1h2v-1h-1zm-5-2v-1h-1v3h1v-1z"/><path d="M40 45h-2v1h4v-1h-1z"/><path d="M37 44h1v1h-1zm7-1h1v1h-1z"/></g></g><g class="gotchi-handsDownOpen"><g class="gotchi-primary"><path d="M14 40h1v1h-1v-1zm-1-6h1v1h-1v-1z"/><path d="M14 33h1v1h-1v-1zm-2 2h1v1h-1v-1zm-5 3h1v4H7v-4zm5 3h2v1h-2v-1z"/><path d="M8 42h4v1H8v-1zm0-5h2v1H8v-1z"/><path d="M10,36h2v1h-2V36z"/></g><g class="gotchi-secondary"><path d="M14,39h1v1h-1V39z"/><path d="M12,40h2v1h-2V40z"/><path d="M8,41h4v1H8V41z"/></g><path d="M8,38v3h4v-1h2v-1h1v-5h-1v1h-1v1h-1v1h-2v1H8z" fill="#fff" /><g class="gotchi-primary"><path d="M49 40h1v1h-1v-1zm1-6h1v1h-1v-1z"/><path d="M49 33h1v1h-1v-1zm2 2h1v1h-1v-1zm5 3h1v4h-1v-4zm-6 3h2v1h-2v-1z"/><path d="M52 42h4v1h-4v-1zm2-5h2v1h-2v-1z"/><path d="M52,36h2v1h-2V36z"/></g><g class="gotchi-secondary"><path d="M49,39h1v1h-1V39z"/><path d="M50,40h2v1h-2V40z"/><path d="M52,41h4v1h-4V41z"/></g><path d="M54,38v-1h-2v-1h-1v-1h-1v-1h-1v5h1v1h2v1h4v-3H54z" fill="#fff" /></g><g class="gotchi-handsUp"><g class="gotchi-secondary"><path d="M50,38h1v1h-1V38z"/><path d="M49 39h1v1h-1v-1zm2-2h1v1h-1v-1z"/><path d="M52,36h2v1h-2V36z"/><path d="M54,35h2v1h-2V35z"/></g><path d="M52,32v1h-2v1h-1v5h1v-1h1v-1h1v-1h2v-1h2v-3H52z" fill="#fff"/><g class="gotchi-primary"><path d="M49,33h1v1h-1V33z"/><path d="M50 32h2v1h-2v-1zm0 7h1v1h-1v-1z"/><path d="M49 40h1v1h-1v-1zm2-2h1v1h-1v-1z"/><path d="M52 37h2v1h-2v-1zm0-6h4v1h-4v-1z"/><path d="M56,32h1v4h-1V32z"/><path d="M54,36h2v1h-2V36z"/></g><g class="gotchi-secondary"><path d="M13,38h1v1h-1V38z"/><path d="M14 39h1v1h-1v-1zm-2-2h1v1h-1v-1z"/><path d="M10,36h2v1h-2V36z"/><path d="M8,35h2v1H8V35z"/></g><path d="M8,32v3h2v1h2v1h1v1h1v1h1v-5h-1v-1h-2v-1H8z" fill="#fff"/><g class="gotchi-primary"><path d="M14,33h1v1h-1V33z"/><path d="M12 32h2v1h-2v-1zm1 7h1v1h-1v-1z"/><path d="M14 40h1v1h-1v-1zm-2-2h1v1h-1v-1z"/><path d="M10 37h2v1h-2v-1zm-2-6h4v1H8v-1z"/><path d="M7,32h1v4H7V32z"/><path d="M8,36h2v1H8V36z"/></g></g><g class="gotchi-wearable wearable-face"><svg x="15" y="6"><path d="M13.8,30.2v-3.5h6.5v3.5H13.8z" fill="#fff"/><g fill="#773e1d"><path d="M15,28h4v1h-4V28z"/><path d="M0 27h2v1h2v1h2v1h2v1h4v1h3v1h1v1h2v-1h1v-1h3v-1h4v-1h2v-1h2v-1h2v-1h2V8h-2V6h-2V4h-4V2h-4V0H12v2H8v2H4v2H2v2H0v19zm15 3v-1h-1v-1h1v-1h4v1h1v1h-1v1h-4zm12-5v1h-2v1h-3v-1h-1v-1h-1v-1h-6v1h-1v1h-1v1H9v-1H7v-1H3V12h1V9h1V8h3V7h4v1h3v1h4V8h3V7h4v1h3v1h1v3h1v13h-4z"/></g></svg></g><g class="gotchi-wearable wearable-eyes"><svg x="34" y="21"><g fill="#646464"><path d="M10 4V2H9V1H8V0H2v1H1v1H0v6h1v1h1v1h6V9h1V8h1V6h1V4z"/><path d="M11 6h1v12h-1z"/><path d="M10 18h1v2h-1z"/><path d="M9 20h1v1H9z"/></g><path d="M8,2V1H2v1H1v6h1v1h6V8h1V2H8z" fill="#fff"/><path d="M3,3h4v4H3V3z"/><path d="M8,2V1H2v1H1v6h1v1h6V8h1V2H8z" opacity=".5" fill="#fff" enable-background="new"/></svg></g><g class="gotchi-wearable wearable-head"><svg x="15" y="6"><path d="M33 8h-1V6h-2V4h-4V2h-4V0H12v2H8v2H4v2H2v2H0v37h2V19h1v-1h2v-1h2v-1h2v-1h2v-1h1v-1h1v-1h1v1h1v1h2v1h2v1h2v1h2v1h2v1h2v1h2v1h2v1h1v23h2V8z" fill="#9300d7"/><g fill="#ac27ff"><path d="M12 10h-1V8h-1V7H9V5H8v1H4v2H2v10h1v-1h2v-1h2v-1h2v-1h3v-2h1v-1h-1z"/><path d="M31 8h-1V6h-4V4h-4V2H12v2H9v1h1v2h1v1h1v2h1v1h1v1h1v1h2v1h2v1h2v1h2v1h2v1h2v1h2v1h2v1h1V8z"/></g><g fill="#c260ff"><path d="M11 5h-1v2h1V6zM8 5h1v1H8z"/><path d="M11 4h1v1h-1zM9 4h1v1H9zm5 0V3h-1v2h1zm1 1h1V3h-1v1zm3 0h1v1h-1z"/><path d="M17 5h1V3h-1v1zm2 0h2V4h-1V3h-1v1z"/><path d="M22 6h1V5h-2v1zm3-1h1v1h-1z"/><path d="M25 5V4h-2v1h1zm-4-2h1v1h-1zm-8 4h1v1h-1zm-2 0h1v1h-1z"/><path d="M12 7h1V5h-1v1zM8 8h1V7H7v1z"/><path d="M7 7V6H5v1h1z"/><path d="M4 7h1v1H4zm11 0h1v1h-1z"/><path d="M15 6V5h-1v2h1zm3 2h1V7h-2v1z"/><path d="M16 7h1V5h-1v1zm4 0h1V6h-2v1z"/><path d="M21 7v1h2V7h-1z"/><path d="M23 6v1h2V6h-1z"/><path d="M26 8h1V7h-2v1zm3-1h1v1h-1z"/><path d="M29 7V6h-2v1h1zM13 8h-1v2h1V9zM9 8h1v1H9z"/><path d="M7 9v1h2V9H8z"/><path d="M7 9V8H5v1h1z"/><path d="M5 10V9H3v1h1zm10-2h-1v2h1V9zm1 0h1v1h-1z"/><path d="M18 9h-1v1h2V9z"/><path d="M19 8v1h2V8h-1z"/><path d="M22 10h1V9h-2v1z"/><path d="M24 9h1V8h-2v1z"/><path d="M25 9v1h2V9h-1z"/><path d="M27 8v1h2V8h-1zm-16 3h1v1h-1z"/><path d="M10 11h1v-1H9v1z"/><path d="M7 11v1h2v-1H8z"/><path d="M7 11v-1H5v1h1z"/><path d="M5 12v-1H3v1h1zm8-2h1v1h-1zm3 0h-1v1h2v-1z"/><path d="M14 11h1v1h-1zm4 0h-1v1h2v-1z"/><path d="M20 10h-1v1h2v-1z"/><path d="M22 11h-1v1h2v-1z"/><path d="M23 10v1h2v-1h-1z"/><path d="M25 11v1h2v-1h-1z"/><path d="M27 10v1h2v-1h-1z"/><path d="M29 11v1h2v-1h-1zm1-2h-1v1h2V9z"/><path d="M31 8h1v1h-1zm0 2h1v1h-1zM2 8h1v1H2zm0 2h1v1H2zm29 2h1v1h-1zm0 2h1v1h-1z"/><path d="M29 13v1h2v-1h-1z"/><path d="M27 12v1h2v-1h-1z"/><path d="M25 13v1h2v-1h-1z"/><path d="M24 12h-1v1h2v-1z"/><path d="M22 13h-1v1h2v-1zm7 2v1h2v-1h-1z"/><path d="M26 15h-1v1h2v-1zm5 1h1v1h-1zm0 2h1v1h-1zm0 2h1v1h-1z"/><path d="M29 19v1h2v-1h-1zm0-2v1h2v-1h-1z"/><path d="M27 16v1h2v-1h-1zm0-2v1h2v-1h-1zm-3 0h-1v1h2v-1zm-4-2h-1v1h2v-1zm8 6h-1v1h2v-1z"/><path d="M26 17h-1v1h2v-1z"/><path d="M24 16h-1v1h2v-1z"/><path d="M22 15h-1v1h2v-1z"/><path d="M20 14h-1v1h2v-1z"/><path d="M18 13h-1v1h2v-1z"/><path d="M16 12h-1v1h2v-1zm-5 1h1v1h-1z"/><path d="M9 12v1h2v-1h-1z"/><path d="M7 13v1h2v-1H8zm-2 1v-1H3v1h1z"/><path d="M5 12v1h2v-1H6zm0 2v1h2v-1H6zm-3 0h1v1H2z"/><path d="M3 15v1h2v-1H4z"/><path d="M2 16h1v1H2zm0-4h1v1H2zM12 2h1v1h-1zm2 0h1v1h-1zm2 0h1v1h-1zm2 0h1v1h-1zm2 0h1v1h-1z"/></g></svg></g>"><svg x="12" y="32"><g><g class="gotchi-sleeves gotchi-sleeves-left gotchi-sleeves-up"><path d="M38 0v1h-1v8h1V8h1V7h1V0z" fill="#c5221c"/><path d="M38 1v1h-1v6h1V7h1V1z" fill="#f1221c"/><path d="M38,2h1v1h-1V2z" fill="#f1751c"/><path d="M37,5h1v1h-1V5z" fill="#367f2e"/></g><g class="gotchi-sleeves gotchi-sleeves-left gotchi-sleeves-down"><path d="M39 3V2h-1V1h-1v8h1v1h2V3z" fill="#c5221c"/><path d="M38 3V2h-1v6h1v1h1V3z" fill="#f1221c"/><path d="M38,7h1v1h-1V7z" fill="#f1751c"/><path d="M37,4h1v1h-1V4z" fill="#367f2e"/></g><g class="gotchi-sleeves gotchi-sleeves-right gotchi-sleeves-up"><path d="M2 1V0H0v7h1v1h1v1h1V1z" fill="#c5221c"/><path d="M2 2V1H1v6h1v1h1V2z" fill="#f1221c"/><path d="M1,2h1v1H1V2z" fill="#f1751c"/><path d="M2,5h1v1H2V5z" fill="#367f2e"/></g><g class="gotchi-sleeves gotchi-sleeves-right gotchi-sleeves-down"><path d="M2 1v1H1v1H0v7h2V9h1V1z" fill="#c5221c"/><path d="M2 2v1H1v6h1V8h1V2z" fill="#f1221c"/><path d="M1,7h1v1H1V7z" fill="#f1751c"/><path d="M2,4h1v1H2V4z" fill="#367f2e"/></g></g></svg><g class="gotchi-wearable wearable-hand wearable-hand-left"><svg x="1" y="21"><g fill="#ff64ff"><path d="M7 24h1v1H7z"/><path d="M16 8V5h-1V4h-1V3h-2V2h-2V1H9V0H8v1H7v1H5v1H3v1H2v1H1v3H0v1h1v1h1V9h1v1h1V9h1v1h1V9h1v1h1v14h1V10h1V9h1v1h1V9h1v1h1V9h1v1h1V9h1V8zM6 23h1v1H6z"/></g><g fill="#ffb9ff"><path d="M1 8h1v1H1z"/><path d="M14 5V4h-2V3h-2V2H9V1H8v1H7v1H5v1H3v1H2v3h1v1h1V8h1v1h1V8h1v1h1V8h1v1h1V8h1v1h1V8h1v1h1V8h1V5h-1zm-4 1H9v1H8V6H7V5h1V4h1v1h1v1z"/><path d="M8 5h1v1H8zm7 3h1v1h-1z"/></g></svg></g><g class="gotchi-wearable wearable-hand wearable-hand-right"><svg x="1" y="21"><g transform="scale(-1, 1) translate(-62, 0)"><g fill="#ff64ff"><path d="M7 24h1v1H7z"/><path d="M16 8V5h-1V4h-1V3h-2V2h-2V1H9V0H8v1H7v1H5v1H3v1H2v1H1v3H0v1h1v1h1V9h1v1h1V9h1v1h1V9h1v1h1v14h1V10h1V9h1v1h1V9h1v1h1V9h1v1h1V9h1V8zM6 23h1v1H6z"/></g><g fill="#ffb9ff"><path d="M1 8h1v1H1z"/><path d="M14 5V4h-2V3h-2V2H9V1H8v1H7v1H5v1H3v1H2v3h1v1h1V8h1v1h1V8h1v1h1V8h1v1h1V8h1v1h1V8h1v1h1V8h1V5h-1zm-4 1H9v1H8V6H7V5h1V4h1v1h1v1z"/><path d="M8 5h1v1H8zm7 3h1v1h-1z"/></g></g></svg></g><g class="gotchi-wearable wearable-pet"><svg x="42" y="38"><path d="M19 6V5h-1V4h-3V2h1V1h-1V0h-2v1h-2V0H9v1H7V0H5v1H4v1h1v2H2v1H1v1H0v2h1v1h1v1H1v4h1v1h1v1H2v1H1v2h1v1H1v2h4v1h3v-1h1v-1h2v1h1v1h3v-1h4v-2h-1v-1h1v-2h-1v-1h-1v-1h1v-1h1v-4h-1V9h1V8h1V6h-1z"/><path d="M18 7h-1v1h-3V7h-2v1h1v1h5V8h1V7h-1zM6 7v1H3V7H1v1h1v1h5V8h1V7H6z" fill="#fff"/><g fill="#faaff3"><path d="M17 5h-4v1h5V5h-1zm-7 4h2V8h-1V7H9v1H8v1h2zM4 6h3V5H2v1h2zm5 12v2h2v-2H9z"/><path d="M16 17v-2H4v2H2v2h2v1H2v1h3v-3h1v3H5v1h3v-4h1v-1h2v1h1v4h3v-1h-1v-3h1v3h3v-1h-2v-1h2v-2h-2z"/></g><path d="M17 10H2v4h16v-4h-1zm0 2v1H3v-2h14v1z" fill="#ef1e26"/><path d="M13 1v1h-2V1H9v1H7V1H5v1h1v2h2v2h4V4h2V2h1V1z" fill="#ffc03c"/><path d="M5 1v1h2V1H5zm4 0v1h2V1H9zm5 0h-1v1h2V1h-1z" fill="#ffe600"/><path d="M11,4H8v2h4V4H11z" fill="#ff9600"/><path d="M13,2H6v2h8V2H13z" fill="#ffc03c"/><defs /></svg></g></svg>