<svg xmlns="http://www.w3.org/2000/svg" viewBox="0 0 64 64"><style>.gotchi-primary{fill:#0000B9;}.gotchi-secondary{fill:#D4DEF8;}.gotchi-cheek{fill:#F696C6;}.gotchi-eyeColor{fill:#0064FF;}.gotchi-sleeves-up{display:none;}.gotchi-handsUp{display:none;}.gotchi-handsDownOpen{display:block;}.gotchi-handsDownClosed{display:none;}
.gotchi-bg {
    display:none;
  }




svg {
  animation-name:down;
  animation-duration:0.5s;
  animation-iteration-count: infinite;
  animation-timing-function: linear;
  animation-timing-function: steps(2);
}

.gotchi-shadow {
  animation: up 0.5s infinite linear steps(2);
   animation-name:up;
   animation-duration:0.5s;
   animation-iteration-count: infinite;
   animation-timing-function: linear;
   animation-timing-function: steps(2);
}

.gotchi-wearable {
  animation-name:down;
  animation-duration:0.5s;
  animation-iteration-count: infinite;
  animation-timing-function: linear;
  animation-timing-function: steps(2);
}



.gotchi-handsDownClosed, .gotchi-handsUp, .gotchi-handsDownOpen, .gotchi-handsDownClosed, .gotchi-body, .gotchi-eyeColor, .gotchi-collateral, .gotchi-cheek, .gotchi-primary-mouth, .gotchi-wearable   {
   animation-name:down;
   animation-duration:0.5s;
   animation-iteration-count: infinite;
   animation-timing-function: linear;
   animation-timing-function: steps(2);
}

.wearable-hand {
  animation-name:down !important;
  animation-duration:0.5s;
  animation-iteration-count: infinite;
  animation-timing-function: linear;
  animation-timing-function: steps(2);
}

@keyframes downHands {
  from {
    transform: translate(0px, -4px);
  }
 to {
    transform: translate(0px, -3px);
  }
}


@keyframes up {
  from {
    transform: translate(0px, 0);
  }
 to {
    transform: translate(0px, -1px);
  }
}


@keyframes down {
 from {
   transform: translate(0px, 0);
    }
 to {
      transform: translate(0px, 1px);
    }
}
</style><g class="gotchi-bg"><defs fill="#fff"><pattern id="a" patternUnits="userSpaceOnUse" width="4" height="4"><path d="M0 0h1v1H0zm2 2h1v1H2z"/></pattern><pattern id="b" patternUnits="userSpaceOnUse" x="0" y="0" width="2" height="2"><path d="M0 0h1v1H0z"/></pattern><pattern id="c" patternUnits="userSpaceOnUse" x="-2" y="0" width="8" height="1"><path d="M0 0h1v1H0zm2 0h1v1H2zm2 0h1v1H4z"/></pattern><pattern id="d" patternUnits="userSpaceOnUse" x="0" y="0" width="4" height="4"><path d="M0 0h1v1H0zm0 2h1v1H0zm1 0V1h1v1zm1 0h1v1H2zm0-1h1V0H2zm1 2h1v1H3z"/></pattern><pattern id="e" patternUnits="userSpaceOnUse" width="64" height="32"><path d="M4 4h1v1H4zm7 0h1v1h-1zm7 0h1v1h-1zm7 0h1v1h-1zm7 0h1v1h-1zm7 0h1v1h-1zm7 0h1v1h-1zm7 0h1v1h-1zm7 0h1v1h-1z"/><path fill="url(#a)" d="M0 8h64v7H0z"/><path fill="url(#b)" d="M0 16h64v1H0z"/><path fill="url(#c)" d="M0 18h64v1H0z"/><path fill="url(#b)" d="M22 18h15v1H22zM0 20h64v3H0z"/><path fill="url(#d)" d="M0 24h64v8H0z"/></pattern><mask id="f"><path fill="url(#e)" d="M0 0h64v32H0z"/></mask></defs><path fill="#fff" d="M0 0h64v32H0z"/><path fill="#dea8ff" class="gotchi-secondary" mask="url(#f)" d="M0 0h64v32H0z"/><path fill="#dea8ff" class="gotchi-secondary" d="M0 32h64v32H0z"/><path mask="url(#f)" fill="#fff" transform="matrix(1 0 0 -1 0 64)" d="M0 0h64v32H0z"/></g><g class="gotchi-body"><g class="gotchi-primary"><path d="M21 12h2v-2h-4v2h1z"/><path d="M19 14v-2h-2v2h1zm6-4h2V8h-4v2h1z"/><path d="M29 8h8V6H27v2h1zm16 6h2v-2h-2v1z"/><path d="M48 14h-1v39h-2v2h4V14zm-11-4h4V8h-4v1z"/><path d="M41 12h4v-2h-4v1zM17 53V14h-2v41h4v-2h-1z"/><path d="M24 51h-5v2h5v-1z"/><path d="M27 53h-3v2h5v-2h-1zm18-2h-5v2h5v-1z"/><path d="M35 51h-6v2h6v-1z"/><path d="M38 53h-3v2h5v-2h-1z"/></g><g class="gotchi-secondary"><path d="M18 43v6h2v-1h2v1h2v2h-5v2h-2V14h2v1h-1v26z"/><path d="M27 51h-3v2h5v-2h-1zm11 0h-3v2h5v-2h-1z"/><path d="M35 49h-2v-1h-2v1h-2v2h6v-1zM25 11h2v-1h-4v1h1zm-4 2h2v-1h-4v1h1zm24 31v5h-1v-1h-2v1h-2v2h5v2h2V14h-2v29z"/><path d="M37 8H27v1h5v1h5V9zm8 4h-4v2h4v-1z"/><path d="M41 10h-4v2h4v-1z"/></g><path d="M44 14h-3v-2h-4v-2h-5V9h-5v2h-4v2h-4v2h-1v34h2v-1h2v1h2v2h5v-2h2v-1h2v1h2v2h5v-2h2v-1h2v1h1V14z" fill="#fff"/></g><path class="gotchi-cheek" d="M21 32v2h2v-2h-1zm21 0h-1v2h2v-2z"/><g class="gotchi-primary-mouth"><path d="M29 32h-2v2h2v-1z"/><path d="M33 34h-4v2h6v-2h-1z"/><path d="M36 32h-1v2h2v-2z"/></g><g class="gotchi-shadow"><path opacity=".25" d="M25 58H19v1h1v1h24V59h1V58h-1z" fill="#000"/></g><g class="gotchi-eyeColor"><path d="M39 23v2h-1v-2h1v-1h-2v1h-1v3h1v1h2v-1h1v-3h-1z" /><g class="gotchi-primary"><path d="M36 22h-1v1h1v-1z" /><path d="M35 25v-2h-1v4h1v-2z" /><path d="M36 27h-1v1h1v-1zm5-5h-1v1h1v-1z" /><path d="M41 23v4h1v-4h-1zm-3-1h2v-1h-4v1h2zm0 6h-2v1h4v-1h-2z" /><path d="M41 27h-1v1h1v-1z" /></g><path d="M27 24v1h-1v-2h1v-1h-2v1h-1v3h1v1h2v-1h1v-3h-1v1z" /><g class="gotchi-primary"><path d="M24 22h-1v1h1v-1z" /><path d="M23 25v-2h-1v4h1v-2z" /><path d="M24 27h-1v1h1v-1zm5-5h-1v1h1v-1z" /><path d="M29 24v3h1v-4h-1v1zm-3-2h2v-1h-4v1h2zm0 6h-2v1h4v-1h-2z" /><path d="M29 27h-1v1h1v-1z" /></g></g><g class="gotchi-collateral"><path d="M34 13v-1h-4v1h-1v1h-1v1h-1v4h1v1h1v1h1v1h4v-1h1v-1h1v-1h1v-4h-1v-1h-1v-1h-1zm-2 1h1v1h1v1h1v2h-1v1h-1v1h-2v-1h-1v-1h-1v-2h1v-1h1v-1h1z" fill="#0000b9"/></g><g class="gotchi-handsDownClosed"><g class="gotchi-primary"><path d="M19 42h1v1h-1zm1-6h1v1h-1z"/><path d="M21 37h1v1h-1zm5 3v4h1v-4zm-5 3h-1v1h2v-1z"/><path d="M24 44h-2v1h4v-1h-1zm1-5h-1v1h2v-1z"/><path d="M23 38h-1v1h2v-1z"/></g><g class="gotchi-secondary"><path d="M19 43h1v1h-1zm5 2h-2v1h4v-1h-1z"/><path d="M27 41v3h1v-3zm-6 3h-1v1h2v-1z"/><path d="M26 44h1v1h-1zm-7-3h-1v2h1v-1z"/></g><g class="gotchi-primary"><path d="M44 42h1v1h-1zm-1-6h1v1h-1z"/><path d="M42 37h1v1h-1z"/><path d="M42 39v-1h-2v1h1zm0 4v1h2v-1h-1z"/><path d="M40 44h-2v1h4v-1h-1z"/><path d="M38 42v-2h-1v4h1v-1z"/><path d="M40 40v-1h-2v1h1z"/></g><g class="gotchi-secondary"><path d="M42 44v1h2v-1h-1zm-5-2v-1h-1v3h1v-1z"/><path d="M40 45h-2v1h4v-1h-1z"/><path d="M37 44h1v1h-1zm7-1h1v1h-1z"/></g></g><g class="gotchi-handsDownOpen"><g class="gotchi-primary"><path d="M14 40h1v1h-1v-1zm-1-6h1v1h-1v-1z"/><path d="M14 33h1v1h-1v-1zm-2 2h1v1h-1v-1zm-5 3h1v4H7v-4zm5 3h2v1h-2v-1z"/><path d="M8 42h4v1H8v-1zm0-5h2v1H8v-1z"/><path d="M10,36h2v1h-2V36z"/></g><g class="gotchi-secondary"><path d="M14,39h1v1h-1V39z"/><path d="M12,40h2v1h-2V40z"/><path d="M8,41h4v1H8V41z"/></g><path d="M8,38v3h4v-1h2v-1h1v-5h-1v1h-1v1h-1v1h-2v1H8z" fill="#fff" /><g class="gotchi-primary"><path d="M49 40h1v1h-1v-1zm1-6h1v1h-1v-1z"/><path d="M49 33h1v1h-1v-1zm2 2h1v1h-1v-1zm5 3h1v4h-1v-4zm-6 3h2v1h-2v-1z"/><path d="M52 42h4v1h-4v-1zm2-5h2v1h-2v-1z"/><path d="M52,36h2v1h-2V36z"/></g><g class="gotchi-secondary"><path d="M49,39h1v1h-1V39z"/><path d="M50,40h2v1h-2V40z"/><path d="M52,41h4v1h-4V41z"/></g><path d="M54,38v-1h-2v-1h-1v-1h-1v-1h-1v5h1v1h2v1h4v-3H54z" fill="#fff" /></g><g class="gotchi-handsUp"><g class="gotchi-secondary"><path d="M50,38h1v1h-1V38z"/><path d="M49 39h1v1h-1v-1zm2-2h1v1h-1v-1z"/><path d="M52,36h2v1h-2V36z"/><path d="M54,35h2v1h-2V35z"/></g><path d="M52,32v1h-2v1h-1v5h1v-1h1v-1h1v-1h2v-1h2v-3H52z" fill="#fff"/><g class="gotchi-primary"><path d="M49,33h1v1h-1V33z"/><path d="M50 32h2v1h-2v-1zm0 7h1v1h-1v-1z"/><path d="M49 40h1v1h-1v-1zm2-2h1v1h-1v-1z"/><path d="M52 37h2v1h-2v-1zm0-6h4v1h-4v-1z"/><path d="M56,32h1v4h-1V32z"/><path d="M54,36h2v1h-2V36z"/></g><g class="gotchi-secondary"><path d="M13,38h1v1h-1V38z"/><path d="M14 39h1v1h-1v-1zm-2-2h1v1h-1v-1z"/><path d="M10,36h2v1h-2V36z"/><path d="M8,35h2v1H8V35z"/></g><path d="M8,32v3h2v1h2v1h1v1h1v1h1v-5h-1v-1h-2v-1H8z" fill="#fff"/><g class="gotchi-primary"><path d="M14,33h1v1h-1V33z"/><path d="M12 32h2v1h-2v-1zm1 7h1v1h-1v-1z"/><path d="M14 40h1v1h-1v-1zm-2-2h1v1h-1v-1z"/><path d="M10 37h2v1h-2v-1zm-2-6h4v1H8v-1z"/><path d="M7,32h1v4H7V32z"/><path d="M8,36h2v1H8V36z"/></g></g><g class="gotchi-wearable wearable-body"><svg x="12" y="33"><g><path d="M34 0v1h-1v1h-1v1h-1v1h-1v1h-1v1h-2v1h-2v1h-3v1h-4V8h-3V7h-2V6h-2V5h-1V4H9V3H8V2H7V1H6V0H3v19h34V0z" fill="#1e1e1e"/><path d="M34,1v1h-1v1h-1v1h-1v1h-1v1h-1v1h-2v1h-2v1h-3v1h-4V9h-3V8h-2V7h-2V6h-1V5H9V4H8V3H7V2H6V1H4v17h32V1H34z"/><g fill="#fff"><path d="M8 13H7v-2H6v5h1v-2h1v2h1v-5H8v2zm3-2h1v1h-1v-1z"/><path d="M12 14h-1v-2h-1v4h1v-1h1v1h1v-4h-1v2zm5-3v5h1v-2h1v-1h-1v-1h1v-1h-2zm-2 0h-1v5h2v-1h-1v-4zm6 0v5h1v-4h1v-1h-2zm10 0v1h1v4h1v-4h1v-1h-3zm-7 2h2v1h-2v-1zm5-1h1v1h-1v-1zm-5-1h2v1h-2v-1zm0 4h2v1h-2v-1zm5-1h1v2h-1v-2z"/><path d="M28,11h-1v5h1v-2h1v-1h-1V11z"/></g><g class="gotchi-sleeves gotchi-sleeves-left gotchi-sleeves-up"><path d="M38 0v1h-1v8h1V8h1V7h1V0z" fill="#1e1e1e"/><path d="M37,8h1V7h1V1h-1v1h-1V8z"/></g><g class="gotchi-sleeves gotchi-sleeves-left gotchi-sleeves-down"><path d="M39 3V2h-1V1h-1v8h1v1h2V3z" fill="#1e1e1e"/><path d="M37,8h1v1h1V3h-1V2h-1V8z"/></g><g class="gotchi-sleeves gotchi-sleeves-right gotchi-sleeves-up"><path d="M2 1V0H0v7h1v1h1v1h1V1z" fill="#1e1e1e"/><path d="M3,2H2V1H1v6h1v1h1V2z"/></g><g class="gotchi-sleeves gotchi-sleeves-right gotchi-sleeves-down"><path d="M2 1v1H1v1H0v7h2V9h1V1z" fill="#1e1e1e"/><path d="M3,2H2v1H1v6h1V8h1V2z"/></g></g></svg></g><g class="gotchi-wearable wearable-eyes"><svg x="15" y="22"><path d="M2.1 7.9v-2h-2V2.1h2v-2h29.8v2h2v3.8h-2v2z"/><path d="M31.8.2v2h2v3.5h-2v2.1H2.2v-2h-2V2.2h2v-2h29.6M32 0H2v2H0v4h2v2h30V6h2V2h-2V0z" fill="#c8c8c8"/><path d="M2 2h30v4H2z"/><path d="M26,2v4h2V2H26z" fill="#c260ff"/><g fill="#c8c8c8"><path d="M2,0h30v2H2V0z"/><path d="M0 2h2v4H0V2zm32 0h2v4h-2V2z"/><path d="M2,6h30v2H2V6z"/></g></svg></g><g class="gotchi-wearable wearable-head"><svg x="11" y="6"><path d="M41 18v-1h-1v-1h-2v8h2v-1h1v-1h1v-4zM2 17H1v1H0v4h1v1h1v1h2v-8H2z" fill="#e4c596"/><path d="M38 16h2v3h-2v-3zM2 16h2v3H2v-3z" fill="#604838"/><path d="M28 35v-1h2v-1h1v-1h1v-1h1v-1h1v-1h1v-1h1v-1h2V8h-2V6h-2V4h-4V2h-4V0H16v2h-4v2H8v2H6v2H4v19h2v1h1v1h1v1h1v1h1v1h1v1h1v1h2v1h2v1h10v-1h2z" fill="#855d43"/><path d="M32 16v-2h-8v2h-2v8h-2V14H10v2H8v8h2v2h4v1h-1v1h-2v2h1v1h2v1h2v1h2v2h6v-2h2v-1h2v-1h2v-1h1v-2h-2v-1h-1v-1h4v-2h2v-8z" fill="#e4c596"/><path d="M14,29h14v1H14V29z" fill="#d78784"/><path d="M17,30h8v1h-8V30z" fill="#f9b7b2"/><path d="M16 16h-4v2h-2v4h2v2h4v-2h2v-4h-2zm14 2v-2h-4v2h-2v4h2v2h4v-2h2v-4z" fill="#412c18"/><path d="M16 16h2v2h-2v-2zm0 6h2v2h-2v-2zm8-6h2v2h-2v-2zm0 6h2v2h-2v-2z" fill="#fff"/><path d="M12 18h4v4h-4zm14 0h4v4h-4z" fill="#13100e"/><path d="M18 26h6v2h-6z" fill="#604838"/></svg></g><g class="gotchi-wearable wearable-hand wearable-hand-left"><svg x="0" y="23"><path d="M16 7V3h1V0h-2v1h-2v1h-3v1H7V2H4V1H2V0H0v3h1v4h1v16H1v4H0v3h2v-1h2v-1h3v-1h3v1h3v1h2v1h2v-3h-1v-4h-1V7z"/><path d="M15 1v1h-2v1h-3v1H7V3H4V2H2V1H1v2h1v4h1v16H2v4H1v2h1v-1h2v-1h3v-1h3v1h3v1h2v1h1v-2h-1v-4h-1V7h1V3h1V1h-1z" fill="#f696c6"/><path d="M5 15v1H4v1H3V7h1V5h8v1h1v1h1v8h-1v1h-1v-2h-1v1z" fill="#64438e"/><path d="M15,27v-4h-1v-5H9v1H8v-1H3v5H2v4H1v2h1v-1h2v-1h3v-1h1v-1h1v1h1v1h3v1h2v1h1v-2H15z" fill="#dc3291"/><g fill="#cd0073"><path d="M9 24h1v1H9zm-2 0h1v1H7z"/><path d="M8 25h1v1H8zm3-5h1v1h-1zm-6 0h1v1H5zm3 0h1v1H8z"/><path d="M6 21h2v1H6zm3 0h2v1H9z"/></g><path d="M6 9v1H5v4h1v1h1v1H6v1H5v1h3v1h1v-1h2v-1h-1v-1H9v-1h2v-1h1V9z" fill="#ffe8d8"/><path d="M10 8h1v1h-1V8zM7 8h1v1H7V8z" fill="#4955ff"/><path d="M10 9h1v2h-1V9zM7 9h1v2H7V9z" fill="#00a9ff"/><path d="M10 11h1v1h-1v-1zm-3 0h1v1H7v-1z" fill="#494fa7"/><path d="M11 11h1v1h-1v-1zm-6 0h1v1H5v-1z" fill="#ffb299"/><path d="M7 6h1V4H6v3h1V6zm0 7v-1H6v1h1v1h3v-1H7zM3 4v2h1v1h1V4H3z" fill="#ff2d33"/><path d="M5 5h1v1H5V5zm4 3h1v4H9V8zM6 8h1v4H6V8z" fill="#fff"/></svg></g></svg>