<svg xmlns="http://www.w3.org/2000/svg" viewBox="0 0 64 64"><style>.gotchi-primary{fill:#B6509E;}.gotchi-secondary{fill:#CFEEF4;}.gotchi-cheek{fill:#F696C6;}.gotchi-eyeColor{fill:#36818E;}.gotchi-primary-mouth{fill:#B6509E;}.gotchi-sleeves-up{display:none;}.gotchi-handsUp{display:none;}.gotchi-handsDownOpen{display:block;}.gotchi-handsDownClosed{display:none;}
.gotchi-bg {
    display:none;
  }




svg {
  
  animation-duration:0.5s;
  animation-iteration-count: infinite;
  animation-timing-function: linear;
  animation-timing-function: steps(1);
}

.gotchi-shadow {
  
   
   animation-duration:0.5s;
   animation-iteration-count: infinite;
   animation-timing-function: linear;
   animation-timing-function: steps(2);
}

.gotchi-wearable {
  
  animation-duration:0.5s;
  animation-iteration-count: infinite;
  animation-timing-function: linear;
  animation-timing-function: steps(1);
}



.gotchi-handsDownClosed, .gotchi-handsUp, .gotchi-handsDownOpen, .gotchi-handsDownClosed, .gotchi-body, .gotchi-eyeColor, .gotchi-collateral, .gotchi-cheek, .gotchi-primary-mouth, .gotchi-wearable, .gotchi-sleeves   {
   
   animation-duration:0.5s;
   animation-iteration-count: infinite;
   animation-timing-function: linear;
   animation-timing-function: steps(2);
}

.wearable-hand {
  
  animation-duration:0.5s;
  animation-iteration-count: infinite;
  animation-timing-function: linear;
  animation-timing-function: steps(2);
}

@keyframes downHands {
  from {
    transform: translate(0px, -4px);
  }
 to {
    transform: translate(0px, -3px);
  }
}


@keyframes up {
  from {
    transform: translate(0px, 0);
  }
 to {
    transform: translate(0px, -1px);
  }
}


@keyframes down {
 from {
   transform: translate(0px, 0);
    }
 to {
      transform: translate(0px, 1px);
    }
}
</style><g class="gotchi-bg"><defs fill="#fff"><pattern id="a" patternUnits="userSpaceOnUse" width="4" height="4"><path d="M0 0h1v1H0zm2 2h1v1H2z"/></pattern><pattern id="b" patternUnits="userSpaceOnUse" x="0" y="0" width="2" height="2"><path d="M0 0h1v1H0z"/></pattern><pattern id="c" patternUnits="userSpaceOnUse" x="-2" y="0" width="8" height="1"><path d="M0 0h1v1H0zm2 0h1v1H2zm2 0h1v1H4z"/></pattern><pattern id="d" patternUnits="userSpaceOnUse" x="0" y="0" width="4" height="4"><path d="M0 0h1v1H0zm0 2h1v1H0zm1 0V1h1v1zm1 0h1v1H2zm0-1h1V0H2zm1 2h1v1H3z"/></pattern><pattern id="e" patternUnits="userSpaceOnUse" width="64" height="32"><path d="M4 4h1v1H4zm7 0h1v1h-1zm7 0h1v1h-1zm7 0h1v1h-1zm7 0h1v1h-1zm7 0h1v1h-1zm7 0h1v1h-1zm7 0h1v1h-1zm7 0h1v1h-1z"/><path fill="url(#a)" d="M0 8h64v7H0z"/><path fill="url(#b)" d="M0 16h64v1H0z"/><path fill="url(#c)" d="M0 18h64v1H0z"/><path fill="url(#b)" d="M22 18h15v1H22zM0 20h64v3H0z"/><path fill="url(#d)" d="M0 24h64v8H0z"/></pattern><mask id="f"><path fill="url(#e)" d="M0 0h64v32H0z"/></mask></defs><path fill="#fff" d="M0 0h64v32H0z"/><path fill="#dea8ff" class="gotchi-secondary" mask="url(#f)" d="M0 0h64v32H0z"/><path fill="#dea8ff" class="gotchi-secondary" d="M0 32h64v32H0z"/><path mask="url(#f)" fill="#fff" transform="matrix(1 0 0 -1 0 64)" d="M0 0h64v32H0z"/></g><g class="gotchi-body"><g class="gotchi-primary"><path d="M21 12h2v-2h-4v2h1z"/><path d="M19 14v-2h-2v2h1zm6-4h2V8h-4v2h1z"/><path d="M29 8h8V6H27v2h1zm16 6h2v-2h-2v1z"/><path d="M48 14h-1v39h-2v2h4V14zm-11-4h4V8h-4v1z"/><path d="M41 12h4v-2h-4v1zM17 53V14h-2v41h4v-2h-1z"/><path d="M24 51h-5v2h5v-1z"/><path d="M27 53h-3v2h5v-2h-1zm18-2h-5v2h5v-1z"/><path d="M35 51h-6v2h6v-1z"/><path d="M38 53h-3v2h5v-2h-1z"/></g><g class="gotchi-secondary"><path d="M18 43v6h2v-1h2v1h2v2h-5v2h-2V14h2v1h-1v26z"/><path d="M27 51h-3v2h5v-2h-1zm11 0h-3v2h5v-2h-1z"/><path d="M35 49h-2v-1h-2v1h-2v2h6v-1zM25 11h2v-1h-4v1h1zm-4 2h2v-1h-4v1h1zm24 31v5h-1v-1h-2v1h-2v2h5v2h2V14h-2v29z"/><path d="M37 8H27v1h5v1h5V9zm8 4h-4v2h4v-1z"/><path d="M41 10h-4v2h4v-1z"/></g><path d="M44 14h-3v-2h-4v-2h-5V9h-5v2h-4v2h-4v2h-1v34h2v-1h2v1h2v2h5v-2h2v-1h2v1h2v2h5v-2h2v-1h2v1h1V14z" fill="#fff"/></g><path class="gotchi-cheek" d="M21 32v2h2v-2h-1zm21 0h-1v2h2v-2z"/><g class="gotchi-primary-mouth"><path d="M29 32h-2v2h2v-1z"/><path d="M33 34h-4v2h6v-2h-1z"/><path d="M36 32h-1v2h2v-2z"/></g><g class="gotchi-shadow"><path opacity=".25" d="M25 58H19v1h1v1h24V59h1V58h-1z" fill="#000"/></g><g class="gotchi-eyeColor"><g class="gotchi-primary"><path d="M23 22h-1v1h1v-1zm5 5h-1v1h1v-1zm-5-1h-1v1h1v-1z" /><path d="M22 25h-1v1h1v-1zm0-2h-1v1h1v-1z" /></g><path d="M23 24h-1v1h1v-1z" /><path d="M27 22h-1v1h1v-1z" class="gotchi-primary" /><path d="M25 22h-1v1h1v-1zm2 4h-1v1h1v-1z" /><path d="M29 26h-1v1h1v-1z" class="gotchi-primary" /><path d="M25 26h-1v1h1v-1z" /><path d="M29 24h-1v1h1v-1z" class="gotchi-primary" /><path d="M25 24h-1v1h1v-1zm2 0h-1v1h1v-1z" /><path d="M27 28h-1v1h1v-1zm-2 0h-1v1h1v-1zm1-7h-1v1h1v-1zm-2 0h-1v1h1v-1z" class="gotchi-primary" /><path d="M28 25h-1v1h1v-1zm-2 0h-1v1h1v-1zm-2 0h-1v1h1v-1z" /><path d="M28 23h-1v1h1v-1z" class="gotchi-primary" /><path d="M24 23h-1v1h1v-1zm2 0h-1v1h1v-1zm0 4h-1v1h1v-1z" /><g class="gotchi-primary"> <path d="M24 27h-1v1h1v-1zm18-5h-1v1h1v-1zm-5 5h-1v1h1v-1zm5-1h-1v1h1v-1z" /><path d="M43 25h-1v1h1v-1z" /></g> <path d="M42 24h-1v1h1v-1z" /><path d="M43 23h-1v1h1v-1zm-5-1h-1v1h1v-1z" class="gotchi-primary" /><g> <path d="M37 25h-1v1h1v-1zm4 0h-1v1h1v-1z" /><path d="M38 26h-1v1h1v-1z" /></g> <path d="M37 23h-1v1h1v-1z" class="gotchi-primary" /><path d="M38 24h-1v1h1v-1zm3-1h-1v1h1v-1z" /><path d="M38 28h-1v1h1v-1z" class="gotchi-primary" /><path d="M39 23h-1v1h1v-1z" /><path d="M39 21h-1v1h1v-1z" class="gotchi-primary" /><path d="M40 22h-1v1h1v-1z" /><path d="M41 21h-1v1h1v-1z" class="gotchi-primary" /><g> <path d="M40 26h-1v1h1v-1z" /><path d="M39 25h-1v1h1v-1z" /></g> <path d="M36 26h-1v1h1v-1zm0-2h-1v1h1v-1z" class="gotchi-primary" /><path d="M40 24h-1v1h1v-1z" /><g class="gotchi-primary"> <path d="M41 27h-1v1h1v-1z" /><path d="M40 28h-1v1h1v-1z" /></g> <path d="M39 27h-1v1h1v-1z" /></g><g class="gotchi-collateral" fill="#a73796"><path d="M30.5 15h1v-2h-1z"/><path d="M31.5 12h1v1h-1z"/><path d="M33.5 13h-1v2h1zm-4 3h-2v1h1v2h1v-2h2v-1h-1v-1h-1z"/><path d="M34.5 15h-1v2h1z"/><path d="M35.5 17h-1v2h1zm-8 4h1v-2h-1z"/><path d="M35.5 19v2h1v-2z"/></g><g class="gotchi-wearable wearable-body"><svg x="7" y="31"><path d="M38,2v4h-1v1h-4v1H17V7h-4V6h-1V2H8v22h4v-2h5v2h5v-2h6v2h5v-2h5v2h4V2H38z" fill="#ff0"/><path d="M31,9h5v5h-5V9z" fill="#f60"/><path d="M32 10v1h1v-1h-1zm1 1v1h1v-1h-1zm1 0h1v-1h-1v1zm0 1v1h1v-1h-1zm-1 0h-1v1h1v-1z" fill="#fff"/><path d="M12 20v2h5v-2h-5zm5 2v2h5v-2h-5zm5 0h6v-2h-6v2zm6 0v2h5v-2h-5zm5 0h5v-2h-5v2zM8 23v1h4v-1H8zm30 0v1h4v-1h-4z"/><path d="M8 2v1h3v4h1v1h5V7h-4V6h-1V2H8zm9 6v1h16V8H17zm16 0h5V7h1V3h3V2h-4v4h-1v1h-4v1zM8 9v14h4v-1H9V9H8zm33 0v13h-3v1h4V9h-1z" fill="#d8d800"/><path d="M24 9h2v9h-2z"/><g fill="#252525"><path d="M24,9h1v1h-1V9z"/><path d="M25,10h1v1h-1V10z"/><path d="M24,11h1v1h-1V11z"/><path d="M25,12h1v1h-1V12z"/><path d="M24,13h1v1h-1V13z"/><path d="M25,14h1v1h-1V14z"/><path d="M24,15h1v1h-1V15z"/><path d="M25,16h1v1h-1V16z"/><path d="M24,17h1v1h-1V17z"/></g></svg></g><g class="gotchi-handsDownClosed"><g class="gotchi-primary"><path d="M19 42h1v1h-1zm1-6h1v1h-1z"/><path d="M21 37h1v1h-1zm5 3v4h1v-4zm-5 3h-1v1h2v-1z"/><path d="M24 44h-2v1h4v-1h-1zm1-5h-1v1h2v-1z"/><path d="M23 38h-1v1h2v-1z"/></g><g class="gotchi-secondary"><path d="M19 43h1v1h-1zm5 2h-2v1h4v-1h-1z"/><path d="M27 41v3h1v-3zm-6 3h-1v1h2v-1z"/><path d="M26 44h1v1h-1zm-7-3h-1v2h1v-1z"/></g><g class="gotchi-primary"><path d="M44 42h1v1h-1zm-1-6h1v1h-1z"/><path d="M42 37h1v1h-1z"/><path d="M42 39v-1h-2v1h1zm0 4v1h2v-1h-1z"/><path d="M40 44h-2v1h4v-1h-1z"/><path d="M38 42v-2h-1v4h1v-1z"/><path d="M40 40v-1h-2v1h1z"/></g><g class="gotchi-secondary"><path d="M42 44v1h2v-1h-1zm-5-2v-1h-1v3h1v-1z"/><path d="M40 45h-2v1h4v-1h-1z"/><path d="M37 44h1v1h-1zm7-1h1v1h-1z"/></g></g><g class="gotchi-handsDownOpen"><g class="gotchi-primary"><path d="M14 40h1v1h-1v-1zm-1-6h1v1h-1v-1z"/><path d="M14 33h1v1h-1v-1zm-2 2h1v1h-1v-1zm-5 3h1v4H7v-4zm5 3h2v1h-2v-1z"/><path d="M8 42h4v1H8v-1zm0-5h2v1H8v-1z"/><path d="M10,36h2v1h-2V36z"/></g><g class="gotchi-secondary"><path d="M14,39h1v1h-1V39z"/><path d="M12,40h2v1h-2V40z"/><path d="M8,41h4v1H8V41z"/></g><path d="M8,38v3h4v-1h2v-1h1v-5h-1v1h-1v1h-1v1h-2v1H8z" fill="#fff" /><g class="gotchi-primary"><path d="M49 40h1v1h-1v-1zm1-6h1v1h-1v-1z"/><path d="M49 33h1v1h-1v-1zm2 2h1v1h-1v-1zm5 3h1v4h-1v-4zm-6 3h2v1h-2v-1z"/><path d="M52 42h4v1h-4v-1zm2-5h2v1h-2v-1z"/><path d="M52,36h2v1h-2V36z"/></g><g class="gotchi-secondary"><path d="M49,39h1v1h-1V39z"/><path d="M50,40h2v1h-2V40z"/><path d="M52,41h4v1h-4V41z"/></g><path d="M54,38v-1h-2v-1h-1v-1h-1v-1h-1v5h1v1h2v1h4v-3H54z" fill="#fff" /></g><g class="gotchi-handsUp"><g class="gotchi-secondary"><path d="M50,38h1v1h-1V38z"/><path d="M49 39h1v1h-1v-1zm2-2h1v1h-1v-1z"/><path d="M52,36h2v1h-2V36z"/><path d="M54,35h2v1h-2V35z"/></g><path d="M52,32v1h-2v1h-1v5h1v-1h1v-1h1v-1h2v-1h2v-3H52z" fill="#fff"/><g class="gotchi-primary"><path d="M49,33h1v1h-1V33z"/><path d="M50 32h2v1h-2v-1zm0 7h1v1h-1v-1z"/><path d="M49 40h1v1h-1v-1zm2-2h1v1h-1v-1z"/><path d="M52 37h2v1h-2v-1zm0-6h4v1h-4v-1z"/><path d="M56,32h1v4h-1V32z"/><path d="M54,36h2v1h-2V36z"/></g><g class="gotchi-secondary"><path d="M13,38h1v1h-1V38z"/><path d="M14 39h1v1h-1v-1zm-2-2h1v1h-1v-1z"/><path d="M10,36h2v1h-2V36z"/><path d="M8,35h2v1H8V35z"/></g><path d="M8,32v3h2v1h2v1h1v1h1v1h1v-5h-1v-1h-2v-1H8z" fill="#fff"/><g class="gotchi-primary"><path d="M14,33h1v1h-1V33z"/><path d="M12 32h2v1h-2v-1zm1 7h1v1h-1v-1z"/><path d="M14 40h1v1h-1v-1zm-2-2h1v1h-1v-1z"/><path d="M10 37h2v1h-2v-1zm-2-6h4v1H8v-1z"/><path d="M7,32h1v4H7V32z"/><path d="M8,36h2v1H8V36z"/></g></g><g class="gotchi-wearable wearable-head"><svg x="15" y="6"><path d="M32 8V6h-2V4h-4V2h-4V0H12v2H8v2H4v2H2v2H0v20h3v4h1v1h5v1h16v-1h5v-1h1v-4h3V8h-2zm-9 21v2H11v-2H9v-1H7v-1H5V13h2v-1h2v-1h2V9h12v2h2v1h2v1h2v14h-2v1h-2v1h-2z" fill="#d8d800"/><path d="M13 1v1h-1v1H9v1H8v1H5v1H4v1H3v1H2v1H1v17h1v1h2v4h1v1h4v1h16v-1h4v-1h1v-4h2v-1h1V9h-1V8h-1V7h-1V6h-1V5h-3V4h-1V3h-3V2h-1V1h-8zm8 9v1h1v1h3v1h2v1h1v12h-1v1h-2v1h-2v1h-2v1h-8v-1h-2v-1H9v-1H7v-1H6V14h1v-1h2v-1h3v-1h1v-1h8z" fill="#ff0"/><g fill="#fff"><path d="M24 4h1v1h-1V4zm2 1h1v1h-1V5zm2 1h1v1h-1V6z"/><path d="M28,8V7h-2V6h-2V5h-2V4h-3v1h2v1h1v1h2v1h2v1h4V8H28z"/></g><path d="M12 11h1v-1h8v1h1v1h3v-1h-2V9H11v2H9v1h3zM7 27h2v1H7z"/><path d="M25 12h2v1h-2zm0 15h2v1h-2zM6 26V14h1v-1H5v14h2v-1z"/><path d="M7 12h2v1H7zm2 16h2v1H9z"/><path d="M27 13v1h1v12h-1v1h2V13zm-6 17h-8v-1h-2v2h12v-2h-2z"/><path d="M23 28h2v1h-2z"/><linearGradient id="A" gradientUnits="userSpaceOnUse" x1="17" y1="30.567" x2="17" y2="9.815"><stop offset="0" stop-color="#e1e1e1"/><stop offset="1" stop-color="#fff" stop-opacity="0"/></linearGradient><path d="M13 11v-1h8v1h1v1h3v1h2v1h1v12h-1v1h-2v1h-2v1h-2v1h-8v-1h-2v-1H9v-1H7v-1H6V14h1v-1h2v-1h3v-1h1z" fill="url(#A)"/></svg></g>"><svg x="7" y="31"><g><g class="gotchi-sleeves gotchi-sleeves-left gotchi-sleeves-up"><path d="M49 1V0h-4v1h-2v1h-1v8h1V9h1V8h1V7h2V6h2V5h1V1z" fill="#ff0"/><path d="M43 10V9h-1v1h1zm0-1h1V8h-1v1zm1-1h1V7h-1v1zm-1-5V2h-1v1h1zm0-1h1V1h-1v1z" fill="#d8d800"/><path d="M49 1V0h-4v1h-1v5h1v1h2V6h2V5h1V1z"/><path d="M45,1h4v1h-4V1z" fill="#666"/></g><g class="gotchi-sleeves gotchi-sleeves-left gotchi-sleeves-down"><path d="M49 7V6h-2V5h-2V4h-1V3h-1V2h-1v8h1v1h2v1h4v-1h1V7z" fill="#ff0"/><path d="M42 2v1h1V2h-1zm1 2h1V3h-1v1zm1 1h1V4h-1v1zm-2 4v1h1V9h-1zm1 2h1v-1h-1v1z" fill="#d8d800"/><path d="M49 7V6h-2V5h-2v1h-1v5h1v1h4v-1h1V7z"/><path d="M45,10h4v1h-4V10z" fill="#666"/></g><g class="gotchi-sleeves gotchi-sleeves-right gotchi-sleeves-up"><path d="M7 2V1H5V0H1v1H0v4h1v1h2v1h2v1h1v1h1v1h1V2z" fill="#ff0"/><path d="M8 10V9H7v1h1zM7 8H6v1h1V8zM6 7H5v1h1V7zm2-4V2H7v1h1zM7 1H6v1h1V1z" fill="#d8d800"/><path d="M5 1V0H1v1H0v4h1v1h2v1h2V6h1V1z"/><path d="M1 1h4v1H1V1z" fill="#666"/></g><g class="gotchi-sleeves gotchi-sleeves-right gotchi-sleeves-down"><path d="M7 2v1H6v1H5v1H3v1H1v1H0v4h1v1h4v-1h2v-1h1V2z" fill="#ff0"/><path d="M7 2v1h1V2H7zm0 1H6v1h1V3zM6 4H5v1h1V4zm1 5v1h1V9H7zm0 1H6v1h1v-1z" fill="#d8d800"/><path d="M5 6V5H3v1H1v1H0v4h1v1h4v-1h1V6z"/><path d="M1 10h4v1H1v-1z" fill="#666"/></g></g></svg><g class="gotchi-wearable wearable-hand wearable-hand-left"><svg x="1" y="21"><path d="M16 10V7h-1V6h-2V5h-1V4h-1V3h-1V0H6v3H5v1H4v1H3v1H1v1H0v3h1v3H0v4h1v3H0v3h1v1h1v1h1v1h10v-1h1v-1h1v-1h1v-3h-1v-3h1v-4h-1v-3z" fill="#1ca9d7"/><path d="M13 7V6h-1V5h-1V4h-1V3H6v1H5v1H4v1H3v1H1v3h14V7zM1 13h14v4H1z" fill="#40e9ff"/><path d="M2 11h12v2H2zm0 7h12v2H2z" fill="#0dbbff"/><path d="M1 20v3h1v1h1v1h10v-1h1v-1h1v-3z" fill="#40e9ff"/><path d="M6 0h4v3H6z" fill="#1c8dd7"/><path d="M6,0v1h1v2h1V1h2V0H6z" fill="#2e9ddb"/><path d="M5 4v1H4v5h2V4H5zM4 20v5h2v-5H4zm1-7H4v4h1v-4z" fill="#66f4ff"/><path d="M13 7V6h-1V5h-1v5h4V7h-2zm-2 13v5h2v-1h1v-1h1v-3h-4zm0-7v4h4v-4h-4zm-9 7h1v-2H2v2zm0-7h1v-2H2v2z" fill="#00d5e5"/><path d="M3 6v1H2v3h2V6H3zM2 20v4h1v1h1v-5H2zm0-7v4h2v-4H2z" fill="#b3f6ff"/><path d="M1 23h1v-3H1v3zm0-6h1v-4H1v4zM1 7v3h1V7H1z" fill="#fff"/></svg></g><g class="gotchi-wearable wearable-hand wearable-hand-right"><svg x="7" y="24"><g transform="scale(-1, 1) translate(-50, 0)"><path d="M6 3V2H5V1H4V0H3v1H2v1H1v1H0v2h1v1h1v1h1v24h1V7h1V6h1V5h1V3z" fill="#64438e"/><path d="M1 3h5v2H1z" fill="#c260ff"/><path d="M2 2h3v4H2z" fill="#dea8ff"/><path d="M3,1v6h1V1H3z" fill="#edd3fd"/></g></svg></g></svg>