<svg xmlns="http://www.w3.org/2000/svg" viewbox="0 0 64 64"><svg xmlns="http://www.w3.org/2000/svg" viewBox="0 0 64 64"><style>.gotchi-primary{fill:#FF2A7A;}.gotchi-secondary{fill:#FFC3DF;}.gotchi-cheek{fill:#F696C6;}.gotchi-eyeColor{fill:#EA8C27;}.gotchi-primary-mouth{fill:#FF2A7A;}.gotchi-sleeves-up{display:none;}.gotchi-handsUp{display:none;}.gotchi-handsDownOpen{display:block;}.gotchi-handsDownClosed{display:none;}
.gotchi-bg {
    display:none;
  }




svg {
  
  animation-duration:0.5s;
  animation-iteration-count: infinite;
  animation-timing-function: linear;
  animation-timing-function: steps(1);
}

.gotchi-shadow {
  
   
   animation-duration:0.5s;
   animation-iteration-count: infinite;
   animation-timing-function: linear;
   animation-timing-function: steps(2);
}

.gotchi-wearable {
  
  animation-duration:0.5s;
  animation-iteration-count: infinite;
  animation-timing-function: linear;
  animation-timing-function: steps(1);
}



.gotchi-handsDownClosed, .gotchi-handsUp, .gotchi-handsDownOpen, .gotchi-handsDownClosed, .gotchi-body, .gotchi-eyeColor, .gotchi-collateral, .gotchi-cheek, .gotchi-primary-mouth, .gotchi-wearable, .gotchi-sleeves   {
   
   animation-duration:0.5s;
   animation-iteration-count: infinite;
   animation-timing-function: linear;
   animation-timing-function: steps(2);
}

.wearable-hand {
  
  animation-duration:0.5s;
  animation-iteration-count: infinite;
  animation-timing-function: linear;
  animation-timing-function: steps(2);
}

@keyframes downHands {
  from {
    transform: translate(0px, -4px);
  }
 to {
    transform: translate(0px, -3px);
  }
}


@keyframes up {
  from {
    transform: translate(0px, 0);
  }
 to {
    transform: translate(0px, -1px);
  }
}


@keyframes down {
 from {
   transform: translate(0px, 0);
    }
 to {
      transform: translate(0px, 1px);
    }
}
</style><g class="gotchi-bg"><defs fill="#fff"><pattern id="a" patternUnits="userSpaceOnUse" width="4" height="4"><path d="M0 0h1v1H0zm2 2h1v1H2z"></path></pattern><pattern id="b" patternUnits="userSpaceOnUse" x="0" y="0" width="2" height="2"><path d="M0 0h1v1H0z"></path></pattern><pattern id="c" patternUnits="userSpaceOnUse" x="-2" y="0" width="8" height="1"><path d="M0 0h1v1H0zm2 0h1v1H2zm2 0h1v1H4z"></path></pattern><pattern id="d" patternUnits="userSpaceOnUse" x="0" y="0" width="4" height="4"><path d="M0 0h1v1H0zm0 2h1v1H0zm1 0V1h1v1zm1 0h1v1H2zm0-1h1V0H2zm1 2h1v1H3z"></path></pattern><pattern id="e" patternUnits="userSpaceOnUse" width="64" height="32"><path d="M4 4h1v1H4zm7 0h1v1h-1zm7 0h1v1h-1zm7 0h1v1h-1zm7 0h1v1h-1zm7 0h1v1h-1zm7 0h1v1h-1zm7 0h1v1h-1zm7 0h1v1h-1z"></path><path fill="url(#a)" d="M0 8h64v7H0z"></path><path fill="url(#b)" d="M0 16h64v1H0z"></path><path fill="url(#c)" d="M0 18h64v1H0z"></path><path fill="url(#b)" d="M22 18h15v1H22zM0 20h64v3H0z"></path><path fill="url(#d)" d="M0 24h64v8H0z"></path></pattern><mask id="f"><path fill="url(#e)" d="M0 0h64v32H0z"></path></mask></defs><path fill="#fff" d="M0 0h64v32H0z"></path><path fill="#dea8ff" class="gotchi-secondary" mask="url(#f)" d="M0 0h64v32H0z"></path><path fill="#dea8ff" class="gotchi-secondary" d="M0 32h64v32H0z"></path><path mask="url(#f)" fill="#fff" transform="matrix(1 0 0 -1 0 64)" d="M0 0h64v32H0z"></path></g><g class="gotchi-body"><g class="gotchi-primary"><path d="M21 12h2v-2h-4v2h1z"></path><path d="M19 14v-2h-2v2h1zm6-4h2V8h-4v2h1z"></path><path d="M29 8h8V6H27v2h1zm16 6h2v-2h-2v1z"></path><path d="M48 14h-1v39h-2v2h4V14zm-11-4h4V8h-4v1z"></path><path d="M41 12h4v-2h-4v1zM17 53V14h-2v41h4v-2h-1z"></path><path d="M24 51h-5v2h5v-1z"></path><path d="M27 53h-3v2h5v-2h-1zm18-2h-5v2h5v-1z"></path><path d="M35 51h-6v2h6v-1z"></path><path d="M38 53h-3v2h5v-2h-1z"></path></g><g class="gotchi-secondary"><path d="M18 43v6h2v-1h2v1h2v2h-5v2h-2V14h2v1h-1v26z"></path><path d="M27 51h-3v2h5v-2h-1zm11 0h-3v2h5v-2h-1z"></path><path d="M35 49h-2v-1h-2v1h-2v2h6v-1zM25 11h2v-1h-4v1h1zm-4 2h2v-1h-4v1h1zm24 31v5h-1v-1h-2v1h-2v2h5v2h2V14h-2v29z"></path><path d="M37 8H27v1h5v1h5V9zm8 4h-4v2h4v-1z"></path><path d="M41 10h-4v2h4v-1z"></path></g><path d="M44 14h-3v-2h-4v-2h-5V9h-5v2h-4v2h-4v2h-1v34h2v-1h2v1h2v2h5v-2h2v-1h2v1h2v2h5v-2h2v-1h2v1h1V14z" fill="#fff"></path></g><path class="gotchi-cheek" d="M21 32v2h2v-2h-1zm21 0h-1v2h2v-2z"></path><g><g class="gotchi-primary-mouth">
<path d="M33 34h-4v2h6v-2h-1z">
</path></g></g><g class="gotchi-shadow"><path opacity=".25" d="M25 58H19v1h1v1h24V59h1V58h-1z" fill="#000"></path></g><g class="gotchi-eyeColor"><path d="M25 22h2v-1h-4v1h2z" class="gotchi-primary"></path><path d="M27 25h-6v1h8v-1h-2zm0-2h-6v1h8v-1h-2z"></path><path d="M26 27h-4v1h6v-1h-2z" class="gotchi-primary"></path><path d="M41 25h-6v1h8v-1h-2zm1-2h-7v1h8v-1h-1z"></path><path d="M39 22h2v-1h-4v1h2zm1 5h-4v1h6v-1h-2z" class="gotchi-primary"></path></g><g class="gotchi-collateral"><path d="M30 9V8h-1v1h-1v2h1v1h2V9z" fill="#ffc2db"></path><path d="M28 7V6h-1v2h2V7z" fill="#ffdeec"></path><path d="M26 5h1v1h-1z" fill="#fff"></path><path d="M33 13v-2h-1v1h-1v1h-2v1h1v1h4v-2z" fill="#ff88b8"></path><g fill="#ff3085"><path d="M27 5V4h-1V3h-1v3h1V5z"></path><path d="M27 5h1v1h-1z"></path><path d="M28 6h1v1h-1z"></path><path d="M29 7h1v1h-1z"></path><path d="M30 8h1v1h-1zm-2 1h1V8h-2v3h1z"></path><path d="M31 13v-1h-2v-1h-1v3h1v-1z"></path><path d="M31 12h1v-1h1v-1h-1V9h-1z"></path><path d="M34 12v-1h-1v2h1v2h1v-3z"></path><path d="M30 15v-1h-1v2h5v-1zm-4-9h1v2h-1z"></path></g></g><g class="gotchi-wearable wearable-body"><svg x="12" y="33"><path d="M35 1v1h-2v1h-2v1h-2v1h-2v1h-2v1H15V6h-2V5h-2V4H9V3H7V2H5V1H3v22h4v-2h5v2h5v-2h6v2h5v-2h5v2h4V1z" fill="#141b30"></path><g fill="#fff"><path d="M22,6v2h-1v4h1V9h1V7h2V6H22z"></path><path d="M25 5v1h2V5h-2zM13 5v1h2V5h-2z"></path><path d="M18,7V6h-3v1h2v2h1v3h1V8h-1V7z"></path></g><g fill="#343a4c"><path d="M17 13h-1v-1h-1v-1h-1v-1h-2V9h-2V8H9V7H7V6H5V3H4v17h15v-1h-1v-1h1v-1h-1v-1h1v-1h-1v-1h-1v-1zM7 14h5v1H7v-1zm0 5v-3h5v3H7z"></path><path d="M18 11V9h-1V7h-2V6h-2V5h-2V4H9V3H7V2H5v1h1v2h1v1h2v1h1v1h2v1h2v1h1v1h1v1h1v1h1v1h1v-2h-1v-1zm-5-3V7h1v1h-1z"></path><path d="M4 1h1v1H4V1zm29 1v1h-2v1h-2v1h-2v1h-2v1h-2v2h-1v3h-2v3h1v-1h1v-1h1v-1h1v-1h1v-1h2V9h1V8h1V7h2V6h2V5h1V3h1V2h-2zm-7 6V7h1v1h-1z"></path><path d="M35 1h1v1h-1V1zm0 5h-2v1h-2v1h-2v1h-1v1h-1v1h-2v1h-1v1h-1v1h-1v1h-1v1h-1v1h1v1h-1v2h16V3h-1v3zm-7 8h5v1h-5v-1zm0 5v-3h5v3h-5z"></path></g></svg></g><g class="gotchi-handsDownClosed"><g class="gotchi-primary"><path d="M19 42h1v1h-1zm1-6h1v1h-1z"></path><path d="M21 37h1v1h-1zm5 3v4h1v-4zm-5 3h-1v1h2v-1z"></path><path d="M24 44h-2v1h4v-1h-1zm1-5h-1v1h2v-1z"></path><path d="M23 38h-1v1h2v-1z"></path></g><g class="gotchi-secondary"><path d="M19 43h1v1h-1zm5 2h-2v1h4v-1h-1z"></path><path d="M27 41v3h1v-3zm-6 3h-1v1h2v-1z"></path><path d="M26 44h1v1h-1zm-7-3h-1v2h1v-1z"></path></g><g class="gotchi-primary"><path d="M44 42h1v1h-1zm-1-6h1v1h-1z"></path><path d="M42 37h1v1h-1z"></path><path d="M42 39v-1h-2v1h1zm0 4v1h2v-1h-1z"></path><path d="M40 44h-2v1h4v-1h-1z"></path><path d="M38 42v-2h-1v4h1v-1z"></path><path d="M40 40v-1h-2v1h1z"></path></g><g class="gotchi-secondary"><path d="M42 44v1h2v-1h-1zm-5-2v-1h-1v3h1v-1z"></path><path d="M40 45h-2v1h4v-1h-1z"></path><path d="M37 44h1v1h-1zm7-1h1v1h-1z"></path></g></g><g class="gotchi-handsDownOpen"><g class="gotchi-primary"><path d="M14 40h1v1h-1v-1zm-1-6h1v1h-1v-1z"></path><path d="M14 33h1v1h-1v-1zm-2 2h1v1h-1v-1zm-5 3h1v4H7v-4zm5 3h2v1h-2v-1z"></path><path d="M8 42h4v1H8v-1zm0-5h2v1H8v-1z"></path><path d="M10,36h2v1h-2V36z"></path></g><g class="gotchi-secondary"><path d="M14,39h1v1h-1V39z"></path><path d="M12,40h2v1h-2V40z"></path><path d="M8,41h4v1H8V41z"></path></g><path d="M8,38v3h4v-1h2v-1h1v-5h-1v1h-1v1h-1v1h-2v1H8z" fill="#fff"></path><g class="gotchi-primary"><path d="M49 40h1v1h-1v-1zm1-6h1v1h-1v-1z"></path><path d="M49 33h1v1h-1v-1zm2 2h1v1h-1v-1zm5 3h1v4h-1v-4zm-6 3h2v1h-2v-1z"></path><path d="M52 42h4v1h-4v-1zm2-5h2v1h-2v-1z"></path><path d="M52,36h2v1h-2V36z"></path></g><g class="gotchi-secondary"><path d="M49,39h1v1h-1V39z"></path><path d="M50,40h2v1h-2V40z"></path><path d="M52,41h4v1h-4V41z"></path></g><path d="M54,38v-1h-2v-1h-1v-1h-1v-1h-1v5h1v1h2v1h4v-3H54z" fill="#fff"></path></g><g class="gotchi-handsUp"><g class="gotchi-secondary"><path d="M50,38h1v1h-1V38z"></path><path d="M49 39h1v1h-1v-1zm2-2h1v1h-1v-1z"></path><path d="M52,36h2v1h-2V36z"></path><path d="M54,35h2v1h-2V35z"></path></g><path d="M52,32v1h-2v1h-1v5h1v-1h1v-1h1v-1h2v-1h2v-3H52z" fill="#fff"></path><g class="gotchi-primary"><path d="M49,33h1v1h-1V33z"></path><path d="M50 32h2v1h-2v-1zm0 7h1v1h-1v-1z"></path><path d="M49 40h1v1h-1v-1zm2-2h1v1h-1v-1z"></path><path d="M52 37h2v1h-2v-1zm0-6h4v1h-4v-1z"></path><path d="M56,32h1v4h-1V32z"></path><path d="M54,36h2v1h-2V36z"></path></g><g class="gotchi-secondary"><path d="M13,38h1v1h-1V38z"></path><path d="M14 39h1v1h-1v-1zm-2-2h1v1h-1v-1z"></path><path d="M10,36h2v1h-2V36z"></path><path d="M8,35h2v1H8V35z"></path></g><path d="M8,32v3h2v1h2v1h1v1h1v1h1v-5h-1v-1h-2v-1H8z" fill="#fff"></path><g class="gotchi-primary"><path d="M14,33h1v1h-1V33z"></path><path d="M12 32h2v1h-2v-1zm1 7h1v1h-1v-1z"></path><path d="M14 40h1v1h-1v-1zm-2-2h1v1h-1v-1z"></path><path d="M10 37h2v1h-2v-1zm-2-6h4v1H8v-1z"></path><path d="M7,32h1v4H7V32z"></path><path d="M8,36h2v1H8V36z"></path></g></g><g class="gotchi-wearable wearable-face"><svg x="15" y="19"><g fill="#7d0064"><path d="M36 6h2v2h-2z"></path><path d="M38 4V0h-2v2h-2v2h-4V3h-2V2h-2V1h-4v1h-2v1h-2v1h-2V3h-2V2h-2V1H8v1H6v1H4v1H0v6h4v1h2v1h2v1h4v-1h2v-1h2v-1h2v1h2v1h2v1h4v-1h2v-1h2v-1h4V6h2V4z"></path></g><path d="M30 5V4h-2V3h-2V2h-4v1h-2v1h-2v1h-2V4h-2V3h-2V2H8v1H6v1H4v1H0v4h4v1h2v1h2v1h4v-1h2v-1h2V9h2v1h2v1h2v1h4v-1h2v-1h2V9h4V5h-4z" fill="#a73796"></path><g fill="#7d0064"><path d="M26,2v1h2V2H26z"></path><path d="M28 3v1h2V3h-2zm-6-2v1h4V1h-4z"></path><path d="M20 2v1h2V2h-2zm-8 0v1h2V2h-2z"></path><path d="M8,1v1h4V1H8z"></path><path d="M6,2v1h2V2H6z"></path><path d="M4,3v1h2V3H4z"></path><path d="M0 4v1h4V4H0zm16 0v1h2V4h-2z"></path><path d="M14 3v1h2V3h-2zm4 0v1h2V3h-2zM8 12v1h4v-1H8z"></path><path d="M6,11v1h2v-1H6z"></path><path d="M4,10v1h2v-1H4z"></path><path d="M0 9v1h4V9H0zm12 2v1h2v-1h-2zm8 0v1h2v-1h-2z"></path><path d="M22,12v1h4v-1H22z"></path><path d="M26,11v1h2v-1H26z"></path><path d="M28,10v1h2v-1H28z"></path><path d="M30 9v1h4V9h-4zm-16 1v1h2v-1h-2z"></path><path d="M16,9v1h2V9H16z"></path><path d="M18 10v1h2v-1h-2zm18-2h2V6h-2v2z"></path><path d="M36,0v2h-2v2h-4v1h4v1h2V4h2V0H36z"></path></g><path d="M26 6V5h-1V4h-2v1h-1v1h-1v2h1v1h1v1h2V9h1V8h1V6z" fill="#fff"></path><path d="M23 6h2v2h-2z" fill="#7d0064"></path><path d="M12 5h-1V4H9v1H8v1H7v2h1v1h1v1h2V9h1V8h1V6h-1z" fill="#fff"></path><path d="M9 6h2v2H9z" fill="#7d0064"></path></svg></g><g class="gotchi-wearable wearable-eyes"><svg x="15" y="19"><path d="M31 5V3h-1V2h-1V1h-1V0h-6v1h-1v1h-1v1h-1v2h-4V3h-1V2h-1V1h-1V0H6v1H5v1H4v1H3v2H0v2h3v2h1v1h1v1h1v1h6v-1h1v-1h1V9h1V7h4v2h1v1h1v1h1v1h6v-1h1v-1h1V9h1V7h3V5z" fill="red"></path><path d="M13 2h-1V1H6v1H5v1H4v6h1v1h1v1h6v-1h1V9h1V3h-1V2zm16 0h-1V1h-6v1h-1v1h-1v6h1v1h1v1h6v-1h1V9h1V3h-1V2z"></path><path d="M8,2v1H7v1H6v2h3V2H8z" fill="#7d7d7d"></path><path d="M9,6v4h1V9h1V8h1V6H9z" fill="#282828"></path><g fill="#464646"><path d="M6,6v2h1v1h1v1h1V6H6z"></path><path d="M11,4V3h-1V2H9v4h3V4H11z"></path></g><g fill="#646464"><path d="M26.5 4.6h1v1h-1v-1zm0 2h1v1h-1v-1z"></path><path d="M24.5 5.6v-1h2v-1h-1v-1h-1v1h-2v1h1v3h-1v1h2v1h1v-1h1v-1h-2v-1h2v-1h-2z"></path></g></svg></g><g class="gotchi-wearable wearable-head"><svg x="11" y="0"><path d="M42 14v-4h-2V8h-2V6h-2V4h-2V2h-4V0H18v2h-4v2h-2v2h-2v2H8v2H6v4H4v4H2v2H0v2h42v-2h-2v-2h-2v-4h-2v-2h-2v-2h4v2h2v2z" fill="#009600"></path><path d="M36 16v-2h-4v-2h-2v-2h2V8h4V6h-2V4h-4V2H18v2h-4v2h-2v2h-2v2H8v4H6v2zM4 18h34v2H4z" fill="#51ffa8"></path><path d="M22 18v2h2v-2h-2zm-12 0v2h2v-2h-2zm4 0v2h2v-2h-2zm16 0v2h2v-2h-2zm-4 0v2h2v-2h-2zM6 18v2h2v-2H6zm28 0v2h2v-2h-2zm-16 0v2h2v-2h-2zm12-6v4h2v-4h-2zM10 8v8h2V8h-2zm20-4v6h2V4h-2zM14 4v12h2V4h-2zm8-2v14h2V2h-2zm4 0v14h2V2h-2zm-8 0v14h2V2h-2zM6 14v2h2v-2H6zm28 0v2h2v-2h-2zm0-8v2h2V6h-2z" fill="#e1fff1"></path><path d="M26 6V5h-1V4h-1V3h-4v1h-1v1h-1v1h-1v6h1v1h1v1h1v1h4v-1h1v-1h1v-1h1V6zm-6 10h4v2h-4z" fill="#009600"></path><g fill="#fff"><path d="M25 6V5h-1V4h-4v1h-1v1h-1v6h1v1h1v1h4v-1h1v-1h1V6z"></path><path d="M21 10h1v1h-1v-1zm-1-3h1V6h1V5h-2v1h-1v2h-1v2h1V9h1V7zm0 6v1h4v-1h-4z"></path><path d="M24,12h1v1h-1V12z"></path><path d="M25 12h1v-2h-1v2zm0-6v2h1V6h-1zm-2-1h1v1h-1V5z"></path></g><g fill="#51ffa8"><path d="M19 9v1h2V9h-2zm-1 2v1h2v-1h-2zm3 1h1v1h-1v-1zm3-2h1v1h-1v-1z"></path><path d="M21 8h1v1h-1V8zm-2-3h1v1h-1V5z"></path></g><path d="M18 5h1v1h-1V5zm-1 2h1v1h-1V7zm2 6h1v1h-1v-1zm7-7v2h1V6h-1zm-5-3v1h3V3h-3zm-4 6h1v1h-1V9zm9 0h1v1h-1V9zm-5 5v1h3v-1h-3z" fill="#1e661e"></path><g fill="#ffc4e1"><path d="M24 9h1v1h-1V9zm-3-3h1v1h-1V6z"></path><path d="M22,7h1v1h-1V7z"></path></g><g fill="#0f0"><path d="M22 8v1h3V8h-3zm-1 3v1h2v-1h-2z"></path><path d="M19 12v1h2v-1h-2zm3 4h1v1h-1v-1z"></path></g><g fill="#33297c"><path d="M17 6h1v1h-1V6zm0 4h1v1h-1v-1zm9 0h1v1h-1v-1zm-2 3h1v1h-1v-1zm2-5h1v1h-1V8zm-6-5h1v1h-1V3z"></path><path d="M19 4h1v1h-1V4zm4 13h1v1h-1v-1z"></path></g><g fill="#815382"><path d="M17 11h1v1h-1v-1zm7-7h1v1h-1V4z"></path><path d="M25 5h1v1h-1V5zm1 6h1v1h-1v-1z"></path><path d="M25 12h1v1h-1v-1zm-7 0h1v1h-1v-1zm2 2h1v1h-1v-1zm-3-6h1v1h-1V8zm5 9h1v1h-1v-1z"></path></g><g fill="#54acff"><path d="M20 4h1v1h-1V4zm-2 2h1v1h-1V6zm5 5h1v1h-1v-1zm-1-2h1v1h-1V9zm2-4v2h1V5h-1z"></path><path d="M23 7h1v1h-1V7zm-3 1h1v1h-1V8zm0 8h1v1h-1v-1z"></path></g><g fill="#ff93c9"><path d="M21,7h1v1h-1V7z"></path><path d="M22 6h1v1h-1V6zm1 10h1v1h-1v-1zm-3 1h1v1h-1v-1z"></path></g><g fill="#baffff"><path d="M18 7h1v1h-1V7zm7 1v2h1V8h-1zm-1 1h-1v1h-1v1h2V9z"></path><path d="M24,11h1v1h-1V11z"></path><path d="M22 12v1h2v-1h-2zm-2-1h1v1h-1v-1z"></path><path d="M18 10v1h2v-1h-2zm6-3h1v1h-1V7zm-4 0h1v1h-1V7zm4-2V4h-3v1h3zm-3 11h1v1h-1v-1z"></path></g><g fill="#2b59ff"><path d="M20,10h1v1h-1V10z"></path><path d="M21 9h1v1h-1V9zm1-4h1v1h-1V5z"></path><path d="M23 6h1v1h-1V6zm-2 11h1v1h-1v-1z"></path></g></svg></g>"&gt;<svg x="12" y="33"><g><g class="gotchi-sleeves gotchi-sleeves-left gotchi-sleeves-up"><path d="M38 0v1h-1v8h1V8h1V7h1V0z" fill="#141b30"></path><path d="M37,8h1V7h1V1h-1v1h-1V8z" fill="#343a4c"></path></g><g class="gotchi-sleeves gotchi-sleeves-left gotchi-sleeves-down"><path d="M38 10V9h-1V1h1v1h1v1h1v7z" fill="#141b30"></path><path d="M37,8h1v1h1V3h-1V2h-1V8z" fill="#343a4c"></path></g><g class="gotchi-sleeves gotchi-sleeves-right gotchi-sleeves-up"><path d="M2 0v1h1v8H2V8H1V7H0V0z" fill="#141b30"></path><path d="M3,2H2V1H1v6h1v1h1V2z" fill="#343a4c"></path></g><g class="gotchi-sleeves gotchi-sleeves-right gotchi-sleeves-down"><path d="M2 10V9h1V1H2v1H1v1H0v7z" fill="#141b30"></path><path d="M3,2H2v1H1v6h1V8h1V2z" fill="#343a4c"></path></g></g></svg><g class="gotchi-wearable wearable-hand wearable-hand-left"><svg x="0" y="33"><path d="M12 2V1h-1V0H2v1H1v1H0v2h1v1h1v1h1v1h1v1h1v1h1v1h1V9h1V8h1V7h1V6h1V5h1V4h1V2z"></path><path d="M2 4v1h1v1h1v1h1v1h1v1h1V8h1V7h1V6h1V5h1V4z" fill="#46a7c0"></path><g fill="#0ff"><path d="M9 2H8V1H5v1H4v1H3v2h1v1h1v1h1v1h1V7h1V6h1V5h1V3H9zm2 0h1v1h-1z"></path><path d="M10 1h1v1h-1zM2 1h1v1H2z"></path><path d="M1 2h1v1H1z"></path></g><g fill="#fff"><path d="M11 3h1v1h-1V3zM1 3h1v1H1V3zm8-2h1v1H9V1zM8 3V2H7V1H6v1H5v1H3v1h7V3H8z"></path><path d="M10 2h1v1h-1V2zM2 2h1v1H2V2z"></path><path d="M3,1h1v1H3V1z"></path></g></svg></g><g class="gotchi-wearable wearable-hand wearable-hand-right"><svg x="0" y="33"><g transform="scale(-1, 1) translate(-64, 0)"><path d="M12 2V1h-1V0H2v1H1v1H0v2h1v1h1v1h1v1h1v1h1v1h1v1h1V9h1V8h1V7h1V6h1V5h1V4h1V2z"></path><path d="M2 4v1h1v1h1v1h1v1h1v1h1V8h1V7h1V6h1V5h1V4z" fill="#46a7c0"></path><g fill="#0ff"><path d="M9 2H8V1H5v1H4v1H3v2h1v1h1v1h1v1h1V7h1V6h1V5h1V3H9zm2 0h1v1h-1z"></path><path d="M10 1h1v1h-1zM2 1h1v1H2z"></path><path d="M1 2h1v1H1z"></path></g><g fill="#fff"><path d="M11 3h1v1h-1V3zM1 3h1v1H1V3zm8-2h1v1H9V1zM8 3V2H7V1H6v1H5v1H3v1h7V3H8z"></path><path d="M10 2h1v1h-1V2zM2 2h1v1H2V2z"></path><path d="M3,1h1v1H3V1z"></path></g></g></svg></g><g class="gotchi-wearable wearable-pet"><svg x="42" y="38"><path d="M19 6V5h-1V4h-3V2h1V1h-1V0h-2v1h-2V0H9v1H7V0H5v1H4v1h1v2H2v1H1v1H0v2h1v1h1v1H1v4h1v1h1v1H2v1H1v2h1v1H1v2h4v1h3v-1h1v-1h2v1h1v1h3v-1h4v-2h-1v-1h1v-2h-1v-1h-1v-1h1v-1h1v-4h-1V9h1V8h1V6h-1z"></path><path d="M18 7h-1v1h-3V7h-2v1h1v1h5V8h1V7h-1zM6 7v1H3V7H1v1h1v1h5V8h1V7H6z" fill="#fff"></path><g fill="#faaff3"><path d="M17 5h-4v1h5V5h-1zm-7 4h2V8h-1V7H9v1H8v1h2zM4 6h3V5H2v1h2zm5 12v2h2v-2H9z"></path><path d="M16 17v-2H4v2H2v2h2v1H2v1h3v-3h1v3H5v1h3v-4h1v-1h2v1h1v4h3v-1h-1v-3h1v3h3v-1h-2v-1h2v-2h-2z"></path></g><path d="M17 10H2v4h16v-4h-1zm0 2v1H3v-2h14v1z" fill="#ef1e26"></path><path d="M13 1v1h-2V1H9v1H7V1H5v1h1v2h2v2h4V4h2V2h1V1z" fill="#ffc03c"></path><path d="M5 1v1h2V1H5zm4 0v1h2V1H9zm5 0h-1v1h2V1h-1z" fill="#ffe600"></path><path d="M11,4H8v2h4V4H11z" fill="#ff9600"></path><path d="M13,2H6v2h8V2H13z" fill="#ffc03c"></path><defs></defs></svg></g></svg></svg>