<svg xmlns="http://www.w3.org/2000/svg" viewBox="0 0 64 64"><style>.gotchi-primary{fill:#2664BA;}.gotchi-secondary{fill:#D4E0F1;}.gotchi-cheek{fill:#F696C6;}.gotchi-eyeColor{fill:#FF00FF;}.gotchi-primary-mouth{fill:#2664BA;}.gotchi-sleeves-up{display:none;}.gotchi-handsUp{display:none;}.gotchi-handsDownOpen{display:block;}.gotchi-handsDownClosed{display:none;}
.gotchi-bg {
    display:none;
  }




svg {
  
  animation-duration:0.5s;
  animation-iteration-count: infinite;
  animation-timing-function: linear;
  animation-timing-function: steps(1);
}

.gotchi-shadow {
  
   
   animation-duration:0.5s;
   animation-iteration-count: infinite;
   animation-timing-function: linear;
   animation-timing-function: steps(2);
}

.gotchi-wearable {
  
  animation-duration:0.5s;
  animation-iteration-count: infinite;
  animation-timing-function: linear;
  animation-timing-function: steps(1);
}



.gotchi-handsDownClosed, .gotchi-handsUp, .gotchi-handsDownOpen, .gotchi-handsDownClosed, .gotchi-body, .gotchi-eyeColor, .gotchi-collateral, .gotchi-cheek, .gotchi-primary-mouth, .gotchi-wearable, .gotchi-sleeves   {
   
   animation-duration:0.5s;
   animation-iteration-count: infinite;
   animation-timing-function: linear;
   animation-timing-function: steps(2);
}

.wearable-hand {
  
  animation-duration:0.5s;
  animation-iteration-count: infinite;
  animation-timing-function: linear;
  animation-timing-function: steps(2);
}

@keyframes downHands {
  from {
    transform: translate(0px, -4px);
  }
 to {
    transform: translate(0px, -3px);
  }
}


@keyframes up {
  from {
    transform: translate(0px, 0);
  }
 to {
    transform: translate(0px, -1px);
  }
}


@keyframes down {
 from {
   transform: translate(0px, 0);
    }
 to {
      transform: translate(0px, 1px);
    }
}
</style><g class="gotchi-bg"><defs fill="#fff"><pattern id="a" patternUnits="userSpaceOnUse" width="4" height="4"><path d="M0 0h1v1H0zm2 2h1v1H2z"/></pattern><pattern id="b" patternUnits="userSpaceOnUse" x="0" y="0" width="2" height="2"><path d="M0 0h1v1H0z"/></pattern><pattern id="c" patternUnits="userSpaceOnUse" x="-2" y="0" width="8" height="1"><path d="M0 0h1v1H0zm2 0h1v1H2zm2 0h1v1H4z"/></pattern><pattern id="d" patternUnits="userSpaceOnUse" x="0" y="0" width="4" height="4"><path d="M0 0h1v1H0zm0 2h1v1H0zm1 0V1h1v1zm1 0h1v1H2zm0-1h1V0H2zm1 2h1v1H3z"/></pattern><pattern id="e" patternUnits="userSpaceOnUse" width="64" height="32"><path d="M4 4h1v1H4zm7 0h1v1h-1zm7 0h1v1h-1zm7 0h1v1h-1zm7 0h1v1h-1zm7 0h1v1h-1zm7 0h1v1h-1zm7 0h1v1h-1zm7 0h1v1h-1z"/><path fill="url(#a)" d="M0 8h64v7H0z"/><path fill="url(#b)" d="M0 16h64v1H0z"/><path fill="url(#c)" d="M0 18h64v1H0z"/><path fill="url(#b)" d="M22 18h15v1H22zM0 20h64v3H0z"/><path fill="url(#d)" d="M0 24h64v8H0z"/></pattern><mask id="f"><path fill="url(#e)" d="M0 0h64v32H0z"/></mask></defs><path fill="#fff" d="M0 0h64v32H0z"/><path fill="#dea8ff" class="gotchi-secondary" mask="url(#f)" d="M0 0h64v32H0z"/><path fill="#dea8ff" class="gotchi-secondary" d="M0 32h64v32H0z"/><path mask="url(#f)" fill="#fff" transform="matrix(1 0 0 -1 0 64)" d="M0 0h64v32H0z"/></g><g class="gotchi-body"><g class="gotchi-primary"><path d="M21 12h2v-2h-4v2h1z"/><path d="M19 14v-2h-2v2h1zm6-4h2V8h-4v2h1z"/><path d="M29 8h8V6H27v2h1zm16 6h2v-2h-2v1z"/><path d="M48 14h-1v39h-2v2h4V14zm-11-4h4V8h-4v1z"/><path d="M41 12h4v-2h-4v1zM17 53V14h-2v41h4v-2h-1z"/><path d="M24 51h-5v2h5v-1z"/><path d="M27 53h-3v2h5v-2h-1zm18-2h-5v2h5v-1z"/><path d="M35 51h-6v2h6v-1z"/><path d="M38 53h-3v2h5v-2h-1z"/></g><g class="gotchi-secondary"><path d="M18 43v6h2v-1h2v1h2v2h-5v2h-2V14h2v1h-1v26z"/><path d="M27 51h-3v2h5v-2h-1zm11 0h-3v2h5v-2h-1z"/><path d="M35 49h-2v-1h-2v1h-2v2h6v-1zM25 11h2v-1h-4v1h1zm-4 2h2v-1h-4v1h1zm24 31v5h-1v-1h-2v1h-2v2h5v2h2V14h-2v29z"/><path d="M37 8H27v1h5v1h5V9zm8 4h-4v2h4v-1z"/><path d="M41 10h-4v2h4v-1z"/></g><path d="M44 14h-3v-2h-4v-2h-5V9h-5v2h-4v2h-4v2h-1v34h2v-1h2v1h2v2h5v-2h2v-1h2v1h2v2h5v-2h2v-1h2v1h1V14z" fill="#fff"/></g><path class="gotchi-cheek" d="M21 32v2h2v-2h-1zm21 0h-1v2h2v-2z"/><g class="gotchi-primary-mouth"><path d="M29 32h-2v2h2v-1z"/><path d="M33 34h-4v2h6v-2h-1z"/><path d="M36 32h-1v2h2v-2z"/></g><g class="gotchi-shadow"><path opacity=".25" d="M25 58H19v1h1v1h24V59h1V58h-1z" fill="#000"/></g><g class="gotchi-eyeColor"><path d="M27 23H26H25H24H23H22H21V24H22H23H24V25H23H22H21V26H22H23H24H25H26H27H28H29V25H28H27H26V24H27H28H29V23H28H27Z" class="gotchi-primary" /><path d="M41 24H42H43V23H42H41H40H39H38H37H36H35V24H36H37H38V25H37H36H35V26H36H37H38H39H40H41H42H43V25H42H41H40V24H41Z" class="gotchi-primary" /><rect x="24" y="24" width="2" height="1" /><rect x="38" y="24" width="2" height="1" /></g><g class="gotchi-collateral" fill="#2664ba"><path d="M30 15v2h3v1h-3v1h1.5v1h1v-1H34v-3h-3v-1h3v-1h-1.5v-1h-1v1H30zm4 5h1v1h-1z"/><path d="M35 19h1v1h-1z"/><path d="M36 16v3h1v-5h-1v1zm-2-4h1v1h-1z"/><path d="M35 13h1v1h-1zm-7 5v-4h-1v5h1zm1 2h1v1h-1z"/><path d="M28 19h1v1h-1zm1-7h1v1h-1z"/><path d="M28 13h1v1h-1z"/></g><g class="gotchi-wearable wearable-body"><svg x="15" y="41"><path d="M34 5V0H0v14h4v-2h5v2h5v-2h6v2h5v-2h5v2h4V7h1V5z"/><path d="M35 7h1v1h-1zm0-3h1v1h-1z"/><path d="M35 7h1v1h-1V7zm0-3h1v1h-1V4z" fill="#0e0c15"/><g fill="#f27322"><path d="M4 4v1h6V4H4zm8-2v6h1V3h8v5h1V2H12zm12 2v1h6V4h-6zm0 2v1h6V6h-6z"/><path d="M13 8v1h8V8h-8zM4 6v1h6V6H4z"/></g></svg></g><g class="gotchi-handsDownClosed"><g class="gotchi-primary"><path d="M19 42h1v1h-1zm1-6h1v1h-1z"/><path d="M21 37h1v1h-1zm5 3v4h1v-4zm-5 3h-1v1h2v-1z"/><path d="M24 44h-2v1h4v-1h-1zm1-5h-1v1h2v-1z"/><path d="M23 38h-1v1h2v-1z"/></g><g class="gotchi-secondary"><path d="M19 43h1v1h-1zm5 2h-2v1h4v-1h-1z"/><path d="M27 41v3h1v-3zm-6 3h-1v1h2v-1z"/><path d="M26 44h1v1h-1zm-7-3h-1v2h1v-1z"/></g><g class="gotchi-primary"><path d="M44 42h1v1h-1zm-1-6h1v1h-1z"/><path d="M42 37h1v1h-1z"/><path d="M42 39v-1h-2v1h1zm0 4v1h2v-1h-1z"/><path d="M40 44h-2v1h4v-1h-1z"/><path d="M38 42v-2h-1v4h1v-1z"/><path d="M40 40v-1h-2v1h1z"/></g><g class="gotchi-secondary"><path d="M42 44v1h2v-1h-1zm-5-2v-1h-1v3h1v-1z"/><path d="M40 45h-2v1h4v-1h-1z"/><path d="M37 44h1v1h-1zm7-1h1v1h-1z"/></g></g><g class="gotchi-handsDownOpen"><g class="gotchi-primary"><path d="M14 40h1v1h-1v-1zm-1-6h1v1h-1v-1z"/><path d="M14 33h1v1h-1v-1zm-2 2h1v1h-1v-1zm-5 3h1v4H7v-4zm5 3h2v1h-2v-1z"/><path d="M8 42h4v1H8v-1zm0-5h2v1H8v-1z"/><path d="M10,36h2v1h-2V36z"/></g><g class="gotchi-secondary"><path d="M14,39h1v1h-1V39z"/><path d="M12,40h2v1h-2V40z"/><path d="M8,41h4v1H8V41z"/></g><path d="M8,38v3h4v-1h2v-1h1v-5h-1v1h-1v1h-1v1h-2v1H8z" fill="#fff" /><g class="gotchi-primary"><path d="M49 40h1v1h-1v-1zm1-6h1v1h-1v-1z"/><path d="M49 33h1v1h-1v-1zm2 2h1v1h-1v-1zm5 3h1v4h-1v-4zm-6 3h2v1h-2v-1z"/><path d="M52 42h4v1h-4v-1zm2-5h2v1h-2v-1z"/><path d="M52,36h2v1h-2V36z"/></g><g class="gotchi-secondary"><path d="M49,39h1v1h-1V39z"/><path d="M50,40h2v1h-2V40z"/><path d="M52,41h4v1h-4V41z"/></g><path d="M54,38v-1h-2v-1h-1v-1h-1v-1h-1v5h1v1h2v1h4v-3H54z" fill="#fff" /></g><g class="gotchi-handsUp"><g class="gotchi-secondary"><path d="M50,38h1v1h-1V38z"/><path d="M49 39h1v1h-1v-1zm2-2h1v1h-1v-1z"/><path d="M52,36h2v1h-2V36z"/><path d="M54,35h2v1h-2V35z"/></g><path d="M52,32v1h-2v1h-1v5h1v-1h1v-1h1v-1h2v-1h2v-3H52z" fill="#fff"/><g class="gotchi-primary"><path d="M49,33h1v1h-1V33z"/><path d="M50 32h2v1h-2v-1zm0 7h1v1h-1v-1z"/><path d="M49 40h1v1h-1v-1zm2-2h1v1h-1v-1z"/><path d="M52 37h2v1h-2v-1zm0-6h4v1h-4v-1z"/><path d="M56,32h1v4h-1V32z"/><path d="M54,36h2v1h-2V36z"/></g><g class="gotchi-secondary"><path d="M13,38h1v1h-1V38z"/><path d="M14 39h1v1h-1v-1zm-2-2h1v1h-1v-1z"/><path d="M10,36h2v1h-2V36z"/><path d="M8,35h2v1H8V35z"/></g><path d="M8,32v3h2v1h2v1h1v1h1v1h1v-5h-1v-1h-2v-1H8z" fill="#fff"/><g class="gotchi-primary"><path d="M14,33h1v1h-1V33z"/><path d="M12 32h2v1h-2v-1zm1 7h1v1h-1v-1z"/><path d="M14 40h1v1h-1v-1zm-2-2h1v1h-1v-1z"/><path d="M10 37h2v1h-2v-1zm-2-6h4v1H8v-1z"/><path d="M7,32h1v4H7V32z"/><path d="M8,36h2v1H8V36z"/></g></g><g class="gotchi-wearable wearable-face"><svg x="29" y="37"><path d="M0,0v1h1v1h1v1h2V2h1V1h1V0H0z"/><defs /></svg></g><g class="gotchi-wearable wearable-eyes"><svg x="15" y="19"><path d="M33 4v1h-1v1h-3V5h-1V3h-1V2h-1V1h-1V0h-2v1h-1v1h-1v1h-1v2h-1v1h-4V5h-1V3h-1V2h-1V1h-1V0H9v1H8v1H7v1H6v2H5v1H2V5H1V4H0v2h1v1h1v1h3v1h1v1h1v1h1v1h1v1h2v-1h1v-1h1v-1h1V9h1V8h4v1h1v1h1v1h1v1h1v1h2v-1h1v-1h1v-1h1V9h1V8h3V7h1V6h1V4z"/><g fill="#323232"><path d="M5,7v2h1v1h1v1h1v1h1v1h1V7H5z"/><path d="M14 3h-1V2h-1V1h-1V0h-1v7h5V5h-1V3zm5 4v2h1v1h1v1h1v1h1v1h1V7h-5z"/><path d="M28,5V3h-1V2h-1V1h-1V0h-1v7h5V5H28z"/></g><path d="M10 7v6h1v-1h1v-1h1v-1h1V9h1V8h4V7h-9zm23-2h1v1h-1V5zm-9 2v6h1v-1h1v-1h1v-1h1V9h1V8h3V7h-8z"/><path d="M32 6h1v1h-1V6zM0 5h1v1H0V5zm2 2h3v1H2V7z"/><path d="M1,6h1v1H1V6z"/><g fill="#646464"><path d="M9 1H8v1H7v1H6v2H5v1H2v1h8V0H9v1zm14 0h-1v1h-1v1h-1v2h-1v1h-4v1h9V0h-1v1zm9 4h1v1h-1V5z"/><path d="M33 4h1v1h-1V4zm-4 2h3v1h-3V6zM1 5h1v1H1V5z"/><path d="M0,4h1v1H0V4z"/></g></svg></g><g class="gotchi-wearable wearable-head"><svg x="15" y="8"><path d="M33 8h-1V6h-2v2h-2V6h-2v2h-2V6h-2V4h-2V2h-2V0h-2v2h-2v2h-2v2h-2v2H8V6H6v2H4V6H2v2H0v2h34V8z" fill="#ffc03c"/><path d="M19 5V4h-1V3h-2v1h-1v1h-1v2h1v1h1v1h2V8h1V7h1V5z" fill="#ffd781"/><path d="M18 5V4h-2v1h-1v2h1v1h2V7h1V5z" fill="#ffeabe"/><path d="M17 5h-1v2h2V5z" fill="#64438e"/><path d="M17 5h-1v1h2V5z" fill="#715398"/></svg></g><g class="gotchi-wearable wearable-hand wearable-hand-left"><svg x="6" y="27"><path d="M7 8V5H6V4H5V2H4V0H3v2H2v2H1v1H0v3h1v2H0v6h1v1h5v-1h1v-6H6V8z" fill="#faa"/><path d="M6,8V5H5V4H2v1H1v3h1v2H1v6h5v-6H5V8H6z" fill="#fff"/><path d="M1 6h3v1H1V6zm1 2h1v1H2V8zm-1 2h3v1H1v-1zm0 2h2v1H1v-1zm0 2h3v1H1v-1z" fill-opacity=".5"/><path d="M3,0h1v2H3V0z" fill="#fc0"/><path d="M2,2h3v1H2V2z" fill="#f0f" fill-opacity=".6"/></svg></g><g class="gotchi-wearable wearable-hand wearable-hand-right"><svg x="1" y="27"><g transform="scale(-1, 1) translate(-62, 0)"><path d="M11 7V6h-1V5H3v1H2v1H1v7h1v2h1v1h2v1h3v-1h2v-1h1v-2h1V7z" fill="#511f17"/><path d="M9 9h1v1H9V9zm-7 4h1v-3H2v3zm2-1h1v-2H4v2zm2 2h1v-3H6v3zm2-3h1v1H8v-1zm2 0v2h1v-2h-1zm-6 5h1v-3H4v3zm4-1h1v-2H8v2zm-2 2h1v-2H6v2z" fill="#7a500c"/><path d="M10 7V6H3v1H2v1h1v1h7V8h1V7z" fill="#955c4b"/><path d="M3 7h7v1H3z" fill="#fff"/><g fill="#ff89ff"><path d="M2 0h1v1H2z"/><path d="M1 1h1v1H1zm2 0h1v2H3z"/><path d="M0 2h1v1H0zm4 1h1v2H4z"/><path d="M5 5h1v2H5z"/><path d="M6 7h1v1H6z"/></g></g></svg></g><g class="gotchi-wearable wearable-pet"><svg x="42" y="43"><path d="M19 2V1h-1V0h-5v1h-1v1H8V1H7V0H2v1H1v1H0v2h1v1h1v1H1v3h1v1h1v1H2v1H1v2h1v1H1v2h4v1h3v-1h1v-1h2v1h1v1h3v-1h4v-2h-1v-1h1v-2h-1v-1h-1v-1h1V9h1V6h-1V5h1V4h1V2h-1z"/><path d="M18 3h-1v1h-3V3h-2v1h1v1h5V4h1V3h-1zM6 3v1H3V3H1v1h1v1h5V4h1V3H6z" fill="#fff"/><g fill="#33bacc"><path d="M17 1h-4v1h5V1h-1zm-7 4h2V4h-1V3H9v1H8v1h2zM4 2h3V1H2v1h2zm5 11v2h2v-2H9z"/><path d="M16 12v-2H4v2H2v2h2v1H2v1h3v-3h1v3H5v1h3v-4h1v-1h2v1h1v4h3v-1h-1v-3h1v3h3v-1h-2v-1h2v-2h-2z"/></g><path d="M17 6H2v3h16V6h-1zm0 2H3V7h14v1z" fill="#ef1e26"/><defs /></svg></g></svg>