<svg xmlns="http://www.w3.org/2000/svg" viewbox="0 0 64 64"><svg xmlns="http://www.w3.org/2000/svg" viewBox="0 0 64 64"><style>.gotchi-primary{fill:#B6509E;}.gotchi-secondary{fill:#CFEEF4;}.gotchi-cheek{fill:#F696C6;}.gotchi-eyeColor{fill:#B6509E;}.gotchi-primary-mouth{fill:#B6509E;}.gotchi-sleeves-up{display:none;}.gotchi-handsUp{display:none;}.gotchi-handsDownOpen{display:none;}.gotchi-handsDownClosed{display:block}
.gotchi-bg {
    display:none;
  }




svg {
  
  animation-duration:0.5s;
  animation-iteration-count: infinite;
  animation-timing-function: linear;
  animation-timing-function: steps(1);
}

.gotchi-shadow {
  
   
   animation-duration:0.5s;
   animation-iteration-count: infinite;
   animation-timing-function: linear;
   animation-timing-function: steps(2);
}

.gotchi-wearable {
  
  animation-duration:0.5s;
  animation-iteration-count: infinite;
  animation-timing-function: linear;
  animation-timing-function: steps(1);
}



.gotchi-handsDownClosed, .gotchi-handsUp, .gotchi-handsDownOpen, .gotchi-handsDownClosed, .gotchi-body, .gotchi-eyeColor, .gotchi-collateral, .gotchi-cheek, .gotchi-primary-mouth, .gotchi-wearable, .gotchi-sleeves   {
   
   animation-duration:0.5s;
   animation-iteration-count: infinite;
   animation-timing-function: linear;
   animation-timing-function: steps(2);
}

.wearable-hand {
  
  animation-duration:0.5s;
  animation-iteration-count: infinite;
  animation-timing-function: linear;
  animation-timing-function: steps(2);
}

@keyframes downHands {
  from {
    transform: translate(0px, -4px);
  }
 to {
    transform: translate(0px, -3px);
  }
}


@keyframes up {
  from {
    transform: translate(0px, 0);
  }
 to {
    transform: translate(0px, -1px);
  }
}


@keyframes down {
 from {
   transform: translate(0px, 0);
    }
 to {
      transform: translate(0px, 1px);
    }
}
</style><g class="gotchi-bg"><defs fill="#fff"><pattern id="a" patternUnits="userSpaceOnUse" width="4" height="4"><path d="M0 0h1v1H0zm2 2h1v1H2z"></path></pattern><pattern id="b" patternUnits="userSpaceOnUse" x="0" y="0" width="2" height="2"><path d="M0 0h1v1H0z"></path></pattern><pattern id="c" patternUnits="userSpaceOnUse" x="-2" y="0" width="8" height="1"><path d="M0 0h1v1H0zm2 0h1v1H2zm2 0h1v1H4z"></path></pattern><pattern id="d" patternUnits="userSpaceOnUse" x="0" y="0" width="4" height="4"><path d="M0 0h1v1H0zm0 2h1v1H0zm1 0V1h1v1zm1 0h1v1H2zm0-1h1V0H2zm1 2h1v1H3z"></path></pattern><pattern id="e" patternUnits="userSpaceOnUse" width="64" height="32"><path d="M4 4h1v1H4zm7 0h1v1h-1zm7 0h1v1h-1zm7 0h1v1h-1zm7 0h1v1h-1zm7 0h1v1h-1zm7 0h1v1h-1zm7 0h1v1h-1zm7 0h1v1h-1z"></path><path fill="url(#a)" d="M0 8h64v7H0z"></path><path fill="url(#b)" d="M0 16h64v1H0z"></path><path fill="url(#c)" d="M0 18h64v1H0z"></path><path fill="url(#b)" d="M22 18h15v1H22zM0 20h64v3H0z"></path><path fill="url(#d)" d="M0 24h64v8H0z"></path></pattern><mask id="f"><path fill="url(#e)" d="M0 0h64v32H0z"></path></mask></defs><path fill="#fff" d="M0 0h64v32H0z"></path><path fill="#dea8ff" class="gotchi-secondary" mask="url(#f)" d="M0 0h64v32H0z"></path><path fill="#dea8ff" class="gotchi-secondary" d="M0 32h64v32H0z"></path><path mask="url(#f)" fill="#fff" transform="matrix(1 0 0 -1 0 64)" d="M0 0h64v32H0z"></path></g><g class="gotchi-body"><g class="gotchi-primary"><path d="M21 12h2v-2h-4v2h1z"></path><path d="M19 14v-2h-2v2h1zm6-4h2V8h-4v2h1z"></path><path d="M29 8h8V6H27v2h1zm16 6h2v-2h-2v1z"></path><path d="M48 14h-1v39h-2v2h4V14zm-11-4h4V8h-4v1z"></path><path d="M41 12h4v-2h-4v1zM17 53V14h-2v41h4v-2h-1z"></path><path d="M24 51h-5v2h5v-1z"></path><path d="M27 53h-3v2h5v-2h-1zm18-2h-5v2h5v-1z"></path><path d="M35 51h-6v2h6v-1z"></path><path d="M38 53h-3v2h5v-2h-1z"></path></g><g class="gotchi-secondary"><path d="M18 43v6h2v-1h2v1h2v2h-5v2h-2V14h2v1h-1v26z"></path><path d="M27 51h-3v2h5v-2h-1zm11 0h-3v2h5v-2h-1z"></path><path d="M35 49h-2v-1h-2v1h-2v2h6v-1zM25 11h2v-1h-4v1h1zm-4 2h2v-1h-4v1h1zm24 31v5h-1v-1h-2v1h-2v2h5v2h2V14h-2v29z"></path><path d="M37 8H27v1h5v1h5V9zm8 4h-4v2h4v-1z"></path><path d="M41 10h-4v2h4v-1z"></path></g><path d="M44 14h-3v-2h-4v-2h-5V9h-5v2h-4v2h-4v2h-1v34h2v-1h2v1h2v2h5v-2h2v-1h2v1h2v2h5v-2h2v-1h2v1h1V14z" fill="#fff"></path></g><path class="gotchi-cheek" d="M21 32v2h2v-2h-1zm21 0h-1v2h2v-2z"></path><g><g class="gotchi-primary-mouth">
<path d="M33 34h-4v2h6v-2h-1z">
</path></g></g><g class="gotchi-shadow"><path opacity=".25" d="M25 58H19v1h1v1h24V59h1V58h-1z" fill="#000"></path></g><g class="gotchi-eyeColor"><rect x="22" y="28" width="6" height="6" transform="rotate(-90 22 28)"></rect><rect x="36" y="22" width="6" height="6"></rect></g><g class="gotchi-collateral" fill="#a73796"><path d="M30.5 15h1v-2h-1z"></path><path d="M31.5 12h1v1h-1z"></path><path d="M33.5 13h-1v2h1zm-4 3h-2v1h1v2h1v-2h2v-1h-1v-1h-1z"></path><path d="M34.5 15h-1v2h1z"></path><path d="M35.5 17h-1v2h1zm-8 4h1v-2h-1z"></path><path d="M35.5 19v2h1v-2z"></path></g><g class="gotchi-handsDownClosed"><g class="gotchi-primary"><path d="M19 42h1v1h-1zm1-6h1v1h-1z"></path><path d="M21 37h1v1h-1zm5 3v4h1v-4zm-5 3h-1v1h2v-1z"></path><path d="M24 44h-2v1h4v-1h-1zm1-5h-1v1h2v-1z"></path><path d="M23 38h-1v1h2v-1z"></path></g><g class="gotchi-secondary"><path d="M19 43h1v1h-1zm5 2h-2v1h4v-1h-1z"></path><path d="M27 41v3h1v-3zm-6 3h-1v1h2v-1z"></path><path d="M26 44h1v1h-1zm-7-3h-1v2h1v-1z"></path></g><g class="gotchi-primary"><path d="M44 42h1v1h-1zm-1-6h1v1h-1z"></path><path d="M42 37h1v1h-1z"></path><path d="M42 39v-1h-2v1h1zm0 4v1h2v-1h-1z"></path><path d="M40 44h-2v1h4v-1h-1z"></path><path d="M38 42v-2h-1v4h1v-1z"></path><path d="M40 40v-1h-2v1h1z"></path></g><g class="gotchi-secondary"><path d="M42 44v1h2v-1h-1zm-5-2v-1h-1v3h1v-1z"></path><path d="M40 45h-2v1h4v-1h-1z"></path><path d="M37 44h1v1h-1zm7-1h1v1h-1z"></path></g></g><g class="gotchi-handsDownOpen"><g class="gotchi-primary"><path d="M14 40h1v1h-1v-1zm-1-6h1v1h-1v-1z"></path><path d="M14 33h1v1h-1v-1zm-2 2h1v1h-1v-1zm-5 3h1v4H7v-4zm5 3h2v1h-2v-1z"></path><path d="M8 42h4v1H8v-1zm0-5h2v1H8v-1z"></path><path d="M10,36h2v1h-2V36z"></path></g><g class="gotchi-secondary"><path d="M14,39h1v1h-1V39z"></path><path d="M12,40h2v1h-2V40z"></path><path d="M8,41h4v1H8V41z"></path></g><path d="M8,38v3h4v-1h2v-1h1v-5h-1v1h-1v1h-1v1h-2v1H8z" fill="#fff"></path><g class="gotchi-primary"><path d="M49 40h1v1h-1v-1zm1-6h1v1h-1v-1z"></path><path d="M49 33h1v1h-1v-1zm2 2h1v1h-1v-1zm5 3h1v4h-1v-4zm-6 3h2v1h-2v-1z"></path><path d="M52 42h4v1h-4v-1zm2-5h2v1h-2v-1z"></path><path d="M52,36h2v1h-2V36z"></path></g><g class="gotchi-secondary"><path d="M49,39h1v1h-1V39z"></path><path d="M50,40h2v1h-2V40z"></path><path d="M52,41h4v1h-4V41z"></path></g><path d="M54,38v-1h-2v-1h-1v-1h-1v-1h-1v5h1v1h2v1h4v-3H54z" fill="#fff"></path></g><g class="gotchi-handsUp"><g class="gotchi-secondary"><path d="M50,38h1v1h-1V38z"></path><path d="M49 39h1v1h-1v-1zm2-2h1v1h-1v-1z"></path><path d="M52,36h2v1h-2V36z"></path><path d="M54,35h2v1h-2V35z"></path></g><path d="M52,32v1h-2v1h-1v5h1v-1h1v-1h1v-1h2v-1h2v-3H52z" fill="#fff"></path><g class="gotchi-primary"><path d="M49,33h1v1h-1V33z"></path><path d="M50 32h2v1h-2v-1zm0 7h1v1h-1v-1z"></path><path d="M49 40h1v1h-1v-1zm2-2h1v1h-1v-1z"></path><path d="M52 37h2v1h-2v-1zm0-6h4v1h-4v-1z"></path><path d="M56,32h1v4h-1V32z"></path><path d="M54,36h2v1h-2V36z"></path></g><g class="gotchi-secondary"><path d="M13,38h1v1h-1V38z"></path><path d="M14 39h1v1h-1v-1zm-2-2h1v1h-1v-1z"></path><path d="M10,36h2v1h-2V36z"></path><path d="M8,35h2v1H8V35z"></path></g><path d="M8,32v3h2v1h2v1h1v1h1v1h1v-5h-1v-1h-2v-1H8z" fill="#fff"></path><g class="gotchi-primary"><path d="M14,33h1v1h-1V33z"></path><path d="M12 32h2v1h-2v-1zm1 7h1v1h-1v-1z"></path><path d="M14 40h1v1h-1v-1zm-2-2h1v1h-1v-1z"></path><path d="M10 37h2v1h-2v-1zm-2-6h4v1H8v-1z"></path><path d="M7,32h1v4H7V32z"></path><path d="M8,36h2v1H8V36z"></path></g></g></svg></svg>