<svg xmlns="http://www.w3.org/2000/svg" viewBox="0 0 64 64"><style>.gotchi-primary{fill:#64438E;}.gotchi-secondary{fill:#EDD3FD;}.gotchi-cheek{fill:#F696C6;}.gotchi-eyeColor{fill:#64438E;}.gotchi-primary-mouth{fill:#64438E;}.gotchi-sleeves-up{display:none;}.gotchi-handsUp{display:none;}.gotchi-handsDownOpen{display:block;}.gotchi-handsDownClosed{display:none;}
.gotchi-bg {
    display:none;
  }




svg {
  
  animation-duration:0.5s;
  animation-iteration-count: infinite;
  animation-timing-function: linear;
  animation-timing-function: steps(1);
}

.gotchi-shadow {
  
   
   animation-duration:0.5s;
   animation-iteration-count: infinite;
   animation-timing-function: linear;
   animation-timing-function: steps(2);
}

.gotchi-wearable {
  
  animation-duration:0.5s;
  animation-iteration-count: infinite;
  animation-timing-function: linear;
  animation-timing-function: steps(1);
}



.gotchi-handsDownClosed, .gotchi-handsUp, .gotchi-handsDownOpen, .gotchi-handsDownClosed, .gotchi-body, .gotchi-eyeColor, .gotchi-collateral, .gotchi-cheek, .gotchi-primary-mouth, .gotchi-wearable, .gotchi-sleeves   {
   
   animation-duration:0.5s;
   animation-iteration-count: infinite;
   animation-timing-function: linear;
   animation-timing-function: steps(2);
}

.wearable-hand {
  
  animation-duration:0.5s;
  animation-iteration-count: infinite;
  animation-timing-function: linear;
  animation-timing-function: steps(2);
}

@keyframes downHands {
  from {
    transform: translate(0px, -4px);
  }
 to {
    transform: translate(0px, -3px);
  }
}


@keyframes up {
  from {
    transform: translate(0px, 0);
  }
 to {
    transform: translate(0px, -1px);
  }
}


@keyframes down {
 from {
   transform: translate(0px, 0);
    }
 to {
      transform: translate(0px, 1px);
    }
}
</style><g class="gotchi-bg"><defs fill="#fff"><pattern id="a" patternUnits="userSpaceOnUse" width="4" height="4"><path d="M0 0h1v1H0zm2 2h1v1H2z"/></pattern><pattern id="b" patternUnits="userSpaceOnUse" x="0" y="0" width="2" height="2"><path d="M0 0h1v1H0z"/></pattern><pattern id="c" patternUnits="userSpaceOnUse" x="-2" y="0" width="8" height="1"><path d="M0 0h1v1H0zm2 0h1v1H2zm2 0h1v1H4z"/></pattern><pattern id="d" patternUnits="userSpaceOnUse" x="0" y="0" width="4" height="4"><path d="M0 0h1v1H0zm0 2h1v1H0zm1 0V1h1v1zm1 0h1v1H2zm0-1h1V0H2zm1 2h1v1H3z"/></pattern><pattern id="e" patternUnits="userSpaceOnUse" width="64" height="32"><path d="M4 4h1v1H4zm7 0h1v1h-1zm7 0h1v1h-1zm7 0h1v1h-1zm7 0h1v1h-1zm7 0h1v1h-1zm7 0h1v1h-1zm7 0h1v1h-1zm7 0h1v1h-1z"/><path fill="url(#a)" d="M0 8h64v7H0z"/><path fill="url(#b)" d="M0 16h64v1H0z"/><path fill="url(#c)" d="M0 18h64v1H0z"/><path fill="url(#b)" d="M22 18h15v1H22zM0 20h64v3H0z"/><path fill="url(#d)" d="M0 24h64v8H0z"/></pattern><mask id="f"><path fill="url(#e)" d="M0 0h64v32H0z"/></mask></defs><path fill="#fff" d="M0 0h64v32H0z"/><path fill="#dea8ff" class="gotchi-secondary" mask="url(#f)" d="M0 0h64v32H0z"/><path fill="#dea8ff" class="gotchi-secondary" d="M0 32h64v32H0z"/><path mask="url(#f)" fill="#fff" transform="matrix(1 0 0 -1 0 64)" d="M0 0h64v32H0z"/></g><g class="gotchi-body"><g class="gotchi-primary"><path d="M21 12h2v-2h-4v2h1z"/><path d="M19 14v-2h-2v2h1zm6-4h2V8h-4v2h1z"/><path d="M29 8h8V6H27v2h1zm16 6h2v-2h-2v1z"/><path d="M48 14h-1v39h-2v2h4V14zm-11-4h4V8h-4v1z"/><path d="M41 12h4v-2h-4v1zM17 53V14h-2v41h4v-2h-1z"/><path d="M24 51h-5v2h5v-1z"/><path d="M27 53h-3v2h5v-2h-1zm18-2h-5v2h5v-1z"/><path d="M35 51h-6v2h6v-1z"/><path d="M38 53h-3v2h5v-2h-1z"/></g><g class="gotchi-secondary"><path d="M18 43v6h2v-1h2v1h2v2h-5v2h-2V14h2v1h-1v26z"/><path d="M27 51h-3v2h5v-2h-1zm11 0h-3v2h5v-2h-1z"/><path d="M35 49h-2v-1h-2v1h-2v2h6v-1zM25 11h2v-1h-4v1h1zm-4 2h2v-1h-4v1h1zm24 31v5h-1v-1h-2v1h-2v2h5v2h2V14h-2v29z"/><path d="M37 8H27v1h5v1h5V9zm8 4h-4v2h4v-1z"/><path d="M41 10h-4v2h4v-1z"/></g><path d="M44 14h-3v-2h-4v-2h-5V9h-5v2h-4v2h-4v2h-1v34h2v-1h2v1h2v2h5v-2h2v-1h2v1h2v2h5v-2h2v-1h2v1h1V14z" fill="#fff"/></g><path class="gotchi-cheek" d="M21 32v2h2v-2h-1zm21 0h-1v2h2v-2z"/><g class="gotchi-primary-mouth"><path d="M29 32h-2v2h2v-1z"/><path d="M33 34h-4v2h6v-2h-1z"/><path d="M36 32h-1v2h2v-2z"/></g><g class="gotchi-shadow"><path opacity=".25" d="M25 58H19v1h1v1h24V59h1V58h-1z" fill="#000"/></g><g class="gotchi-eyeColor"><g class="gotchi-primary"><path d="M23 22h-1v1h1v-1zm5 5h-1v1h1v-1zm-5-1h-1v1h1v-1z" /><path d="M22 25h-1v1h1v-1zm0-2h-1v1h1v-1z" /></g><path d="M23 24h-1v1h1v-1z" /><path d="M27 22h-1v1h1v-1z" class="gotchi-primary" /><path d="M25 22h-1v1h1v-1zm2 4h-1v1h1v-1z" /><path d="M29 26h-1v1h1v-1z" class="gotchi-primary" /><path d="M25 26h-1v1h1v-1z" /><path d="M29 24h-1v1h1v-1z" class="gotchi-primary" /><path d="M25 24h-1v1h1v-1zm2 0h-1v1h1v-1z" /><path d="M27 28h-1v1h1v-1zm-2 0h-1v1h1v-1zm1-7h-1v1h1v-1zm-2 0h-1v1h1v-1z" class="gotchi-primary" /><path d="M28 25h-1v1h1v-1zm-2 0h-1v1h1v-1zm-2 0h-1v1h1v-1z" /><path d="M28 23h-1v1h1v-1z" class="gotchi-primary" /><path d="M24 23h-1v1h1v-1zm2 0h-1v1h1v-1zm0 4h-1v1h1v-1z" /><g class="gotchi-primary"> <path d="M24 27h-1v1h1v-1zm18-5h-1v1h1v-1zm-5 5h-1v1h1v-1zm5-1h-1v1h1v-1z" /><path d="M43 25h-1v1h1v-1z" /></g> <path d="M42 24h-1v1h1v-1z" /><path d="M43 23h-1v1h1v-1zm-5-1h-1v1h1v-1z" class="gotchi-primary" /><g> <path d="M37 25h-1v1h1v-1zm4 0h-1v1h1v-1z" /><path d="M38 26h-1v1h1v-1z" /></g> <path d="M37 23h-1v1h1v-1z" class="gotchi-primary" /><path d="M38 24h-1v1h1v-1zm3-1h-1v1h1v-1z" /><path d="M38 28h-1v1h1v-1z" class="gotchi-primary" /><path d="M39 23h-1v1h1v-1z" /><path d="M39 21h-1v1h1v-1z" class="gotchi-primary" /><path d="M40 22h-1v1h1v-1z" /><path d="M41 21h-1v1h1v-1z" class="gotchi-primary" /><g> <path d="M40 26h-1v1h1v-1z" /><path d="M39 25h-1v1h1v-1z" /></g> <path d="M36 26h-1v1h1v-1zm0-2h-1v1h1v-1z" class="gotchi-primary" /><path d="M40 24h-1v1h1v-1z" /><g class="gotchi-primary"> <path d="M41 27h-1v1h1v-1z" /><path d="M40 28h-1v1h1v-1z" /></g> <path d="M39 27h-1v1h1v-1z" /></g><g class="gotchi-collateral"><g fill="#64438e"><path d="M29 17v-2h-1v4h1v-1z"/><path d="M29 14h1v1h-1zm0 5h1v1h-1z"/><path d="M30 20h1v1h-1z"/><path d="M31 21v1h2v-1h-1zm-1-8h1v1h-1zm4 6h1v1h-1zm0-5h1v1h-1z"/><path d="M33 13v-1h-2v1h1zm0 7h1v1h-1z"/><path d="M33 13h1v1h-1zm2 2v4h1v-4z"/></g><path d="M34 17h-2v4h1v-1h1v-1h1v-2z" fill="#c260ff"/><g fill="#dea8ff"><path d="M30 17h-1v2h1v1h1v1h1v-4h-1z"/><path d="M34 15v-1h-1v-1h-1v4h3v-2z"/></g><path d="M31 17h1v-4h-1v1h-1v1h-1v2h1z" fill="#edd3fd"/></g><g class="gotchi-wearable wearable-body"><svg x="15" y="34"><g fill="#ffc03c"><path d="M19 9V8h-1V7h-2v1h-1v1h-2v1h2v1h1v1h2v-1h1v-1h2V9h-1zM4 4h1v1H4z"/><path d="M3 3h1v1H3z"/><path d="M2 2h1v1H2z"/><path d="M1 1h1v1H1z"/><path d="M0 0h1v1H0zm5 5h1v1H5z"/><path d="M7 6H6v1h2V6z"/><path d="M9 7H8v1h2V7zm20-3h1v1h-1z"/><path d="M30 3h1v1h-1z"/><path d="M31 2h1v1h-1z"/><path d="M32 1h1v1h-1z"/><path d="M33 0h1v1h-1zm-5 5h1v1h-1z"/><path d="M26 6v1h2V6h-1z"/><path d="M24 7v1h2V7h-1z"/><path d="M22 8h-1v1h3V8h-1zM12 8h-2v1h3V8z"/></g><path d="M18 9V8h-2v1h-1v1h1v1h2v-1h1V9z" fill="#ffeabe"/><path d="M17 9h-1v1h2V9z" fill="#64438e"/></svg></g><g class="gotchi-handsDownClosed"><g class="gotchi-primary"><path d="M19 42h1v1h-1zm1-6h1v1h-1z"/><path d="M21 37h1v1h-1zm5 3v4h1v-4zm-5 3h-1v1h2v-1z"/><path d="M24 44h-2v1h4v-1h-1zm1-5h-1v1h2v-1z"/><path d="M23 38h-1v1h2v-1z"/></g><g class="gotchi-secondary"><path d="M19 43h1v1h-1zm5 2h-2v1h4v-1h-1z"/><path d="M27 41v3h1v-3zm-6 3h-1v1h2v-1z"/><path d="M26 44h1v1h-1zm-7-3h-1v2h1v-1z"/></g><g class="gotchi-primary"><path d="M44 42h1v1h-1zm-1-6h1v1h-1z"/><path d="M42 37h1v1h-1z"/><path d="M42 39v-1h-2v1h1zm0 4v1h2v-1h-1z"/><path d="M40 44h-2v1h4v-1h-1z"/><path d="M38 42v-2h-1v4h1v-1z"/><path d="M40 40v-1h-2v1h1z"/></g><g class="gotchi-secondary"><path d="M42 44v1h2v-1h-1zm-5-2v-1h-1v3h1v-1z"/><path d="M40 45h-2v1h4v-1h-1z"/><path d="M37 44h1v1h-1zm7-1h1v1h-1z"/></g></g><g class="gotchi-handsDownOpen"><g class="gotchi-primary"><path d="M14 40h1v1h-1v-1zm-1-6h1v1h-1v-1z"/><path d="M14 33h1v1h-1v-1zm-2 2h1v1h-1v-1zm-5 3h1v4H7v-4zm5 3h2v1h-2v-1z"/><path d="M8 42h4v1H8v-1zm0-5h2v1H8v-1z"/><path d="M10,36h2v1h-2V36z"/></g><g class="gotchi-secondary"><path d="M14,39h1v1h-1V39z"/><path d="M12,40h2v1h-2V40z"/><path d="M8,41h4v1H8V41z"/></g><path d="M8,38v3h4v-1h2v-1h1v-5h-1v1h-1v1h-1v1h-2v1H8z" fill="#fff" /><g class="gotchi-primary"><path d="M49 40h1v1h-1v-1zm1-6h1v1h-1v-1z"/><path d="M49 33h1v1h-1v-1zm2 2h1v1h-1v-1zm5 3h1v4h-1v-4zm-6 3h2v1h-2v-1z"/><path d="M52 42h4v1h-4v-1zm2-5h2v1h-2v-1z"/><path d="M52,36h2v1h-2V36z"/></g><g class="gotchi-secondary"><path d="M49,39h1v1h-1V39z"/><path d="M50,40h2v1h-2V40z"/><path d="M52,41h4v1h-4V41z"/></g><path d="M54,38v-1h-2v-1h-1v-1h-1v-1h-1v5h1v1h2v1h4v-3H54z" fill="#fff" /></g><g class="gotchi-handsUp"><g class="gotchi-secondary"><path d="M50,38h1v1h-1V38z"/><path d="M49 39h1v1h-1v-1zm2-2h1v1h-1v-1z"/><path d="M52,36h2v1h-2V36z"/><path d="M54,35h2v1h-2V35z"/></g><path d="M52,32v1h-2v1h-1v5h1v-1h1v-1h1v-1h2v-1h2v-3H52z" fill="#fff"/><g class="gotchi-primary"><path d="M49,33h1v1h-1V33z"/><path d="M50 32h2v1h-2v-1zm0 7h1v1h-1v-1z"/><path d="M49 40h1v1h-1v-1zm2-2h1v1h-1v-1z"/><path d="M52 37h2v1h-2v-1zm0-6h4v1h-4v-1z"/><path d="M56,32h1v4h-1V32z"/><path d="M54,36h2v1h-2V36z"/></g><g class="gotchi-secondary"><path d="M13,38h1v1h-1V38z"/><path d="M14 39h1v1h-1v-1zm-2-2h1v1h-1v-1z"/><path d="M10,36h2v1h-2V36z"/><path d="M8,35h2v1H8V35z"/></g><path d="M8,32v3h2v1h2v1h1v1h1v1h1v-5h-1v-1h-2v-1H8z" fill="#fff"/><g class="gotchi-primary"><path d="M14,33h1v1h-1V33z"/><path d="M12 32h2v1h-2v-1zm1 7h1v1h-1v-1z"/><path d="M14 40h1v1h-1v-1zm-2-2h1v1h-1v-1z"/><path d="M10 37h2v1h-2v-1zm-2-6h4v1H8v-1z"/><path d="M7,32h1v4H7V32z"/><path d="M8,36h2v1H8V36z"/></g></g><g class="gotchi-wearable wearable-head"><svg x="5" y="2"><path d="M52 8V7h-4V6h-1v1h-1v1h-1v10h1v1h6v-1h1V8zM8 7H7V6H6v1H2v1H1v10h1v1h6v-1h1V8H8z" fill="#8c9cb3"/><g fill="#a4b6d1"><path d="M48 18v1h2v-1h-2zM47 6h1v1h-1V6z"/><path d="M46 5h1v1h-1V5zm4 3V7h-2v1h2zM4 18v1h2v-1H4zM6 6h1v1H6V6z"/><path d="M7 5h1v1H7V5zM4 7v1h2V7H4z"/></g><path d="M1 8v10h8V8H1zm44 0v10h8V8h-8z" fill="#523775"/><path d="M4 8h2v1H4zm44 9h2v1h-2zm0-9h2v1h-2zM4 17h2v1H4z" fill="#64438e"/><path d="M51 10V9h-4v1h-1v4h1v1h4v-1h1v-4h-1zm-4 2v-1h1v1h-1zm3 2h-2v-1h2v1zm1-2h-1v-1h1v1zM7 10V9H3v1H2v4h1v1h4v-1h1v-4H7zm-4 2v-1h1v1H3zm3 2H4v-1h2v1zm1-2H6v-1h1v1z" fill="#edd3fd"/><path d="M48 14v1h2v-1h-2zm0-5v4h2V9h-2zM4 14v1h2v-1H4zm0-5v4h2V9H4z" fill="#f5e6fd"/><path d="M51 14v1h-4v-1h-2v-2h-1V7h-1V5h-2V3h-2V2h-3V1h-5V0h-8v1h-5v1h-3v1h-2v2h-2v2h-1v5H9v2H7v1H3v-1H0v2h2v1h6v-1h2v3H9v2H8v5h1v2h1v1h2V19h8v-1h14v1h8v10h2v-1h1v-2h1v-5h-1v-2h-1v-3h2v1h6v-1h2v-2z" fill="#c72629"/><path d="M44 12v2h1v-2h-1zM9 12h1v2H9v-2z" fill="#a60020"/><path d="M48 15v2h2v-2h-2zm-3 4h-1v9h1v-2h1v-5h-1v-2zM9 21H8v5h1v2h1v-9H9v2zm-5-6v2h2v-2H4zm38-8h-1V5h-2V4h-3V3h-5V2h-8v1h-5v1h-3v1h-2v2h-1v10h7v-1h16v1h7V7z" fill="#ee3338"/><g fill="#fff"><path d="M32,8V7h-1v1h-2V7h-1v6h1V9h2v3h1v-1h2v-1h-2V9h3V8H32z"/><path d="M31 7V6h-2v1h2zm-6 1h-2V7h-1v1h-3v1h3v1h-2v1h2v1h1V9h2v4h1V7h-1v1z"/><path d="M25 7V6h-2v1h2zm-9-1v1h-1v2h1V8h1V7h1V6h-2z"/></g></svg></g><g class="gotchi-wearable wearable-hand wearable-hand-left"><svg x="3" y="33"><path d="M0 0h2v2H0z" fill="#ff8700"/><g fill="#ffaa4a"><path d="M1,0h1v1H1V0z"/><path d="M0,1h1v1H0V1z"/></g><path d="M0,0h1v1H0V0z" fill="#ffc88a"/><path d="M6 6h1v1H6z"/><path d="M5 5h1v1H5z"/><path d="M4 4h1v1H4z"/><path d="M3 3h1v1H3z"/><path d="M2 2h1v1H2zm5 5h1v1H7z"/><path d="M8 8h1v1H8z"/><path d="M9 9h1v1H9z"/><path d="M10 10h1v1h-1z"/></svg></g></svg>