<svg xmlns="http://www.w3.org/2000/svg" viewBox="0 0 64 64"><style>.gotchi-primary{fill:#0074F9;}.gotchi-secondary{fill:#C8E1FD;}.gotchi-cheek{fill:#F696C6;}.gotchi-eyeColor{fill:#EA8C27;}.gotchi-primary-mouth{fill:#0074F9;}.gotchi-sleeves-up{display:none;}.gotchi-handsUp{display:none;}.gotchi-handsDownOpen{display:block;}.gotchi-handsDownClosed{display:none;}
.gotchi-bg {
    display:none;
  }




svg {
  
  animation-duration:0.5s;
  animation-iteration-count: infinite;
  animation-timing-function: linear;
  animation-timing-function: steps(1);
}

.gotchi-shadow {
  
   
   animation-duration:0.5s;
   animation-iteration-count: infinite;
   animation-timing-function: linear;
   animation-timing-function: steps(2);
}

.gotchi-wearable {
  
  animation-duration:0.5s;
  animation-iteration-count: infinite;
  animation-timing-function: linear;
  animation-timing-function: steps(1);
}



.gotchi-handsDownClosed, .gotchi-handsUp, .gotchi-handsDownOpen, .gotchi-handsDownClosed, .gotchi-body, .gotchi-eyeColor, .gotchi-collateral, .gotchi-cheek, .gotchi-primary-mouth, .gotchi-wearable, .gotchi-sleeves   {
   
   animation-duration:0.5s;
   animation-iteration-count: infinite;
   animation-timing-function: linear;
   animation-timing-function: steps(2);
}

.wearable-hand {
  
  animation-duration:0.5s;
  animation-iteration-count: infinite;
  animation-timing-function: linear;
  animation-timing-function: steps(2);
}

@keyframes downHands {
  from {
    transform: translate(0px, -4px);
  }
 to {
    transform: translate(0px, -3px);
  }
}


@keyframes up {
  from {
    transform: translate(0px, 0);
  }
 to {
    transform: translate(0px, -1px);
  }
}


@keyframes down {
 from {
   transform: translate(0px, 0);
    }
 to {
      transform: translate(0px, 1px);
    }
}
</style><g class="gotchi-bg"><defs fill="#fff"><pattern id="a" patternUnits="userSpaceOnUse" width="4" height="4"><path d="M0 0h1v1H0zm2 2h1v1H2z"/></pattern><pattern id="b" patternUnits="userSpaceOnUse" x="0" y="0" width="2" height="2"><path d="M0 0h1v1H0z"/></pattern><pattern id="c" patternUnits="userSpaceOnUse" x="-2" y="0" width="8" height="1"><path d="M0 0h1v1H0zm2 0h1v1H2zm2 0h1v1H4z"/></pattern><pattern id="d" patternUnits="userSpaceOnUse" x="0" y="0" width="4" height="4"><path d="M0 0h1v1H0zm0 2h1v1H0zm1 0V1h1v1zm1 0h1v1H2zm0-1h1V0H2zm1 2h1v1H3z"/></pattern><pattern id="e" patternUnits="userSpaceOnUse" width="64" height="32"><path d="M4 4h1v1H4zm7 0h1v1h-1zm7 0h1v1h-1zm7 0h1v1h-1zm7 0h1v1h-1zm7 0h1v1h-1zm7 0h1v1h-1zm7 0h1v1h-1zm7 0h1v1h-1z"/><path fill="url(#a)" d="M0 8h64v7H0z"/><path fill="url(#b)" d="M0 16h64v1H0z"/><path fill="url(#c)" d="M0 18h64v1H0z"/><path fill="url(#b)" d="M22 18h15v1H22zM0 20h64v3H0z"/><path fill="url(#d)" d="M0 24h64v8H0z"/></pattern><mask id="f"><path fill="url(#e)" d="M0 0h64v32H0z"/></mask></defs><path fill="#fff" d="M0 0h64v32H0z"/><path fill="#dea8ff" class="gotchi-secondary" mask="url(#f)" d="M0 0h64v32H0z"/><path fill="#dea8ff" class="gotchi-secondary" d="M0 32h64v32H0z"/><path mask="url(#f)" fill="#fff" transform="matrix(1 0 0 -1 0 64)" d="M0 0h64v32H0z"/></g><g class="gotchi-body"><g class="gotchi-primary"><path d="M21 12h2v-2h-4v2h1z"/><path d="M19 14v-2h-2v2h1zm6-4h2V8h-4v2h1z"/><path d="M29 8h8V6H27v2h1zm16 6h2v-2h-2v1z"/><path d="M48 14h-1v39h-2v2h4V14zm-11-4h4V8h-4v1z"/><path d="M41 12h4v-2h-4v1zM17 53V14h-2v41h4v-2h-1z"/><path d="M24 51h-5v2h5v-1z"/><path d="M27 53h-3v2h5v-2h-1zm18-2h-5v2h5v-1z"/><path d="M35 51h-6v2h6v-1z"/><path d="M38 53h-3v2h5v-2h-1z"/></g><g class="gotchi-secondary"><path d="M18 43v6h2v-1h2v1h2v2h-5v2h-2V14h2v1h-1v26z"/><path d="M27 51h-3v2h5v-2h-1zm11 0h-3v2h5v-2h-1z"/><path d="M35 49h-2v-1h-2v1h-2v2h6v-1zM25 11h2v-1h-4v1h1zm-4 2h2v-1h-4v1h1zm24 31v5h-1v-1h-2v1h-2v2h5v2h2V14h-2v29z"/><path d="M37 8H27v1h5v1h5V9zm8 4h-4v2h4v-1z"/><path d="M41 10h-4v2h4v-1z"/></g><path d="M44 14h-3v-2h-4v-2h-5V9h-5v2h-4v2h-4v2h-1v34h2v-1h2v1h2v2h5v-2h2v-1h2v1h2v2h5v-2h2v-1h2v1h1V14z" fill="#fff"/></g><path class="gotchi-cheek" d="M21 32v2h2v-2h-1zm21 0h-1v2h2v-2z"/><g class="gotchi-primary-mouth"><path d="M29 32h-2v2h2v-1z"/><path d="M33 34h-4v2h6v-2h-1z"/><path d="M36 32h-1v2h2v-2z"/></g><g class="gotchi-shadow"><path opacity=".25" d="M25 58H19v1h1v1h24V59h1V58h-1z" fill="#000"/></g><g class="gotchi-eyeColor"><path d="M23 22h-1v1h1v-1zm0 5h-1v1h1v-1zm5-5h-1v1h1v-1zm0 5h-1v1h1v-1zm14 0h-1v1h1v-1zm0-5h-1v1h1v-1zm-5 0h-1v1h1v-1zm0 5h-1v1h1v-1z" class="gotchi-primary" /><g><path d="M25 26h-1v1h1v-1zm2-1h-1v1h1v-1zm-3-1h-1v1h1v-1z" /><path d="M25 23h-1v1h1v-1z" /><path d="M25 24h-1v1h1v-1zm2 0h-1v1h1v-1zm-1 2h-1v1h1v-1z" /><path d="M25 25h-1v1h1v-1z" /><path d="M26 25h-1v1h1v-1zm-2 0h-1v1h1v-1zm2-2h-1v1h1v-1z" /><path d="M26 24h-1v1h1v-1zm13 2h-1v1h1v-1zm2-1h-1v1h1v-1zm-3-1h-1v1h1v-1z" /><path d="M39 24h-1v1h1v-1z" /><path d="M38 23h1v1h-1m0 1h-1v1h1v-1zm2 1h-1v1h1v-1z" /><path d="M40 25h-1v1h1v-1z" /><path d="M39 25h-1v1h1v-1zm2-1h-1v1h1v-1z" /><path d="M40 23h-1v1h1v-1z" /><path d="M40 24h-1v1h1v-1z" /></g></g><g class="gotchi-collateral" fill="#0074f9"><path d="M30 16h1v1h-1zm4 1h1v1h-1z"/><path d="M33 16h1v1h-1zm1 2h1v1h-1z"/><path d="M34 19h1v1h-1z"/><path d="M34 20h1v1h-1zm-2 1h1v1h-1z"/><path d="M33 21h1v1h-1zm-2 0h1v1h-1z"/><path d="M30 21h1v1h-1z"/><path d="M29 20h1v1h-1z"/><path d="M30 19h1v1h-1z"/><path d="M30 18h1v1h-1z"/><path d="M29 18h1v1h-1zm4-7h1v1h-1zm-2 0h1v1h-1z"/><path d="M30 11h1v1h-1zm2 0h1v1h-1zm-3 4h1v1h-1zm0-2h1v1h-1z"/><path d="M29 12h1v1h-1zm0 2h1v1h-1zm5-2h1v1h-1zm-1 2h1v1h-1z"/><path d="M34 14h1v1h-1z"/><path d="M33 13h1v1h-1zm-1.5 2h1v1h-1z"/><path d="M31.5 14h1v1h-1z"/><path d="M31.5 13h1v1h-1zm0 3h1v1h-1zm0 2h1v1h-1z"/><path d="M31.5 19h1v1h-1zm0-2h1v1h-1z"/></g><g class="gotchi-wearable wearable-body"><svg x="9" y="29"><path d="M44 21v-5h-1v-3h-2v-1h-1V4h1V2h2V0h-3v2h-2v2h-2v1h-2v1h-2v1h-2v1h-2v1h-3v1h-4V9h-3V8h-2V7h-2V6h-2V5h-2V4H8V2H6V0H3v2h2v2h1v8H5v1H3v3H2v5H0v5h46v-5z" fill="#ffaa4a"/><g fill="#ff8700"><path d="M5 22H4v3h2v-6H5v3z"/><path d="M5 13H4v4H3v4H2v1H1v3h2v-3h1v-3h1v-1h1v-6H5v1zm5 11v1h2v-1h-2zm3 0v1h2v-1h-2zm18 0v1h2v-1h-2zm3 0v1h2v-1h-2zm-14 0v1h2v-1h-2zm4 0v1h2v-1h-2zm17-5h-1v6h2v-3h-1v-3z"/><path d="M44 22v-1h-1v-4h-1v-4h-1v-1h-1v6h1v1h1v3h1v3h2v-3h-1zM7 4h1V2H7v2zM5 2h1V0H5v2zm33 2h1V2h-1v2zm3-4h-1v2h1V0z"/></g><path d="M36 4v1h-2v1h-2v1h-2v1h-2v1h-3v1h-4V9h-3V8h-2V7h-2V6h-2V5h-2V4H6v22h4v-2h5v2h5v-2h6v2h5v-2h5v2h4V4z" fill="#191919"/><path d="M6 5v7h1v12h3v-2h5v2h5v-2h6v2h5v-2h5v2h3V12h1V5h-2v1h-2v1h-2v1h-2v1h-2v1h-2v1h-2v1h-6v-1h-2v-1h-2V9h-2V8h-2V7h-2V6H8V5H6z"/><path d="M21 15h1v1h-1v-1zm0 2h1v1h-1v-1zm3 0h1v1h-1v-1zm0-2h1v1h-1v-1z" fill="#ffaa4a"/><path d="M21 13h1v1h-1v-1zm3 0h1v1h-1v-1z" fill="#ffc88a"/><path d="M21 19h1v1h-1v-1zm3 0h1v1h-1v-1z" fill="#ff8700"/></svg></g><g class="gotchi-handsDownClosed"><g class="gotchi-primary"><path d="M19 42h1v1h-1zm1-6h1v1h-1z"/><path d="M21 37h1v1h-1zm5 3v4h1v-4zm-5 3h-1v1h2v-1z"/><path d="M24 44h-2v1h4v-1h-1zm1-5h-1v1h2v-1z"/><path d="M23 38h-1v1h2v-1z"/></g><g class="gotchi-secondary"><path d="M19 43h1v1h-1zm5 2h-2v1h4v-1h-1z"/><path d="M27 41v3h1v-3zm-6 3h-1v1h2v-1z"/><path d="M26 44h1v1h-1zm-7-3h-1v2h1v-1z"/></g><g class="gotchi-primary"><path d="M44 42h1v1h-1zm-1-6h1v1h-1z"/><path d="M42 37h1v1h-1z"/><path d="M42 39v-1h-2v1h1zm0 4v1h2v-1h-1z"/><path d="M40 44h-2v1h4v-1h-1z"/><path d="M38 42v-2h-1v4h1v-1z"/><path d="M40 40v-1h-2v1h1z"/></g><g class="gotchi-secondary"><path d="M42 44v1h2v-1h-1zm-5-2v-1h-1v3h1v-1z"/><path d="M40 45h-2v1h4v-1h-1z"/><path d="M37 44h1v1h-1zm7-1h1v1h-1z"/></g></g><g class="gotchi-handsDownOpen"><g class="gotchi-primary"><path d="M14 40h1v1h-1v-1zm-1-6h1v1h-1v-1z"/><path d="M14 33h1v1h-1v-1zm-2 2h1v1h-1v-1zm-5 3h1v4H7v-4zm5 3h2v1h-2v-1z"/><path d="M8 42h4v1H8v-1zm0-5h2v1H8v-1z"/><path d="M10,36h2v1h-2V36z"/></g><g class="gotchi-secondary"><path d="M14,39h1v1h-1V39z"/><path d="M12,40h2v1h-2V40z"/><path d="M8,41h4v1H8V41z"/></g><path d="M8,38v3h4v-1h2v-1h1v-5h-1v1h-1v1h-1v1h-2v1H8z" fill="#fff" /><g class="gotchi-primary"><path d="M49 40h1v1h-1v-1zm1-6h1v1h-1v-1z"/><path d="M49 33h1v1h-1v-1zm2 2h1v1h-1v-1zm5 3h1v4h-1v-4zm-6 3h2v1h-2v-1z"/><path d="M52 42h4v1h-4v-1zm2-5h2v1h-2v-1z"/><path d="M52,36h2v1h-2V36z"/></g><g class="gotchi-secondary"><path d="M49,39h1v1h-1V39z"/><path d="M50,40h2v1h-2V40z"/><path d="M52,41h4v1h-4V41z"/></g><path d="M54,38v-1h-2v-1h-1v-1h-1v-1h-1v5h1v1h2v1h4v-3H54z" fill="#fff" /></g><g class="gotchi-handsUp"><g class="gotchi-secondary"><path d="M50,38h1v1h-1V38z"/><path d="M49 39h1v1h-1v-1zm2-2h1v1h-1v-1z"/><path d="M52,36h2v1h-2V36z"/><path d="M54,35h2v1h-2V35z"/></g><path d="M52,32v1h-2v1h-1v5h1v-1h1v-1h1v-1h2v-1h2v-3H52z" fill="#fff"/><g class="gotchi-primary"><path d="M49,33h1v1h-1V33z"/><path d="M50 32h2v1h-2v-1zm0 7h1v1h-1v-1z"/><path d="M49 40h1v1h-1v-1zm2-2h1v1h-1v-1z"/><path d="M52 37h2v1h-2v-1zm0-6h4v1h-4v-1z"/><path d="M56,32h1v4h-1V32z"/><path d="M54,36h2v1h-2V36z"/></g><g class="gotchi-secondary"><path d="M13,38h1v1h-1V38z"/><path d="M14 39h1v1h-1v-1zm-2-2h1v1h-1v-1z"/><path d="M10,36h2v1h-2V36z"/><path d="M8,35h2v1H8V35z"/></g><path d="M8,32v3h2v1h2v1h1v1h1v1h1v-5h-1v-1h-2v-1H8z" fill="#fff"/><g class="gotchi-primary"><path d="M14,33h1v1h-1V33z"/><path d="M12 32h2v1h-2v-1zm1 7h1v1h-1v-1z"/><path d="M14 40h1v1h-1v-1zm-2-2h1v1h-1v-1z"/><path d="M10 37h2v1h-2v-1zm-2-6h4v1H8v-1z"/><path d="M7,32h1v4H7V32z"/><path d="M8,36h2v1H8V36z"/></g></g><g class="gotchi-wearable wearable-face"><svg x="48" y="25"><path d="M3 2V1H2V0H0v3h2V2z"/><path d="M2 3h1v1H2z"/><path d="M1 4h1v1H1z"/><path d="M2 5h1v1H2z"/><path d="M1 6h1v1H1z"/><path d="M1,1h1v1H1V1z" fill="#f0f"/></svg></g><g class="gotchi-wearable wearable-eyes"><svg x="15" y="19"><g fill="#42433d"><path d="M5 9h1v1H5V9zm0-7h1v1H5V2z"/><path d="M6 10h1v1H6v-1zm8-1h1v1h-1V9z"/><path d="M6 1h1v1H6V1zm7 9h1v1h-1v-1z"/><path d="M4 3v2H0v2h4v2h1V3H4zm3 8h6v1H7v-1zm14 0h6v1h-6v-1zm-7-9h1v1h-1V2z"/><path d="M13,1h1v1h-1V1z"/><path d="M7 0h6v1H7V0zm14 0h6v1h-6V0zm-2 9h1v1h-1V9z"/><path d="M20 10h1v1h-1v-1zm7 0h1v1h-1v-1zm3-5V3h-1v6h1V7h4V5h-4z"/><path d="M28 9h1v1h-1V9zm-8-8h1v1h-1V1z"/><path d="M28 2h1v1h-1V2zm-9 0h1v1h-1V2z"/><path d="M18 3v2h-2V3h-1v6h1V7h2v2h1V3h-1zm9-2h1v1h-1V1z"/></g><g opacity=".9"><linearGradient id="A" gradientUnits="userSpaceOnUse" x1="17" y1="11" x2="17" y2="1"><stop offset="0" stop-color="#ee34b8"/><stop offset=".085" stop-color="#ef3dbb"/><stop offset=".225" stop-color="#f155c4"/><stop offset=".4" stop-color="#f47dd2"/><stop offset=".606" stop-color="#f9b4e5"/><stop offset=".834" stop-color="#fffafd"/><stop offset=".85" stop-color="#fff"/></linearGradient><path d="M14 2h-1V1H7v1H6v1H5v6h1v1h1v1h6v-1h1V9h1V3h-1V2zm14 0h-1V1h-6v1h-1v1h-1v6h1v1h1v1h6v-1h1V9h1V3h-1V2z" fill="url(#A)"/></g></svg></g><g class="gotchi-wearable wearable-head"><svg x="19" y="4"><path d="M25 0v1h-1v2h-1v1h-1v2h-1v1h-1v2h-1v4h2v1h4V8h1V0z" fill="#002de4"/><path d="M24 3v1h-1v3h2V3zm-2 5V7h-1v2h-1v3h2v1h2V8h-1z" fill="#1973ff"/><path d="M24 3v1h-1v3h1V5h1V3zm-2 4h-1v2h-1v3h1v-1h1V9h1V8h-1z" fill="#9dc3ff"/><path d="M1 0v1h1v2h1v1h1v2h1v1h1v2h1v4H5v1H1V8H0V0z" fill="#002de4"/><path d="M2 3v1h1v3H1V3zm2 5V7h1v2h1v3H4v1H2V8h1z" fill="#1973ff"/><path d="M2 3v1h1v3H2V5H1V3zm2 4h1v2h1v3H5v-1H4V9H3V8h1z" fill="#9dc3ff"/></svg></g>"><svg x="9" y="29"><g><g class="gotchi-sleeves gotchi-sleeves-left gotchi-sleeves-up"><path d="M41 3v1h-1v8h1v-1h1v-1h1V3z" fill="#191919"/><path d="M40 11h1v-1h1V4h-1v1h-1v6z"/></g><g class="gotchi-sleeves gotchi-sleeves-left gotchi-sleeves-down"><path d="M41 13v-1h-1V4h1v1h1v1h1v7z" fill="#191919"/><path d="M40 11h1v1h1V6h-1V5h-1v6z"/></g><g class="gotchi-sleeves gotchi-sleeves-right gotchi-sleeves-up"><path d="M5 3v1h1v8H5v-1H4v-1H3V3z" fill="#191919"/><path d="M6,5H5V4H4v6h1v1h1V5z"/></g><g class="gotchi-sleeves gotchi-sleeves-right gotchi-sleeves-down"><path d="M5 13v-1h1V4H5v1H4v1H3v7z" fill="#191919"/><path d="M6,5H5v1H4v6h1v-1h1V5z"/></g></g></svg><g class="gotchi-wearable wearable-hand wearable-hand-left"><svg x="1" y="21"><path d="M16 10V7h-1V6h-2V5h-1V4h-1V3h-1V0H6v3H5v1H4v1H3v1H1v1H0v3h1v3H0v4h1v3H0v3h1v1h1v1h1v1h10v-1h1v-1h1v-1h1v-3h-1v-3h1v-4h-1v-3z" fill="#1ca9d7"/><path d="M13 7V6h-1V5h-1V4h-1V3H6v1H5v1H4v1H3v1H1v3h14V7zM1 13h14v4H1z" fill="#40e9ff"/><path d="M2 11h12v2H2zm0 7h12v2H2z" fill="#0dbbff"/><path d="M1 20v3h1v1h1v1h10v-1h1v-1h1v-3z" fill="#40e9ff"/><path d="M6 0h4v3H6z" fill="#1c8dd7"/><path d="M6,0v1h1v2h1V1h2V0H6z" fill="#2e9ddb"/><path d="M5 4v1H4v5h2V4H5zM4 20v5h2v-5H4zm1-7H4v4h1v-4z" fill="#66f4ff"/><path d="M13 7V6h-1V5h-1v5h4V7h-2zm-2 13v5h2v-1h1v-1h1v-3h-4zm0-7v4h4v-4h-4zm-9 7h1v-2H2v2zm0-7h1v-2H2v2z" fill="#00d5e5"/><path d="M3 6v1H2v3h2V6H3zM2 20v4h1v1h1v-5H2zm0-7v4h2v-4H2z" fill="#b3f6ff"/><path d="M1 23h1v-3H1v3zm0-6h1v-4H1v4zM1 7v3h1V7H1z" fill="#fff"/></svg></g><g class="gotchi-wearable wearable-hand wearable-hand-right"><svg x="6" y="22"><g transform="scale(-1, 1) translate(-52, 0)"><path d="M8 5V4H7V3H6V1H5V0H4v1H3v2H2v1H1v1H0v1h1v1h1v1h1v2h1v23h1V10h1V8h1V7h1V6h1V5z" fill="#47289b"/><path d="M3,7h3v1H3V7z" fill="#cb5bff"/><path d="M5,4h2v1H5V4z" fill="#6f16e2"/><g fill="#3a2b77"><path d="M5 6h1v1H5V6zm0-5h1v2H5V1z"/><path d="M6 3h1v1H6V3zm2 2h1v1H8V5z"/><path d="M7 4h1v1H7V4zm0 2h1v1H7V6zM1 4h1v1H1V4zm0 2h1v1H1V6zm2 4h1V8H3v2z"/><path d="M2,7h1v1H2V7z"/></g><path d="M4,5h3v1H4V5z" fill="#f37aff"/><path d="M5,3h1v2H5V3z" fill="#5d24bf"/><g fill="#8000ff"><path d="M3 6h2v1H3V6zm2-3h1v1H5V3z"/><path d="M4,7h1v3H4V7z"/></g><g fill="#b135ff"><path d="M4,5h1v2H4V5z"/><path d="M5,7h1v1H5V7z"/><path d="M6,5h1v2H6V5z"/></g><path d="M3 3v1H2v2h3V3z" fill="#ffa3ff"/><path d="M3,4h1v2H3V4z" fill="#ffc9ff"/><path d="M2 5.5h1V7H2V5.5zM6 5v1h2V5H6z" fill="#cb5bff"/><path d="M4 1h1v5H4z" fill="#fff"/><path d="M1 5h4v1H1z" fill="#ffc9ff"/><path d="M3 5h1v1H3z" fill="#fff"/></g></svg></g><g class="gotchi-wearable wearable-pet"><svg x="42" y="43"><path d="M19 2V1h-1V0h-5v1h-1v1H8V1H7V0H2v1H1v1H0v2h1v1h1v1H1v3h1v1h1v1H2v1H1v2h1v1H1v2h4v1h3v-1h1v-1h2v1h1v1h3v-1h4v-2h-1v-1h1v-2h-1v-1h-1v-1h1V9h1V6h-1V5h1V4h1V2h-1z"/><path d="M18 3h-1v1h-3V3h-2v1h1v1h5V4h1V3h-1zM6 3v1H3V3H1v1h1v1h5V4h1V3H6z" fill="#fff"/><g fill="#ffc36b"><path d="M17 1h-4v1h5V1h-1zm-7 4h2V4h-1V3H9v1H8v1h2zM4 2h3V1H2v1h2zm5 11v2h2v-2H9z"/><path d="M16 12v-2H4v2H2v2h2v1H2v1h3v-3h1v3H5v1h3v-4h1v-1h2v1h1v4h3v-1h-1v-3h1v3h3v-1h-2v-1h2v-2h-2z"/></g><path d="M17 6H2v3h16V6h-1zm0 2H3V7h14v1z" fill="#ef1e26"/><defs /></svg></g></svg>