<svg xmlns="http://www.w3.org/2000/svg" viewbox="0 0 64 64"><svg xmlns="http://www.w3.org/2000/svg" viewBox="0 0 64 64"><style>.gotchi-primary{fill:#2664BA;}.gotchi-secondary{fill:#D4E0F1;}.gotchi-cheek{fill:#F696C6;}.gotchi-eyeColor{fill:#2664BA;}.gotchi-primary-mouth{fill:#2664BA;}.gotchi-sleeves-up{display:none;}.gotchi-handsUp{display:none;}.gotchi-handsDownOpen{display:block;}.gotchi-handsDownClosed{display:none;}
.gotchi-bg {
    display:none;
  }




svg {
  
  animation-duration:0.5s;
  animation-iteration-count: infinite;
  animation-timing-function: linear;
  animation-timing-function: steps(1);
}

.gotchi-shadow {
  
   
   animation-duration:0.5s;
   animation-iteration-count: infinite;
   animation-timing-function: linear;
   animation-timing-function: steps(2);
}

.gotchi-wearable {
  
  animation-duration:0.5s;
  animation-iteration-count: infinite;
  animation-timing-function: linear;
  animation-timing-function: steps(1);
}



.gotchi-handsDownClosed, .gotchi-handsUp, .gotchi-handsDownOpen, .gotchi-handsDownClosed, .gotchi-body, .gotchi-eyeColor, .gotchi-collateral, .gotchi-cheek, .gotchi-primary-mouth, .gotchi-wearable, .gotchi-sleeves   {
   
   animation-duration:0.5s;
   animation-iteration-count: infinite;
   animation-timing-function: linear;
   animation-timing-function: steps(2);
}

.wearable-hand {
  
  animation-duration:0.5s;
  animation-iteration-count: infinite;
  animation-timing-function: linear;
  animation-timing-function: steps(2);
}

@keyframes downHands {
  from {
    transform: translate(0px, -4px);
  }
 to {
    transform: translate(0px, -3px);
  }
}


@keyframes up {
  from {
    transform: translate(0px, 0);
  }
 to {
    transform: translate(0px, -1px);
  }
}


@keyframes down {
 from {
   transform: translate(0px, 0);
    }
 to {
      transform: translate(0px, 1px);
    }
}
</style><g class="gotchi-bg"><defs fill="#fff"><pattern id="a" patternUnits="userSpaceOnUse" width="4" height="4"><path d="M0 0h1v1H0zm2 2h1v1H2z"></path></pattern><pattern id="b" patternUnits="userSpaceOnUse" x="0" y="0" width="2" height="2"><path d="M0 0h1v1H0z"></path></pattern><pattern id="c" patternUnits="userSpaceOnUse" x="-2" y="0" width="8" height="1"><path d="M0 0h1v1H0zm2 0h1v1H2zm2 0h1v1H4z"></path></pattern><pattern id="d" patternUnits="userSpaceOnUse" x="0" y="0" width="4" height="4"><path d="M0 0h1v1H0zm0 2h1v1H0zm1 0V1h1v1zm1 0h1v1H2zm0-1h1V0H2zm1 2h1v1H3z"></path></pattern><pattern id="e" patternUnits="userSpaceOnUse" width="64" height="32"><path d="M4 4h1v1H4zm7 0h1v1h-1zm7 0h1v1h-1zm7 0h1v1h-1zm7 0h1v1h-1zm7 0h1v1h-1zm7 0h1v1h-1zm7 0h1v1h-1zm7 0h1v1h-1z"></path><path fill="url(#a)" d="M0 8h64v7H0z"></path><path fill="url(#b)" d="M0 16h64v1H0z"></path><path fill="url(#c)" d="M0 18h64v1H0z"></path><path fill="url(#b)" d="M22 18h15v1H22zM0 20h64v3H0z"></path><path fill="url(#d)" d="M0 24h64v8H0z"></path></pattern><mask id="f"><path fill="url(#e)" d="M0 0h64v32H0z"></path></mask></defs><path fill="#fff" d="M0 0h64v32H0z"></path><path fill="#dea8ff" class="gotchi-secondary" mask="url(#f)" d="M0 0h64v32H0z"></path><path fill="#dea8ff" class="gotchi-secondary" d="M0 32h64v32H0z"></path><path mask="url(#f)" fill="#fff" transform="matrix(1 0 0 -1 0 64)" d="M0 0h64v32H0z"></path></g><g class="gotchi-body"><g class="gotchi-primary"><path d="M21 12h2v-2h-4v2h1z"></path><path d="M19 14v-2h-2v2h1zm6-4h2V8h-4v2h1z"></path><path d="M29 8h8V6H27v2h1zm16 6h2v-2h-2v1z"></path><path d="M48 14h-1v39h-2v2h4V14zm-11-4h4V8h-4v1z"></path><path d="M41 12h4v-2h-4v1zM17 53V14h-2v41h4v-2h-1z"></path><path d="M24 51h-5v2h5v-1z"></path><path d="M27 53h-3v2h5v-2h-1zm18-2h-5v2h5v-1z"></path><path d="M35 51h-6v2h6v-1z"></path><path d="M38 53h-3v2h5v-2h-1z"></path></g><g class="gotchi-secondary"><path d="M18 43v6h2v-1h2v1h2v2h-5v2h-2V14h2v1h-1v26z"></path><path d="M27 51h-3v2h5v-2h-1zm11 0h-3v2h5v-2h-1z"></path><path d="M35 49h-2v-1h-2v1h-2v2h6v-1zM25 11h2v-1h-4v1h1zm-4 2h2v-1h-4v1h1zm24 31v5h-1v-1h-2v1h-2v2h5v2h2V14h-2v29z"></path><path d="M37 8H27v1h5v1h5V9zm8 4h-4v2h4v-1z"></path><path d="M41 10h-4v2h4v-1z"></path></g><path d="M44 14h-3v-2h-4v-2h-5V9h-5v2h-4v2h-4v2h-1v34h2v-1h2v1h2v2h5v-2h2v-1h2v1h2v2h5v-2h2v-1h2v1h1V14z" fill="#fff"></path></g><path class="gotchi-cheek" d="M21 32v2h2v-2h-1zm21 0h-1v2h2v-2z"></path><g><g class="gotchi-primary-mouth">
<path d="M33 34h-4v2h6v-2h-1z">
</path></g></g><g class="gotchi-shadow"><path opacity=".25" d="M25 58H19v1h1v1h24V59h1V58h-1z" fill="#000"></path></g><g class="gotchi-eyeColor"><path d="M23 22h-1v1h1v-1zm0 5h-1v1h1v-1zm5-5h-1v1h1v-1zm0 5h-1v1h1v-1zm14 0h-1v1h1v-1zm0-5h-1v1h1v-1zm-5 0h-1v1h1v-1zm0 5h-1v1h1v-1z" class="gotchi-primary"></path><g><path d="M25 26h-1v1h1v-1zm2-1h-1v1h1v-1zm-3-1h-1v1h1v-1z"></path><path d="M25 23h-1v1h1v-1z"></path><path d="M25 24h-1v1h1v-1zm2 0h-1v1h1v-1zm-1 2h-1v1h1v-1z"></path><path d="M25 25h-1v1h1v-1z"></path><path d="M26 25h-1v1h1v-1zm-2 0h-1v1h1v-1zm2-2h-1v1h1v-1z"></path><path d="M26 24h-1v1h1v-1zm13 2h-1v1h1v-1zm2-1h-1v1h1v-1zm-3-1h-1v1h1v-1z"></path><path d="M39 24h-1v1h1v-1z"></path><path d="M38 23h1v1h-1m0 1h-1v1h1v-1zm2 1h-1v1h1v-1z"></path><path d="M40 25h-1v1h1v-1z"></path><path d="M39 25h-1v1h1v-1zm2-1h-1v1h1v-1z"></path><path d="M40 23h-1v1h1v-1z"></path><path d="M40 24h-1v1h1v-1z"></path></g></g><g class="gotchi-collateral" fill="#2664ba"><path d="M30 15v2h3v1h-3v1h1.5v1h1v-1H34v-3h-3v-1h3v-1h-1.5v-1h-1v1H30zm4 5h1v1h-1z"></path><path d="M35 19h1v1h-1z"></path><path d="M36 16v3h1v-5h-1v1zm-2-4h1v1h-1z"></path><path d="M35 13h1v1h-1zm-7 5v-4h-1v5h1zm1 2h1v1h-1z"></path><path d="M28 19h1v1h-1zm1-7h1v1h-1z"></path><path d="M28 13h1v1h-1z"></path></g><g class="gotchi-wearable wearable-body"><svg x="11" y="33"><path d="M38 0h-3v1h-2v1h-2v1h-2v1h-2v1h-2v2h-2v1h-1v1h-2V8h-1V7h-2V5h-2V4h-2V3h-2V2H9V1H7V0H4v22h4v-2h5v2h5v-2h6v2h5v-2h5v2h4V0z" fill="#0064b4"></path><path d="M36 15v-2h-1v-2h-1v-1h-5v1h-2v2h-1v2h-1v1h-1v1h-2v1h2v2h5v-2h5v2h3v-4h-1v-1zm-18 2v-1h-1v-1h-1v-2h-1v-2h-2v-1H8v1H7v2H6v3H5v4h3v-2h5v2h5v-2h2v-1h-2z" fill="#0af"></path><g fill="#ff0096"><path d="M14,5h-1v1h2V5H14z"></path><path d="M15 6v1h2V6h-2zm13-1h-1v1h2V5h-1z"></path><path d="M25,6v1h2V6H25z"></path></g><g fill="#0000be"><path d="M14,4h-1v1h2V4H14z"></path><path d="M15 5v1h2V5h-2zm13-1h-1v1h2V4h-1z"></path><path d="M25,5v1h2V5H25z"></path></g><g fill="#ffbe00"><path d="M5 8V7H4v3h1V8zm-1 5h1v1H4v-1z"></path><path d="M20 10v1h2v-1h-2zm-7-4V4h-2V3H9V2H7V1H4v2h1v4h1v3H5v1H4v1h1v1h1v-2h1v-1h1V7H7V4h1v3h1v2h2V7h-1V5h1v2h1v2h1v1h1V7h1V6h-2z"></path><path d="M19,9V8h-2v1h1v1h2V9H19z"></path><path d="M16 7h1v1h-1V7zm21-6h-2v1h-2v1h-2v1h-2v2h-2v1h1v3h1V9h1V7h1V5h1v2h-1v2h2V7h1V4h1v3h-1v3h1v1h1v2h1v-1h1v-1h-1v-1h-1V7h1V3h1V1h-1z"></path><path d="M37 9v1h1V7h-1v2zm0 4h1v1h-1v-1zm-16-1h-1v-1h-3v-1h-1v3h1v-1h2v1h-2v2h1v-1h6v1h1v-2h-2v-1h2v1h1v-3h-1v1h-3v1h-1zm4-5h1v1h-1V7z"></path><path d="M23,8v1h-1v1h2V9h1V8H23z"></path></g><g fill="#fff"><path d="M17 10h1v1h-1v-1zm3 6v1h2v-1h-2z"></path><path d="M19 15v-1h-1v2h2v-1h-1zm-2-7h-1V7h-1v3h2V8zm7 2h1v1h-1v-1z"></path><path d="M26 7v1h-1v2h2V7h-1zm-3 8h-1v1h2v-2h-1v1z"></path></g><path d="M7,10h1v1H7V10z"></path><path d="M6 12v1h1v-2H6v1zM5 5V3H4v4h1V5z"></path><path d="M6,9V7H5v3h1V9z"></path><path d="M4 10h1v1H4v-1zm0 2h1v1H4v-1z"></path><path d="M5 14H4v2h2v-3H5v1zm12-5h1v1h-1V9zM8 5V4H7v3h1V5z"></path><path d="M12 9V7h-1v2H9V7H8v3h5V9h-1zm5 4h-1v2h1v-2z"></path><path d="M17 15h1v1h-1v-1zm-1-4v-1h-1V7h-1v3h-1v1h2v2h1v-2zm-5-7h2V3h-2v1z"></path><path d="M10 3h1V2H9v1h1z"></path><path d="M8 2h1V1H7v1h1zm11 6h1v1h-1V8z"></path><path d="M18 7h-1v1h2V7h-1zm4 9v1h2v-1h-2zm-3 0h-1v1h2v-1h-1zM7 1V0H4v1h3zm4 4h-1v2h1V5zm8 8v-1h-2v1h2zm0-2h1v-1h-2v1h1z"></path><path d="M20 11v1h2v-1h-2zM35 0v1h3V0h-3zm-1 10h1v1h-1v-1z"></path><path d="M36 11h-1v2h1v-2zm0-3v2h1V7h-1v1z"></path><path d="M37 10h1v1h-1v-1zm0 2h1v1h-1v-1z"></path><path d="M36 14v2h2v-2h-1v-1h-1v1zm-4-8V5h-1v2h1V6zm-4 3V7h-1v3h-1v3h1v-2h2v-1h-1V9zm-4 0h1v1h-1V9zm13-5v3h1V3h-1v1zm-2 2V4h-1v3h1V6z"></path><path d="M34 8V7h-1v2h-2V7h-1v2h-1v1h5V8zm-9 6v1h1v-2h-1v1z"></path><path d="M24 15h1v1h-1v-1zm0-3h-1v1h2v-1h-1zm7-8V3h-2v1h2z"></path><path d="M31,2v1h2V2H31z"></path><path d="M33 1v1h2V1h-2zM23 11h1v-1h-2v1h1zm-1-3h1v1h-1V8z"></path><path d="M25 8V7h-2v1h2zm-3 2V9h-2v1h2zm0 6v-1h1v-1h-4v1h1v1h2zm-2 1v1h2v-1h-2z"></path><defs></defs></svg></g><g class="gotchi-handsDownClosed"><g class="gotchi-primary"><path d="M19 42h1v1h-1zm1-6h1v1h-1z"></path><path d="M21 37h1v1h-1zm5 3v4h1v-4zm-5 3h-1v1h2v-1z"></path><path d="M24 44h-2v1h4v-1h-1zm1-5h-1v1h2v-1z"></path><path d="M23 38h-1v1h2v-1z"></path></g><g class="gotchi-secondary"><path d="M19 43h1v1h-1zm5 2h-2v1h4v-1h-1z"></path><path d="M27 41v3h1v-3zm-6 3h-1v1h2v-1z"></path><path d="M26 44h1v1h-1zm-7-3h-1v2h1v-1z"></path></g><g class="gotchi-primary"><path d="M44 42h1v1h-1zm-1-6h1v1h-1z"></path><path d="M42 37h1v1h-1z"></path><path d="M42 39v-1h-2v1h1zm0 4v1h2v-1h-1z"></path><path d="M40 44h-2v1h4v-1h-1z"></path><path d="M38 42v-2h-1v4h1v-1z"></path><path d="M40 40v-1h-2v1h1z"></path></g><g class="gotchi-secondary"><path d="M42 44v1h2v-1h-1zm-5-2v-1h-1v3h1v-1z"></path><path d="M40 45h-2v1h4v-1h-1z"></path><path d="M37 44h1v1h-1zm7-1h1v1h-1z"></path></g></g><g class="gotchi-handsDownOpen"><g class="gotchi-primary"><path d="M14 40h1v1h-1v-1zm-1-6h1v1h-1v-1z"></path><path d="M14 33h1v1h-1v-1zm-2 2h1v1h-1v-1zm-5 3h1v4H7v-4zm5 3h2v1h-2v-1z"></path><path d="M8 42h4v1H8v-1zm0-5h2v1H8v-1z"></path><path d="M10,36h2v1h-2V36z"></path></g><g class="gotchi-secondary"><path d="M14,39h1v1h-1V39z"></path><path d="M12,40h2v1h-2V40z"></path><path d="M8,41h4v1H8V41z"></path></g><path d="M8,38v3h4v-1h2v-1h1v-5h-1v1h-1v1h-1v1h-2v1H8z" fill="#fff"></path><g class="gotchi-primary"><path d="M49 40h1v1h-1v-1zm1-6h1v1h-1v-1z"></path><path d="M49 33h1v1h-1v-1zm2 2h1v1h-1v-1zm5 3h1v4h-1v-4zm-6 3h2v1h-2v-1z"></path><path d="M52 42h4v1h-4v-1zm2-5h2v1h-2v-1z"></path><path d="M52,36h2v1h-2V36z"></path></g><g class="gotchi-secondary"><path d="M49,39h1v1h-1V39z"></path><path d="M50,40h2v1h-2V40z"></path><path d="M52,41h4v1h-4V41z"></path></g><path d="M54,38v-1h-2v-1h-1v-1h-1v-1h-1v5h1v1h2v1h4v-3H54z" fill="#fff"></path></g><g class="gotchi-handsUp"><g class="gotchi-secondary"><path d="M50,38h1v1h-1V38z"></path><path d="M49 39h1v1h-1v-1zm2-2h1v1h-1v-1z"></path><path d="M52,36h2v1h-2V36z"></path><path d="M54,35h2v1h-2V35z"></path></g><path d="M52,32v1h-2v1h-1v5h1v-1h1v-1h1v-1h2v-1h2v-3H52z" fill="#fff"></path><g class="gotchi-primary"><path d="M49,33h1v1h-1V33z"></path><path d="M50 32h2v1h-2v-1zm0 7h1v1h-1v-1z"></path><path d="M49 40h1v1h-1v-1zm2-2h1v1h-1v-1z"></path><path d="M52 37h2v1h-2v-1zm0-6h4v1h-4v-1z"></path><path d="M56,32h1v4h-1V32z"></path><path d="M54,36h2v1h-2V36z"></path></g><g class="gotchi-secondary"><path d="M13,38h1v1h-1V38z"></path><path d="M14 39h1v1h-1v-1zm-2-2h1v1h-1v-1z"></path><path d="M10,36h2v1h-2V36z"></path><path d="M8,35h2v1H8V35z"></path></g><path d="M8,32v3h2v1h2v1h1v1h1v1h1v-5h-1v-1h-2v-1H8z" fill="#fff"></path><g class="gotchi-primary"><path d="M14,33h1v1h-1V33z"></path><path d="M12 32h2v1h-2v-1zm1 7h1v1h-1v-1z"></path><path d="M14 40h1v1h-1v-1zm-2-2h1v1h-1v-1z"></path><path d="M10 37h2v1h-2v-1zm-2-6h4v1H8v-1z"></path><path d="M7,32h1v4H7V32z"></path><path d="M8,36h2v1H8V36z"></path></g></g><g class="gotchi-wearable wearable-eyes"><svg x="15" y="22"><path d="M0,0v2h3v2h1v2h1v1h1v1h7V7h1V6h1V4h1V2h2v2h1v2h1v1h1v1h7V7h1V6h1V4h1V2h3V0H0z"></path><path d="M29 1v2h-1V2h-1V1zM14 1v2h-1V2h-1V1z" fill="#fff"></path></svg></g><g class="gotchi-wearable wearable-head"><svg x="15" y="6"><path d="M33 8h-1V6h-2V4h-4V2h-4V0H12v2H8v2H4v2H2v2H0v37h2V19h1v-1h2v-1h2v-1h2v-1h2v-1h1v-1h1v-1h1v1h1v1h2v1h2v1h2v1h2v1h2v1h2v1h2v1h2v1h1v23h2V8z" fill="#9300d7"></path><g fill="#ac27ff"><path d="M12 10h-1V8h-1V7H9V5H8v1H4v2H2v10h1v-1h2v-1h2v-1h2v-1h3v-2h1v-1h-1z"></path><path d="M31 8h-1V6h-4V4h-4V2H12v2H9v1h1v2h1v1h1v2h1v1h1v1h1v1h2v1h2v1h2v1h2v1h2v1h2v1h2v1h2v1h1V8z"></path></g><g fill="#c260ff"><path d="M11 5h-1v2h1V6zM8 5h1v1H8z"></path><path d="M11 4h1v1h-1zM9 4h1v1H9zm5 0V3h-1v2h1zm1 1h1V3h-1v1zm3 0h1v1h-1z"></path><path d="M17 5h1V3h-1v1zm2 0h2V4h-1V3h-1v1z"></path><path d="M22 6h1V5h-2v1zm3-1h1v1h-1z"></path><path d="M25 5V4h-2v1h1zm-4-2h1v1h-1zm-8 4h1v1h-1zm-2 0h1v1h-1z"></path><path d="M12 7h1V5h-1v1zM8 8h1V7H7v1z"></path><path d="M7 7V6H5v1h1z"></path><path d="M4 7h1v1H4zm11 0h1v1h-1z"></path><path d="M15 6V5h-1v2h1zm3 2h1V7h-2v1z"></path><path d="M16 7h1V5h-1v1zm4 0h1V6h-2v1z"></path><path d="M21 7v1h2V7h-1z"></path><path d="M23 6v1h2V6h-1z"></path><path d="M26 8h1V7h-2v1zm3-1h1v1h-1z"></path><path d="M29 7V6h-2v1h1zM13 8h-1v2h1V9zM9 8h1v1H9z"></path><path d="M7 9v1h2V9H8z"></path><path d="M7 9V8H5v1h1z"></path><path d="M5 10V9H3v1h1zm10-2h-1v2h1V9zm1 0h1v1h-1z"></path><path d="M18 9h-1v1h2V9z"></path><path d="M19 8v1h2V8h-1z"></path><path d="M22 10h1V9h-2v1z"></path><path d="M24 9h1V8h-2v1z"></path><path d="M25 9v1h2V9h-1z"></path><path d="M27 8v1h2V8h-1zm-16 3h1v1h-1z"></path><path d="M10 11h1v-1H9v1z"></path><path d="M7 11v1h2v-1H8z"></path><path d="M7 11v-1H5v1h1z"></path><path d="M5 12v-1H3v1h1zm8-2h1v1h-1zm3 0h-1v1h2v-1z"></path><path d="M14 11h1v1h-1zm4 0h-1v1h2v-1z"></path><path d="M20 10h-1v1h2v-1z"></path><path d="M22 11h-1v1h2v-1z"></path><path d="M23 10v1h2v-1h-1z"></path><path d="M25 11v1h2v-1h-1z"></path><path d="M27 10v1h2v-1h-1z"></path><path d="M29 11v1h2v-1h-1zm1-2h-1v1h2V9z"></path><path d="M31 8h1v1h-1zm0 2h1v1h-1zM2 8h1v1H2zm0 2h1v1H2zm29 2h1v1h-1zm0 2h1v1h-1z"></path><path d="M29 13v1h2v-1h-1z"></path><path d="M27 12v1h2v-1h-1z"></path><path d="M25 13v1h2v-1h-1z"></path><path d="M24 12h-1v1h2v-1z"></path><path d="M22 13h-1v1h2v-1zm7 2v1h2v-1h-1z"></path><path d="M26 15h-1v1h2v-1zm5 1h1v1h-1zm0 2h1v1h-1zm0 2h1v1h-1z"></path><path d="M29 19v1h2v-1h-1zm0-2v1h2v-1h-1z"></path><path d="M27 16v1h2v-1h-1zm0-2v1h2v-1h-1zm-3 0h-1v1h2v-1zm-4-2h-1v1h2v-1zm8 6h-1v1h2v-1z"></path><path d="M26 17h-1v1h2v-1z"></path><path d="M24 16h-1v1h2v-1z"></path><path d="M22 15h-1v1h2v-1z"></path><path d="M20 14h-1v1h2v-1z"></path><path d="M18 13h-1v1h2v-1z"></path><path d="M16 12h-1v1h2v-1zm-5 1h1v1h-1z"></path><path d="M9 12v1h2v-1h-1z"></path><path d="M7 13v1h2v-1H8zm-2 1v-1H3v1h1z"></path><path d="M5 12v1h2v-1H6zm0 2v1h2v-1H6zm-3 0h1v1H2z"></path><path d="M3 15v1h2v-1H4z"></path><path d="M2 16h1v1H2zm0-4h1v1H2zM12 2h1v1h-1zm2 0h1v1h-1zm2 0h1v1h-1zm2 0h1v1h-1zm2 0h1v1h-1z"></path></g></svg></g>"&gt;<svg x="11" y="33"><g><g class="gotchi-sleeves gotchi-sleeves-left gotchi-sleeves-up"><path d="M38 10h1V9h1V8h1V7h1V0h-1v1h-2v1h-1v8z" fill="#0064b4"></path><path d="M38 9h1V8h1V2h-1v1h-1m3 2h1v1h-1zm0-2h1v1h-1zm0-2h1v1h-1z" fill="#0af"></path><defs></defs></g><g class="gotchi-sleeves gotchi-sleeves-left gotchi-sleeves-down"><path d="M38 8h1v1h2v1h1V3h-1V2h-1V1h-1V0h-1v8z" fill="#0064b4"></path><path d="M38 7h1v1h1V2h-1V1h-1m3 3h1v1h-1zm0 2h1v1h-1zm0 2h1v1h-1z" fill="#0af"></path><defs></defs></g><g class="gotchi-sleeves gotchi-sleeves-right gotchi-sleeves-up"><path d="M4 2H3V1H1V0H0v7h1v1h1v1h1v1h1V2z" fill="#0064b4"></path><g fill="#0af"><path d="M4 3H3V2H2v6h1v1h1M0 5h1v1H0z"></path><path d="M0 3h1v1H0zm0-2h1v1H0z"></path></g><defs></defs></g><g class="gotchi-sleeves gotchi-sleeves-right gotchi-sleeves-down"><path d="M4 0H3v1H2v1H1v1H0v7h1V9h2V8h1V0z" fill="#0064b4"></path><path d="M4 1H3v1H2v6h1V7h1M0 4h1v1H0zm0 2h1v1H0zm0 2h1v1H0z" fill="#0af"></path><defs></defs></g></g></svg><g class="gotchi-wearable wearable-hand wearable-hand-left"><svg x="7" y="24"><path d="M6 3V2H5V1H4V0H3v1H2v1H1v1H0v2h1v1h1v1h1v24h1V7h1V6h1V5h1V3z" fill="#64438e"></path><path d="M1 3h5v2H1z" fill="#c260ff"></path><path d="M2 2h3v4H2z" fill="#dea8ff"></path><path d="M3,1v6h1V1H3z" fill="#edd3fd"></path></svg></g><g class="gotchi-wearable wearable-hand wearable-hand-right"><svg x="5" y="28"><g transform="scale(-1, 1) translate(-54, 0)"><g fill="#ffc03c"><path d="M3 6H2v15h2V6z"></path><path d="M5 2V1H4V0H2v1H1v1H0v2h1v1h1v1h2V5h1V4h1V2z"></path></g><path d="M4 1H1v4h4V1z" fill="#ffeabe"></path><path d="M1 1h1v1H1zm3 0h1v1H4zM1 4h1v1H1zm3 0h1v1H4zM3 20h1v1H3z" fill="#ffd781"></path><path d="M3 2H2v2h2V2z" fill="#5f0087"></path><path d="M3 2H2v1h2V2z" fill="#8237a1"></path><path d="M3 6H2v14h2V6z" fill="#400"></path><path d="M3 6v14h1V6z" fill="#5c2121"></path></g></svg></g><g class="gotchi-wearable wearable-pet"><svg x="42" y="43"><path d="M19 2V1h-1V0h-5v1h-1v1H8V1H7V0H2v1H1v1H0v2h1v1h1v1H1v3h1v1h1v1H2v1H1v2h1v1H1v2h4v1h3v-1h1v-1h2v1h1v1h3v-1h4v-2h-1v-1h1v-2h-1v-1h-1v-1h1V9h1V6h-1V5h1V4h1V2z"></path><path d="M18 3h-1v1h-3V3h-2v1h1v1h5V4h1V3zM6 3v1H3V3H1v1h1v1h5V4h1V3H7z" fill="#fff"></path><g fill="#9b00dc"><path d="M17 1h-4v1h5V1zm-7 4h2V4h-1V3H9v1H8v1h1zM4 2h3V1H2v1h1zm5 11v2h2v-2h-1z"></path><path d="M16 12v-2H4v2H2v2h2v1H2v1h3v-3h1v3H5v1h3v-4h1v-1h2v1h1v4h3v-1h-1v-3h1v3h3v-1h-2v-1h2v-2h-1z"></path></g><path d="M17 6H2v3h16V6h-1zm0 2H3V7h14v1z" fill="#faaff3"></path></svg></g></svg></svg>