<svg xmlns="http://www.w3.org/2000/svg" viewBox="0 0 64 64"><style>.gotchi-primary{fill:#B6509E;}.gotchi-secondary{fill:#CFEEF4;}.gotchi-cheek{fill:#F696C6;}.gotchi-eyeColor{fill:#EA8C27;}.gotchi-primary-mouth{fill:#B6509E;}.gotchi-sleeves-up{display:none;}.gotchi-handsUp{display:none;}.gotchi-handsDownOpen{display:block;}.gotchi-handsDownClosed{display:none;}
.gotchi-bg {
    display:none;
  }




svg {
  
  animation-duration:0.5s;
  animation-iteration-count: infinite;
  animation-timing-function: linear;
  animation-timing-function: steps(1);
}

.gotchi-shadow {
  
   
   animation-duration:0.5s;
   animation-iteration-count: infinite;
   animation-timing-function: linear;
   animation-timing-function: steps(2);
}

.gotchi-wearable {
  
  animation-duration:0.5s;
  animation-iteration-count: infinite;
  animation-timing-function: linear;
  animation-timing-function: steps(1);
}



.gotchi-handsDownClosed, .gotchi-handsUp, .gotchi-handsDownOpen, .gotchi-handsDownClosed, .gotchi-body, .gotchi-eyeColor, .gotchi-collateral, .gotchi-cheek, .gotchi-primary-mouth, .gotchi-wearable, .gotchi-sleeves   {
   
   animation-duration:0.5s;
   animation-iteration-count: infinite;
   animation-timing-function: linear;
   animation-timing-function: steps(2);
}

.wearable-hand {
  
  animation-duration:0.5s;
  animation-iteration-count: infinite;
  animation-timing-function: linear;
  animation-timing-function: steps(2);
}

@keyframes downHands {
  from {
    transform: translate(0px, -4px);
  }
 to {
    transform: translate(0px, -3px);
  }
}


@keyframes up {
  from {
    transform: translate(0px, 0);
  }
 to {
    transform: translate(0px, -1px);
  }
}


@keyframes down {
 from {
   transform: translate(0px, 0);
    }
 to {
      transform: translate(0px, 1px);
    }
}
</style><g class="gotchi-bg"><defs fill="#fff"><pattern id="a" patternUnits="userSpaceOnUse" width="4" height="4"><path d="M0 0h1v1H0zm2 2h1v1H2z"/></pattern><pattern id="b" patternUnits="userSpaceOnUse" x="0" y="0" width="2" height="2"><path d="M0 0h1v1H0z"/></pattern><pattern id="c" patternUnits="userSpaceOnUse" x="-2" y="0" width="8" height="1"><path d="M0 0h1v1H0zm2 0h1v1H2zm2 0h1v1H4z"/></pattern><pattern id="d" patternUnits="userSpaceOnUse" x="0" y="0" width="4" height="4"><path d="M0 0h1v1H0zm0 2h1v1H0zm1 0V1h1v1zm1 0h1v1H2zm0-1h1V0H2zm1 2h1v1H3z"/></pattern><pattern id="e" patternUnits="userSpaceOnUse" width="64" height="32"><path d="M4 4h1v1H4zm7 0h1v1h-1zm7 0h1v1h-1zm7 0h1v1h-1zm7 0h1v1h-1zm7 0h1v1h-1zm7 0h1v1h-1zm7 0h1v1h-1zm7 0h1v1h-1z"/><path fill="url(#a)" d="M0 8h64v7H0z"/><path fill="url(#b)" d="M0 16h64v1H0z"/><path fill="url(#c)" d="M0 18h64v1H0z"/><path fill="url(#b)" d="M22 18h15v1H22zM0 20h64v3H0z"/><path fill="url(#d)" d="M0 24h64v8H0z"/></pattern><mask id="f"><path fill="url(#e)" d="M0 0h64v32H0z"/></mask></defs><path fill="#fff" d="M0 0h64v32H0z"/><path fill="#dea8ff" class="gotchi-secondary" mask="url(#f)" d="M0 0h64v32H0z"/><path fill="#dea8ff" class="gotchi-secondary" d="M0 32h64v32H0z"/><path mask="url(#f)" fill="#fff" transform="matrix(1 0 0 -1 0 64)" d="M0 0h64v32H0z"/></g><g class="gotchi-body"><g class="gotchi-primary"><path d="M21 12h2v-2h-4v2h1z"/><path d="M19 14v-2h-2v2h1zm6-4h2V8h-4v2h1z"/><path d="M29 8h8V6H27v2h1zm16 6h2v-2h-2v1z"/><path d="M48 14h-1v39h-2v2h4V14zm-11-4h4V8h-4v1z"/><path d="M41 12h4v-2h-4v1zM17 53V14h-2v41h4v-2h-1z"/><path d="M24 51h-5v2h5v-1z"/><path d="M27 53h-3v2h5v-2h-1zm18-2h-5v2h5v-1z"/><path d="M35 51h-6v2h6v-1z"/><path d="M38 53h-3v2h5v-2h-1z"/></g><g class="gotchi-secondary"><path d="M18 43v6h2v-1h2v1h2v2h-5v2h-2V14h2v1h-1v26z"/><path d="M27 51h-3v2h5v-2h-1zm11 0h-3v2h5v-2h-1z"/><path d="M35 49h-2v-1h-2v1h-2v2h6v-1zM25 11h2v-1h-4v1h1zm-4 2h2v-1h-4v1h1zm24 31v5h-1v-1h-2v1h-2v2h5v2h2V14h-2v29z"/><path d="M37 8H27v1h5v1h5V9zm8 4h-4v2h4v-1z"/><path d="M41 10h-4v2h4v-1z"/></g><path d="M44 14h-3v-2h-4v-2h-5V9h-5v2h-4v2h-4v2h-1v34h2v-1h2v1h2v2h5v-2h2v-1h2v1h2v2h5v-2h2v-1h2v1h1V14z" fill="#fff"/></g><path class="gotchi-cheek" d="M21 32v2h2v-2h-1zm21 0h-1v2h2v-2z"/><g class="gotchi-primary-mouth"><path d="M29 32h-2v2h2v-1z"/><path d="M33 34h-4v2h6v-2h-1z"/><path d="M36 32h-1v2h2v-2z"/></g><g class="gotchi-shadow"><path opacity=".25" d="M25 58H19v1h1v1h24V59h1V58h-1z" fill="#000"/></g><g class="gotchi-eyeColor"><g><path d="M25 24h-1v1h1v-1z" /><path d="M25 25h-1v1h1v-1z" /></g><g class="gotchi-primary"><path d="M28 27h-1v1h1v-1z" /><path d="M27 27h-1v1h1v-1zm1-5h-1v1h1v-1z" /><path d="M27 22h-1v1h1v-1zm-4 0h-1v1h1v-1z" /><path d="M24 22h-1v1h1v-1z" /></g><g><path d="M26 24h-1v1h1v-1z" /><path d="M26 25h-1v1h1v-1z" /></g><g class="gotchi-primary"><path d="M23 27h-1v1h1v-1z" /><path d="M24 27h-1v1h1v-1z" /></g><path d="M39 25h-1v1h1v-1z" /><g class="gotchi-primary"><path d="M38 27h-1v1h1v-1z" /><path d="M37 27h-1v1h1v-1zm4 0h-1v1h1v-1z" /><path d="M42 27h-1v1h1v-1z" /></g><path d="M38 24h1v1h-1" /><g class="gotchi-primary"><path d="M38 22h-1v1h1v-1z" /><path d="M37 22h-1v1h1v-1zm4 0h-1v1h1v-1z" /><path d="M42 22h-1v1h1v-1z" /></g><g><path d="M40 25h-1v1h1v-1z" /><path d="M40 24h-1v1h1v-1z" /></g></g><g class="gotchi-collateral" fill="#a73796"><path d="M30.5 15h1v-2h-1z"/><path d="M31.5 12h1v1h-1z"/><path d="M33.5 13h-1v2h1zm-4 3h-2v1h1v2h1v-2h2v-1h-1v-1h-1z"/><path d="M34.5 15h-1v2h1z"/><path d="M35.5 17h-1v2h1zm-8 4h1v-2h-1z"/><path d="M35.5 19v2h1v-2z"/></g><g class="gotchi-wearable wearable-body"><svg x="12" y="32"><path d="M35 1v1h-2v1h-2v1h-2v1h-2v1h-2v1H15V6h-2V5h-2V4H9V3H7V2H5V1H3v22h4v-2h5v2h5v-2h6v2h5v-2h5v2h4V1z" fill="#092c1b"/><path d="M31 9h1v1h-1V9zm-2 0h1v1h-1V9z" fill="#fff"/><path d="M28,14h1v1h-1V14z" fill="#e15667"/><path d="M27,14h1v1h-1V14z" fill="#fed11f"/><path d="M30,14h1v1h-1V14z" fill="#4b6329"/><path d="M32,14h1v1h-1V14z" fill="#f55549"/><path d="M32,12h1v1h-1V12z" fill="#698bd9"/><path d="M32,13h1v1h-1V13z" fill="#e2e5f3"/><path d="M30,13h1v1h-1V13z" fill="#45322f"/><path d="M29,14h1v1h-1V14z" fill="#474981"/><path d="M31,14h1v1h-1V14z" fill="#756638"/><path d="M18,7v1h1v2h2V8h1V7H18z" fill="#222423"/><path d="M31,13h1v1h-1V13z" fill="#d9c6b2"/><g fill="#c2cbc7"><path d="M22,6v2h-1v2h1V9h1V7h2V6H22z"/><path d="M25 5v1h2V5h-2zM13 5v1h2V5h-2z"/><path d="M18,6h-3v1h2v2h1v1h1V8h-1V6z"/></g><path d="M28,12h1v1h-1V12z" fill="#76946f"/><path d="M29,12h1v1h-1V12z" fill="#cad4e4"/><path d="M30,16h1v1h-1V16z" fill="#fafefd"/><path d="M33,13h1v1h-1V13z" fill="#556592"/><path d="M33,14h1v1h-1V14z" fill="#4770bb"/><g fill="#6f4017"><path d="M9,7h1v1H9V7z"/><path d="M10 8v1h1v3h1V8h-2zm-1 5h1v1H9v-1zm23-4h1v1h-1V9zm-2 0h1v1h-1V9zm-2 0h1v1h-1V9zM8 9h1V8H7v4h1V9z"/><path d="M10 12h1v1h-1v-1zm-2 0h1v1H8v-1z"/></g><path d="M30,12h1v1h-1V12z" fill="#5666bc"/><path d="M29,13h1v1h-1V13z" fill="#f6d435"/><path d="M28,13h1v1h-1V13z" fill="#e6bf8f"/><path d="M7 15v1h5v-1H7zm6-8h1v1h-1V7zm18 5h1v1h-1v-1z" fill="#c23e3f"/><path d="M27,13h1v1h-1V13z" fill="#f75457"/><g fill="#f8af4e"><path d="M10 8H9v1H8v3h1v1h1v-1h1V9h-1V8zm18 2v1h5v-1h-5zm5-1V8h-5v1h5z"/><path d="M27 9h1v1h-1V9zm-1-2h1v1h-1V7zm-6 11h1v1h-1v-1zm0-2h1v1h-1v-1zm13-7h1v1h-1V9z"/></g><g fill="#ddd9d6"><path d="M30,15h1v1h-1V15z"/><path d="M31 17h-1v-1h-1v2h3v-2h-1v1z"/></g><g fill="#283d2e"><path d="M17,13h-1v-1h-1v-1h-1v-1h-2v2h-1v1h-1v1h2v5H7v-5h2v-1H8v-1H7V8h2V7H7V6H5V3H4v17h15v-5h-1v-1h-1V13z"/><path d="M18 9h-1V7h-2V6h-2V5h-2V4H9V3H7V2H5v1h1v2h1v1h2v1h1v1h2v1h2v1h1v1h1v1h1v1h1v1h1v-4h-1V9zm-5-1V7h1v1h-1z"/><path d="M4 1h1v1H4V1zm29 1v1h-2v1h-2v1h-2v1h-2v1h-2v2h-1v1h-2v5h1v-1h1v-1h1v-1h1v-1h1v-1h2V9h1V8h1V7h2V6h2V5h1V3h1V2h-2zm-7 6V7h1v1h-1z"/><path d="M35 1h1v1h-1V1zm0 5h-2v1h-2v1h2v1h1v1h-1v1h-5v-1h-1v1h-2v1h-1v1h-1v1h-1v1h-1v2h-1v1h1v1h-1v1h16V3h-1v3zm-8 13v-6h1v-1h5v1h1v6h-7z"/></g></svg></g><g class="gotchi-handsDownClosed"><g class="gotchi-primary"><path d="M19 42h1v1h-1zm1-6h1v1h-1z"/><path d="M21 37h1v1h-1zm5 3v4h1v-4zm-5 3h-1v1h2v-1z"/><path d="M24 44h-2v1h4v-1h-1zm1-5h-1v1h2v-1z"/><path d="M23 38h-1v1h2v-1z"/></g><g class="gotchi-secondary"><path d="M19 43h1v1h-1zm5 2h-2v1h4v-1h-1z"/><path d="M27 41v3h1v-3zm-6 3h-1v1h2v-1z"/><path d="M26 44h1v1h-1zm-7-3h-1v2h1v-1z"/></g><g class="gotchi-primary"><path d="M44 42h1v1h-1zm-1-6h1v1h-1z"/><path d="M42 37h1v1h-1z"/><path d="M42 39v-1h-2v1h1zm0 4v1h2v-1h-1z"/><path d="M40 44h-2v1h4v-1h-1z"/><path d="M38 42v-2h-1v4h1v-1z"/><path d="M40 40v-1h-2v1h1z"/></g><g class="gotchi-secondary"><path d="M42 44v1h2v-1h-1zm-5-2v-1h-1v3h1v-1z"/><path d="M40 45h-2v1h4v-1h-1z"/><path d="M37 44h1v1h-1zm7-1h1v1h-1z"/></g></g><g class="gotchi-handsDownOpen"><g class="gotchi-primary"><path d="M14 40h1v1h-1v-1zm-1-6h1v1h-1v-1z"/><path d="M14 33h1v1h-1v-1zm-2 2h1v1h-1v-1zm-5 3h1v4H7v-4zm5 3h2v1h-2v-1z"/><path d="M8 42h4v1H8v-1zm0-5h2v1H8v-1z"/><path d="M10,36h2v1h-2V36z"/></g><g class="gotchi-secondary"><path d="M14,39h1v1h-1V39z"/><path d="M12,40h2v1h-2V40z"/><path d="M8,41h4v1H8V41z"/></g><path d="M8,38v3h4v-1h2v-1h1v-5h-1v1h-1v1h-1v1h-2v1H8z" fill="#fff" /><g class="gotchi-primary"><path d="M49 40h1v1h-1v-1zm1-6h1v1h-1v-1z"/><path d="M49 33h1v1h-1v-1zm2 2h1v1h-1v-1zm5 3h1v4h-1v-4zm-6 3h2v1h-2v-1z"/><path d="M52 42h4v1h-4v-1zm2-5h2v1h-2v-1z"/><path d="M52,36h2v1h-2V36z"/></g><g class="gotchi-secondary"><path d="M49,39h1v1h-1V39z"/><path d="M50,40h2v1h-2V40z"/><path d="M52,41h4v1h-4V41z"/></g><path d="M54,38v-1h-2v-1h-1v-1h-1v-1h-1v5h1v1h2v1h4v-3H54z" fill="#fff" /></g><g class="gotchi-handsUp"><g class="gotchi-secondary"><path d="M50,38h1v1h-1V38z"/><path d="M49 39h1v1h-1v-1zm2-2h1v1h-1v-1z"/><path d="M52,36h2v1h-2V36z"/><path d="M54,35h2v1h-2V35z"/></g><path d="M52,32v1h-2v1h-1v5h1v-1h1v-1h1v-1h2v-1h2v-3H52z" fill="#fff"/><g class="gotchi-primary"><path d="M49,33h1v1h-1V33z"/><path d="M50 32h2v1h-2v-1zm0 7h1v1h-1v-1z"/><path d="M49 40h1v1h-1v-1zm2-2h1v1h-1v-1z"/><path d="M52 37h2v1h-2v-1zm0-6h4v1h-4v-1z"/><path d="M56,32h1v4h-1V32z"/><path d="M54,36h2v1h-2V36z"/></g><g class="gotchi-secondary"><path d="M13,38h1v1h-1V38z"/><path d="M14 39h1v1h-1v-1zm-2-2h1v1h-1v-1z"/><path d="M10,36h2v1h-2V36z"/><path d="M8,35h2v1H8V35z"/></g><path d="M8,32v3h2v1h2v1h1v1h1v1h1v-5h-1v-1h-2v-1H8z" fill="#fff"/><g class="gotchi-primary"><path d="M14,33h1v1h-1V33z"/><path d="M12 32h2v1h-2v-1zm1 7h1v1h-1v-1z"/><path d="M14 40h1v1h-1v-1zm-2-2h1v1h-1v-1z"/><path d="M10 37h2v1h-2v-1zm-2-6h4v1H8v-1z"/><path d="M7,32h1v4H7V32z"/><path d="M8,36h2v1H8V36z"/></g></g><g class="gotchi-wearable wearable-face"><svg x="48" y="25"><path d="M3 2V1H2V0H0v3h2V2z"/><path d="M2 3h1v1H2z"/><path d="M1 4h1v1H1z"/><path d="M2 5h1v1H2z"/><path d="M1 6h1v1H1z"/><path d="M1,1h1v1H1V1z" fill="#f0f"/></svg></g><g class="gotchi-wearable wearable-eyes"><svg x="15" y="22"><path d="M2.1 7.9v-2h-2V2.1h2v-2h29.8v2h2v3.8h-2v2z"/><path d="M31.8.2v2h2v3.5h-2v2.1H2.2v-2h-2V2.2h2v-2h29.6M32 0H2v2H0v4h2v2h30V6h2V2h-2V0z" fill="#c8c8c8"/><path d="M2 2h30v4H2z"/><path d="M26,2v4h2V2H26z" fill="#c260ff"/><g fill="#c8c8c8"><path d="M2,0h30v2H2V0z"/><path d="M0 2h2v4H0V2zm32 0h2v4h-2V2z"/><path d="M2,6h30v2H2V6z"/></g></svg></g><g class="gotchi-wearable wearable-head"><svg x="12" y="1"><path d="M38 10V7h-1V6h-1V5h-1V4h-1V3h-1V2h-1V1h-2V0H13v1h-2v1H9v2H7v2H5v2H3v2H2v2H1v2H0v11h1v1h1v1h1v-2h2v-2h2v-2h2v-2h2v1h24v-1h2v-1h1v-3h1v-5z" fill="#092c1b"/><g fill="#283d2e"><path d="M11 15h2v-2h2v-2h2V9h2V7h2V5h2V3h2V1H13v1h-2v1h-1v1H9v1H8v1H7v1H6v1H5v1H4v1H3v2H2v2H1v11h2v-2h2v-2h2v-2h2v-2h2v-2z"/><path d="M35,19v-1h2v-3h1v-5h-1V7h-1V6h-1V5h-1V4h-1V3h-1V2h-2V1h-3v2h-2v2h-2v2h-2v2h-2v2h-2v2h-2v2h-2v2h-2v2H35z"/></g><path d="M33 9V8h-1V7h-1V6h-4v1h-1v1h-1v1h-1v4h1v1h1v1h1v1h4v-1h1v-1h1v-1h1V9h-1zm-3-1v1h1v1h1v2h-1v1h-1v1h-2v-1h-1v-1h-1v-2h1V9h1V8h2z" fill="#f8af4e"/></svg></g><g class="gotchi-wearable wearable-hand wearable-hand-left"><svg x="0" y="30"><path d="M13 12v-1h-1v-1h-1V9h-1V8H9V7H8V6H7V5H6V4h1V3h3V2h1V1h-1V0H5v1H4v1H2v2H1v1H0v5h1v1h1v-1h1V7h1V6h1v1h1v1h1v1h1v1h1v1h1v1h1v1h1v1h2v-2z" fill="#281d0a"/><path d="M12 12h1v1h-1v-1zm-2-2h1v1h-1v-1zM8 8h1v1H8V8zM6 6h1v1H6V6z" fill="#876526"/><path d="M4,4h1v1H4V4z" fill="#868686"/><g fill="#483514"><path d="M13,12h1v1h-1V12z"/><path d="M12 11h1v1h-1v-1zm-2-2h1v1h-1V9zM8 7h1v1H8V7zM6 5h1v1H6V5z"/><path d="M11 10h1v1h-1v-1zM9 8h1v1H9V8zM7 6h1v1H7V6zM5 4h1v1H5V4z"/></g><g fill="#281d0a"><path d="M12,13h1v1h-1V13z"/><path d="M11 12h1v1h-1v-1zm-2-2h1v1H9v-1zM7 8h1v1H7V8zM5 6h1v1H5V6z"/><path d="M10 11h1v1h-1v-1zM8 9h1v1H8V9zM6 7h1v1H6V7zM4 5h1v1H4V5z"/></g><path d="M13 13h1v1h-1v-1zm-2-2h1v1h-1v-1zM9 9h1v1H9V9zM7 7h1v1H7V7zM5 5h1v1H5V5z" fill="#644c1e"/><g fill="#c8c8c8"><path d="M5,2v1H4v1h2V3h1V2H5z"/><path d="M3,5H2v2h1V6h1V4H3V5z"/></g><g fill="#3c3c3c"><path d="M3,2h1v1H3V2z"/><path d="M2 3h1v1H2V3zm2-2h1v1H4V1z"/><path d="M1,4h1v1H1V4z"/><path d="M0 10h1V5H0v5z"/><path d="M1,10h1v1H1V10z"/><path d="M3,7H2v3h1V7z"/><path d="M3 6h1v1H3V6zm2-6v1h5V0H5z"/><path d="M10,1h1v1h-1V1z"/><path d="M7,2v1h3V2H7z"/><path d="M6,3h1v1H6V3z"/></g><g fill="#eaeaea"><path d="M3,3h1v1H3V3z"/><path d="M4 2h1v1H4V2zM2 4h1v1H2V4z"/><path d="M1 10h1V5H1v5zm4-9v1h5V1H5z"/></g><path d="M2,2h1v1H2V2z" fill="#868686"/></svg></g><g class="gotchi-wearable wearable-hand wearable-hand-right"><svg x="3" y="31"><g transform="scale(-1, 1) translate(-58, 0)"><path d="M6 4V0H5v4H1v2H0v2h1v7h6V4z"/><path d="M2,6v1h4V6H2z" fill="#5a5a5a"/><path d="M2,7v1h4V7H2z" fill="#464646"/><path d="M2,5v1h4V5H2z" fill="#6e6e6e"/><path d="M2 8h4v6H2z" fill="#323232"/><g fill="#1e1e1e"><path d="M5 9h1v1H5V9zm0 2h1v1H5v-1z"/><path d="M4 8h1v1H4V8zm0 2h1v1H4v-1zM2 8h1v1H2V8zm0 2h1v1H2v-1zm2 2h1v1H4v-1zm-2 0h1v1H2v-1z"/><path d="M5 13h1v1H5v-1zM3 9h1v1H3V9zm0 2h1v1H3v-1zm0 2h1v1H3v-1z"/></g></g></svg></g></svg>